<?xml version="1.0" encoding="utf-8"?>

<!DOCTYPE svg PUBLIC "-//W3C//DTD SVG 1.1//EN" "http://www.w3.org/Graphics/SVG/1.1/DTD/svg11.dtd">
<svg version="1.1" id="Layer_1" xmlns="http://www.w3.org/2000/svg" xmlns:xlink="http://www.w3.org/1999/xlink" x="0px" y="0px"
	 viewBox="0 0 2125.553 1658.501" enable-background="new 0 0 2125.553 1658.501" xml:space="preserve">
<g>
	<path fill="none" d="M586.582,1628.485h-11.084c1.463,0.384,2.928,0.765,4.846,0.765
		C582.661,1629.25,584.703,1628.99,586.582,1628.485z"/>
	<polygon fill="none" points="451.711,1628.628 468.921,1628.485 451.709,1628.485 	"/>
	<path fill="#D20000" d="M1260.082,663.861l509.666-351.045c-6.656-5.332-12.281-7.165-20.678-11.363
		c-5.212-2.607-9.652-2.221-13.513-6.564c-1.448-1.642-2.8-2.414-4.634-3.475c-3.764-2.316-4.537-5.309-7.721-8.494
		c-7.915-7.915-13.9-11.197-24.324-15.057c-5.984-2.222-8.109-6.371-14.286-8.109c-6.37-1.834-8.301-7.722-13.513-11.583
		c-3.573-7.143-2.801-12.26-5.405-19.692c-1.545-4.537-5.405-6.468-5.405-11.294v-8.301c0-7.239-2.993-13.03-9.653-15.925
		c-7.626-3.379-13.706-4.731-17.761-11.97c-7.626-13.706-7.335-24.324-17.76-36.293c-11.488-13.128-20.561-19.595-26.255-35.908
		c-0.87-2.607-2.607-3.668-3.861-6.178c-2.51-5.116-2.414-9.171-6.177-13.513c-4.247-4.924-9.146-5.331-15.611-5.331
		c-3.668,0.29-5.818,2.242-9.487,2.242c-6.756,0-10.327-3.764-15.444-8.108c-9.266-8.011-14.188-13.9-25.483-18.533
		c-8.589-3.571-14.38-5.694-20.077-13.128c-5.694-7.432-7.624-16.216-16.988-16.988c-1.447,4.344-4.342,5.792-6.564,9.652
		c-2.896,5.02-5.599,7.434-10.425,10.812c-1.931,1.351-2.412,3.281-4.633,4.247c-4.729,2.028-7.239,4.538-12.355,5.405
		c-5.791,0.965-13.514,0.87-13.514,6.756c0,10.618,13.9,12.935,13.9,23.552c0,4.924-2.026,10.618-6.95,10.618
		c-7.045,0-6.564-11.969-13.609-11.969h-11.39c-5.695,0-7.046-5.599-10.522-10.038c-1.93-2.412-4.633-2.317-7.721-2.317
		c-7.144,0-8.976,7.336-15.831,9.267c-4.536,1.255-7.335,0.965-11.968,1.544c-5.02,0.677-7.722,2.703-12.838,2.703h-9.846
		c-11.197,0-17.472-3.088-28.669-3.088c-6.08,0-9.555,1.158-15.637,1.158c-10.038,0-13.513-8.301-20.656-15.444
		c-6.177-6.178-10.906-8.204-18.532-12.355c-5.019-2.702-6.95-5.694-11.583-9.266c-3.476-2.703-6.37-3.089-10.039-5.406
		c-5.828-3.652-9.97-6.676-15.846-7.716l-125.08,536.059C1161.372,581.834,1219.526,615.251,1260.082,663.861z"/>
	<path fill="#D20000" d="M832.523,713.47L270.255,432.336c0.269,3.586,0.822,6.406,0.822,10.717v16.41
		c0,2.607,1.351,3.958,1.931,6.469c2.316,9.652,2.799,14.768,4.247,24.71c-2.026,12.549-2.992,20.945-11.583,30.116
		c-6.08,6.564-7.625,12.065-14.286,18.147c-4.633,4.247-6.853,9.266-13.127,9.266c-10.425,0-14.286-10.424-24.711-10.424
		c-4.922,0-6.659,4.054-11.197,5.792c-11.679,4.536-17.568,11.583-30.116,11.583c-5.501,0-7.143-5.309-10.038-10.038
		c-2.896-4.73-6.332-7.334-11.254-9.748v-0.001c-8.398,1.352-13.456,5.307-18.861,11.677c-4.439,5.213-8.494,8.592-8.494,15.445
		c0,6.756,2.316,10.522,2.316,17.278v20.656c0,3.862-0.483,5.792,0.386,9.556c0.482,6.274,2.703,9.556,2.703,15.83
		c0,4.439-5.019,5.019-8.495,7.721c-3.765,2.896-6.756,3.187-10.811,5.406c-4.633,2.607-3.572,7.626-5.019,12.741
		c-4.152,14.672-8.301,23.263-13.128,37.838c-0.87,4.151-2.702,6.37-2.702,10.617c0,2.994,2.123,4.345,3.088,7.144
		c3.185,8.494,8.109,12.934,8.109,22.008c0,1.1-0.113,2.054-0.29,2.954l706.93,70.693
		C809.825,771.016,818.806,740.852,832.523,713.47z"/>
	<path fill="#D20000" d="M1029.705,573.422L925.067,124.972c-1.788,0.228-3.566,0.47-5.727,1.191
		c-9.073,2.992-13.61,8.495-23.167,8.495c-3.281,0-4.633-2.607-7.721-3.475c-8.88-2.509-16.119-2.702-21.621-10.038
		c-6.564-8.784-11.39-17.375-22.394-17.375c-1.545,0-1.738,1.641-3.089,2.317c-2.991,1.64-5.212,2.316-8.687,2.316
		c-5.501,0-8.59-1.158-14.093-1.158c-3.377,0-8.494-0.87-8.494,2.51c0,2.702,2.027,3.861,3.474,5.984
		c2.317,3.378,3.379,5.502,5.792,8.881c2.607,3.763,6.468,4.44,8.494,8.494c2.51,4.922,0.677,8.783,1.545,14.286
		c0.483,3.571,1.545,5.598,1.545,9.266c0,4.247-1.931,8.88-6.178,8.88c-4.827,0-6.853-3.186-10.811-5.791
		c-8.396-5.599-13.03-10.329-23.166-11.583l-10.811,3.475c-7.53,12.934-10.811,22.296-20.078,33.977
		c-5.405,6.756-8.687,10.521-14.285,16.988c-3.957,4.536-7.144,6.95-8.881,12.742c-1.544,5.308-4.536,7.722-5.405,13.128
		c-1.545,9.073-0.095,15.251-4.247,23.552c-1.351,2.702-3.282,3.763-5.019,6.178c-3.475,4.633-3.378,8.589-4.248,14.285
		c-0.482,3.668-1.93,5.888-1.93,9.652c0,11.873,12.741,15.926,12.741,27.799c0,4.248-5.887,3.862-10.038,4.634
		c-6.08,1.159-9.169,3.282-14.671,6.178c-8.59,4.536-14.672,5.019-24.325,5.019c-8.88,0-15.83-0.291-21.621-6.95
		c-5.694-6.564-7.431-12.453-7.722-21.235c-0.386-11.969-0.868-18.727-3.475-30.502c-1.159-5.31-0.868-8.591-3.089-13.513
		c-2.605-5.89-5.887-8.592-10.424-13.129c-2.799-2.799-4.054-5.309-7.722-6.949c-7.817-3.572-12.741-5.405-19.691-10.811
		c-4.247-3.282-4.536-7.047-6.564-11.969c-0.868-2.317-2.605-3.089-3.474-5.405c-0.482-1.351,0-2.703-0.772-3.862
		c-5.02-6.949-10.714-10.811-19.305-10.811c-7.624,0-11.197,4.44-18.533,6.564c-13.995,4.054-21.815,7.818-32.818,17.375
		c-9.17,8.011-16.698,8.59-27.799,13.514c-6.08,2.702-8.495,6.563-15.058,8.108c-4.247,0.966-7.721,1.641-11.196,4.247
		c-4.151,2.703-7.046,4.634-12.065,4.634h-7.915c-8.206,0-12.162,5.115-20.175,6.564c-22.78,4.247-34.265,15.444-49.034,33.591
		c-5.985,7.336-8.881,11.583-14.671,18.918c-3.285,4.13-6.419,7.075-10.031,9.388l508.61,350.318
		C905.58,615.251,963.734,581.834,1029.705,573.422z"/>
	<path fill="#D20000" d="M1292.583,943.5l580.953,290.476l3.751-29.26c-0.29-4.633-0.033-7.029-0.033-11.662
		c0-5.696-2.703-8.687-2.703-14.384c0-3.088,2.51-4.247,3.861-6.949c1.738-3.475,1.931-6.08,1.931-10.039
		c0-6.08-1.545-9.555-1.545-15.637c0-4.728,2.897-6.852,5.792-10.617c3.861-5.019,5.309-8.59,10.039-12.742
		c4.053-3.571,7.046-5.308,10.424-9.652c3.186-4.151,4.827-8.881,10.039-8.881c2.028,0,2.8,2.028,4.633,2.703
		c6.469,2.607,10.137,5.405,17.182,5.405c21.526,0,33.591-3.089,55.019-5.019c6.275,0.097,9.846,0.386,16.121,0.386
		c2.702,0,4.728,0.579,7.431,0.772c3.862-3.862,6.178-5.984,9.267-10.425c1.543-2.222,4.053-2.317,5.404-4.633
		c7.627-12.839,11.198-21.526,11.198-36.391v-9.555c-6.08-6.082-8.108-11.488-8.108-19.884c0-2.8,2.51-3.765,3.474-6.371
		c2.703-7.047,2.607-11.873,5.406-18.919c0.965-2.607,3.474-3.667,3.474-6.564c0-8.785-0.289-13.899-2.703-22.394
		c-1.06-3.667-3.956-4.633-6.178-7.722c-3.57-5.019-4.247-8.88-4.633-15.057l4.633-22.394c-0.192-0.789-0.403-1.532-0.621-2.253
		l-717.662-71.766C1315.281,885.955,1306.301,916.119,1292.583,943.5z"/>
	<path fill="#D20000" d="M598.491,1620.757c4.44-4.44,5.501-8.495,10.811-11.584c10.811-6.273,18.147-10.038,30.695-10.038
		c8.397,0,12.451,3.766,20.27,6.95c4.633,1.835,6.467,5.019,8.494,9.652c1.255,2.993,1.738,6.95,5.019,6.95
		c7.916,0,11.872-4.149,19.787-4.149c8.206,0,12.84-0.097,21.043-0.097c9.557,0,14.672-3.668,24.036-5.405
		c9.267-1.737,15.251-2.703,22.781-8.495c9.652-7.431,11.968-14.96,21.621-22.394c5.984-4.633,8.396-8.396,13.899-13.514
		c2.22-2.025,2.703-5.405,5.792-5.405c4.536,0,6.371,3.187,10.811,4.248c15.059,3.765,23.649,6.563,39.092,6.563h12.935
		c4.633,0,7.046,1.159,11.679,1.545c4.729,0.386,7.915-0.482,11.969,1.931c6.564,3.861,6.853,9.846,11.583,15.83
		c2.746,3.432,5.324,5.508,8.193,7.514l120.705-517.308c-65.971-8.412-124.125-41.828-164.681-90.439l-645.563,444.648
		l35.208,130.596c12.645,6.275,21.717,6.553,35.713,8.002c4.827,0.482,7.529,1.545,12.355,1.545
		c11.678,0,17.375-6.564,26.254-14.286c7.239-6.274,10.618-13.899,20.173-13.899c4.44,0,6.95-0.194,11.39-0.194
		c6.082,0,8.687,3.957,13.611,7.529c1.64,1.158,3.281,0.482,5.405,0.772c5.308,0.869,7.915,3.572,13.223,3.572
		c12.839,0,20.174-0.096,33.012-0.096c4.633,0,4.924,5.502,8.591,8.108c7.336,5.308,9.858,11.053,16.615,17.037l0.697,42.042h17.212
		l93.816-0.778c3.282,0,4.575-0.002,7.856-0.002c1.943,0,3.422,0.391,4.904,0.78h11.084
		C591.038,1627.289,594.552,1624.695,598.491,1620.757z"/>
	<path fill="#D20000" d="M806.675,854.073L47.292,930.011c0.389,0.699,0.735,1.446,1.006,2.327c0.772,2.414-0.291,4.538,1.159,6.565
		c3.763,5.019,8.975,4.247,13.899,8.108c3.861,3.089,3.957,6.855,5.405,11.583c1.737,5.792,4.248,8.88,4.248,14.962v20.27
		c0,4.729,5.019,5.888,9.266,8.01c1.737,0.871,1.931,2.317,3.474,3.475c6.178,4.73,10.713,5.405,17.375,9.267
		c10.812,6.274,16.602,14.961,16.602,27.413c0,4.923-2.51,7.529-4.633,11.969c-4.44,9.266-4.73,15.347-8.88,24.71
		c-4.44,10.039-8.592,14.865-15.831,23.166c-2.895,3.379-4.633,5.504-8.494,7.722c-2.896-4.922-5.889-7.045-10.424-10.425
		c-1.256,7.819-4.248,11.487-6.95,18.919c3.957,1.544,2.605,6.177,3.088,10.425c1.061,9.652,0.966,15.347,4.634,24.324
		c1.93,4.73,1.833,8.012,3.861,12.741c3.668,8.398,5.019,14.479,5.019,23.552v16.313c0,13.223,7.625,19.401,10.038,32.336
		c2.412,13.031,6.853,20.754,16.217,30.115c9.653,9.656,12.813,17.953,19.835,28.299L832.523,943.5
		C818.806,916.119,809.825,885.955,806.675,854.073z"/>
	<path fill="#D20000" d="M1095.401,1083.549l84.022,360.093c1.376-2.089,2.318-4.211,4.781-5.897
		c4.633-3.185,8.495-3.861,11.583-8.494c0.772-1.254,2.317-1.64,2.317-3.185v-12.548c0-11.874,1.351-18.533,3.474-30.213
		c0.289-2.027,2.124-2.703,3.476-4.247c4.728-5.116,6.852-8.784,12.354-13.129c5.502-4.342,9.267-6.177,14.286-11.196
		c10.134-10.135,16.505-19.692,30.695-19.692c6.274,0,9.846,1.159,16.119,1.159h9.943c5.502-7.432,10.521-10.521,18.147-15.83
		c5.694-3.957,9.169-8.109,16.216-8.109c3.763,0,5.694,3.186,7.336,6.564c1.737,3.474,3.475,5.405,5.792,8.494
		c2.991,3.861,7.336,2.124,11.969,3.475c4.728,1.351,7.721,1.737,11.969,4.247c6.273,3.766,8.204,10.425,15.444,10.425
		c2.606,0,3.861-1.833,5.791-3.474c5.405-4.633,5.694-9.653,9.266-15.831c4.15-7.143,8.881-10.423,14.286-16.601
		c11.969-4.922,19.015-9.267,32.047-9.267c7.915,0,12.354,2.702,20.27,2.702c6.852,0,9.361-6.563,16.215-6.563
		c13.224,0,17.182,15.057,30.405,15.057h7.916c5.116,0,7.721,3.862,10.521,8.108c4.055,6.082,6.564,9.266,10.039,15.83
		c1.446,2.896,1.931,5.889,5.019,6.95c4.054-7.046,11.197-7.336,19.305-7.722c13.995-0.772,21.91-1.545,35.906-1.545
		c6.178,7.722,12.163,10.329,21.622,12.355c4.826,1.062,7.143,3.475,12.064,3.475c14.093,0,22.007-0.386,36.1-0.386
		c16.7,0,23.649-14.286,40.348-14.286h9.846c1.448,0,1.93,1.352,3.186,1.931c6.95,3.379,10.425,7.722,18.147,7.722
		c7.336,0,9.653-6.466,15.444-10.812c0.819-0.6,1.577-1.117,2.315-1.604L1260.082,993.11
		C1219.526,1041.72,1161.372,1075.137,1095.401,1083.549z"/>
	<path fill="#D20000" d="M1318.431,802.898l756.289-75.629c0.075-0.113,0.143-0.221,0.218-0.334
		c2.317-3.476,2.607-5.984,5.019-9.266c4.633-6.275,8.108-10.811,8.108-18.727c0-3.572-1.738-5.405-3.089-8.687
		c-2.509-6.178-3.474-9.749-6.177-15.83c-2.316-5.213-3.475-8.398-6.178-13.514c-1.64-3.186-2.317-6.949-5.887-6.949h-8.688
		c-4.633,0-7.241-1.159-11.68-2.317c-5.694-1.448-9.749-1.642-13.9-5.792c-1.447-1.448-0.579-3.379-1.158-5.405
		c-1.06-3.861-2.124-6.081-3.088-10.038c-4.054-16.41-18.147-22.298-18.147-39.094v-11.389c0-6.756,0.289-11.486-3.474-17.085
		c-4.152-6.178-8.592-8.205-13.9-13.513c-4.633-4.633-8.687-6.468-11.583-12.355c-1.737-3.475-5.019-4.73-5.019-8.592v-7.239
		l-1.158-1.544c0.096-1.062-0.772-2.317-0.772-3.379c0-7.625,0.193-12.451-2.702-19.401c-2.993-7.336-6.855-10.811-10.039-18.147
		c-2.895-6.661-1.93-11.294-1.93-18.533c0-12.645,1.93-19.788,1.93-32.432c0-4.44-2.316-6.661-4.633-10.424
		c-1.93-3.089-2.124-5.503-3.474-8.881c-1.545-4.054-3.861-6.468-3.861-10.908v-12.46L1292.583,713.47
		C1306.301,740.852,1315.281,771.016,1318.431,802.898z"/>
	<path fill="#FFE600" d="M1029.705,1083.549L909,1600.857c1.972,1.379,4.08,2.725,6.479,4.455
		c6.564,4.731,11.197,7.722,19.304,7.722c3.957,0,6.08-0.289,10.038-0.386c2.992-0.096,5.792,0.965,7.722-1.158
		c2.703-2.991,1.352-7.529,4.248-10.425c6.273-0.772,10.327-1.159,15.444-4.633c2.605-1.737,2.123-5.308,5.019-6.564
		c9.555-4.343,15.733-3.668,25.483-8.495l5.019,1.158c0-5.792,0.193-9.169,0.193-14.96c0-3.959,0.483-6.275,1.351-10.136
		c0.289-1.447,2.027-1.255,3.089-2.317c3.861-3.861,7.624-4.15,12.355-6.95c2.991-1.737,4.247-4.633,7.722-4.633
		c3.281,0,4.633,2.124,7.721,3.088c2.22,0.677,3.957,0,6.178,0.772c4.633,1.737,6.756,3.573,11.197,5.792
		c7.239,3.573,12.451,2.703,20.463,2.703c15.445,0,28.281-6.853,33.205-21.622c1.061-3.184,2.702-4.826,2.702-8.203v-7.53
		c0-5.598-1.545-8.785-1.545-14.383c0-4.054,4.634-4.729,8.109-6.564c6.371-3.378,10.232-4.922,15.831-9.652
		c8.975-7.625,10.906-14.575,16.601-24.711c1.833-3.378,5.115-3.862,8.495-5.792c6.37-3.668,9.942-6.08,15.444-10.811
		c1.109-0.95,1.883-1.963,2.555-2.984l-84.022-360.093c65.971-8.412,124.125-41.828,164.681-90.439l491.302,338.397
		c3.176-2.096,5.816-3.381,9.654-5.731c5.502-3.378,8.011-6.274,13.514-9.267c5.887-3.185,12.742-4.922,12.742-11.678v-26.931
		c7.529,0,11.389-3.475,18.919-3.475c3.281,0,3.956,3.378,6.178,5.792c4.633,5.019,8.108,7.626,10.81,13.899
		c3.862,8.88,7.916,13.417,13.514,21.236c3.282,2.607,5.405,5.019,9.653,5.019c8.975,0,11.775-10.039,13.127-18.919
		c1.158-7.818,4.317-12.328,7.888-19.471l6.154-48.003L1292.583,943.5c13.717-27.381,22.698-57.546,25.848-89.427l717.662,71.766
		c-1.97-6.52-4.784-10.621-4.784-17.922v-7.914c0-4.343,3.187-5.985,5.405-9.748c2.703-4.538,3.862-7.82,3.862-13.128
		c0-14.865-13.9-20.754-13.9-35.619c0-9.941-0.772-15.83-0.772-25.771c0-4.633-0.192-7.241-0.192-11.874
		c0-3.475-1.159-5.792,0.192-8.976c0.966-2.413,3.668-2.317,6.178-2.702c5.405-0.87,8.687-2.222,13.128-5.405
		c2.51-1.738,2.414-4.538,2.703-7.722c0.869-8.301,0.386-14.286,5.791-20.464c9.754-10.998,12.979-19.159,21.017-31.325
		l-756.289,75.629c-3.15-31.882-12.13-62.046-25.848-89.427l656.873-328.436v-3.95c0-1.737-0.194-3.956-1.931-3.956
		c-2.607,0-3.959,1.446-6.564,1.544c-5.116,0.289-8.108,0.194-13.128,1.159c-2.316,0.482-3.474,1.931-5.888,1.931h-9.461
		c-2.316,0-2.991-2.317-4.342-4.247c-2.028-2.897-4.248-4.054-5.405-7.336c-1.642-4.827-2.607-10.811-7.722-10.811
		c-0.772,0-0.483,1.351-1.158,1.544c-1.834,0.58-3.088-0.193-5.019,0c-4.633,0.482-6.95,3.089-11.583,3.089
		c-3.282,0-5.019-1.737-8.109-2.703c-7.143-2.221-11.293-3.861-18.532-5.792c-8.206-2.221-12.453-6.081-17.761-12.741
		c-2.8-3.573-3.475-8.881-8.108-8.881c-2.413,0-2.221,3.571-4.247,4.633c-5.019,2.799-9.073,2.317-14.865,2.317
		c-5.985,0-7.915-5.405-12.163-9.652c-7.529-7.53-13.706-9.653-21.621-16.603c-0.716-0.634-1.412-1.211-2.101-1.763
		l-509.666,351.045c-40.557-48.61-98.71-82.027-164.681-90.438l125.08-536.059c-1.422-0.252-2.943-0.391-4.616-0.391
		c-3.668,0-6.178,3.572-6.178,7.24v9.362c0.386,4.924,1.159,7.626,1.159,12.548c0,7.336-3.377,11.583-8.109,17.182
		c-3.088,3.668-5.212,7.336-10.038,7.336c-9.459,0-13.128-8.108-22.394-10.425c-8.88-1.446-13.513-5.019-22.394-5.019
		c-16.023,0-22.201,11.68-36.294,19.305c-4.536,2.413-6.37,5.599-11.197,7.336c-6.95,2.607-9.846,7.047-16.988,8.88
		c-3.088,0.772-4.922,0.097-8.109,0.386c-8.589,0.965-13.416,2.317-22.008,2.317v7.433c0,4.053,1.545,6.273,1.545,10.327
		c0,4.247-4.44,6.563-8.687,6.563c-2.606,0-3.571-2.026-5.985-2.702c-14.767-4.536-22.296-12.258-37.837-12.742
		c-15.733-0.579-24.613-3.475-40.347-3.475c-6.311,0-11.049,0.419-15.954,1.256l-0.001,0c-4.623,0.79-9.413,1.938-15.128,3.764
		c-2.231,0.679-4.048,0.895-5.855,1.125l104.638,448.451c-65.971,8.412-124.125,41.828-164.681,90.438l-508.61-350.318
		c-3.394,2.173-7.208,3.788-11.978,5.284c-5.887,1.833-9.748,0.481-15.83,1.545c-2.991,0.482-4.15,2.896-6.564,4.633
		c-7.722,5.792-3.957,16.505-11.969,22.008c-2.702,1.834-4.44,3.089-7.721,3.475c-3.764,0.386-8.495,0.868-8.495,4.633
		c0,2.605,1.159,3.956,1.159,6.564c0,9.073-6.756,12.837-12.742,19.691c-8.108,9.362-12.163,16.891-12.163,29.246v17.953
		c0,1.383,0.058,2.611,0.144,3.762L832.523,713.47c-13.717,27.381-22.698,57.545-25.848,89.427l-706.93-70.693
		c-0.414,2.102-1.216,3.879-2.027,6.312c-3.958,11.874-6.564,19.113-6.564,31.661c0,2.799,1.545,4.247,1.931,6.95
		c1.061,6.66,0.772,11.003,3.861,16.987c1.447,2.897,4.248,3.379,5.792,6.178c6.95,12.356,10.328,19.789,13.514,33.591
		c0.965,4.537,3.088,6.95,3.088,11.583c0,3.958-4.053,4.826-7.335,6.949c-4.054,2.703-5.985,5.31-8.881,9.267
		c-5.019,6.95-11.776,6.854-20.077,9.266c-7.626,2.221-12.26,2.028-19.691,4.634c-4.439,1.544-6.95,2.316-11.583,3.475
		c-2.896,0.676-6.949,0.483-6.949,3.475c0,2.608,1.93,3.765,1.93,6.371c0,4.151-2.413,5.984-3.861,9.845
		c-1.449,3.862-2.703,6.95-5.019,10.426c-0.098,0.965-0.386,1.448-0.386,2.413c0,6.371,3.956,9.17,7.336,14.575
		c0.877,1.441,1.75,2.559,2.469,3.85l759.383-75.938c3.15,31.882,12.13,62.046,25.848,89.427l-705.316,352.658
		c0.911,1.342,1.879,2.715,2.944,4.134c4.054,5.503,5.308,9.46,8.881,15.444c2.991,5.02,5.019,8.108,5.019,13.9
		c0,7.626-11.969,7.819-11.969,15.444c0,0.87,1.255,0.772,1.545,1.545c1.64,3.668,1.931,6.275,3.474,10.038
		c2.123,5.213,1.641,9.073,4.634,13.9c3.475,5.598,8.975,6.563,15.539,6.563c6.178,0,10.637,0.195,16.815,0.195l29.305,0.842
		l16.067,59.595L865.024,993.11C905.58,1041.72,963.734,1075.137,1029.705,1083.549z"/>
</g>
</svg>
