<?xml version="1.0" encoding="utf-8"?>

<!DOCTYPE svg PUBLIC "-//W3C//DTD SVG 1.1//EN" "http://www.w3.org/Graphics/SVG/1.1/DTD/svg11.dtd">
<svg version="1.1" id="Layer_1" xmlns="http://www.w3.org/2000/svg" xmlns:xlink="http://www.w3.org/1999/xlink" x="0px" y="0px"
	 viewBox="0 0 1710.739 1661.996" enable-background="new 0 0 1710.739 1661.996" xml:space="preserve">
<g>
	<path fill="none" d="M1177.544,1627.977c0.27,0.697,0.423,1.641,0.423,3.021l0-0.001l9.775-2.745
		c0.291-0.071,0.58-0.166,0.87-0.275H1177.544z"/>
	<path fill="#002395" d="M1216.257,1616.428c6.776,5.698,14.036,1.506,7.565-6.661c-3.222-4.065-10.013-8.252-8.563-14.238
		c0.885-3.651,5.005-10.25,8.48-11.991c4.467-2.236,14.27,1.63,11.058-6.411c-2.985-7.469-8.203-6.809-8.73-15.904
		c-2.269-3.478-0.713-7.398,2.993-9.327c3.698-1.923,2.485-17.818,0.166-17.818c-1.777,0-3.1,2.331-5.819,2.331
		c-5.508,0-8.819-5.718-12.803-8.326c-3.52-2.303-7.321,2.551-6.485-3.997c0.631-4.951-8.867-5.174-11.141-8.16
		c-3.469-4.555,2.84-10.971-2.743-16.57c1.187-6.522,1.721-9.122,0.124-13.072l-64.474,46.843l34.062-104.831l-89.174-64.789
		h110.226l34.062-104.831l32.17,99.008c5.32,0.137,8.432-0.968,14.669-3.046c3.021-1.007,6.987,0.194,10.142-0.583
		c1.975-0.487-1.069-11.832-1.413-14.156c-0.98-6.613-1.746-13.469-1.746-20.234c-0.577-8.721-1.723-17.142-1.081-25.979
		c0.781-10.751,4.122-21.936,7.15-32.308c3.735-8.743,12.963-13.524,20.119-19.235c2.322-1.853-11.307-10.845-11.307-15.488
		c3.297-2.349,6.628-4.712,9.991-7.064L272.196,198.035c-1.251,0.149-2.492,0.453-3.709,1.047l-2.886-3.519
		c0-5.358-4.198-2.62-5.57-6.078c-2.047-5.157-5.341,0.863-8.563,0.25c-2.485-0.472-6.514-2.059-7.899-4.163
		c-0.466-0.708-0.866-2.526-1.496-2.915c-1.321-0.817-3.106-0.336-4.489-0.916c-1.943-0.815-2.433-3.006-3.991-4.08
		c-2.597-1.79-4.784,1.526-6.318-2.414c-4.923-6.323-7.475-12.937-7.898-20.401c-0.089-1.576-3.617-3.298-4.822-4.163
		c-2.065-1.484-5.45-5.284-7.399-6.162c-1.935-0.871-3.909,1.9-6.069,1.082c-2.367-0.897-3.939-2.277-6.733-3.081
		c-2.789-0.801-2.726-4.208-3.741-6.245c-1.566-3.146-5.656-1.223-6.651-3.913c-0.948-2.559-0.144-6.543-0.249-9.326
		c-0.171-4.559-3.386-8.636-6.485-11.74c-2.37-2.842-9.086-8.06-9.228-11.824c-0.206-5.466,1.199-3.219-3.326-5.08
		c-0.99-0.406,0.363-1.689,1.333-2.547l-2.149-2.149c-2.082-0.298-4.605-0.379-5.336-0.466c-6.662-0.798-6.36-0.361-2.661-5.829
		c0.254-0.376,0.471-0.712,0.671-1.031l-20.525-20.525c-0.819,0.242-2.054,0.676-4.172,1.239c-2.269,1.653-4.672,2.467-6.235,4.996
		c-1.726,2.794-5.189,3.958-8.396,3.581c-6.645-0.781-3.004-6.014-3.741-9.826c-0.813-4.197-4.896,0.583-6.817,0.666
		c-1.465,0.063-2.413-1.091-3.658-1.165c-4.645-0.28,0.807,8.739-7.399,5.245c-3.74-1.593-5.352-0.937-9.061,0.416
		c-5.956,2.171-3.802-2.071-6.485-2.664c-5.168-1.142-5.14,1.23-5.737,5.412c0,2.979-2.204,6.611-5.653,5.079
		c-1.296-0.575-2.417-2.909-4.074-1.665c-4.577,3.437-4.952,9.531-11.224,11.157c-1.101,1.984-2.907,2.995-2.826,5.496
		c0.052,1.623,0.943,3.512,0.415,5.08c-0.847,2.522-4.02,3.313-3.907,6.411c0.124,3.422,6.275,9.106,7.565,12.49
		c1.547,4.06-4.869,4.097-0.748,8.743c5.258,5.93,1.201,6.067-0.832,11.574c-1.079,2.921,1.476,4.258-1.912,6.744
		c-3.403,2.499-3.531,3.042-1.663,6.578c1.136,2.153-0.265,4.202-2.182,5.659l4.119,12.678h110.226l-89.175,64.789L106.5,335.393
		l-55.901-40.615c-4.382,3.079-10.609,5.121-13.953,8.866c-1.447,1.498-4.739,2.846-4.739,5.246
		c5.411,3.923,5.953,5.792,8.314,11.99c1.651,4.335,5.948,8.895,8.812,12.574c2.768,3.554,4.931,16.505,8.896,16.403
		c8.449-0.218,8.525,6.717,9.893,12.906c3.34,1.936,6.751,4.374,9.644,6.911c1.311,1.149,8.276,9.33,9.57,6.165L72.66,365.395
		h19.357c0.15-0.271,0.292-0.557,0.413-0.883c1.108-2.99,5.441-17.732,9.311-16.154c2.189,0.893,3.384,3.811,4.489,5.662
		c1.399,2.341,7.957,5.993,9.727,8.16c0.582,1.776,3.046,2.434,4.747,3.214h62.182l34.062-104.831l34.062,104.831h110.226
		l-89.175,64.789l34.062,104.832l-89.175-64.79l-19.512,14.176l0.326,0.431c3.387,3.441,6.34,1.987,7.399,7.327
		c0.523,2.637-0.166,4.575-0.166,7.161c0,3.668,0.753,6.133,2.195,7.905c-2.192,1.718-3.017,2.888-2.694,5.751
		c0.241,2.131,0.317,3.194-1.081,4.829c-1.315,1.539-1.781,2.708-1.081,4.746c1.075,3.123,4.285-1.328,3.409,4.663
		c-0.368,2.514-0.571,4.911-0.083,7.41c0.633,3.235,2.23,7.247-1.247,9.492c-4.573,2.954-8.388,3.019-9.644,9.326
		c0.711,3.01,3.745,3.738,4.656,7.744c3.322,14.607,8.338,1.92,16.044,7.577c3.092,2.271,20.513,11.413,19.704,15.488
		c-0.755,3.809-2.753,7.684-3.741,11.49c-1.598,6.149-1.01,8.091-5.321,13.49c-0.142,6.966,1.973,11.423,2.744,18.069
		c0.25,2.15,0.251,4.689,0.831,6.744c0.431,1.529,1.387,2.955,1.912,4.497c1.45,4.253-0.707,4.429,3.74,6.329
		c4.138,1.769,3.703,7.931,3.575,11.74c-0.234,7.013,2.717,9.735,4.24,16.238c4.014,3.382,6.969,7.681,10.808,10.907
		c2.979,2.503,5.823,5.754,9.394,7.411c5.238,2.433,4.608,8.129,10.309,10.575c4.437,1.902,3.658,8.95,3.658,13.072
		c-0.088,3.452,1.885,8.233,5.071,9.826c7.142,3.571,5.51,10.786,9.644,16.57c2.288,3.2,12.31,7.687,16.045,10.575
		c4.124,3.189,7.761,7.504,12.137,10.242c2.948,1.845,5.969,2.134,8.896,3.664c4.732,2.475,4.851,5.591,10.641,6.744l19.621,3.913
		c4.372,3.777,6.341,6.488,9.561,11.325c4.517,6.786,3.832,14.123,7.481,21.733c2.184,4.553,2.525,7.531,6.236,11.408
		c3.854,4.025,9.058,7.359,13.468,10.824c1.602,8.651,13.862,12.163,17.292,19.818c2.525,5.637,10.148,10.162,15.713,12.574
		c3.838,1.663,7.318,3.839,8.978,7.744c2.392,5.629,9.087,5.877,10.226,11.657c1.366,6.926,0.167,11.87,0.167,18.735
		c0.313,8.488,4.927,14.226,12.72,15.321c1.293,2.168-2.171,4.613,2.411,6.578c7.181,3.079,16.95,2.553,22.363,8.826
		c7.105,8.232,7.987,17.628,17.708,24.48c4.013,2.827,7.761,1.394,9.561,5.912c0.886,2.225,1.781,4.06,3.658,5.662
		c2.24,1.91,5.315,0.011,7.066,1.416c0.164,5.999,11.895,22.632,15.962,27.727c0,9.415,7.285,8.034,12.054,14.739
		c2.261,3.178,3.405,7.75,6.069,10.575l12.72,13.489c9.523,13.008,15.497,11.447,28.765,16.57
		c6.814,10.908,22.575,17.149,30.926,26.895c7.193,8.395,14.733,16.31,25.523,7.91c7.279-0.599,12.191,0.123,18.372,4.414
		c6.268,7.722,21.845,12.89,16.545,25.313c-2.492,5.84-5.295,9.998-6.236,16.486c-1.072,7.386,1.03,15.478,2.827,22.648
		c-1.174,4.51,1.954,13.064,2.992,17.736c3.745,16.858,14.487,29.797,21.699,45.13c1.754,11.814,54.925,17.553,44.228,38.22
		c-1.629,3.149-3.769,5.398-4.489,9.076c-1.611,8.228,4.426,3.861,7.981,9.16c4.509,6.72,14.536,7.062,20.867,11.824
		c-0.815,6.508,13.51,6.504,17.126,6.827c3.56,4.172,13.169,10.364,17.874,13.49l26.188,17.403
		c8.024,5.331,10.676,18.536,11.888,28.394c0.675,4.178,4.149,8.931,5.903,12.989c2.187,5.057,3.718,10.58,6.068,15.488
		c0.769,1.608,4.548,7.584,4.24,8.826c-4.064,0.999-8.281,1.349-12.304,3.081l-8.896,3.83c-3.83,1.648-6.2,4.426-9.561,6.495
		c-1.053,1.256-3.771,1.378-5.404,1.832c-1.388,0.387-2.386,1.453-3.741,1.832c-2.217,0.618-4.233,0.866-6.568,0.917
		c-1.888,0.04-6.041,1.226-7.556,2.287c0.328-0.009,0.733,0.163,1.825,1.043c3.724,3.005,7.341,6.639,10.869,10.478
		c-1.455,1.606-5.243-1.131-7.045-1.819c-2.021-0.773-3.881-2.094-5.902-2.998c-1.094-0.489-2.192-1.746-3.409-2.415
		c-1.769-0.971-6.309-3.389-8.23-3.081c-2.274,0.365,4.74,4.681,5.404,5.163c4.064,2.944,9.242,5.09,13.966,6.661
		c3.035,1.01,9.279,3.781,11.65,5.726c2.898,3.322,5.745,6.607,8.552,9.595l5.15-9.409c7.459-5.122,3.573-14.503,16.378-10.741
		c13.876,4.075,23.836,0.361,33.503,13.906c10.192,14.283,6.976-10.741,13.552-10.741c3.396,3.896,9.48,4.415,13.717,7.661
		c4.098,3.138,6.402,10.692,6.402,15.571c-0.62,7.2,3.746,10.486,5.985,16.737c2.032,5.674,9.561,2.406,9.561,7.161
		c0,6.061-3.722,14.906,5.57,15.405c9.686,0.521,17.757,5.333,25.44,10.658c1.276,2.299,3.615,5.46,6.318,6.078
		c7.79,1.78,5.102-0.301,6.402,6.578c2.042,10.803,15.378,6.917,21.033,12.323l21.948,20.984c0.693,4.972,3.302,12.242,8.48,13.655
		c7.233,1.974,6.723,1.357,10.309,7.161c2.301,3.723,4.125,8.034,8.896,9.076c10.781,2.355,12.438,1.363,18.872,10.825
		c4.393,6.464,12.425,18.443,20.534,19.568c9.059,1.256,5.299-4.45,9.893-5.663c4.491-1.185,10.202,1.311,15.796-0.083
		c5.337,0.101,18.511-1.895,21.2,2.915c2.658,4.753,2.574,11.042,6.734,14.905c2.946,2.734,5.901-0.209,9.062-0.333
		c2.603-0.101,5.866,6.954,7.732,8.993c2.396,2.618,4.486,2.244,5.348,4.47h11.068
		C1196.82,1624.865,1204.762,1606.765,1216.257,1616.428z M416.57,669.848l-89.175,64.789l34.062-104.831l-89.174-64.789h110.226
		l34.062-104.831l34.062,104.831h110.226l-89.175,64.789l34.062,104.831L416.57,669.848z M616.192,869.47l-89.175,64.789
		l34.062-104.831l-89.175-64.789h110.226l34.062-104.831l34.062,104.831H760.48l-89.175,64.789l34.062,104.831L616.192,869.47z
		 M815.815,1069.093l-89.175,64.789l34.062-104.831l-89.175-64.789h110.226l34.062-104.831l34.062,104.831h110.226l-89.175,64.789
		l34.062,104.831L815.815,1069.093z M1015.437,1268.715l-89.175,64.789l34.062-104.831l-89.175-64.789h110.226l34.062-104.831
		l34.062,104.831h110.226l-89.175,64.789l34.062,104.831L1015.437,1268.715z"/>
	<path fill="#002395" d="M156.545,426.341c-1.598,1.716-2.985,3.507-3.759,5.534c-1.259,3.302,1.733,7.416,2.078,10.742
		c0.269,2.591,0.324,5.227,0.375,7.865l6.595-20.298L156.545,426.341z"/>
	<path fill="#FECB00" d="M1346.115,1188.853c3.942-1.115,11.217-2.834,6.568-7.494c-2.544-2.548-5.779-4.804-3.16-8.826
		c1.793-2.755,7.982-1.754,10.975-2.581c3.612-0.998,4.626-0.693,8.23-0.25c6.885,0.846,5.492-6.498,12.387-0.917
		c2.788,2.258,5.329,6.924,7.731,9.826c1.999,2.416,2.948,4.542,6.567,3.913c5.379-0.936,2.918,3.348,4.074,7.078
		c0.513,1.657-1.99,3.919-2.992,5.163c-1.603,1.987-1.58,4.896-1.58,7.327c1.651,11.915,11.658,3.178,15.463,11.741
		c2.351,5.289-1.676,6.464,3.575,10.492c2.714,2.081,4.489,6.212,6.817,1.415c3.573-7.36,6.118-14.787,7.898-22.815
		c2.705-12.207,10.967-6.461,19.287-7.911c4.569-1.428,1.451-2.867,0.582-5.495l-4.906-14.822c-1.486-4.494-3.863-4.046-7.066-6.495
		c-5.342-4.084-4.393-13.434-5.986-19.235c-0.947-3.446-0.771-7.28-1.33-10.824c-0.729-4.611-2.991-7.67-4.074-11.991
		c-2.426-2.747-2.773-7.171-5.902-9.159c-1.663-1.055-0.772,3.856-3.824,2.165c-2.519-1.395-7.902-9.478-9.561-7.911
		c-2.947,2.785-11.182,4.026-7.316-1.915c2.819-4.33-0.11-6.802-0.665-11.158c-0.364-2.858,1.868-6.634-0.832-9.076
		c-0.756-0.683-4.857-4.353-5.57-3.996c-0.726,0.365-2.407,14.67-7.067,10.658c-2.616-2.251-0.694-7.382-1.746-10.491
		c-3.345-9.894,5.7-6.942,10.725-10.825c4.673-3.613,5.032-3.119,10.558-4.413c6.086-1.424,3.214-4.479,4.323-8.66
		c1.65-5.085,3.935-12.431,11.057-10.658c3.071,0.764-2.008,7.868,4.406,6.412c4.868-1.105,11.34,10.085,11.141,14.488
		c-0.206,4.538,0.494,14.457,6.817,10.242c2.138-1.426,2.333-4.205,5.32-4.663c5.513-0.844,5.976-3.849,10.309-6.245
		c6.476-3.582,8.92,5.315,16.877-1.332c2.87-2.398,4.548-6.044,8.646-5.995l13.883,0.167l11.554,3.58
		c3.254-0.666,5.902,1.151,8.98,1.499c1.998,0.225,4.411-0.548,5.238-2.497c0.672-1.58-2.339-6.517-2.578-8.494
		c-0.263-2.188,0.521-3.962,0.998-5.995c0.691-2.941,1.289-5.929,1.746-8.909c0.992-3.752,0.387-7.224-0.083-10.908
		c-0.5-3.923,3.887,0.544,6.152-0.499c2.272-1.046,2.555-3.397,5.653-2.915c2.303,0.358,2.993,0.128,4.157-1.914
		c1.875-3.287,2.974-0.128,4.406,1.749c3.169,4.155,5.248,3.247,10.143,3.247c6.37,0,10.303-3.331,14.798-7.661
		c5.242-5.051,3.535-1.119,8.313,0.666c1.115,5.552-0.599,5.829,6.319,5.829c5.734,0,0.915,3.389,0.915,6.412
		c0.446,0.359,4.273,0.635,5.071,0.75c2.189,5.06-3.645,11.286-1.579,14.738c1.461,2.441,2.14,6.149,5.736,6.328
		c3.638,0.182,5.93-5.474,6.319-8.243c3.522-2.01,5.416-0.109,7.067-5.079c1.716-5.162,3.299-6.495,9.311-6.495
		c5.125,1.713,7.746,8.472,12.22,4.496c1.975-1.756,9.216-5.846,6.901-7.993l-6.734-6.245c-2.253-2.09-3.197-2.585-1.081-5.829
		c4.399-6.743-2.614-6.359-3.492-11.824c-0.248-1.543-0.441-8.864,2.244-7.993c1.284,0.416,3.664,5.377,5.82,3.414
		c0.641-0.585,0.969-11.223,1.663-13.406c1.937-6.101,1.187-12.743-0.831-18.819c-1.143-5.38-2.252-8.016-1.913-13.655
		c0.626-10.401-7.644-7.466-11.141-14.489c-1.074-2.159-0.328-4.893-1.995-7.077c-5.293-6.938-3.652-14.416-14.715-15.988
		c-6.217-0.884-3.483-3.467-4.989-7.744c-2.023-5.751-6.133-1.938-10.059-5.079c-5.722-1.145-2.199-3.092-4.822-6.412
		c-1.695-2.143-4.113-3.799-6.152-5.746c-3.275-3.124,0.646-8.046-4.406-10.658c-4.09-2.113-7.143-7.983-10.226-11.325
		c-1.472-1.595-7.067-5.25-7.067-7.161c0-4.514,2.412-6.464-4.406-7.744c-3.061-0.574-2.647-3.33-2.327-5.662
		c0.464-3.384-1.842-4.021-3.658-6.245c-0.774-2.56-1.134-5.841-2.411-8.077c-1.944-3.399-5.435-5.249-7.399-8.577
		c-1.137-1.928-1.891-4.286-2.909-6.328c-1.347-2.701-3.641-4.67-5.902-6.578l-3.472-2.335c0.465-0.829,0.762-1.717,0.974-2.827
		c0.67-3.503-2.443-10.598-4.322-13.323c-1.535-2.226-5.347-17.985-1.33-17.985c4.193,0,8.407,2.931,10.974,5.995
		c7.401,8.836,17.007-0.157,26.025,10.241c2.581,2.977,12.273,2.194,13.883,4.164c2.951,3.611,4.54,5.88,8.896,8.243
		c3.348,1.817,2.948,2.938,6.9-0.084c6.406-4.897,6.685,0.075,11.723,3.082c2.869,1.713,4.987,1.998,8.313,1.998
		c8.532,0,17.755,1.313,26.187,0.916c15.701-0.74,7.351-9.312,16.545-14.405c1.903-1.054,5.122-1.316,6.485-3.247
		c2.055-2.915-0.144-8.019,2.244-9.909c3.55-2.808,9.389-0.167,12.969-3.747c4.084-4.085,11.962-1.6,8.485-9.327
		c-0.951-2.114-2.53-7.154-1.33-9.326c0.906-1.641,3.183-3.95,3.076-5.83c-0.34-6.004-8.147,3.945-8.147-5.746
		c0-2.854-0.985-8.573-5.154-6.328c-4.473,2.408-1.036,14.916-6.817,13.406c-8.032-2.099-1.717-15.654-11.639-15.654
		c-12.822,0-20.26-9.558-21.449-21.982c-0.806-8.435-9.748,1.584-10.476-7.578c-0.392-4.94,0.894-4.991,3.575-8.66
		c1.447-1.979,3.45-6.202-0.25-6.911c-8.081-1.55-10.462,11.934-17.043,9.575c-3.088-1.106-7.604-6.918-8.896-9.826
		c-1.713-3.854-2.849-11.999-7.15-12.49c-3.348-0.383-4.027-4.068-7.482-4.497c-5.813-0.722-7.815,0.536-9.395-6.412
		c-0.645-2.837-1.525-11.876-3.242-13.822c-2.113-2.395-3.497-1.613-3.076-5.579c0.47-4.425,2.42-5.157,0.665-9.576
		c-1.369-3.446-5.595-3.768-6.984-6.828c-1.36-2.998-0.345-5.626-0.998-8.494c-1.246-5.484-3.669-4.996-8.563-3.831
		c-8.294,1.975-3.966-1.971-9.976-2.831c-5.018-0.718-8.843,4.393-12.637,6.661c-11.246,6.728-14.466-4.966-15.713-13.073
		c-1.142-7.436-11.229,0.217-13.884,1.999c-6.501,4.363-11.438-12.003-15.796-14.572c-5.309-3.132-5.619-5.904-5.074-12.069
		c0.963-10.896-5.099-3.867-8.23-10.408c-3.258-6.805-3.769-13.128-4.573-20.484c-0.738-6.753,1.975-7.441,5.571-12.157
		c2.897-3.799,12.087-4.981,12.553-11.408c1.37-18.893-7.329-36.203-9.228-54.457c-0.558-5.367,3.802-12.29,10.143-6.828
		c3.807,3.279,11.48,0.549,11.306-4.662c-0.161-4.848,2.643-4.651,4.739-8.077c1.67-2.732,6.091-9.798,2.244-12.074
		c-7.798-4.612-1.016-11.144,4.822-14.488c3.757-2.152,8.762-0.268,7.565-5.829c-0.951-4.418-3.383-8.077,3.326-8.077
		c6.065,0,4.989-5.688,4.989-9.909c0-3.177,2.492-2.992,3.907-5.163c1.703-2.612,1.1-6.717,2.328-9.659
		c1.747-4.182,6.34-5.99,7.399-10.325c0.595-2.435-1.484-5.855-0.167-7.994c1.801-2.923,5.341,0.912,7.981,0
		c3.649-1.261,4.15-7.602,5.903-10.658c1.318-2.297,3.344-3.99,4.572-6.245c1.088-1.997,2.508-4.537,3.242-6.745
		c0.801-2.408-0.75-4.768-0.083-6.578c1.287-3.489,11.118-1.478,5.57-7.494c-3.662-3.972-0.581-2.042-0.581-5.829
		c0-1.409-1.363-2.002-1.746-3.247c-1.122-3.643,4.533-5.398,3.159-10.158c-0.886-3.071,1.612-3.234,3.159-4.913
		c1.605-1.742,0.595-4.851,0.167-6.995c-0.946-4.724,4.057-0.794,0.581-7.744c-0.742-1.483-1.028-3.469,0.333-4.829
		c0.735-0.735,1.488-1.761,0.832-2.748c-1.035-1.555-4.34-3.584,0.249-4.829c2.098-0.569,2.559-0.063,4.074-1.832
		c1.218-1.423-0.545-4.47,0.333-6.078c1.473-2.701,4.927-1.973,3.243-5.995c-0.831-1.987-4.437-9.654-3.741-11.408
		c1.329-3.348,3.236-2.17,0.914-5.662c-0.899-1.352-2.882-1.5-4.323-2.249c-6.526,2.252-15.396-10.872-22.363-10.742
		c-0.315,0.005,1.063,0.1,0.748,0.084c-3.646-0.199-9.768,2.64-11.39,2.332c-3.705-0.704-3.813-5.535-8.147-5.413
		c-6.39,0.18-15.042,18.48-20.202,5.83c-2.145-5.259-4.359-10.714-10.974-9.909c-8.016,0.976-12.495,8.782-19.454,12.406
		c-4.38,2.282-3.911,4.878-6.984,8.077c-3.718,3.87-9.33,0.531-13.385,5.328c-3.913,4.63-8.422,9.479-15.629,9.826
		c-5.194,0.25-10.189,0.82-15.108,1.501c-12.01,1.663-23.566,3.995-36.437,3.995c-13.727,0-33.906,1.584-42.898-11.075
		c-4.628-6.516-11.311-8.882-17.874-12.989c-5.017-3.14-12.282-8.98-7.317-15.238c3.042-3.835-2.057-5.69-4.655-7.993
		c-6.516-5.777,2.561-7.829,7.067-4.663c6.643,4.667,16.21-0.616,9.56-7.577c-3.26-3.413-6.055-8.077-5.154-12.74
		c0.757-3.918,7.915-10.207,2.91-13.822c-4.413-3.188-13.377-4.256-17.541-0.75c-3.155,2.657-8.287,2.885-8.397-2.415
		c-0.055-2.661,3.553-10.992,2.993-11.741c-1.555-2.077-4.054-2.134-5.902-3.664c-2.346-1.942-1.267-5.417-4.323-6.661
		c-5.1-2.077-6.083,1.058-11.057-3.996c-2.292-2.329-8.89-9.074-7.815-12.74c1.186-4.044,7.944-7.05,6.734-11.408
		c-3.251-11.703-17.111,0.066-12.721,10.241c4.907,11.369-7.679,2.748-11.722,2.748c-2.489,0-10.799,0.99-7.648-4.413
		c1.781-3.055,5.98-4.322,8.48-6.828c1.641-1.644,5.054-9.825-0.333-8.077c-7.201,2.336-0.858,9.217-6.485,9.659
		c-1.911,0.15-5.628-1.444-6.984-2.748c-2.385-2.294-15.891-12.38-10.392-0.666c0.868,1.851,5.512,4.774,5.072,6.995
		c-1.884,9.49-10.127-7.83-11.889-9.16c-1.61-1.215-9.789-5.35-9.976-0.833c-0.175,4.231,4.4,5.858,4.157,10.409
		c-0.829,15.463-14.805,7.583-23.028,9.326c-5.894,1.249-9.501-7.574-12.886-11.241c-3.512-3.805-6.723-6.249-9.144-10.991
		c-1.842-3.608-2.704-7.48-6.734-9.409c-10.309-4.938-24.772,4.065-35.582,4.33c-11.252,0.276-7.24-5.162-13.552-8.493
		c-3.224-1.701-4.988,1.791-8.064,1.665c-3.026-0.125-3.824-6.696-3.824-8.992c0-16.775-21.823-3.98-27.851,1.332
		c-4.502,3.966-2.728,7.225,0.499,12.074c1.358,2.042,5.348,4.273,4.406,6.661c-2.728,6.915-12.454,12.431-19.537,11.074
		c-5.225-1.001-10.539-5.766-15.963-4.497c-3.648,0.854-4.531,5.539-8.896,3.331c-2.252-1.139-5.37-5.875-6.069-8.41
		c-0.596-2.162-2.481-4.654-4.572-5.579c-2.363-1.045-4.768-0.555-7.15-1.748c-4.457-2.234,3.106-8.149,3.991-10.824
		c0.644-1.95-0.845-6.352-1.746-8.16c-2.543-5.102-8.512-7.199-12.803-3.83c-4.165,3.269-5.699,15.17-10.474,5.163
		c-1.737-3.64-3.894-9.886-9.395-8.826c-13.121,2.529-10.11,26.012-23.943,23.564c-12.736-2.254-4.517,10.33-4.073,15.488
		c0.505,5.849-16.371,14.081-20.534,17.653c-11.495,9.86-25.887,2.325-35.666-7.078c-2.806-2.698-4.61-7.281-7.066-9.742
		c-2.539-2.544-8.249-0.297-11.639-2.082c-6.893-3.629-9.885-10.687-16.378-14.321c-3.005-1.682-13.993-4.086-14.965-5.412
		c-6.28-8.568-5.908-11.778-17.624-4.913c-6.156,3.607-17.844,18.12-25.356,9.492c-2.701-3.102-5.174,0.938-7.648,1.082
		c-6.257,0.365-3.121-4.159-3.658-7.827c-0.575-3.919-4.431-3.974-6.817-1.583c-1.542,1.544-3.803,14.792-9.485,11.556
		c-0.811-0.462-1.695-1.262-2.653-2.479c-3.942-5.002-8.975,2.664-11.223-0.917c-2.496-3.975,3.294-7.838,2.411-12.49
		c-0.756-3.988-3.658-2.504-5.654,0.084c-7.402,9.599-11.73-3.101-10.142-9.909c1.552-6.654-7.03-7.314-8.896-1.832
		c-1.999,5.871-5.403,10.188-11.972,9.576c-8.056-0.751-19.928,0.171-26.853-3.997c-4.538-2.732-4.554-7.682-4.822-12.407
		c-0.2-3.521-7.872,2.538-8.563-5.079c-0.297-3.275-4.2-2.317-6.568-2.415c-5.4-0.224-5.994-2.977-8.147-6.745
		c-1.482-2.596-3.392,2.071-3.824,3.081c-2.552,5.959-3.788,14.362-7.482,19.484c-3.579,4.961-24.012,1.492-29.346,0.75
		c-5.503-0.765-12.468-6.9-17.21-9.91c-5.64-3.58-11.418-6.94-17.126-10.408c-4.037-2.453-10.533-4.97-13.8-8.243
		c-1.835-1.838-2.237-4.311-4.489-5.662c-4.766-2.861-5.902-1.047-5.902-7.661c0-9.472-7.053,2.566-10.974,2.998
		c-11.085,1.223,8.472-13.981,0.748-15.155c-9.907-1.507-3.431,12.347-10.309,9.909c-4.999-1.772-3.409-5.836-3.409-9.658
		c0-7.672-10.326-8.832-8.896-3.081c0.284,1.145,3.371,4.808,4.24,5.912c2.507,3.191-2.873,4.13-5.487,2.748
		c-4.158-2.199-9.403,1.733-10.474-4.747c-0.759-4.594,0.935-6.633,4.822-8.576c6.644-3.321-0.788-6.05-2.578-8.494
		c-1.408-1.923-2.229-5.399-3.658-6.828c-3.116-3.116-5.248,1.667-6.816,3.498c-0.304,2.303-0.354,4.656-0.915,6.911
		c-1.088,4.365-7.002,4.591-9.81,8.076c-1.911,2.372-2.703,6.299-5.071,8.077c-2.148,1.613-4.807-3.646-5.736-1.748
		c-2.583,5.275-2.415,3.823-6.9,1.748c-1.233-0.569-4.179-1.265-3.575,1.165c0.411,1.655,4.951,3.026,2.993,3.83
		c-12.337,5.067,5.932,19.985-6.319,23.731c-12.3,3.76-28.965-10.009-41.235-12.074c-9.317-1.568-13.151,4.719-23.121,3.481
		c-7.188-0.893-8.957-6.051-16.045-6.995c-9.328-1.243-11.646-13.652-23.278-10.659c-4.671,1.201-9.139,5.076-14.051,4.247
		c-6.691-1.131-5.552-4.372-13.971-2.692c-2.969,1.252-9.666,7.321-11.052,10.435c-0.862,1.937-1.95,3.742-2.826,5.663
		c-0.874,1.913-3.454,3.288-4.323,5.329c-4.001,9.39-1.149,21.848-8.73,29.893c-1.44,1.528-3.318,2.185-4.739,3.581
		c-3.695,3.628-3.924,3.236-8.896,5.08c-5.194,1.926-8.83,3.628-12.72,7.577c-5.985,6.076,8.44,11.961-0.582,15.155
		c-2.8,0.99-3.29,11.599-3.741,14.322c-0.602,3.642-2.423,6.185-4.414,8.611c-2.728,3.327-5.785,6.439-6.477,11.872
		c-0.63,4.938,1.339,11.394-2.066,15.253c-4.352,4.932-11.567,2.581-17.874,2.581c-2.096,0-4.248-0.197-6.375,0.057
		l1021.557,1021.557C1310.267,1208.04,1327.601,1196.768,1346.115,1188.853z"/>
	<path fill="#FECB00" d="M152.87,74.244c0.113-2.724,1.081-5.966,1.081-8.327c-3.741,0-8.493,1.28-11.806-0.916
		c-4.689-3.108-4.007-3.783-6.137-3.154l20.525,20.525C160.959,75.324,152.562,81.702,152.87,74.244z"/>
	<path fill="#FECB00" d="M166.836,91.064c0.235-0.706-1.214-1.114-2.977-1.366l2.149,2.149
		C166.445,91.46,166.804,91.16,166.836,91.064z"/>
	<path fill="#FFFFFF" d="M72.438,230.561l89.175-64.789H51.387l-4.119-12.678c-1.204,0.915-2.61,1.597-3.722,1.919l-7.22,7.338
		c0.344,0.282,0.707,0.572,1.089,0.87c1.823,1.42,2.454,3.352,4.053,5.03c2.268,2.381,2.328,4.825,2.328,7.994
		c0,4.425,2.423,8.048,2.993,12.074c0.386,2.728,1.838,4.485,3.076,6.245c2.142,3.044,7.648,2.241,7.648,6.744
		c0,3.373-0.019,7.055-0.581,10.325c-2.011,11.683-14.462,1.48-16.545,7.827c-1.286,3.919,0.963,8.654-0.415,13.156
		c-3.017,9.869,4.909,14.353,6.9,23.648c1.04,4.852,0.748,9.911,0.748,14.905c0,1.871-0.06,8.834,1.164,9.909
		c1.493,1.308,5.876,0.842,6.401,3.081c1.195,5.096-1.118,8.182-4.586,10.618l55.901,40.615L72.438,230.561z"/>
	<path fill="#FFFFFF" d="M306.123,535.015l-34.062-104.832l89.175-64.789H251.01l-34.062-104.831l-34.062,104.831h-62.182
		c0.865,0.397,1.537,0.825,1.655,1.449c0.445,2.345-0.553,4.753,2.992,4.247c7.928-1.134,7.895,15.683,12.221,20.234
		c6.191,6.514,20.035,7.202,23.611,17.486c0.824,2.369,3.249,3.836,4.656,5.912c-1.429,4.582-5.854,7.925-9.294,11.619l5.289,3.843
		l-6.595,20.298c0.058,2.977,0.11,5.955,0.457,8.872c4.278,10.723,13.783,9.428,23.195,9.659
		c8.596,0.211,12.605,7.286,17.042,13.406l1.502,1.984l19.512-14.176L306.123,535.015z"/>
	<path fill="#FFFFFF" d="M87.036,375.839c0.2-0.488,0.269-1.238,0.157-2.334c-0.521-5.116,3.057-4.926,4.825-8.11H72.66
		L87.036,375.839z"/>
	<path fill="#FFFFFF" d="M1180.998,1363.506h-110.226l89.174,64.789l-34.062,104.831l64.474-46.843
		c-0.547-1.354-1.342-2.864-2.451-4.748c-3.159-5.369,9.533-4.447,6.817-8.159c-1.471-2.01-6.009-2.195-4.323-6.329
		c1.257-3.085,2.023-11.449,6.152-10.658c8.229,1.577,1.848-6.616,2.328-9.992l8.646-2.165c0.696-4.892-7.986-17.512-9.478-23.481
		c1.501-2.218,1.165-9.879,1.165-12.823c0-5.399-0.678-11.266,0.831-16.486c1.781-6.167,6.112-11.54,9.062-17.069
		c2.669-4.125,2.351-9.562,6.484-12.657c8.414-6.303,16.432-5.657,26.77-4.414c1.855,0.223,3.437,0.345,4.867,0.382l-32.17-99.008
		L1180.998,1363.506z"/>
	<polygon fill="#FFFFFF" points="1070.55,1228.673 1159.725,1163.884 1049.499,1163.884 1015.437,1059.053 981.375,1163.884 
		871.15,1163.884 960.324,1228.673 926.262,1333.504 1015.437,1268.715 1104.612,1333.505 	"/>
	<polygon fill="#FFFFFF" points="471.683,629.806 560.858,565.017 450.632,565.017 416.57,460.186 382.508,565.017 272.283,565.017 
		361.457,629.806 327.395,734.637 416.57,669.848 505.745,734.638 	"/>
	<polygon fill="#FFFFFF" points="870.928,1029.051 960.102,964.262 849.877,964.262 815.815,859.431 781.753,964.262 
		671.527,964.262 760.702,1029.051 726.64,1133.882 815.815,1069.093 904.99,1133.882 	"/>
	<polygon fill="#FFFFFF" points="671.305,829.429 760.48,764.639 650.254,764.639 616.192,659.808 582.131,764.639 471.905,764.639 
		561.079,829.429 527.018,934.26 616.192,869.47 705.367,934.26 	"/>
</g>
</svg>
