<?xml version="1.0" encoding="utf-8"?>

<!DOCTYPE svg PUBLIC "-//W3C//DTD SVG 1.1//EN" "http://www.w3.org/Graphics/SVG/1.1/DTD/svg11.dtd">
<svg version="1.1" id="Layer_1" xmlns="http://www.w3.org/2000/svg" xmlns:xlink="http://www.w3.org/1999/xlink" x="0px" y="0px"
	 viewBox="0 0 834.139 1670.736" enable-background="new 0 0 834.139 1670.736" xml:space="preserve">
<g>
	<path fill="#006AA7" d="M764.169,491.337c-1.75-1.567-3.841-4.863-7.345-3.171c-2.881,1.391-9.143,4.221-12.338,3.035
		c-2.027-0.753-2.699-6.285-3.694-6.367c-1.654-0.136-5.147,4.087-5.836,5.479c-4.942,0-7.946-8.559-9.309,0.296
		c-0.326,2.119-2.565,0.267-3.915-0.148c-0.666-1.069-0.642-3.326-2.143-3.257c-2.532,0.114-1.947,0.789-4.581-0.444
		c-3.122-1.46-0.222,7.246-0.295,8.884c-0.101,2.228-3.375-0.007-4.802,0.074c-3.507,0.199-1.725,7.036-4.654,1.999
		c-2.165-3.723-3.915-5.452-8.2-7.181c-4.412-1.779-7.368-9.814-10.713-13.326c-4.055-4.26-0.148,2.881-0.148,4.738
		c0,4.153,0.346,7.289-0.665,11.402c-2.982-0.994-1.377-4.775-7.166-3.628c-4.007,0.793-1.13-5.605-4.359-6.441
		c-1.589-0.411-2.561-2.909-3.916-1.999c-1.885,1.268,0.054,6.157-2.511,8.588c-2.495,2.365,1.529,6.208-2.881,9.254
		c0.891,2.426,4.95,4.889,4.95,7.478c0,2.253-2.375,4.875-2.069,6.663c0.287,1.671,1.699,3.078,1.699,4.739
		c0,2.842-4.276,2.135-5.836,3.702c0,1.623,4.505,4.442,1.034,4.442c-1.318,0-5.27-0.091-6.353-0.814
		c-0.409-0.272-1.112-1.349-1.699-1.185c-1.419,0.396-2.521,1.579-3.99,2.073c-3.121,1.051-7.583-2.197-9.013-1.333
		c0,3.34,10.439,7.843,2.511,10.069c-3.625,1.018-5.725,8.44-9.235,8.44c-2.836,0-3.954-4.122-6.206-4.813
		c-3.001-0.921-7.066,1.542-8.644,4.072c-0.249,4.731-0.74,8.484,4.654,7.848c3.693-0.436,0.799,2.99,2.143,5.997
		c0.648,1.45,0.719,2.925-0.739,3.702c-5.058,2.694-1.652,0.903-2.143,5.479c-0.358,3.339,1.946,7.127,0.296,9.995
		c-1.168,2.031-1.31,4.357-2.364,6.071c-1.401,2.279-4.837,2.721-1.034,6.219c0.154,0.141,1.412,0.922,1.034,1.185
		c-0.511,0.356-3.131,0.082-3.915,0c-2.759-0.288-2.73-0.731-2.955,2.221c-2.073,6.203-3.01,8.685-7.314,13.326
		c-2.417,2.607,0.715,7.553-3.324,8.958c-2.779,0.967-8.452,2.528-1.773,4.442c4.497,1.289,7.439,2.392,4.507,6.885
		c-1.231,1.887-0.701,3.18,0.887,5.108c0.347,0.423,2.795,2.895,1.921,3.332c-1.639,0.82-7.378-2.369-9.457-2.369
		c0.21,0.846,4.125,3.616,5.023,4.516c3.706,5.72,6.707,6.824,12.411,9.402c1.912,0.864-0.283,5.192,2.956,6.811
		c0,1.092-3.24,0-3.842,0c-0.714,2.858,4.804,3.695,4.359,6.589c-0.82,5.33,4.006,0.767,4.802,2.369
		c0.684,1.378-1.646,4.154-2.364,5.256c-4.383,6.726-11.452,13.879-18.47,17.694c-1.04,1.475-4.242,12.183-7.019,8.292
		c-0.178-0.026-0.251-0.074-0.443-0.074c-4.698,4.737-3.198,8.95-5.319,14.215l-6.502,16.14c-1.646,4.086-1.417,6.648-4.654,10.069
		c-1.721,2.296-7.299,8.622-7.905,11.031c-1.919,7.624-4.195-1.57-6.576,0.296c-1.487,1.165-2.112,5.119-2.216,6.959
		c-0.302,5.327-5.835,3.65-5.91,4.739c-0.187,2.654-0.651,2.369-3.177,2.369c-4.307,0-11.205-1.002-12.559,1.777
		c-1.836,3.768-4.725,1.612-6.575,5.923c-1.816,4.233-8.46,5.438-9.014,9.402c-0.31,2.224,2.352,5.139,1.995,6.293
		c-0.249,0.803-7.039,4.038-7.905,2.591c-2.734-4.57-2.278-7.678-6.058-12.363c-2.34-2.9-1.098-3.335-2.66,0.37
		c-0.77,1.827,2.641,14.796,1.847,15.325c-0.499-2.49-5.61-4.055-7.757-4.294c-3.659-0.919-7.718,5.275-6.723,8.514
		c1.555,5.057-0.899,4.947-4.137,7.181c-1.425,0.984,0.614,4.132-0.813,5.849c-2.963,3.562-5.492,3.909-6.502,8.958
		c-4.768,0-1.327-7.337-7.609-2.295c-2.707,2.171-8.793,4.886-12.264,4.886c-4.748,0-3.287,0.954-3.768,5.33
		c-0.223,2.028-2.217,1.891-2.881,3.48c-0.877,2.1,1.974,4.686,1.552,5.774c-0.724,1.863-4.687-0.779-5.91-0.814
		c-0.545-0.016-2.324-0.154-1.552,0.814c2.793,3.5,0.207,1.891-2.807,2.666c1.553,3.626,14.947,4.172,5.319,6.589
		c0,1.856,2.584,2.178,2.734,3.479c0.16,1.392-3.706,1.397-4.581,1.925c0,3.92,3.86,4.615-1.33,8.144
		c-3.612,2.455-6.397-5.247-7.905-0.962c-0.897,2.546,1.68,3.512-0.739,5.7c-3.621,3.274-3.482,2.123-4.581,7.034
		c-0.408,1.823-2.444,2.598-3.251,4.22c-0.546,1.096,0.439,2.661-0.222,4.072c-0.68,1.454-3.405,2.983-2.955,4.368
		c0.618,1.899,2.337,3.878,0.665,5.997c-3.155,3.997-6.057-1.272-6.279,0.814c-0.245,2.311-0.476,4.415-1.33,6.589
		c-2.007,4.783-3.42,4.424-7.093,6.737c-1.292,0.814-4.985,5.419-5.541,5.109c-5.328-2.976-8.364-6.677-7.166,2.665
		c0.615,4.796-6.379,2.15-8.718,2.739c0,3.148,10.152,14.414,13.003,15.547c2.248,0.894,3.506,0.38,0.813,2.147
		c-1.846,1.211-5.624,5.206-6.206,7.403l-3.473,13.105c-1.079,5.409-5.172,8.738-5.172,14.215c0,4.493,2.797,7.729,2.956,11.549
		c0.123,2.98-1.118,6.082,1.477,8.44c4.35,3.948,5.848,0.819,3.546,7.33c-0.3,0.848-0.924,5.761-1.625,5.997l-3.768-5.108
		c-1.921-2.603-3.863-1.003-5.615-3.85c-1.186-1.925,0.076-3.555-2.66-2.518c-3.321,1.259-3.606,1.048-2.069,3.998
		c0.874,1.676,2.581,5.071,1.552,6.293c-1.454,1.725-3.279,2.388-4.581,4.294c-2.106,5.278-1.103,6.976,1.035,11.624
		c1.35,2.936,1.256,4.831-0.96,7.329c-4.724,5.323,6.808,11.91,5.615,13.845c-0.824,1.336-2.949,0.761-3.62,2.887
		c-1.926,6.107,1.185,11.898,0.148,18.138c0,3.408-0.042,5.995,0.886,9.18c0.985,3.378-1.855,2.944-2.364,5.257
		c-1.282,5.828,3.759,6.916,5.91,11.031c1.488,2.849-1.337,5.582-0.96,8.514c0.219,1.714,1.301,3.295,1.035,5.109
		c-0.337,2.286-2.881,3.197-3.842,4.886c0.088,0.117,0.074,0.076,0.074,0.222c3.141,0.778,7.879,1.889,9.308,5.256
		c2.118,4.991,10.323-1.85,13.668,5.479c0.768,2.049-1.15,6.01-0.222,8.292c0.602,1.479,3.027,1.049,3.842,2.591
		c3.543,6.705,3.932-7.351,5.171-7.774l10.195-3.479c0.993,3.975,0.171,7.404,2.439,11.327c2.426,4.197,7.003,7.739,10.565,10.883
		c3.306,2.919-2.025,4.516,4.358,4.516c2.598,0,8.675,6.246,6.28,0.222c-1.215-3.055-1.156-12.866-0.369-16.066
		c0.668,0,3.126,8.442,3.546,9.921c0.808,2.842,5.814,11.053,4.507,12.29c-1.976,1.869-4.07,1.9,1.182,4.146
		c6.209,2.654-4.893,5.972-6.87,7.551c1.244,6.322,15.432,3.781,17.953,9.477l8.2,17.399c1.434,3.044,8.958,8.361,7.388,11.401
		c-0.891,1.724-4.924,5.063-4.064,6.663c1.899,3.53,6.584,8.146-1.403,7.33c-6.538-0.669-12.319,0.461-14.702,7.181
		c0.958,6.453-6.158,7.675-1.995,13.697c2.182,3.155-4.657,8.157-1.108,12.586c1.689,2.109,5.361,5.326,2.438,7.921
		c-2.063,1.831-10.281,7.061-12.633,5.257c-3.723-2.858-6.347-10.983-12.633-8.884c-3.853,1.287-6.194-0.296-9.974-0.296
		c0,2.205,5.849,3.615,7.61,3.702c5.493,0.275,2.353,2.658,5.762,4.368c2.259,1.132,3.838,3.179,5.615,4.96
		c2.499,2.504-0.216,4.707-1.551,7.033c-1.437,3.29-5.37,3.273-6.945,6.441c-0.65,1.306,3.404,5.726,3.473,7.552
		c0.05,1.347-11.057,1.281-13.668,3.776c-1.275,1.219-1.264,2.939-2.29,3.85c-1.532,1.362-2.92,1.079-4.433,2.147
		c-1.483,1.046-3.58,5.677-4.507,5.479c-3.711-0.793-4.933-7.929-7.24-10.217c-4.115,3.078-4.214,10.044-8.791,13.474
		c-1.65,1.237-4.156,2.053-4.802,4.146c-1.605,5.199-1.992,2.384-6.649,2.295c-3.892,2.928-8.285,3.175-11.894,6.441
		c-2.289,2.072-5.13,6.245-8.127,7.107c-7.861,2.261-19.005-1.185-27.262-1.185c-7.302,0-6.872,3.956-11.82,5.182
		c7.612,0,15.337-4.622,23.567-2.073c9.195,2.849,11.527,12.069,10.491,21.248c-0.341,3.019-1.338,5.603,0,8.662
		c1.702,3.889-2.38,7.819-3.103,11.549c0.338,5.827,2.504,8.028-0.813,13.178c-1.971,3.061-0.833,9.125-3.103,11.845
		c-2.233,2.677-2.135,6.093-1.182,9.329c1.533,5.2-0.992,5.576-1.847,9.698c-0.311,1.5,1.323,3.504,1.626,5.035
		c0.514,2.594-2.328,7.71-3.177,10.365c-1.388,8.313,8.522,17.358-0.739,23.099c-2.405,1.49-0.705,4.199-3.029,6.219
		c-4.205,3.655-3.176,3.57-4.137,8.884c-1.002,5.539-0.728,8.407,4.211,12.142c0,2.437-2.499,4.954-3.177,7.329
		c-2.126,5.599-1.312,11.432-3.177,16.584c-2.02,5.583-2.167,9.895-3.177,15.622c-0.464,2.632-4.46,5.048-5.985,7.477
		c-2.22,3.541-2.674,8.523-3.694,12.512c-3.629,3.942-5.129,11.299-5.689,16.436c-0.635,5.817-4.638,9.94-8.274,14.215
		c-2.077,2.441-3.191,6.74-5.024,8.588c-0.358,0-0.617-0.074-0.96-0.074l-5.985-5.626c-1.985-1.866-4.675-0.166-6.353-1.851
		c-1.286,0-8.273,2.847-9.235,3.553c-1.616,0-4.694,0.495-6.058-0.518c-1.303-0.967,0.34-2.636-2.438-2.369
		c-4.997,0.482-7.404,0.664-12.338-0.371c-7.102-1.49-18.753-1.632-17.361,8.736c0.149,1.11,2.607,5.521,2.364,5.849
		c-1.479,0-5.809,0.655-6.649,0.444c-0.253-1.269-1.472-2.796-1.994-3.85c-5.776-1.158-18.833,16.931-20.465,21.84
		c0,4.717-1.157,9.207,2.29,12.66c3.117,3.122,2.922,0.937,3.99,6.071c0.404,1.946,1.966,3.171,3.177,4.59
		c1.707,2-2.324,7.454-3.251,9.18c-0.94,1.751-6.785,10.231-8.496,9.625c-2.081-0.737-5.217-2.929-7.461-2.295
		c-5.212-1.742-9.149-4.82-15.145-3.553c-6.243,1.319-12.296,4.544-17.657,7.847c-5.213,3.213-21.426-2.636-25.266-7.181
		c-1.366-1.618-1.218-10.611,0.665-11.919c2.346-1.629,4.999-2.036,6.058-5.109c1.384-4.017,0.271-6.072-1.035-9.995
		c-4.615-5.542-9.156-11.822-12.337-18.286l-7.979-16.214c-1.775-3.606-1.515-8.023-3.62-11.845c-0.5-2.832-3.915-7.208-3.915-9.773
		c4.639-1.563,11.221,10.307,16.327,6.515c4.221-3.134-6.249-14.62-8.274-17.102c-2.199-2.694,1.497-4.844,3.177-7.108
		c2.916,0.729,5.229,4.59,8.718,4.59c1.767-2.218,2.332-5.988,2.807-8.958c0.79-4.934-3.052-8.141-6.501-10.883
		c-6.823-3.64-9.471-10.487-12.855-16.88c-3.653-6.903-10.085-8.356-11.23-16.436c-0.584-4.13-3.899-7.154-5.319-11.105
		l-5.615-15.622c-0.317-1.814,0.081-4.089-1.403-5.479c-1.273-1.192-2.453-1.691-2.956-3.48c-0.759-2.704,1.653-5.744,0.96-8.514
		c-2.965,0-4.827,9.506-6.28,6.589c-1.006-2.019-2.672-7.175-3.177-9.402c-0.532-2.346,0.363-5.789,0.665-8.144
		c0.631-4.916-1.706-5.944-2.956-9.995c-0.334-1.082-0.431-4.609-0.96-5.183c-1.589-1.724-4.889,0.208-6.649-1.555
		c-1.726-1.728,1.261-5.229-1.773-4.294c-1.874,0.578-1.463-1.693-1.552-2.962c-0.815-2.182-4.364-6.674-3.103-8.736
		c1.111-1.818,5.982-5.604,5.91-6.885c-0.134-2.363-4.013-0.099-4.949,0.37c-3.701,1.857-5.728,2.242-3.99-3.035
		c0.703-2.133,0.194-2.909-0.96-4.516c-1.891-2.633,2.66-4.849,2.66-7.922c-1.64,0-6.058,5.127-6.058,0.815
		c0-3.942-0.956-4.835-3.551-7.33c0.241-2.185,2.512-3.538,2.512-5.035c-1.806-0.602-4.409-5.637-1.33-6.663
		c0-0.541-0.148-1.028-0.148-1.48c-0.913-0.229-1.549-4.918-1.625-5.923c-0.296-3.924-4.825-0.801-6.944-1.333
		c-0.374-1.493,0.295-3.401,0.295-5.035c0-1.45-1.625-1.775-1.625-2.961c6.198-2.077,3.853-6.248,2.069-10.513
		c-2.349-5.613-0.022-10.31-1.477-16.14c-0.986-3.953-3.057-7.464-2.808-11.845c0-6.364-1.014-15.422-4.211-21.476l0,0
		c2.225-2.544,7.998-8.582,11.53-8.582c1.94,0,6.183,11.681,6.649,14.141c0.653,3.45-0.165,7.457,4.064,8.514
		c10.992,2.747,14.347-32.792,14.849-39.905c0-3.679-0.877-7.383-1.403-10.957c-0.389-2.642-1.256-5.245-1.256-7.921
		c-0.944-5.088-3.682-12.781-1.847-17.843c1.428-3.936,10.565-3.345,10.565-9.402c0-2.975,0.697-7.616-0.591-10.142
		c-0.779-1.528-2.549-2.891-3.029-4.813c2.615-0.857,5.486-2.764,8.053-3.479c2.383-0.665,5.149,1.669,8.048,0.518l8.422-7.552
		l6.797-7.995l4.138-14.955l-1.773-15.547l4.876-6.811l1.182-16.288l-9.9-21.025l-10.048-31.391l23.937-5.775l9.9-31.391
		l-14.481-23.543l-9.457,0.148l-14.037-17.324l7.979-59.82l-12.707-41.904l3.99-14.511l-3.694-22.062l9.013-10.069l-13.594-30.502
		l12.264-24.283l-2.955-14.215l9.752-15.547l17.879-28.726l10.934-11.105L185,705.827l36.644,10.068l9.752-20.73l-0.886-33.908
		l-24.528-19.249l34.871-65.891l2.807-14.807l6.058-7.995l1.477-45.161l4.877-18.657l-5.172-44.125l27.04-3.11l25.415-15.695
		l-5.467-28.133l14.48-19.99l19.8-37.906l18.174-18.213l0.443-20.581l-15.071-33.612l1.477-9.032l14.923-2.517l16.992-53.305
		l21.425-18.508l6.945-11.549l34.132,21.174l12.56-33.316l-0.148-46.494l13.889-6.811l10.343,10.069l22.311-1.037l48.317,23.099
		l15.366-19.397l-13.298-9.328l13.446-16.732l6.132-18.434l-1.404-19.915l-12.486-17.176l-0.517-0.592l26.227-2.962l0,0
		c1.527,2.547,4.981,2.398,7.462,3.22c2.832,0.94,4.604,2.112,5.947,4.813c0.9,1.809,2.517,2.792,3.325,4.516
		c1.003,2.138,1.634,3.846,0.148,5.96c-1.346,1.915-3.025,4.785,0.776,5.626c2.551,0.936,5.198,0.902,7.536,2.073
		c6.421,3.219,9.745,19.279,17.14,18.138c4.115-0.635,1.51,7.263,5.393,9.328c3.583,1.905,12.114,6.214,12.043,10.587
		c-0.125,7.655,5.031,3.68,8.127,5.182c6.807,3.304,7.791,13.287,12.928,15.696c3.223,1.51,5.526,0.911,8.865,0.592
		c3.055-0.291,3.638-0.227,5.023,2.443c1.19,2.292,3.309,0.629,5.319,1.185c3.33,0.92,4.683,6.447,8.423,3.85
		c1.949-1.354,3.59,2.516,4.58,3.702c2.908,3.486,5.869,0.496,8.718,5.034c1.976,3.148,6.189,5.31,8.718,7.996
		c4.098,4.353,5.721,6.263,5.984,12.956c0.144,3.673,0.692,6.927,1.552,10.439c0.97,3.962,3.389-0.296,5.615-0.296
		c2.705,0,3.813,8.514,4.581,10.586c2.223,5.996,6.087,7.778,10.491,11.92c1.688,1.588,4.777,2.928,5.393,5.256
		c0.918,3.466-2.718,7.384-4.876,9.551c-4.61,4.63-3.865,12.231-3.177,18.508c0.324,2.954-0.027,7.093,0.665,9.921
		c0.368,1.503,1.237,2.403,1.847,3.776c0.766,1.725,1.509,4.058,1.035,5.923c-0.979,3.848-2.099,4.375-4.211,7.551
		c-2.555,3.841-5.596,11.249-1.108,15.103c3.985,3.423,9.159,0.131,13.003,1.85c2.697,1.207,0.813,4.253,0.813,6.663
		c0,4.988,4.642,9.856,0.443,14.585c-1.739,1.957-4.078,1.086-5.91,2.221c-2.175,1.347-1.107,13.226-1.773,15.399
		c2.782,5.502,6.008,10.805,8.348,16.51c2.016,4.916,3.411,9.824,6.206,14.363c1.82,2.956,7.79,16.95,4.581,19.101
		c-4.078,2.733-2.615,18.613-3.103,23.543c-0.304,3.067,0.05,4.759-1.921,7.625c-5.297,7.705-11.853,13.928-10.121,24.358
		c1.682,10.127-0.437,21.172,10.786,26.949c4.952,2.549,3.436,5.767,5.319,10.439c2.487,6.169,4.974,12.34,7.461,18.509
		c2.24,5.558,1.577,11.621,2.955,17.028c0.446,1.754,0.409,3.878,0.475,5.688l0,0V491.337z M373.099,1495.851
		c-3.076,7.284-6.448,14.769-8.274,22.506c-1.944,8.24-2.867,15.664-6.723,23.395c-1.746,3.5-4.915,7.531-5.689,11.401
		c-0.112,0.084-0.185,0.112-0.295,0.222h-0.148c-1.395-1.845-0.17-11.079-0.074-13.622c0.238-6.288-3.492-12.966-2.66-18.657
		c0.69-4.716,4.226-8.952,5.541-13.548c0.993-3.474,5.638-16.362,9.309-17.028c7.739-3.565,11.155-19.55,14.111-26.801
		c2.358-5.785,2.808-22.802,11.082-22.802c1.316,3.948-1.206,5.478-1.921,9.328c-0.711,3.827,0.157,7.553-1.994,11.253
		c-5.821,10.007-7.396,20.222-10.269,31.021L373.099,1495.851L373.099,1495.851z M477.563,1425.444c0,5.635,1.315,9.81,7.388,8.588
		c-2.489,3.355-1.788,4.976-6.501,6.367c-2.991,0.883-5.966,4.808-6.723,7.847c-0.669,2.683,4.407,0.32,4.802,0.371
		c0.57,0.073-2.125,2.191-2.512,2.517c-3.121,2.627-7.773,4.573-11.229,7.255c-2.189,1.699-7.851,9.788-7.757,12.586
		c0.109,3.277,0.854,5.584-0.739,8.662c-1.244,2.406-5.948,5.627-8.718,5.627c-5.814,0,4.971-11.774,5.762-14.659
		c0.126-0.461,0.422-4.378,0-3.998c-6.218,5.601-3.123,0.987-4.728-4.516l-2.29-7.847c-0.546-1.869-4.07-5.123-3.029-6.367
		c3.005-3.595,5.318-3.658,4.063-9.032c-0.515-2.205-3.233-11.993-1.404-13.252c1.439-8.629,8.231-9.365,12.043-16.584
		c3.451-6.537,3.122-10.624,10.343-14.363c5.133-2.657,5.671-6.042,11.82-7.33c9.417-1.972,10.916,0.465,18.248-6.885
		c1.85-1.855,8.399-0.741,11.082-0.741c0.402,1.634-5.087,2.555-6.353,2.962c-2.168,0.696-3.396,2.022-3.029,4.294
		c0.069,0.428-9.797,14.797-11.599,15.769c-5.033,2.714-6.728,2.406-7.314,8.514l-1.108,11.549L477.563,1425.444L477.563,1425.444z
		 M502.164,1342.821c-0.7-0.054-1.07-1.401-1.256-2.073c-0.283-1.016-0.814-1.891-1.182-2.813c-0.694-1.74,0.671-0.911,1.404-0.297
		c1.151,0.963,2.796,0.815,4.211,0.815c1.48,0,2.832,0.649,1.773,2.147c-0.953,1.346-2.002,2.587-3.62,2.962L502.164,1342.821
		L502.164,1342.821z M586.829,758.317c1.358-1.445,1.868-3.189,2.217-5.034c0.329-1.738-0.217-2.331-0.518-3.85
		c-0.242-1.222-0.222-2.49-0.443-3.702c-0.312-1.719-0.195-1.847,0.739-3.479c0.541-0.947,1.314-2.155,2.29-2.666
		c2.346-1.228,0.841,4.531,0.812,5.553c-0.046,1.584-0.858,3.832-0.443,5.331c0.575,2.072,0.373,2.518-0.813,4.442
		c-0.941,1.528-1.677,2.893-3.103,4.146L586.829,758.317L586.829,758.317z"/>
	<g>
		<path fill="none" d="M667.962,511.287c0.61-1.485,1.685-3.169,1.685-4.686c0-2.589-4.059-5.052-4.95-7.478
			c4.411-3.047,0.386-6.889,2.881-9.254c2.565-2.431,0.627-7.32,2.511-8.588c1.355-0.911,2.327,1.588,3.916,1.999
			c3.229,0.836,0.352,7.234,4.359,6.441c5.789-1.147,4.184,2.634,7.166,3.628c1.011-4.113,0.665-7.249,0.665-11.402
			c0-1.857-3.908-8.998,0.147-4.738c3.344,3.513,6.301,11.547,10.713,13.326c4.285,1.729,6.035,3.459,8.2,7.181
			c2.929,5.036,1.147-1.801,4.654-1.999c1.427-0.081,4.702,2.154,4.802-0.074c0.073-1.637-2.827-10.344,0.295-8.884
			c2.634,1.233,2.049,0.558,4.581,0.444c1.501-0.068,1.477,2.188,2.143,3.257c1.35,0.416,3.589,2.267,3.915,0.148
			c1.363-8.856,4.367-0.296,9.309-0.296c0.689-1.391,4.182-5.615,5.836-5.479c0.995,0.081,1.667,5.614,3.694,6.367
			c3.195,1.186,9.457-1.645,12.338-3.035c3.505-1.692,5.596,1.604,7.345,3.171v-0.001c-0.066-1.81-0.029-3.934-0.475-5.688
			c-1.378-5.407-0.715-11.47-2.955-17.028c-2.487-6.169-4.974-12.34-7.461-18.509c-1.883-4.672-0.368-7.89-5.319-10.439
			c-11.224-5.776-9.105-16.821-10.786-26.949c-1.732-10.43,4.824-16.652,10.121-24.358c1.971-2.867,1.617-4.558,1.921-7.626
			c0.488-4.93-0.975-20.81,3.103-23.543c3.209-2.151-2.76-16.145-4.581-19.101c-2.795-4.539-4.189-9.447-6.206-14.363
			c-2.34-5.705-5.566-11.008-8.348-16.51c0.666-2.173-0.402-14.052,1.773-15.399c1.832-1.135,4.171-0.264,5.91-2.221
			c4.199-4.729-0.443-9.597-0.443-14.585c0-2.41,1.884-5.457-0.813-6.663c-3.843-1.72-9.017,1.572-13.002-1.85
			c-4.488-3.855-1.447-11.262,1.108-15.103c2.112-3.176,3.233-3.703,4.211-7.551c0.474-1.866-0.269-4.198-1.035-5.923
			c-0.61-1.373-1.479-2.273-1.847-3.776c-0.692-2.828-0.341-6.966-0.665-9.921c-0.688-6.277-1.434-13.879,3.177-18.508
			c2.158-2.167,5.794-6.085,4.876-9.551c-0.617-2.328-3.705-3.668-5.393-5.256c-4.404-4.142-8.268-5.924-10.49-11.92
			c-0.768-2.072-1.875-10.586-4.581-10.586c-2.225,0-4.645,4.257-5.615,0.296c-0.86-3.511-1.408-6.766-1.552-10.439
			c-0.263-6.692-1.886-8.602-5.984-12.956c-2.528-2.686-6.741-4.848-8.718-7.996c-2.849-4.538-5.81-1.549-8.718-5.034
			c-0.99-1.186-2.631-5.055-4.58-3.702c-3.739,2.597-5.093-2.929-8.422-3.85c-2.01-0.555-4.13,1.107-5.319-1.185
			c-1.386-2.669-1.969-2.734-5.024-2.443c-3.339,0.318-5.643,0.918-8.865-0.592c-5.138-2.408-6.121-12.392-12.928-15.696
			c-0.452-0.219-0.949-0.32-1.466-0.359l-88.879,379.158L667.962,511.287z"/>
		<path fill="none" d="M221.798,612.123l-15.816,29.886l24.528,19.249l0.886,33.908l-9.752,20.73L185,705.827l-20.982,5.182
			l-10.934,11.105l-17.879,28.726l-9.752,15.547l2.955,14.215l-12.264,24.283l13.594,30.502l-9.013,10.069l3.694,22.062
			l-3.99,14.511l12.707,41.904l-7.979,59.82l14.037,17.324l9.457-0.148l14.481,23.543l-9.9,31.391l-23.937,5.775l10.048,31.391
			l9.9,21.025l-1.182,16.288l-4.876,6.811l1.773,15.547l-4.138,14.955l-6.797,7.995l-8.422,7.552
			c-2.9,1.151-5.665-1.183-8.048-0.518c-2.567,0.716-5.438,2.622-8.053,3.479c0.48,1.922,2.25,3.285,3.029,4.813
			c1.288,2.527,0.591,7.167,0.591,10.142c0,6.058-9.137,5.466-10.565,9.403c-1.835,5.062,0.903,12.755,1.847,17.843
			c0,2.677,0.867,5.279,1.256,7.921c0.526,3.574,1.403,7.278,1.403,10.957c-0.502,7.113-3.857,42.652-14.849,39.905
			c-4.228-1.057-3.411-5.064-4.064-8.514c-0.466-2.459-4.708-14.14-6.649-14.14c-3.532,0-9.305,6.038-11.53,8.582
			c3.197,6.054,4.211,15.113,4.211,21.476c-0.249,4.381,1.822,7.892,2.808,11.845c1.455,5.83-0.871,10.526,1.477,16.14
			c1.785,4.265,4.13,8.436-2.069,10.513c0,1.186,1.625,1.511,1.625,2.961c0,1.633-0.669,3.542-0.295,5.034
			c2.119,0.532,6.648-2.591,6.945,1.333c0.076,1.005,0.712,5.694,1.625,5.923c0,0.453,0.148,0.939,0.148,1.48
			c-3.079,1.026-0.476,6.061,1.33,6.663c0,1.497-2.271,2.849-2.512,5.034c2.595,2.495,3.551,3.387,3.551,7.33
			c0,4.313,4.418-0.815,6.058-0.815c0,3.073-4.551,5.289-2.66,7.922c1.155,1.607,1.663,2.383,0.961,4.516
			c-1.738,5.277,0.289,4.892,3.99,3.035c0.936-0.469,4.816-2.733,4.949-0.37c0.072,1.281-4.799,5.067-5.91,6.885
			c-1.261,2.062,2.287,6.554,3.103,8.736c0.088,1.269-0.323,3.54,1.552,2.962c3.035-0.936,0.047,2.566,1.773,4.294
			c1.76,1.762,5.061-0.17,6.649,1.555c0.529,0.574,0.626,4.101,0.96,5.183c1.25,4.05,3.586,5.079,2.956,9.995
			c-0.302,2.355-1.197,5.798-0.665,8.144c0.504,2.228,2.171,7.384,3.177,9.402c1.418,2.846,3.225-6.13,6.066-6.568l187.762-800.994
			L221.798,612.123z"/>
		<path fill="none" d="M380.117,1312.616c2.997-0.862,5.838-5.036,8.127-7.107c3.61-3.267,8.003-3.514,11.895-6.442
			c4.656,0.089,5.043,2.905,6.649-2.295c0.646-2.094,3.152-2.909,4.802-4.146c4.577-3.43,4.676-10.396,8.791-13.474
			c2.307,2.288,3.53,9.424,7.24,10.217c0.926,0.198,3.024-4.432,4.506-5.479c1.513-1.068,2.901-0.786,4.433-2.147
			c1.026-0.911,1.014-2.631,2.29-3.85c2.611-2.494,13.718-2.429,13.668-3.776c-0.069-1.826-4.123-6.246-3.473-7.552
			c1.575-3.168,5.508-3.151,6.945-6.441c1.335-2.326,4.05-4.529,1.551-7.033c-1.777-1.781-3.356-3.828-5.615-4.96
			c-3.409-1.71-0.269-4.094-5.762-4.368c-1.76-0.088-7.61-1.497-7.61-3.702c3.779,0,6.121,1.583,9.974,0.297
			c6.286-2.099,8.91,6.026,12.633,8.884c2.352,1.804,10.57-3.426,12.633-5.257c2.923-2.595-0.748-5.812-2.438-7.921
			c-3.549-4.429,3.29-9.431,1.108-12.586c-4.163-6.022,2.953-7.244,1.995-13.697c2.383-6.72,8.164-7.85,14.702-7.181
			c7.988,0.817,3.302-3.8,1.403-7.33c-0.86-1.6,3.173-4.94,4.064-6.663c1.57-3.041-5.954-8.357-7.388-11.401l-8.2-17.399
			c-2.521-5.695-16.709-3.155-17.953-9.477c1.977-1.579,13.079-4.897,6.87-7.551c-5.251-2.245-3.158-2.276-1.182-4.146
			c1.307-1.237-3.699-9.448-4.507-12.29c-0.42-1.479-2.878-9.921-3.546-9.921c-0.787,3.2-0.846,13.01,0.369,16.066
			c2.395,6.024-3.682-0.222-6.28-0.222c-6.383,0-1.052-1.597-4.358-4.516c-3.562-3.144-8.139-6.686-10.565-10.883
			c-2.268-3.923-1.445-7.352-2.439-11.327l-10.195,3.479c-1.239,0.422-1.628,14.478-5.171,7.774
			c-0.815-1.542-3.24-1.112-3.842-2.591c-0.928-2.282,0.99-6.243,0.222-8.292c-2.63-5.764-8.266-2.765-11.584-3.649l-49.062,209.297
			C363.641,1312.153,373.163,1314.616,380.117,1312.616z"/>
		<polygon fill="none" points="414.728,183.923 397.477,173.221 390.532,184.77 369.106,203.278 352.114,256.584 337.191,259.101 
			335.713,268.133 350.785,301.745 350.342,322.326 332.168,340.539 312.367,378.445 297.887,398.434 303.202,425.783 
			355.178,437.967 		"/>
		<path fill="none" d="M166.652,1523.592c-0.447,2.646-1.081,5.574-2.556,7.426c-3.488,0-5.802-3.862-8.718-4.59
			c-1.679,2.264-5.375,4.414-3.177,7.108c2.025,2.481,12.495,13.967,8.274,17.101c-5.105,3.792-11.688-8.078-16.327-6.515
			c0,2.566,3.415,6.941,3.915,9.773c2.106,3.822,1.845,8.239,3.62,11.845l7.979,16.214c3.181,6.464,7.722,12.745,12.337,18.286
			c1.305,3.923,2.418,5.977,1.034,9.995c-1.059,3.073-3.712,3.479-6.058,5.109c-1.883,1.309-2.031,10.302-0.665,11.919
			c3.84,4.545,20.053,10.395,25.266,7.181c5.361-3.304,11.415-6.528,17.657-7.847c5.996-1.267,9.933,1.812,15.145,3.553
			c2.245-0.633,5.38,1.558,7.461,2.295c1.711,0.606,7.556-7.874,8.496-9.625c0.927-1.726,4.958-7.18,3.251-9.18
			c-1.211-1.419-2.773-2.644-3.177-4.59c-1.068-5.134-0.873-2.949-3.99-6.071c-3.448-3.453-2.29-7.943-2.29-12.66
			c1.632-4.909,14.689-22.999,20.465-21.84c0.522,1.054,1.741,2.581,1.994,3.85c0.84,0.211,5.171-0.444,6.649-0.444
			c0.243-0.328-2.216-4.739-2.364-5.849c-1.392-10.368,10.26-10.226,17.361-8.736c4.934,1.035,7.341,0.852,12.338,0.371
			c2.778-0.268,1.135,1.401,2.438,2.369c1.364,1.013,4.442,0.518,6.058,0.518c0.962-0.707,7.949-3.553,9.235-3.553
			c1.678,1.685,4.368-0.015,6.353,1.851l5.985,5.626c0.344,0,0.603,0.074,0.96,0.074c1.833-1.848,2.946-6.147,5.023-8.588
			c3.637-4.275,7.64-8.398,8.274-14.215c0.56-5.137,2.06-12.495,5.689-16.436c1.02-3.988,1.473-8.971,3.694-12.512
			c1.524-2.429,5.521-4.846,5.985-7.477c1.01-5.726,1.157-10.039,3.177-15.622c1.865-5.152,1.051-10.984,3.177-16.584
			c0.677-2.375,3.177-4.892,3.177-7.329c-4.938-3.734-5.213-6.602-4.211-12.142c0.961-5.315-0.068-5.229,4.137-8.884
			c2.324-2.021,0.624-4.729,3.029-6.219c9.26-5.74-0.649-14.786,0.739-23.099c0.849-2.654,3.691-7.771,3.177-10.365
			c-0.302-1.53-1.937-3.535-1.626-5.035c0.855-4.123,3.38-4.498,1.847-9.698c-0.953-3.236-1.051-6.652,1.182-9.329
			c2.27-2.72,1.132-8.784,3.103-11.845c3.317-5.15,1.151-7.351,0.813-13.178c0.722-3.73,4.804-7.661,3.103-11.549
			c-1.338-3.059-0.341-5.643,0-8.662c1.036-9.179-1.295-18.4-10.49-21.248c-3.197-0.99-6.318-0.894-9.385-0.411l-56.364,240.451
			L166.652,1523.592z"/>
		<path fill="none" d="M504.255,678.333l-32.207,137.396c3.531-0.532,8.527-2.862,10.909-4.772c6.282-5.042,2.841,2.295,7.609,2.295
			c1.01-5.049,3.539-5.396,6.501-8.958c1.427-1.717-0.612-4.865,0.813-5.849c3.239-2.234,5.692-2.125,4.137-7.181
			c-0.995-3.239,3.064-9.433,6.723-8.514c2.148,0.239,7.258,1.804,7.757,4.294c0.794-0.529-2.617-13.498-1.847-15.325
			c1.561-3.705,0.32-3.27,2.66-0.37c3.781,4.686,3.324,7.793,6.058,12.363c0.866,1.447,7.656-1.788,7.905-2.591
			c0.357-1.154-2.305-4.069-1.995-6.293c0.553-3.965,7.198-5.169,9.014-9.402c1.85-4.311,4.739-2.154,6.575-5.923
			c1.354-2.779,8.252-1.777,12.559-1.777c2.526,0,2.99,0.286,3.177-2.369c0.076-1.089,5.609,0.588,5.911-4.739
			c0.104-1.84,0.73-5.794,2.216-6.959c2.38-1.866,4.656,7.328,6.576-0.296c0.606-2.409,6.184-8.735,7.905-11.031
			c3.237-3.421,3.008-5.983,4.654-10.069l6.502-16.14c0.909-2.257,1.153-4.32,1.505-6.315L504.255,678.333z"/>
		<path fill="none" d="M507.114,1340.6c1.059-1.498-0.293-2.147-1.773-2.147c-1.414,0-3.059,0.148-4.211-0.815
			c-0.733-0.614-2.098-1.444-1.404,0.297c0.368,0.922,0.9,1.797,1.182,2.813c0.186,0.671,0.555,2.019,1.256,2.073v0l1.33,0.741
			C505.112,1343.187,506.162,1341.946,507.114,1340.6z"/>
		<path fill="none" d="M378.196,1463.72c-2.956,7.251-6.372,23.236-14.111,26.801c-3.671,0.666-8.316,13.554-9.309,17.028
			c-1.315,4.596-4.851,8.833-5.541,13.548c-0.832,5.691,2.897,12.369,2.66,18.657c-0.096,2.543-1.321,11.777,0.074,13.622h0.148
			c0.11-0.11,0.183-0.137,0.295-0.222c0.774-3.87,3.943-7.901,5.689-11.401c3.856-7.731,4.779-15.155,6.723-23.395
			c1.826-7.738,5.198-15.223,8.274-22.506h0l1.994-3.332c2.874-10.798,4.449-21.014,10.269-31.021
			c2.152-3.7,1.283-7.426,1.995-11.253c0.715-3.85,3.237-5.38,1.921-9.328C381.004,1440.917,380.554,1457.934,378.196,1463.72z"/>
		<path fill="none" d="M496.402,1380.431c-7.332,7.35-8.831,4.913-18.248,6.885c-6.15,1.287-6.687,4.672-11.82,7.33
			c-7.221,3.739-6.892,7.825-10.343,14.363c-3.812,7.219-10.604,7.955-12.043,16.584c-1.829,1.259,0.889,11.047,1.404,13.252
			c1.255,5.375-1.058,5.438-4.063,9.033c-1.041,1.244,2.484,4.498,3.029,6.367l2.29,7.847c1.606,5.503-1.49,10.117,4.728,4.516
			c0.422-0.38,0.126,3.537,0,3.998c-0.791,2.885-11.576,14.659-5.762,14.659c2.77,0,7.474-3.22,8.718-5.627
			c1.592-3.078,0.848-5.385,0.739-8.662c-0.094-2.798,5.568-10.887,7.757-12.586c3.457-2.682,8.108-4.629,11.229-7.255
			c0.387-0.326,3.082-2.444,2.512-2.517c-0.396-0.051-5.472,2.313-4.802-0.371c0.758-3.039,3.733-6.965,6.723-7.847
			c4.713-1.392,4.012-3.012,6.501-6.367c-6.073,1.222-7.388-2.953-7.388-8.588v0l0.518-2.665l1.108-11.549
			c0.586-6.108,2.281-5.8,7.314-8.514c1.802-0.973,11.668-15.341,11.599-15.769c-0.367-2.272,0.861-3.598,3.029-4.294
			c1.266-0.406,6.755-1.327,6.353-2.962C504.801,1379.691,498.253,1378.576,496.402,1380.431z"/>
		<path fill="none" d="M591.114,739.586c-0.976,0.51-1.749,1.719-2.29,2.666c-0.934,1.632-1.051,1.76-0.739,3.479
			c0.221,1.212,0.201,2.481,0.443,3.702c0.3,1.519,0.847,2.112,0.518,3.85c-0.349,1.844-0.859,3.589-2.217,5.034v0l0.739,0.741
			c1.426-1.253,2.161-2.618,3.103-4.146c1.186-1.924,1.388-2.37,0.813-4.442c-0.416-1.499,0.397-3.747,0.443-5.331
			C591.956,744.118,593.461,738.358,591.114,739.586z"/>
		<path fill="#FECC00" d="M595.87,699.809c0.469-2.658,1.13-5.194,3.814-7.9c0.192,0,0.266,0.049,0.444,0.074
			c2.777,3.891,5.978-6.817,7.019-8.292c7.017-3.815,14.087-10.969,18.469-17.694c0.718-1.102,3.048-3.878,2.364-5.256
			c-0.796-1.602-5.622,2.961-4.802-2.369c0.445-2.894-5.073-3.731-4.359-6.589c0.602,0,3.842,1.092,3.842,0
			c-3.239-1.619-1.043-5.948-2.956-6.811c-5.705-2.579-8.705-3.683-12.412-9.402c-0.898-0.9-4.814-3.67-5.023-4.516
			c2.078,0,7.818,3.188,9.457,2.369c0.874-0.437-1.573-2.909-1.921-3.332c-1.588-1.928-2.118-3.221-0.887-5.108
			c2.932-4.494-0.009-5.597-4.507-6.885c-6.678-1.914-1.006-3.476,1.773-4.442c4.039-1.406,0.907-6.352,3.324-8.958
			c4.305-4.641,5.241-7.122,7.314-13.326c0.225-2.952,0.196-2.509,2.955-2.221c0.784,0.082,3.404,0.356,3.915,0
			c0.378-0.262-0.88-1.044-1.034-1.185c-3.803-3.498-0.368-3.94,1.034-6.219c1.055-1.714,1.197-4.04,2.365-6.071
			c1.65-2.868-0.654-6.656-0.296-9.995c0.491-4.575-2.916-2.784,2.143-5.479c1.458-0.777,1.386-2.252,0.739-3.702
			c-1.343-3.007,1.55-6.432-2.143-5.997c-5.394,0.636-4.903-3.117-4.654-7.848c1.578-2.53,5.643-4.993,8.644-4.072
			c2.252,0.691,3.37,4.813,6.206,4.813c3.51,0,5.61-7.422,9.235-8.44c7.928-2.226-2.511-6.729-2.511-10.069
			c1.43-0.864,5.892,2.384,9.013,1.333c1.469-0.494,2.571-1.677,3.99-2.073c0.587-0.164,1.29,0.912,1.699,1.185
			c1.084,0.723,5.036,0.814,6.353,0.814c3.471,0-1.034-2.819-1.034-4.442c1.561-1.566,5.836-0.86,5.836-3.702
			c0-1.66-1.413-3.067-1.699-4.739c-0.1-0.583,0.088-1.257,0.383-1.976l-118.063-27.675l88.879-379.158
			c-3.024-0.228-6.767,1.714-6.661-4.823c0.071-4.373-8.46-8.682-12.043-10.587c-3.883-2.065-1.278-9.963-5.393-9.328
			c-7.395,1.141-10.719-14.92-17.14-18.138c-2.338-1.171-4.985-1.137-7.536-2.073c-3.801-0.841-2.122-3.711-0.776-5.626
			c1.487-2.114,0.855-3.821-0.148-5.96c-0.808-1.724-2.425-2.708-3.325-4.516c-1.343-2.701-3.115-3.873-5.947-4.813
			c-2.481-0.823-5.935-0.674-7.462-3.22l-26.227,2.962l0.517,0.592l12.486,17.176l1.404,19.915l-6.132,18.434L540.95,111.18
			l13.298,9.328l-15.366,19.397l-48.317-23.099l-22.312,1.037l-10.343-10.069l-13.889,6.811l0.148,46.494l-12.56,33.316
			l-16.88-10.472l-59.551,254.044l-51.976-12.184l0.152,0.784l-25.415,15.695l-27.04,3.11l5.172,44.125l-4.876,18.657l-1.478,45.161
			l-6.058,7.995l-2.807,14.807l-19.055,36.005l87.735,20.566l-187.762,800.994c0.071-0.011,0.142-0.021,0.214-0.021
			c0.693,2.77-1.719,5.81-0.961,8.514c0.502,1.789,1.683,2.288,2.956,3.48c1.485,1.389,1.086,3.665,1.403,5.479l5.615,15.622
			c1.42,3.951,4.735,6.975,5.319,11.105c1.145,8.08,7.577,9.533,11.23,16.436c3.384,6.393,6.032,13.24,12.855,16.88
			c3.449,2.742,7.291,5.949,6.501,10.883c-0.079,0.491-0.163,1.008-0.251,1.533l132.201,30.989l56.364-240.451
			c-4.829,0.76-9.527,2.484-14.182,2.484c4.949-1.227,4.519-5.182,11.82-5.182c0.952,0,1.945,0.05,2.964,0.127l49.062-209.297
			c-0.901-0.24-1.632-0.764-2.084-1.829c-1.429-3.367-6.167-4.478-9.308-5.256c0-0.146,0.014-0.105-0.074-0.222
			c0.961-1.689,3.505-2.601,3.842-4.886c0.267-1.814-0.815-3.394-1.035-5.109c-0.376-2.931,2.449-5.664,0.96-8.514
			c-2.151-4.115-7.192-5.203-5.91-11.031c0.508-2.313,3.349-1.878,2.364-5.257c-0.928-3.185-0.886-5.772-0.886-9.18
			c1.036-6.24-2.074-12.032-0.148-18.139c0.671-2.126,2.796-1.552,3.62-2.887c1.193-1.934-10.339-8.521-5.615-13.845
			c2.216-2.498,2.31-4.393,0.96-7.329c-2.138-4.647-3.14-6.345-1.035-11.623c1.301-1.907,3.127-2.57,4.581-4.294
			c1.029-1.222-0.677-4.617-1.552-6.293c-1.538-2.95-1.253-2.739,2.069-3.998c2.736-1.037,1.474,0.592,2.66,2.518
			c1.753,2.847,3.694,1.247,5.615,3.85l3.768,5.108c0.701-0.236,1.325-5.149,1.625-5.997c2.302-6.511,0.804-3.381-3.546-7.33
			c-2.596-2.357-1.354-5.459-1.477-8.44c-0.159-3.82-2.956-7.056-2.956-11.549c0-5.476,4.093-8.805,5.172-14.215l3.473-13.105
			c0.582-2.197,4.36-6.192,6.206-7.403c2.693-1.767,1.435-1.253-0.813-2.147c-2.85-1.134-13.002-12.4-13.002-15.547
			c2.339-0.589,9.333,2.057,8.718-2.739c-1.198-9.342,1.838-5.641,7.166-2.665c0.556,0.31,4.249-4.294,5.541-5.109
			c3.673-2.313,5.086-1.954,7.093-6.737c0.854-2.174,1.084-4.278,1.33-6.589c0.222-2.086,3.124,3.183,6.279-0.814
			c1.673-2.118-0.047-4.098-0.665-5.997c-0.45-1.384,2.275-2.914,2.955-4.368c0.66-1.411-0.324-2.976,0.222-4.072
			c0.807-1.621,2.843-2.397,3.251-4.22c1.098-4.911,0.96-3.76,4.581-7.034c2.419-2.188-0.158-3.155,0.739-5.7
			c1.508-4.284,4.293,3.417,7.905,0.962c5.19-3.529,1.33-4.224,1.33-8.144c0.875-0.528,4.741-0.533,4.581-1.925
			c-0.149-1.301-2.734-1.623-2.734-3.479c9.627-2.417-3.767-2.963-5.319-6.589c3.015-0.775,5.601,0.835,2.807-2.666
			c-0.772-0.968,1.007-0.83,1.552-0.814c1.224,0.035,5.187,2.677,5.911,0.814c0.423-1.088-2.428-3.675-1.552-5.774
			c0.664-1.589,2.658-1.452,2.881-3.48c0.481-4.377-0.98-5.33,3.768-5.33c0.417,0,0.873-0.041,1.355-0.114l32.207-137.396
			L595.87,699.809z"/>
	</g>
</g>
</svg>
