<?xml version="1.0" encoding="utf-8"?>

<!DOCTYPE svg PUBLIC "-//W3C//DTD SVG 1.1//EN" "http://www.w3.org/Graphics/SVG/1.1/DTD/svg11.dtd">
<svg version="1.1" id="Layer_1" xmlns="http://www.w3.org/2000/svg" xmlns:xlink="http://www.w3.org/1999/xlink" x="0px" y="0px"
	 viewBox="0 0 2717.562 1676.768" enable-background="new 0 0 2717.562 1676.768" xml:space="preserve">
<g>
	<path fill="none" stroke="#000000" stroke-width="3" stroke-miterlimit="10" d="M1100.699,356.952
		c2.463-3.471,5.713-7.477,10.222-5.168c3.859,1.977,6.377-0.83,10.315,1.015c3.671,1.721,4.827,0.798,7.459-1.846
		c4.181-4.197,7.465,0.607,11.972-1.385c4.487-1.984,8.934-2.607,13.537-0.553l5.339,1.082l0,0
		c4.054,1.476,12.845-17.69,15.61-12.689c3.375,6.104,3.203,3.685,9.117,4.43c1.836,0.231,2.487,1.815,3.223,3.369
		c1.467,3.093,4.254-1.687,6.262-2.122c3.795-0.822,6.427-5.707,9.348-3.759c2.354,1.569,7.327,3.913,10.131,1.662
		c7.768-6.237,7.518-0.014,15.747,3.045c5.069,1.884,13.063-0.575,18.418-0.369c8.724,0.336,12.073,10.686,16.208-0.923
		c2.598-7.296,1.589-2.409,6.262-4.061c3.013-1.064,5.09-6.031,8.564-7.105c4.296-1.328,7.791,0.525,12.156,1.292
		c5.12,0.899,18.001-7.196,21.825-3.599c5.221,4.911,6.349,0.285,12.433,1.015c4.884,0.586,5.459-6.133,10.589-7.013
		c4.191-0.719,3.629,4.148,4.881,6.736c2.528,5.221,3.99,0.532,7.644,0.093c5.538-0.666,4.577-1.648,3.315-5.998
		c-0.876-3.021,1.535-2.672,2.578-5.168c1.078-2.576-1.063-8.377,0.276-12.366c1.041-3.104-1.643-5.823,1.658-7.475
		c4.476-2.241,6.998-7.147,6.262-12.182c-1.003-6.86-7.665-6.618,2.302-11.72c3.345-1.712,1.814-3.964,1.473-6.644
		c-0.316-2.481,2.679-3.406,3.96-5.26c4.095-5.928,1.927,2.181,7.459-1.938c1.565-1.165,3.057-2.441,4.881-3.137
		c3.592-1.373,5.34-1.35,7.828-4.891c2.143-3.051,5.703-5.547,8.564-8.029c1.809-1.569,2.623-3.163,3.868-5.076
		c0.639-0.981,3.279-1.593,3.407-1.662c2.199,2.12,3.287,5.793,6.998,5.538c8.761-0.604,5.385-1.024,8.657,5.998
		c3.162,6.784,4.6,16.399,15.194,15.319c6.555-0.668,4.095-5.676,7.92-7.383c2.028-0.904,8.383,0.181,10.59,0.739
		c0,4.204,4.879,4.341,6.63,7.105c3.325,5.244,1.031,2.953,6.722,2.953c0,1.471,2.029,3.101,2.486,4.891
		c0.662,2.596-2.932,5.059-4.604,6.737c-4.044,6.693-3.051,5.153,0.921,9.136c5.829,5.847,6.708-10.852,13.445-2.491
		c5.002,6.208,5.566-9.137,11.327-9.137c0,1.879-1.282,4.877,1.197,5.353c0.865,0.165,5.203-0.598,5.342,0.646
		c0.583,5.235,5.148,0.703,8.012,2.215c1.047,0.554,2.843,7.277,4.42,9.044c1.674,1.876-2.392,4.747-3.039,6.459
		c-3.56,9.411,0.67,4.43,7.367,4.43c6.334,0,4.505-2.706,8.012-7.106c3.56-4.468,2.937-3.247,7.275-5.168
		c1.528-0.677,2.724-4.856,3.315-6.459c1.707-4.621,6.216,3.033,6.446-0.093c0.32-4.316,10.195-5.48,13.629-7.197
		c5.71-1.534,4.547,0.318,7.551,3.322c2.208,2.208,3.538-2.28,4.973-3.23c3.39-2.248,11.336-1.051,5.618-5.353
		c-3.566-2.681-0.589-4.417,2.118-6.921c0.738-0.683,3.179,1.035,5.618-1.015c1.695-1.425,2.245-3.818,3.683-5.538
		c1.972-2.361,6.223-5.434,8.933-7.013c3.596-2.098,2.204-5.41,3.684-8.583c2.022-4.819-3.75-2.877-0.277-7.198
		c2.526-3.141-0.408-3.855,4.605-1.753c3.473,1.456,5.649,0.002,9.209,0.553c3.578,0.553,6.023,1.754,9.762,1.754
		c8.088,0-1.001-5.869,8.288-7.105c4.754-0.633,5.808-4.614,8.749-7.752c5.291-5.644,9.306,3.556,14.641,6.182
		c2.626,1.294,5.517,0.185,8.381,0.185c4.196,0,1.842-1.915,1.842-4.337c2.234-0.756,5.394-0.065,7.551-1.385
		c1-0.612-1.016-6.444-0.092-8.675c1.911-3.942,4.885-7.279,8.841-9.228c3.339-1.644,3.028-3.355,3.591-6.46
		c0.736-4.066,2.693-1.673,3.868-4.337c0.892-2.02-0.712-3.828-0.184-5.538c0.949-3.069,3.923-4.181,4.88-8.213
		c0.576-2.421,3.934-1.274,5.526-3.876c1.564-2.559,6.974-7.981,4.513-10.889c-5.014-5.927,1.481-6.702,2.209-12.551
		c3.649-6.436-3.595-9.947,3.223-15.411c3.836-3.076,4.815-8.878,8.38-11.351c2.571-1.782,5.75-2.905,7.92-4.891
		c2.787-2.553-3.7-6.922,3.684-9.874c5.425-2.17,2.199-9.2,9.577-11.166c7.422-6.884,3.611-8.637,7.183-16.427
		c5.316-11.587-0.74-20.029,15.379-13.104c11.071,4.757,9.012,0.975,18.878-1.938c2.662-0.786,3.977-4.119,6.722-5.26l10.221-4.245
		c3.745-1.556,5.077-0.489,8.749,0c4.603,0.612,10.401-6.091,15.563-4.799c5.068,1.268,9.138-0.864,15.378-2.03
		c7.489-1.065,13.278-1.006,20.905-3.414c14.476-4.569,9.405,10.53,19.707,14.857c5.042,2.118,17.901-7.228,19.799-3.414
		c1.055,2.118,3.297,10.06,4.881,10.704l8.38,3.415c1.08,0.439-1.142,4.731,0,6.459c0.332,0.501,5.067-1.75,8.38,1.385
		c1.83,1.732,2.89-1.63,4.052-2.676c2.535-2.28,5.035-2.702,8.196-3.691l29.008,7.844c5.102,1.379,0.315,10.026,6.999,13.38
		c12.34,6.191,14.557-17.311,27.442-14.765c3.103,0.612,11.654-4.982,14.183-7.013c7.025-5.646,12.099,0.862,18.601,2.491
		l13.776,4.651c0.119-0.327,0.175-0.506,0.222-0.683c1.282-4.888,3.843-4.599,2.578-9.966c-0.698-2.965,3.082-4.113,3.776-6.828
		c0.537-2.102-3.333-3.68-0.092-5.63l12.708,0.184c4.161,0.714,8.677,2.233,12.432-0.461c5.181-3.719,12.709,6.205,12.709-4.061
		c0-4.749,7.45-11.382,8.38-7.751c0.948,3.709,7.322,2.916,10.221,7.105c3.32,4.799,12.892,5.109,16.761,10.428
		c2.479,3.41,5.59,27.066,14.09,23.44c5.062-2.158,2.373,0.774,4.973,2.583c5.168,3.594,8.139-7.196,11.235-3.229
		c2.242,2.871,3.75,0.674,6.261,0.553c2.971-0.143,1.75,2.944,1.75,4.984c0,5.489,4.519,10.025,0.645,15.411
		c-0.97,1.348,2.49,4.073,2.947,5.814c0.756,2.884-0.046,4.657,1.566,7.474c5.146,0.65,4.313,4.473,5.709,8.675
		c0.988,2.976,7.073,10.181,6.354,10.889c1.404,2.108-0.317,9.341,0.093,12.274c0.35,2.508,5.94,2.957,8.748,4.522
		c5.272,3.644,5.781,1.633,7.275,8.029c0.742,3.172,1.043,9.036,3.131,11.535c2.666,3.189,9.05,0.611,12.432,2.492
		c7.394,4.113,6.464,4.06,15.379,4.06c5.614,0,8.64,4.338,12.155,4.338c7.125,0,6.447,1.3,6.447-5.814
		c0-6.192,0.497-18.634,7.828-9.321c2.284,2.901,12.466,2.125,11.695-1.661c-0.091-0.452,8.007-4.788,9.117-3.322
		c1.18,1.557,5.248,5.586,6.171,1.384c0.324-1.478,9.51-8.079,11.234-8.675c6.955-2.4,8.999,4.328,17.958,0.647
		c3.703-2.12,8.512-10.337,12.248-3.599c1.259,2.27,3.947,5.849,6.722,3.783c2.197-1.637,4.711,0.99,5.985-1.569
		c0.684-1.37,2.903-2.897,4.421-1.846c1.693,1.171-0.441,6.177,2.394,5.721c3.32-0.535,5.563-3.876,9.669-2.491l3.18,1.158
		c0.236-0.733,0.827-1.269,2.162-1.343c5.932-0.33-0.672-4.586,1.104-7.752c1.535-2.738,3.065-5.329,5.481-7.075l0,0
		c1.18-0.854,2.573-1.505,4.281-1.876c5.798-1.259,8.455-2.887,13.261-6.459c3.625-2.695,5.529-5.575,8.657-0.277
		c2.31,3.913,3.42,4.799,8.012,4.799c7.521,0,13.491-2.249,8.748,6.459c-1.036,1.903-7.543,8.963-5.617,10.613
		c2.01,1.722,7.73,5.193,5.987,8.49c-0.468,0.883-0.968,1.652-1.467,2.33c5.593,1.838,11.591,4.768,17.306,5.791
		c3.9,0.699,5.155-1.628,5.249,1.754l0.185,6.644c0.05,1.793-2.774,3.289-2.211,4.983l2.947,8.86
		c0.836,2.513,5.158,1.971,5.158,4.891c0,4.188-0.031,9.369,1.289,13.288c1.789,5.318,7.706,7.938,9.578,13.565
		c0.17,2.994,4.119,13.473,7.827,13.473c1.606-3.212,5.889-8.305,9.947-8.305c2.47,0,3.694,1.937,5.802,1.937
		c1.799,0,2.75-2.953,4.052-2.953c0.864,1.729,5.747,5.235,7.735,5.629c3.263,0.647,6.045-4.508,10.59-5.445
		c4.003-0.824,7.833,0.896,5.065,5.537c0.778,1.309,4.801,0.923,6.354,0.923l0.092,0.093c0,6.048,0.722,13.215,6.631,17.164
		c2.994,2.002,3.673-0.548,6.354,3.783c1.857,3.001,4.354,3.2,7.459,3.968c0.231,0.942,0.403,4.464,0.184,5.353
		c-5.874,0,0.645,8.762,0.645,11.997c0,4.248,0.246,2.38,3.315,3.322c2.302,0.707,4.708,4.569,4.881,7.106
		c0.102,1.49-2.317,0.951-2.21,2.029c0.095,0.952,3.198,2.46,2.67,4.522c-0.327,1.278-0.619,2.581-0.368,3.969
		c0.352,1.951,2.705,4.762,0.645,6.828c-2.226,2.231,0.195,4.892,2.946,4.892l4.495,2.837c3.077-1.971,10.438,2.199,14.107,3.437
		c16.309,5.507,21.207-17.485,37.296-12.827c2.034,0.588,8.198,9.044,9.394,3.691c0.424-1.903-1.937-3.738,0.552-4.245
		c1.948-0.397,2.671,0.911,4.697,0.831c1.752-0.069,4.927-5.495,4.697,0.738c-0.198,5.381,0.492,5.414,4.052,1.845
		c4.212-4.22,4.976,0.777,6.516,4.061l-0.714,6.182c1.297,1.983,3.315,3.191,3.315,5.629c0,5.144,5.495-0.504,6.17,5.445
		c0.318,2.805,1.23,6.106,1.933,8.767c0.526,1.987,0.711,4.394,3.408,3.876c4.798-0.921,4.236-0.85,4.236,3.692
		c0,4.441-0.632,9.177-4.052,12.366c-0.503,1.356-1.724,2.252-1.657,3.691c0.3,6.429-4.817,5.19-5.986,9.874
		c-0.531,2.132-7.8,5.128-4.052,8.121c2.127,1.697,4.783,1.369,6.078,4.152c1.151,2.474,1.852,1.75,3.96,2.399
		c3.157,0.972,0.646,5.353,3.868,5.353c3.954,0,3.726-1.283,5.709,2.307l3.223,4.153l0,0l-6.446,4.891
		c-6.501,2.952-8.85,18.544-13.077,24.547c-6.348,9.013-19.573,4.28-27.258,10.427c-5.289,4.232,1.105,12.344,1.105,17.164
		c0,14.989-9.844,9.762-20.628,14.396c-11.565,4.969-12.92,12.667-19.34,22.332c-4.22,6.351-9.233,7.901-16.392,9.69
		c-9.542,2.384-26.402,5.158-33.889-2.861c-9.448-4.152-23.488-19.446-34.258-9.136c-7.507,7.186-5.922,27.674-15.655,29.161
		c-9.973,1.525-13.002,0.247-21.088-4.892c-4.982-3.166-9.553,1.857-13.813,3.784c-2.817,2.827-2.605,5.536-7.275,5.536
		c-2.715,0-5.607,0.889-7.367,2.953c-3.746,4.389-3.346,12.2-6.906,15.227c-3.143,2.673-7.152,5.337-9.762,8.582
		c-3.515,4.372-3.158,7.973-3.407,13.842c-0.257,6.062-4.817,12.392-10.959,13.935l-0.092,0.092l0.277,7.567
		c-1.406,7.55-0.057,14.061-9.025,17.903c-6.935,2.972-15.038,0.45-21.273,6.09c-3.825,3.459-5.322,9.029-9.394,12.274
		c-5.477,4.367-10.861,6.216-16.76,9.597c-6.924,3.971-10.769,13.295-13.814,20.302c0,11.328,4.567,20.32,5.986,31.007
		c1.408,10.604-4.051,22.176-4.051,32.945c0,10.005-22.895,12.262-30.298,15.134c-2.714,1.053-3.07,6.693-4.236,9.32
		c-2.368,5.339-3.94,10.726-7.46,15.596c-2,2.768-12.807,12.016-12.616,13.38l1.657,11.812c-0.494,8.547-8.338,10.456-11.327,17.164
		c-2.567,5.763,1.253,11.888,2.118,17.534c0.654,4.262-0.68,10.224-2.026,14.211c-1.656,4.911-8.379,6.265-11.511,10.151
		c-2.345,2.908-1.985,6.467-3.775,8.859c-1.891,6.162-3.482,18.677-9.117,22.332c-6.126,3.976-17.503,7.076-22.194,12.09
		c-3.9,4.168-7.307,8.25-10.498,13.104c-3.398,5.166-10.177,13.015-14.458,17.441c-2.261,6.806,10.541,7.376,13.538,10.612
		c5.809,6.274-2.242,11.563-4.973,16.519c-2.068,3.751-1.198,9.346-1.198,13.565c0,8.756-8.731,4.688-9.854,11.443
		c-1.859,11.196-13.984,4.626-17.865,13.196c2.825,11.36,8.805,16.31,3.591,28.424c-4.682,10.879-15.051,7.597-23.207,12.274
		c-6.617,3.794-8.156,12.705-11.88,18.64c-1.078,5.794-1.526,11.57-4.328,16.889c-1.196,2.272-6.188,9.733-5.618,11.904
		c1.842,7.017,12.174,7.339,14.274,12.459c3.316,8.079-1.05,8.991-5.617,13.565c-2.781,2.784-4.546,6.434-6.999,9.598
		c-5.42,3.613-15.858-0.063-18.602,3.045c-2.869,3.253,2.003,15.581-0.461,16.888c-12.44,6.602-10.78,24.547-27.258,17.625
		c-3.425-1.439-6.906-0.323-10.406,0c-6.699,0.618-10.089,13.128-12.155,18.826c0.417,5.508,2.998,6.809,1.842,12.92
		c-0.753,3.983-5.239,9.995-7.183,13.75c-3.714,7.173-13.111,16.489-12.8,24.27c0.336,8.446,4.337,10.65,8.84,16.519
		c1.92,4.993,4.955,8.032,5.25,13.658c0.196,3.731-1.329,11.912-4.513,14.119c-10.78,7.477-21.276-7.199-30.206,8.397
		c-3.448,6.023-7.459,13.915-7.459,20.948c0,4.044,2.583,8.118,2.21,11.997c-0.514,1.42-6.091,7.321-7.367,7.752l0.737,15.965
		l-0.092,0.092c-5.508,0-8.925,6.199-14.182,5.353c-7.151-1.151-7.171-4.862-11.327,3.783c-4.346,9.041-17.094,28.598-28.64,16.335
		c-1.761-1.871-3.004-6.519-3.776-7.291c-2.59,1.574-11.75,3.469-14.826,3.323c-3.484-0.293-9.483-9.159-14.182-11.259
		c-5.25-2.347-9.091,3.264-11.695,7.198c-4.411,6.662-16.225-10.536-22.839-9.689c-9.794,1.253-14.34,3.643-22.654,8.121
		c-7.629,4.107-16.488,12.938-14.551,21.317l3.223,13.934c1.019,4.409-11.119,3.684-13.722,3.784
		c-5.708,0.219-1.343,9.671-3.223,14.303l-3.775,5.906c-6.777,1.013-7.465,11.917-14.458,9.321c-3.357-1.245-3.845-6.12-8.472-3.138
		c-5.461,3.52-7.315,11.29-15.471,3.415c-4.535-4.378-10.328-11.759-16.024-14.212c-3.32-1.429-5.971-3.185-8.316-4.886
		l-5.129-0.374c-4.586-1.528-8.143-4.364-12.985-2.861c-4.763,1.477-2.902,7.59-3.775,11.167c-0.991,4.062-2.756,4.426-6.262,6.459
		c-12.61,3.36-21.891-3.615-33.06-5.998c-10.779-2.299-12.472-3.11-20.997,3.23c-4.347,3.232-12.327,3.811-17.773,3.414
		l-5.802,12.274l0,0c-1.506,0.099-5.92,3.595-6.078,0.185c-0.038-0.809,0.581-4.18-0.184-4.523c-1.025-0.461-2.09,1.323-2.67,1.938
		c-1.84,1.945-2.014-0.597-2.119-1.938c-0.107-1.375-2.351-1.366-3.407-1.66c-6.118-2.688-3.934-2.499-5.802-7.198
		c-0.437-1.099-7.552-7.382-8.472-7.382c-0.253-0.775-2.468,1.141-2.763,1.384c-1.488,1.217-3.203,1.832-4.788,2.861
		c-2.318,1.504-3.924,3.895-6.723,4.429c-3.497,0.669-9.246-6.74-12.524-8.767c-3.411-2.111-3.291-5.585-3.96-9.044l-4.163,0.744
		l-4.535,5.913l-4.362,4.893l-2.797,5.152l-5.048,0.371c-3.884,0-4.325-2.304-6.538-4.153c-0.275-2.234-1.6-4.989-2.67-7.013
		c-0.759-1.437-0.724-5.211-1.382-6.09h-11.05c-4.799,0-10.201,1.796-14.919,0.646c-11.176,0.851-17.801,10.721-29.376,14.026
		c-3.422,0.977-7.202-0.88-9.946,1.293l-11.88,9.413h-0.46c-3.418-5.109-11.567-7.164-17.313-8.213
		c-9.172-1.676-8.091-10.423-14.734-13.473c-4.797,0-10.701-4.089-11.972-9.229c-1.363-0.337-4.966,2.637-5.341,4.153
		c-1.559,0-9.137-3.84-9.486-5.261c-4.843-1.198-8.277,11.92-15.01,10.336c-3.641-0.856-21.283-5.675-21.457-1.938
		c-0.275,5.922-2.306,6.172-6.63,9.32c-7.009,5.101-7.821,2.864-13.998,5.076c-3.605,1.29,2.604,13.08,7.182,14.211
		c0,2.024-8.925,6.302-10.406,7.291c-2.643,2.237-3.557,2.933-6.63,1.938c-2.576-0.836-1.923,0.537-3.684,2.307
		c-3.564,3.58-0.434,7.245-3.499,11.074c-1.685,2.105-3.66,3.517-5.985,4.983c-3.861,2.436-5.695,6.808-8.657,9.966
		c-2.743,2.923-12.86,8.947-16.76,7.937c-3.067-0.793-4.403-5.146-6.262-7.383l-30.298,19.287c0,2.801,5.58,10.417,7.92,11.997
		c3.609,2.438-5.072,2.275-5.434,1.385c-3.17-7.798-16.347,1.931-21.18-3.322c-1.561-1.695-12.893-2.345-12.893,1.107
		c0,3.172-5.353,0.937-7.459,0.646c-2.07-0.285-10.017-0.841-11.143-2.306c-1.25-1.627-0.663-6.834-1.381-9.044l-3.96-12.182
		l-11.972,0.093c-0.666,2.694-7.789,11.419-9.67,13.842c-2.759,6.101-5.597,6.808-3.13,14.119c1.37,4.059,1.74,8.226,4.881,11.35
		c-0.03,0.118-0.063,0.159-0.093,0.277c-9.095,1.803-37.219-4.735-29.745,15.319c1.822,4.89,6.811,8.02-2.302,6.552
		c-6.003-0.967-0.267-8.186-10.682-2.214c-3.454,1.981-8.113,0.124-11.787-0.462c-3.407-0.542-6.891-3.783-9.578-4.061
		c-1.49-0.153-5.24,7.351-6.63,8.583l0,0c-1.464,0.488-2.787,0.956-4.328,1.015c-1.084,0.042-2.173-0.092-3.223-0.092
		c-3.332,0-3.399,1.667-4.696,4.337c-5.297,3.671-12.28,1.035-17.682,2.861c-6.714,2.269,2.625,12.487-4.236,14.027
		c-2.472,0.554-7.132-1.351-8.933-3.046c-3.341-3.142-8.075-1.349-8.841-5.997c-0.651-3.946-13.965-3.191-16.944-7.752
		c-6.612-10.126-17.531,4.688-19.615-3.784c-0.828,0-0.221,4.181-0.184,4.891l0.276,5.261c0.183,3.501,0.477,8.852-3.039,10.797
		c-0.411,0.827-6.251,8.942-6.722,4.799c-0.437-3.834-3.361-0.958-3.039,1.569c0.208,1.636,1.104,3.683,0.553,5.353
		c-0.52,1.574-3.739,1.342-4.789,2.86c-0.781,1.132,3.032,4.274,1.474,6.921c-2.605,4.427-5.094,0.5-6.538,7.014
		c-1.339,6.038-10.217,5.456-11.879,9.228c-0.515,1.168,2.516,5.214-0.461,5.353c-5.607,0.262-2.193-3.282-5.526,1.846
		c-0.871,1.342-3.462,0.462-4.789,0.462c-4.618,0-6.772,6.889-11.879,4.337c-4.449-2.224-3.877-8.357-8.012,0.185
		c-1.979,8.928-0.188,13.805-10.038,9.966c-7.335-2.859-4.94,10.833-4.789,13.565c0.334,6.028-5.183,1.401-8.472,0.831
		c-2.688-0.465-4.897,0.554-7.459,0.554c-1.786,0-3.578-9.668-7.091-11.72l-7.735-4.522c-0.31-0.18-5.823,4.986-6.999,6.459
		c-4.413,5.535-1.617,5.438-8.196,1.015c-6.84-4.597-13.877,1.974-19.668,1.127c-1.725-3.934-4.186-3.589-8.604-4.45
		c-6.716-1.308-16.907-19.632-26.522-9.781c-12.323,12.627-17.74-15.479-26.43-0.739c-6.94,11.773-11.833,11.081-22.102,3.23
		c-4.476-3.422-9.976-1.607-13.538-4.337c-7.982-6.119-3.854-6.803-14.09-4.799c-2.585,0.506-5.681,2.731-7.92,0.646
		c-1.676-1.56-3.135-1.885-5.249-0.554c-10.76,6.78-6.469-1.458-12.893-1.754c-10.656-0.491-12.59,19.475-24.956,5.999
		c-6-6.539-5.691-3.265-8.104-12.458c-1.062-4.049-6.125,1.998-7.827,2.399c-3.254,0.768-4.629-6.16-7.367-7.383
		c-6.377-2.85-6.326,5.264-13.169-2.676c-5.982-6.941-11.081-2.286-16.3-5.906c-3.179-2.205-1.877-3.605-7.091-2.861
		c-4.148,0.591-5.124,3.39-8.84,0.277c-6.647-5.57-7.747-17.517-10.59-25.47c-4.131-11.554-11.317-11.133-18.05-19.102
		c-4.547-5.381-8.124-11.021-15.747-9.782c-12.488,2.028-21.145,1.121-32.876-3.968c-2.968-1.287-6.656-5.053-9.394-2.029
		c-3.179,3.511,1.236,8.537-0.921,10.704c-5.95,5.976-8.714-10.992-13.169-2.953c-2.925,5.277-4.373-4.339-4.605-5.999
		c-0.872-6.239-10.845,6.396-14.549-1.66c-4.758-10.347,12.948-0.129,14.274-6.829c1.014-5.124-9.218,1.282-9.393-2.491
		c-0.199-4.277,6.729-5.772,5.617-10.52c-1.822-7.768-8.11,11.402-10.866,3.968c-0.495-1.336-0.414-6.744-2.394-6.829
		c-5.708-0.247-2.708,6.86-3.407,9.597c-0.882,3.453-6.774,3.09-5.71-1.292c0.824-3.391,3.737-5.468,2.027-8.675
		c-0.912-1.71-3.875,4.236-5.25,5.168c-1.88,1.274-3.167-3.655-2.486-5.076c3.991-8.327,1.627-5.757-6.722-5.997
		c-2.871-0.082-4.771-4.765-4.881-7.383c-0.167-3.965,12.42-7.234,5.986-8.859c-2.822-0.712-7.136,2.313-8.472,0.738
		c-2.427-2.863-1.563-9.323,0.921-11.812c5.593-5.606-8.95-3.923-10.958-6.275c-2.037-2.385,3.245-4.113,0.829-7.383
		c-2.121-2.871-15.451,1.855-11.511-2.86c2.204-2.638,3.678-0.918,5.341-4.891c2.531-6.047-2.259-2.142-3.867-4.892
		c-0.692-1.185,5.48-7.85-1.106-5.906c-4.301,1.27-8.156,1.558-12.247,2.953l-0.737-4.246c0.839-2.246,1.861-3.943,0.368-6.367
		c-2.363-3.832,2.947-2.436,2.947-4.799c0-1.526-1.4-2.982-1.843-4.429c-0.609-1.991,0.524-5.083-0.736-6.645
		c-2.297-2.85-8.134,2.78-6.999-4.614c0.308-2.011,2.212-3.002-0.553-4.06c-3.154,0-5.002-2.164-7.643,0.646
		c-2.156,2.293-3.861,0.506-4.42-1.754c-1.402-5.675-4.514-1.419-8.473-5.722c-2.697-2.93-3.099-2.491-6.906-2.491
		c-5.666,0-2.447-5.28-6.906-6.644c-8.171-2.498-12.347-7.578-19.431-11.074c-8.189-4.042-15.195,1.49-15.195-11.905
		c-8.053,0-8.217,3.684-13.442-4.474c-0.47-1.296-1.107-2.546-2.213-3.647c-2.639-2.624-6.568-1.824-8.472-5.445
		c-1.845-3.507-3.436-4.973-6.354-7.567c-3.82-3.396-2.742-7.346-2.666-11.256c0.037-1.908-0.165-3.81-1.293-5.631
		c-2.029-3.277-4.127-5.235-3.131-9.505c0.317-1.365,2.632-3.535,1.566-4.522c-1.956-1.811-3.637-2.211-3.776-5.076
		c-0.138-2.844-3.343-3.021-5.157-4.245c-2.559-1.727-2.688-5.938-5.71-6.644c-4.896-1.145-7.295,1.462-10.774-3.783
		c-1.417-2.136-3.289-9.796-7.551-4.984c-5.017,5.664-5.03-1.616-7.367,0.554c-1.455,1.351-3.937,1.836-4.237-0.923
		c-0.375-3.449-5.235,0.14-6.353-3.045c-1.819-5.178,0.421-9.215-7.275-3.045c-2.723,2.182-5.154-1.455-6.078-3.599
		c-2.917-6.767-5.833-13.537-8.749-20.303c-2.174-5.045-9.124-4.394-9.486-7.013c-0.258-1.868,1.83-3.732-0.368-5.076
		c-4.415-2.701-9.304-0.402-13.63-3.414c-1.035-0.72-2.143-0.679-3.29-0.449l0,0l-2.05-4.443c-2.641-2.108-9.084-0.477-12.524-1.753
		c-3.58-1.329-5.04-7.261-8.473-9.506c-2.635-1.721-3.97-3.696-6.169-5.906c-2.175-2.184-2.865-7.508-2.302-10.52
		c0-1.136-0.184-2.127-0.184-3.137l-0.092-0.092c-5.826-1.472-3.503-5.256-3.96-10.059c-0.742-7.806-2.993-6.182-9.301-6.182
		c-3.552,0-2.907-5.127-3.039-7.66c-0.358-6.798-5.795-3.798-6.814-8.398c-0.608-2.742-1.938-2.683-4.052-4.337
		c-2.13-1.668-3.482-2.791-3.868-5.537c-0.8-0.198-1.925-1.099-3.131-1.384c-0.784-0.186-4.213-0.233-4.512-0.831
		c-0.19,0-0.321-0.039-0.369-0.185c-1.531,0-3.018-4.503-3.131-5.722c-0.585-6.528-11.047-2.725-10.59-8.674
		c0.419-5.47-1.859-6.195,1.843-10.89c0.346-0.438,0.877-2.278,1.381-2.214c1.79,0.224,6.359,7.113,8.104,2.491
		c1.617-4.285,0.483-9.644,1.75-13.749c0.539-1.75,2.394-4.023,2.394-5.63c-3.921,0-15.732-0.319-18.786-1.846
		c-8.786-4.393,2.261-7.532-0.829-10.889c-3.099-3.368-3.5-2.863-5.894,0.461c-2.192,3.042-5.25-6.217-4.604-8.213
		c-1.586-4.777-10.867-9.724-10.867-14.027c0-3.477,4.39-8.106,3.592-11.351h-0.184c-0.148-0.449-6.395-0.276-7.367-0.276
		c-0.427-1.31,0.037-10.166,0.552-10.336v-0.277c10.033-2.48,9.11-2.543,11.235-12.181c1.17-5.31,1.773-15.083-4.973-16.058
		c-0.073-0.256-1.946-1.689-2.302-2.214c-2.17-0.906-6.511-3.704-8.012-5.537c-0.961-1.175-2.49-4.821-3.683-5.353
		c-4.622-2.062-12.356,0.967-17.958-1.016c-0.935-0.331-3.496-1.428-3.591-1.292c-2.617,3.786-4.847,4.984-9.762,4.984
		c-6.217,0-7.304,2.258-11.88,5.076c-2.043,1.257-4.636-0.469-6.906,0.553c-3.815,1.715-2.331,2.167-6.999,1.846
		c-3.048-0.21-5.469-0.644-6.17-4.061l-3.96-3.137l0,0c2.5-2.204,5.091-2.694,6.907-5.629c1.131-1.828,2.445-4.44,4.144-5.813
		c1.877-1.519,4.007-1.898,5.525-3.969c2.097-2.861,3.523-6.008,6.63-7.936c4.394-2.727,4.008-11.254,6.131-14.736
		c0.241-0.092,0.713-0.366,1.421-0.859c1.57-1.092,2.869-1.722,4.788-1.569c1.656,0.133,2.356,4.655,5.71,1.292
		c2.117-2.122,3.132-1.392,5.434-2.583c1.667-0.862,0.761-3.135,2.21-4.061l0.767-4.15c3.234-6.947,4.508-0.748,8.625-1.664
		c4.78-1.062,0.909-28.054,9.762-28.054c2.687,10.867,4.662,3.617,12.524,5.721c1.826,0.489,4.183,2.74,5.802,1.661
		c4.043-2.695-1.414-8.931,6.722-4.614c7.05,3.742,10.179,3.452,18.878,1.384c2.448-0.582,11.331,14.891,14.458,3.138
		c2.258-7.473,8.767,6.678,12.432,1.569c2.28-3.18,11.235-0.944,11.235-4.522c-7.398,0-8.821-7.075-12.893-11.166
		c-1.452-1.458-3.512-5.223-6.169-3.968c-1.543,0.729-4.44,3.968-5.895,3.968c-0.811-3.28-5.634-4.063-0.184-6.644
		c4.216-1.996,9.979-6.679,14.55-7.198c3.516-0.4,14.458-0.671,14.458-5.998c-2.906-0.961-5.002-5.317-7.09-5.813
		c-1.985-0.473-5.17,1.943-5.526-1.2c-0.134-1.186-8.117-1.459-6.262-4.615c1.201-2.041,3.061-0.812,0.093-2.214
		c-2.984-1.409-3.868-3.898-3.868-7.198c2.768-2.034,3.815-0.584,6.354-1.569c1.445-0.561-0.091-3.561,1.197-4.522
		c3.089-2.302,8.242,1.525,6.354-5.168c-1.676-5.942,17.916-1.706,10.958-9.413c-3.84-4.256-0.995-7.567-7.459-7.567
		c-3.312,0-7.883,0.082-11.143,0.646c-2.628,0.455-5.436,1.657-8.011,1.846c-1.338,0.099-1.946-2.287-2.671-3.599
		c-2.241-4.054,2.39-3.189,3.684-6.091c1.65-3.705,1.2-6.599-1.382-9.874c-2.942-6.745-7.815-1.133-12.432-4.798
		c-0.613-0.486-2.762-9.136-2.762-10.059c0-2.789,6.6,0.495,8.012-2.86c1.245-2.955-0.296-5.97,0.276-8.952
		c0.383-1.996,2.455-3.054,1.566-5.353c-0.723-1.869-2.407-12.171,0.737-11.997c3.714,0.207,3.776,3.902,8.472,2.584
		c6.34-1.777,3.02-7.526,4.697-11.536c0.958-2.289,4.008-1.283,4.42-2.768c0.335-1.208-2.452-5.805-2.762-7.475
		c-0.599-7.844-4.499-13.243-6.815-20.21c-1.762-5.304-10.589-7.814-10.589-13.842c3.962,0,5.772,0.632,6.538-3.783
		c0.297-1.714,0.831-3.732,0.736-5.445c-0.333-6.007-2.837-3.363,2.118-7.752c0.798-0.706-2.018-2.382-2.486-2.676
		c-2.002-1.262-2.535-4.845-3.499-6.921c0.775-4.672,5.536-9.978,11.419-7.567c3.195,1.309,12.071,22.517,13.076,8.951
		c0.787-10.62,11.518-6.998,14.275-0.092l10.958-4.522c3.286-1.356-1.341-5.078,3.684-7.844l13.077-7.198
		c3.047-1.677,2.474-5.445,6.078-5.445c3.749,0,7.733-10.369,10.314-13.38c4.892-5.711-3.452-10.391-4.973-16.15
		c0.916-1.837,2.21-5.341,3.96-6.552c3.51-2.429,0.584,3.709,4.329,1.938c1.965-0.928,7.126-3.769,7.459-6.091
		c3.017-0.597,5.773-4.457,3.315-7.198c-0.583-0.652,3.565-6.355,4.328-6.736c0-0.128-5.572-1.346-6.722-3.414
		c-1.259-2.262-2.309-4.062-2.947-6.644c-0.187-0.046-0.322-0.183-0.368-0.37c-2.208-0.546-4.682,0.827-6.538-0.83
		c-5.963-5.319,0.125-3.569,1.658-8.306c0.932-2.876-1.55-7.654-3.131-9.782c1.002-1.672,2.486-3.505,2.486-5.536
		c-0.169-0.042-0.142-0.016-0.184-0.185c-2.378,0-5.212-1.367-6.262-3.691c1.03-6.201-2.329-6.515-6.63-9.412
		c-2.856-1.926-3.685-0.147-6.354,1.384c-4.287,2.458-9.545,3.507-14.457,3.507c-4.975,0-9.64-5.046-13.261-8.121
		c-1.894-2.143-9.904-8.305-12.617-8.305c-1.165,3.521-1.609,6.259-5.894,4.152c-3.018-1.484-4.754,0.262-5.986-3.322
		c-1.309-3.81-24.128-5.013-24.128-9.504c0.901-0.227,4.261-1.327,4.513-2.215c8.269-1.17,4.294-13.142,6.814-15.965
		c2.004-2.246,2.329,7.398,6.722,7.937c4.051,0.497,11.542-14.952,15.379-13.842c4.979,1.441,2.987-3.045,8.104-3.045
		c2.076,0,8.288-3.114,8.564-5.076l-3.407-6.183c-1.74-3.159-1.746-4.621,2.118-5.168c0.198-1.406-0.05-2.913,0.276-4.337
		c0.105-4.469,2.354-5.397,6.446-3.507c4.736,2.189,10.833-2.826,16.484-2.491c1.426,0.084,2.29,1.474,4.42,1.384
		c1.814-0.076,3.404-1.107,5.158-1.107c0,14.69,20.931,8.445,28.916,12.827c5.728,3.142,10.332,24.418,13.169,30.823l30.482-0.923
		c2.803-5.778,1.766-9.685,6.814-14.396c1.53-1.427,7.06-7.106,8.933-7.106c-1.274,1.705-1.137,10.362-0.276,12.551
		c0.855,2.174,0.127,4.968,2.209,5.813c13.262,5.383,30.821-2.157,43.927-5.168c4.308-0.306,8.599-2.016,12.893-2.676
		c7.941-1.22,18.499-2.953,26.338-2.953l0.092-0.092c-0.124-0.5-5.88-5.473-6.722-6.46c-4.288-5.017-3.491-12.605-3.776-19.01
		c-0.16-3.624-0.295-6.631-1.474-10.058c-1.449-4.214-5.481-7.125-4.16-12.092c0.507-1.145,2.495-4.054,3.607-4.889
		c0.847-0.637,5.239-3.078,3.408-4.522c-0.922-0.726-3.408-2.516-3.408-3.691c0-4.453-2.378-2.383-4.42-5.353
		c-0.966-1.404-0.261-2,0.276-3.229c0.435-0.999,0.369-2.175,0.369-3.322l-15.655-12.09c0.887-1.293,1.903-3.913,2.117-5.445
		c2.97-0.73,5.947,2.888,9.486,1.662c2.748-0.951,5.281-4,8.196-5.168c2.557-1.024,8.768,0.658,9.117-0.554
		c0.628-2.18,4.712-9.653,6.446-10.52v-0.185c0.141-0.046,0.092,0.002,0.092-0.184c0.141-0.047,0.092,0.002,0.092-0.185
		c-6.294-2.083-1.85-5.813-0.276-9.597l3.131-8.029l-8.012-3.783l9.67-14.858l-6.907-5.537l17.497-16.242l5.987-3.876l0,0
		c4.351-2.005,11.617-7.476,16.484-6.829c1.616,0.215,2.798,1.839,4.236,1.754c2.353-0.138,4-2.768,7.091-2.768
		c6.249,0,2.478,5.249,4.42,8.398c3.286,5.333,12.976,5.725,18.509,5.998l13.849-0.4c3.227,2.931,6.052,6.797,8.344,11.012
		c4.781,8.787,13.118,9.683,18.142,17.164c2.966,4.418,5.021,5.409,8.473,8.675c4.314,4.082,5.61,13.161,8.288,18.549
		c5.49,11.042,18.084,13.336,28.363,17.533c3.691,1.506,6.349,5.357,7.92,8.952c0.85,1.946,1.087,4.525,1.658,6.552
		c0.796,2.825,3.535,4.345,4.144,7.013c2.643,11.563,11.084-0.675,17.958,2.768c5.798,2.905,11.712,10.871,17.313,15.042
		c5.423,4.037,9.918,6.532,14.458,11.628c2.805,3.148,6,8.228,10.13,9.504c6.882,2.128,14.146,0.708,20.352,5.261
		c1.585,1.162,3.113,1.955,4.625,2.48c5.401,1.879,10.633-0.058,17.661,0.38c5.482,0.341,11.398-0.805,17.036,0.277
		c6.231,1.196,7.1,0.297,12.617-1.754c10.014-3.724,10.875,2.604,19.983-7.105c3.168-3.378,9.488,3.864,12.524,5.168
		c4.494,1.931,9.036-3.294,12.709-4.984c10.014-4.608,32.346,0.704,44.799,4.764c1.529,0.498,2.849,1.206,4.1,1.419
		c5.118,0.874,7.889,3.232,13.63,1.846c12.618-3.049,18.736,0.515,30.298,3.599c8.862,2.363,16.279,1.48,24.956-1.2
		c12.201-3.767,17.848-8.462,30.85-8.767c5.765-0.135,8.238-5.23,13.077-5.998c5.663-0.9,6.964,4.252,10.682,4.891
		c10.229,1.758,12.067-1.461,20.536-5.813c10.775-5.539,23.743,2.214,34.811,2.214c12.861,0,26.045-5.841,34.901-14.673
		c3.957-3.946,1.481-12.834,8.288-14.303c4.91-1.06,12.249-6.993,17.405-5.998c7.276,1.404,14.553,2.813,21.831,4.218
		c0.459-0.883,0.642-1.98,1.377-2.65c5.07-4.62-0.267-4.614-2.947-4.614c-10.267,0-5.307-8.201-9.762-13.012
		c-1.838-1.985-4.063-1.352-6.354-1.938c-2.341-0.599-2.879-2.23-3.407-4.245c-0.313-1.195-16.769-4.603-11.787-9.597
		c3.475-3.484,1.853-3.697-1.198-7.013c-1.349-1.466-0.281-2.352,0.829-3.599c1.153-1.297,0.104-3.141-0.276-4.799
		c-1.897-8.276-0.49-4.9,3.499-10.797c3.13-4.628-2.018-6.535-0.368-9.781c1.615-3.179,4.381-3.667,2.21-7.568
		c-1.854-3.332-8.453-8.437-5.342-12.366c2.365-2.985,6.99-2.479,8.38-4.06c2.201-2.5,4.805,1.854,6.354,0.738
		c2.891-2.083,8.224-6.003,8.472-9.966c0.106-1.698-2.157-2.445-2.578-4.153c-0.708-2.865-0.828-6.347,1.29-8.213
		c5.637-4.969,2.24-4.101,0.921-8.121l0,0L1100.699,356.952z"/>
	<g>
		<path fill="#436F4D" d="M198.129,1106.375c0,1.606-1.855,3.88-2.394,5.629c-1.267,4.105-0.133,9.464-1.75,13.749
			c-1.745,4.622-6.314-2.267-8.104-2.491c-0.503-0.063-1.034,1.776-1.381,2.214c-3.702,4.695-1.423,5.42-1.843,10.89
			c-0.457,5.949,10.006,2.145,10.59,8.674c0.113,1.219,1.6,5.722,3.131,5.722c0.047,0.146,0.179,0.185,0.369,0.185
			c0.299,0.597,3.728,0.645,4.512,0.831c1.207,0.285,2.331,1.186,3.131,1.384c0.386,2.747,1.738,3.869,3.868,5.538
			c2.114,1.654,3.444,1.595,4.052,4.337c1.02,4.6,6.456,1.6,6.814,8.398c0.133,2.533-0.512,7.66,3.039,7.66
			c6.308,0,8.559-1.624,9.301,6.182c0.457,4.804-1.866,8.588,3.96,10.059l0.092,0.092c0,1.01,0.184,2.001,0.184,3.137
			c-0.563,3.013,0.128,8.337,2.302,10.52c2.2,2.21,3.535,4.186,6.169,5.906c3.433,2.244,4.893,8.176,8.473,9.505
			c3.44,1.276,9.883-0.355,12.524,1.753l2.05,4.443c1.147-0.23,2.256-0.271,3.29,0.449c4.326,3.012,9.215,0.713,13.63,3.414
			c2.198,1.344,0.11,3.207,0.368,5.076c0.362,2.619,7.312,1.968,9.486,7.013c2.916,6.766,5.832,13.536,8.749,20.303
			c0.924,2.144,3.355,5.781,6.078,3.599c7.697-6.17,5.456-2.132,7.275,3.045c1.119,3.185,5.979-0.403,6.353,3.045
			c0.3,2.758,2.782,2.274,4.237,0.923c2.337-2.17,2.35,5.11,7.367-0.554c4.263-4.813,6.134,2.847,7.551,4.984
			c3.479,5.245,5.879,2.638,10.774,3.783c3.021,0.706,3.151,4.917,5.71,6.644c1.814,1.224,5.018,1.401,5.157,4.245
			c0.139,2.864,1.82,3.265,3.776,5.076c1.066,0.987-1.248,3.157-1.566,4.522c-0.996,4.271,1.102,6.229,3.131,9.505
			c1.127,1.822,1.329,3.724,1.293,5.631c-0.075,3.91-1.153,7.86,2.666,11.256c2.919,2.594,4.51,4.06,6.354,7.567
			c1.904,3.621,5.833,2.821,8.472,5.445c1.107,1.101,1.744,2.351,2.213,3.646c5.225,8.158,5.389,4.474,13.442,4.474
			c0,13.395,7.006,7.863,15.195,11.905c7.084,3.496,11.26,8.576,19.431,11.074c4.459,1.364,1.24,6.644,6.906,6.644
			c3.808,0,4.209-0.438,6.906,2.491c3.959,4.302,7.071,0.046,8.473,5.721c0.559,2.26,2.264,4.046,4.42,1.754
			c2.641-2.81,4.489-0.646,7.643-0.646c2.765,1.058,0.86,2.049,0.553,4.06c-1.134,7.394,4.703,1.764,6.999,4.614
			c1.26,1.563,0.127,4.655,0.736,6.645c0.442,1.447,1.843,2.903,1.843,4.429c0,2.363-5.31,0.966-2.947,4.799
			c1.493,2.424,0.471,4.121-0.368,6.367l0.737,4.246c4.091-1.396,7.946-1.683,12.247-2.953c6.586-1.944,0.413,4.721,1.106,5.906
			c1.608,2.75,6.398-1.155,3.867,4.892c-1.663,3.973-3.137,2.253-5.341,4.891c-3.94,4.716,9.39-0.011,11.511,2.86
			c2.416,3.27-2.866,4.999-0.829,7.383c2.009,2.352,16.551,0.67,10.958,6.275c-2.483,2.489-3.348,8.949-0.921,11.812
			c1.336,1.576,5.65-1.45,8.472-0.738c6.435,1.625-6.153,4.894-5.986,8.859c0.11,2.618,2.01,7.301,4.881,7.383
			c8.349,0.24,10.713-2.33,6.722,5.997c-0.68,1.421,0.606,6.349,2.486,5.076c1.375-0.932,4.338-6.878,5.25-5.168
			c1.71,3.206-1.203,5.283-2.027,8.675c-1.064,4.381,4.827,4.744,5.71,1.292c0.699-2.738-2.3-9.844,3.407-9.597
			c1.98,0.085,1.9,5.493,2.394,6.829c2.756,7.434,9.045-11.736,10.866-3.968c1.113,4.748-5.815,6.244-5.617,10.52
			c0.175,3.773,10.406-2.633,9.393,2.491c-1.325,6.701-19.032-3.518-14.274,6.829c3.705,8.057,13.677-4.578,14.549,1.661
			c0.231,1.66,1.68,11.276,4.605,5.999c4.454-8.039,7.219,8.929,13.169,2.953c2.157-2.167-2.258-7.193,0.921-10.704
			c2.738-3.023,6.426,0.743,9.394,2.029c11.731,5.089,20.388,5.996,32.876,3.968c7.623-1.238,11.201,4.401,15.747,9.782
			c6.732,7.969,13.918,7.548,18.05,19.102c2.843,7.953,3.943,19.9,10.59,25.47c3.716,3.113,4.692,0.315,8.84-0.277
			c5.214-0.744,3.913,0.657,7.091,2.861c5.219,3.62,10.318-1.035,16.3,5.906c6.843,7.94,6.792-0.174,13.169,2.676
			c2.739,1.223,4.113,8.151,7.367,7.383c1.702-0.401,6.765-6.448,7.827-2.399c2.413,9.193,2.104,5.918,8.104,12.458
			c12.366,13.476,14.3-6.49,24.956-5.998c6.424,0.296,2.133,8.533,12.893,1.754c2.114-1.331,3.572-1.006,5.249,0.554
			c2.239,2.085,5.335-0.14,7.92-0.646c10.235-2.004,6.107-1.32,14.09,4.799c3.561,2.73,9.061,0.915,13.538,4.337
			c10.269,7.851,15.162,8.543,22.102-3.23c8.69-14.74,14.106,13.366,26.43,0.739c9.614-9.851,19.805,8.473,26.522,9.781
			c4.418,0.861,6.879,0.515,8.604,4.45c5.791,0.847,12.828-5.724,19.668-1.127c6.579,4.423,3.783,4.52,8.196-1.015
			c1.176-1.474,6.69-6.639,6.999-6.459l7.735,4.522c3.513,2.052,5.305,11.72,7.091,11.72c2.562,0,4.771-1.019,7.459-0.554
			c3.288,0.57,8.806,5.197,8.472-0.831c-0.151-2.732-2.546-16.425,4.789-13.565c9.85,3.838,8.058-1.039,10.038-9.966
			c4.135-8.542,3.563-2.409,8.012-0.185c5.107,2.553,7.261-4.337,11.879-4.337c1.327,0,3.918,0.88,4.789-0.462
			c3.333-5.128-0.081-1.583,5.526-1.845c2.977-0.138-0.054-4.185,0.461-5.353c1.663-3.771,10.54-3.19,11.879-9.228
			c1.444-6.514,3.933-2.587,6.538-7.014c1.559-2.648-2.255-5.789-1.474-6.921c1.049-1.518,4.269-1.286,4.789-2.86
			c0.551-1.669-0.345-3.717-0.553-5.353c-0.322-2.527,2.602-5.403,3.039-1.569c0.472,4.143,6.311-3.972,6.722-4.799
			c3.516-1.946,3.222-7.296,3.039-10.797l-0.276-5.261c-0.037-0.71-0.644-4.891,0.184-4.891c2.084,8.472,13.004-6.342,19.615,3.784
			c2.979,4.561,16.293,3.806,16.944,7.752c0.765,4.648,5.5,2.855,8.841,5.998c1.801,1.695,6.461,3.6,8.933,3.046
			c6.861-1.54-2.478-11.759,4.236-14.027c5.402-1.827,12.385,0.81,17.682-2.861c1.297-2.669,1.364-4.337,4.696-4.337
			c1.05,0,2.139,0.133,3.223,0.092c1.541-0.058,2.864-0.527,4.328-1.015c1.391-1.231,5.14-8.736,6.63-8.583
			c2.687,0.278,6.171,3.519,9.578,4.061c3.674,0.585,8.333,2.443,11.787,0.462c10.415-5.972,4.679,1.247,10.682,2.214
			c9.114,1.468,4.124-1.663,2.302-6.552c-7.474-20.054,20.65-13.516,29.745-15.319c0.03-0.118,0.063-0.159,0.093-0.277
			c-3.141-3.124-3.511-7.291-4.881-11.35c-2.467-7.311,0.371-8.018,3.13-14.119c1.881-2.423,9.004-11.148,9.67-13.842l11.972-0.093
			l3.96,12.182c0.718,2.21,0.131,7.417,1.381,9.044c1.126,1.466,9.073,2.021,11.143,2.306c2.107,0.291,7.459,2.526,7.459-0.646
			c0-3.452,11.332-2.802,12.893-1.107c4.833,5.253,18.01-4.476,21.18,3.322c0.362,0.89,9.042,1.053,5.434-1.385
			c-2.34-1.579-7.92-9.196-7.92-11.997l30.298-19.287c1.859,2.237,3.195,6.59,6.262,7.383c3.9,1.01,14.017-5.014,16.76-7.937
			c2.962-3.158,4.796-7.53,8.657-9.966c2.325-1.466,4.3-2.878,5.985-4.983c3.065-3.83-0.065-7.494,3.499-11.074
			c1.761-1.77,1.109-3.143,3.684-2.307c3.073,0.996,3.988,0.3,6.63-1.938c1.48-0.989,10.406-5.267,10.406-7.291
			c-4.578-1.131-10.787-12.922-7.182-14.211c6.177-2.212,6.989,0.026,13.998-5.076c4.324-3.148,6.355-3.398,6.63-9.321
			c0.174-3.737,17.816,1.082,21.457,1.938c6.733,1.583,10.167-11.534,15.01-10.336c0.349,1.42,7.927,5.261,9.486,5.261
			c0.375-1.516,3.978-4.49,5.341-4.153c1.271,5.14,7.175,9.229,11.972,9.229c6.643,3.05,5.562,11.797,14.734,13.474
			c5.746,1.049,13.895,3.104,17.313,8.213h0.46l11.88-9.413c2.744-2.173,6.524-0.315,9.946-1.293
			c11.575-3.305,18.2-13.176,29.376-14.026c4.719,1.15,10.121-0.646,14.919-0.646h11.05c0.658,0.879,0.623,4.653,1.382,6.09
			c1.07,2.025,2.395,4.779,2.67,7.013c2.213,1.849,2.655,4.153,6.538,4.153l5.048-0.371l2.797-5.152l4.361-4.893l4.535-5.913
			l4.163-0.744c0.67,3.459,0.549,6.933,3.96,9.044c3.277,2.026,9.027,9.435,12.524,8.767c2.799-0.534,4.405-2.924,6.723-4.429
			c1.585-1.03,3.299-1.644,4.788-2.861c0.296-0.242,2.51-2.159,2.763-1.384c0.92,0,8.035,6.283,8.472,7.382
			c1.867,4.699-0.317,4.51,5.802,7.198c1.056,0.295,3.3,0.286,3.407,1.661c0.105,1.341,0.279,3.884,2.118,1.938
			c0.581-0.615,1.646-2.399,2.67-1.938c0.765,0.343,0.146,3.714,0.184,4.523c0.158,3.41,4.572-0.086,6.078-0.185l5.802-12.274
			c5.446,0.397,13.426-0.182,17.773-3.414c8.524-6.341,10.218-5.53,20.997-3.23c11.169,2.384,20.45,9.358,33.06,5.999
			c3.506-2.034,5.271-2.397,6.262-6.459c0.873-3.577-0.988-9.69,3.775-11.167c4.842-1.502,8.399,1.333,12.985,2.861l5.129,0.374
			c2.345,1.701,4.996,3.457,8.316,4.886c5.696,2.453,11.49,9.834,16.024,14.212c8.157,7.874,10.01,0.105,15.471-3.415
			c4.627-2.982,5.115,1.893,8.472,3.138c6.993,2.596,7.682-8.308,14.458-9.32l3.775-5.906c1.88-4.633-2.485-14.085,3.223-14.303
			c2.603-0.1,14.74,0.625,13.722-3.784l-3.223-13.934c-1.938-8.38,6.921-17.21,14.55-21.317c8.314-4.478,12.859-6.868,22.653-8.121
			c6.614-0.847,18.427,16.352,22.839,9.69c2.604-3.934,6.445-9.545,11.695-7.198c4.699,2.1,10.697,10.966,14.182,11.259
			c3.077,0.145,12.236-1.749,14.826-3.323c0.773,0.772,2.015,5.42,3.776,7.291c11.546,12.263,24.294-7.294,28.64-16.335
			c4.157-8.645,4.177-4.934,11.327-3.783c5.256,0.847,8.674-5.353,14.182-5.353l0.092-0.092l-0.737-15.965
			c1.276-0.431,6.853-6.332,7.367-7.752c0.373-3.879-2.21-7.953-2.21-11.997c0-7.033,4.011-14.925,7.459-20.948
			c8.93-15.596,19.425-0.92,30.206-8.397c3.184-2.208,4.709-10.389,4.513-14.119c-0.295-5.626-3.33-8.666-5.25-13.658
			c-4.503-5.869-8.504-8.072-8.84-16.519c-0.311-7.781,9.086-17.096,12.8-24.27c1.944-3.755,6.431-9.768,7.183-13.75
			c1.156-6.11-1.424-7.412-1.842-12.92c2.066-5.698,5.457-18.208,12.155-18.826c3.5-0.323,6.981-1.439,10.406,0
			c16.478,6.922,14.819-11.024,27.259-17.625c2.464-1.307-2.408-13.635,0.461-16.887c2.744-3.109,13.182,0.568,18.601-3.045
			c1.012-1.304,1.907-2.69,2.803-4.065H185.96C190.438,1106.254,195.742,1106.375,198.129,1106.375z"/>
		<path fill="#FFFFFF" d="M218.297,577.875c1.231,3.584,2.967,1.839,5.986,3.322c4.284,2.108,4.729-0.631,5.894-4.152
			c2.713,0,10.723,6.162,12.617,8.305c3.621,3.075,8.286,8.121,13.261,8.121c4.912,0,10.17-1.049,14.458-3.507
			c2.669-1.531,3.498-3.309,6.354-1.384c4.301,2.898,7.66,3.211,6.63,9.412c1.05,2.324,3.885,3.691,6.263,3.691
			c0.042,0.169,0.015,0.143,0.184,0.185c0,2.031-1.485,3.864-2.486,5.536c1.581,2.128,4.063,6.906,3.131,9.782
			c-1.533,4.736-7.62,2.987-1.658,8.306c1.856,1.657,4.33,0.284,6.538,0.83c0.046,0.187,0.181,0.323,0.368,0.37
			c0.638,2.582,1.688,4.382,2.947,6.644c1.15,2.068,6.722,3.286,6.722,3.414c-0.763,0.381-4.911,6.084-4.328,6.736
			c2.458,2.742-0.299,6.601-3.315,7.198c-0.333,2.322-5.494,5.164-7.459,6.091c-3.745,1.77-0.819-4.367-4.329-1.938
			c-1.75,1.212-3.044,4.716-3.96,6.552c1.521,5.759,9.864,10.439,4.973,16.15c-2.58,3.012-6.564,13.38-10.314,13.38
			c-3.604,0-3.03,3.767-6.078,5.445l-13.077,7.198c-5.025,2.766-0.398,6.488-3.684,7.844l-10.958,4.522
			c-2.756-6.906-13.487-10.528-14.275,0.092c-1.005,13.566-9.881-7.641-13.076-8.951c-5.884-2.411-10.644,2.895-11.419,7.567
			c0.964,2.076,1.497,5.659,3.499,6.921c0.469,0.295,3.284,1.97,2.486,2.676c-4.956,4.389-2.452,1.745-2.118,7.752
			c0.095,1.713-0.439,3.731-0.736,5.445c-0.767,4.415-2.576,3.783-6.538,3.783c0,6.028,8.827,8.538,10.589,13.842
			c2.316,6.967,6.216,12.366,6.815,20.21c0.311,1.669,3.098,6.267,2.762,7.475c-0.411,1.486-3.462,0.48-4.42,2.768
			c-1.677,4.009,1.643,9.759-4.697,11.536c-4.696,1.317-4.758-2.378-8.472-2.584c-3.144-0.174-1.46,10.128-0.737,11.997
			c0.889,2.298-1.183,3.357-1.566,5.353c-0.572,2.982,0.969,5.996-0.276,8.952c-1.412,3.355-8.012,0.071-8.012,2.86
			c0,0.924,2.149,9.574,2.762,10.059c4.617,3.664,9.49-1.947,12.432,4.798c2.581,3.276,3.031,6.169,1.382,9.874
			c-1.294,2.903-5.925,2.037-3.684,6.091c0.725,1.312,1.333,3.698,2.671,3.599c2.575-0.19,5.383-1.392,8.011-1.846
			c3.261-0.564,7.831-0.646,11.143-0.646c6.464,0,3.619,3.311,7.459,7.567c6.958,7.707-12.635,3.471-10.958,9.413
			c1.887,6.693-3.266,2.865-6.354,5.168c-1.288,0.96,0.248,3.961-1.197,4.522c-2.54,0.984-3.586-0.466-6.354,1.569
			c0,3.3,0.884,5.789,3.868,7.198c2.968,1.402,1.108,0.173-0.093,2.214c-1.854,3.156,6.129,3.429,6.263,4.615
			c0.356,3.142,3.541,0.727,5.526,1.2c2.088,0.497,4.185,4.852,7.09,5.813c0,5.328-10.942,5.599-14.458,5.998
			c-4.571,0.519-10.334,5.202-14.55,7.198c-5.451,2.581-0.627,3.365,0.184,6.644c1.455,0,4.352-3.239,5.895-3.968
			c2.657-1.255,4.718,2.51,6.169,3.968c4.072,4.091,5.495,11.166,12.893,11.166c0,3.578-8.956,1.342-11.235,4.522
			c-3.665,5.109-10.174-9.042-12.432-1.569c-3.127,11.753-12.011-3.72-14.458-3.138c-8.699,2.068-11.829,2.358-18.878-1.384
			c-8.137-4.317-2.679,1.919-6.722,4.614c-1.619,1.079-3.976-1.172-5.802-1.661c-7.862-2.105-9.837,5.146-12.524-5.721
			c-8.853,0-4.982,26.991-9.762,28.054c-4.117,0.916-5.391-5.283-8.625,1.664l-0.767,4.15c-1.45,0.926-0.544,3.199-2.21,4.061
			c-2.301,1.192-3.317,0.461-5.434,2.583c-3.354,3.364-4.054-1.159-5.71-1.292c-1.919-0.153-3.218,0.477-4.788,1.569
			c-0.708,0.493-1.18,0.767-1.421,0.859c-2.122,3.482-1.737,12.01-6.131,14.736c-3.107,1.928-4.534,5.075-6.63,7.936
			c-1.518,2.071-3.648,2.45-5.525,3.969c-1.699,1.374-3.013,3.986-4.144,5.813c-1.816,2.935-4.407,3.426-6.907,5.629l3.96,3.137
			c0.7,3.417,3.121,3.851,6.17,4.061c4.668,0.32,3.185-0.132,6.999-1.846c2.271-1.022,4.863,0.704,6.906-0.553
			c4.576-2.818,5.663-5.076,11.88-5.076c4.914,0,7.145-1.198,9.762-4.984c0.095-0.137,2.656,0.96,3.591,1.292
			c5.602,1.983,13.336-1.046,17.958,1.016c1.193,0.531,2.722,4.178,3.683,5.353c1.501,1.833,5.842,4.631,8.012,5.537
			c0.356,0.525,2.229,1.958,2.302,2.214c6.746,0.975,6.143,10.748,4.973,16.058c-2.125,9.638-1.203,9.7-11.235,12.181v0.277
			c-0.515,0.17-0.979,9.026-0.552,10.336c0.972,0,7.219-0.173,7.367,0.276h0.184c0.798,3.245-3.592,7.874-3.592,11.351
			c0,4.303,9.281,9.25,10.867,14.027c-0.646,1.996,2.412,11.255,4.604,8.213c2.393-3.324,2.795-3.828,5.894-0.461
			c3.09,3.357-7.958,6.496,0.829,10.889c1.195,0.597,3.737,1.008,6.617,1.289h1925.188c1.279-1.96,2.561-3.896,4.196-5.532
			c4.567-4.574,8.934-5.486,5.617-13.565c-2.101-5.12-12.433-5.442-14.274-12.459c-0.57-2.171,4.422-9.632,5.617-11.904
			c2.802-5.319,3.25-11.095,4.328-16.889c3.724-5.935,5.263-14.846,11.88-18.64c8.156-4.677,18.524-1.394,23.207-12.274
			c5.214-12.114-0.767-17.064-3.591-28.424c3.881-8.571,16.005-2.001,17.865-13.196c1.123-6.755,9.854-2.687,9.854-11.443
			c0-4.219-0.871-9.814,1.198-13.565c2.731-4.956,10.781-10.244,4.973-16.519c-2.997-3.236-15.799-3.806-13.538-10.612
			c4.281-4.427,11.06-12.276,14.458-17.441c3.191-4.853,6.599-8.936,10.498-13.104c4.691-5.014,16.068-8.114,22.194-12.09
			c5.635-3.655,7.226-16.17,9.117-22.332c1.79-2.391,1.43-5.951,3.775-8.859c3.132-3.886,9.855-5.241,11.511-10.151
			c1.346-3.987,2.68-9.949,2.026-14.211c-0.865-5.646-4.685-11.771-2.118-17.534c2.989-6.709,10.833-8.617,11.327-17.164
			l-1.658-11.812c-0.191-1.365,10.616-10.612,12.616-13.38c3.52-4.87,5.093-10.257,7.46-15.596c1.166-2.628,1.522-8.267,4.236-9.32
			c7.403-2.872,30.298-5.129,30.298-15.134c0-10.769,5.459-22.341,4.051-32.945c-1.418-10.686-5.986-19.679-5.986-31.007
			c3.045-7.006,6.889-16.331,13.814-20.302c5.898-3.381,11.283-5.231,16.76-9.597c4.072-3.245,5.569-8.815,9.394-12.274
			c6.235-5.64,14.338-3.118,21.273-6.09c8.968-3.842,7.619-10.353,9.025-17.903l-0.277-7.567l0.092-0.092
			c5.626-1.413,9.914-6.844,10.794-12.405H201.998C208.737,574.201,217.5,575.556,218.297,577.875z"/>
		<path fill="#CD2A3E" d="M2629.849,398.848c-3.222,0-0.711-4.38-3.868-5.353c-2.108-0.65-2.809,0.074-3.96-2.399
			c-1.294-2.783-3.95-2.455-6.078-4.152c-3.748-2.993,3.521-5.989,4.052-8.121c1.168-4.684,6.285-3.446,5.986-9.874
			c-0.066-1.439,1.154-2.335,1.658-3.691c3.42-3.189,4.052-7.925,4.052-12.366c0-4.542,0.562-4.613-4.236-3.692
			c-2.697,0.518-2.882-1.889-3.408-3.876c-0.703-2.66-1.615-5.962-1.933-8.767c-0.675-5.949-6.17-0.301-6.17-5.445
			c0-2.439-2.019-3.646-3.315-5.63l0.714-6.182c-1.54-3.284-2.303-8.281-6.516-4.061c-3.56,3.568-4.25,3.536-4.052-1.846
			c0.229-6.233-2.945-0.807-4.697-0.738c-2.025,0.08-2.749-1.227-4.697-0.831c-2.489,0.506-0.127,2.342-0.552,4.245
			c-1.196,5.353-7.359-3.103-9.394-3.691c-16.089-4.658-20.987,18.333-37.296,12.827c-3.669-1.238-11.03-5.408-14.107-3.437
			l-4.495-2.838c-2.751,0-5.173-2.66-2.946-4.892c2.06-2.066-0.292-4.877-0.645-6.828c-0.251-1.388,0.041-2.691,0.368-3.969
			c0.527-2.062-2.575-3.569-2.67-4.522c-0.107-1.078,2.313-0.539,2.21-2.029c-0.173-2.537-2.579-6.399-4.881-7.106
			c-3.069-0.943-3.315,0.926-3.315-3.322c0-3.235-6.519-11.997-0.645-11.997c0.22-0.888,0.048-4.411-0.184-5.353
			c-3.106-0.768-5.603-0.967-7.459-3.968c-2.681-4.331-3.36-1.781-6.354-3.783c-5.908-3.949-6.631-11.117-6.631-17.164l-0.092-0.093
			c-1.553,0-5.577,0.387-6.354-0.923c2.768-4.64-1.062-6.36-5.065-5.536c-4.545,0.937-7.328,6.091-10.59,5.445
			c-1.988-0.395-6.871-3.901-7.735-5.629c-1.302,0-2.253,2.953-4.052,2.953c-2.107,0-3.331-1.938-5.802-1.938
			c-4.058,0-8.34,5.092-9.947,8.305c-3.708,0-7.657-10.48-7.827-13.473c-1.872-5.628-7.789-8.247-9.578-13.565
			c-1.32-3.919-1.289-9.101-1.289-13.288c0-2.92-4.322-2.378-5.158-4.891l-2.947-8.86c-0.563-1.693,2.261-3.19,2.211-4.983
			l-0.185-6.644c-0.094-3.381-1.349-1.054-5.249-1.754c-5.715-1.023-11.713-3.953-17.306-5.791c0.499-0.678,0.999-1.447,1.467-2.33
			c1.744-3.296-3.976-6.768-5.987-8.49c-1.926-1.65,4.581-8.71,5.618-10.613c4.743-8.708-1.228-6.459-8.748-6.459
			c-4.592,0-5.702-0.886-8.012-4.799c-3.128-5.298-5.032-2.418-8.657,0.277c-4.806,3.572-7.463,5.2-13.261,6.459
			c-1.708,0.371-3.101,1.023-4.281,1.876c-2.416,1.747-3.946,4.338-5.481,7.075c-1.776,3.166,4.827,7.422-1.105,7.752
			c-1.335,0.074-1.927,0.61-2.162,1.343l-3.18-1.158c-4.105-1.385-6.349,1.956-9.669,2.491c-2.835,0.456-0.701-4.55-2.394-5.721
			c-1.518-1.051-3.738,0.476-4.421,1.846c-1.275,2.559-3.789-0.068-5.985,1.569c-2.775,2.066-5.463-1.513-6.722-3.783
			c-3.736-6.738-8.545,1.479-12.248,3.599c-8.959,3.681-11.003-3.047-17.958-0.647c-1.724,0.595-10.91,7.197-11.234,8.675
			c-0.923,4.202-4.991,0.173-6.171-1.384c-1.11-1.466-9.208,2.87-9.117,3.322c0.771,3.786-9.412,4.561-11.695,1.661
			c-7.331-9.314-7.828,3.128-7.828,9.321c0,7.114,0.678,5.814-6.447,5.814c-3.515,0-6.542-4.338-12.155-4.338
			c-8.915,0-7.985,0.053-15.379-4.06c-3.383-1.881-9.767,0.696-12.432-2.492c-2.088-2.499-2.389-8.363-3.131-11.535
			c-1.494-6.396-2.003-4.385-7.275-8.029c-2.808-1.565-8.398-2.014-8.748-4.522c-0.411-2.932,1.312-10.166-0.093-12.274
			c0.719-0.708-5.365-7.913-6.353-10.889c-1.397-4.201-0.564-8.025-5.71-8.675c-1.612-2.817-0.81-4.59-1.566-7.474
			c-0.457-1.742-3.917-4.466-2.947-5.814c3.874-5.386-0.645-9.922-0.645-15.411c0-2.039,1.221-5.127-1.75-4.984
			c-2.511,0.121-4.02,2.318-6.261-0.553c-3.097-3.967-6.068,6.823-11.235,3.229c-2.6-1.809,0.089-4.741-4.973-2.583
			c-8.5,3.626-11.61-20.03-14.09-23.44c-3.869-5.319-13.441-5.63-16.761-10.428c-2.9-4.19-9.273-3.396-10.221-7.105
			c-0.93-3.631-8.38,3.002-8.38,7.751c0,10.266-7.528,0.342-12.709,4.061c-3.755,2.694-8.271,1.175-12.432,0.461l-12.708-0.184
			c-3.241,1.949,0.629,3.528,0.092,5.63c-0.694,2.715-4.474,3.863-3.776,6.828c1.265,5.367-1.297,5.079-2.578,9.966
			c-0.047,0.177-0.103,0.356-0.222,0.683l-13.776-4.651c-6.503-1.629-11.577-8.138-18.601-2.491
			c-2.529,2.031-11.08,7.625-14.183,7.013c-12.885-2.546-15.102,20.956-27.442,14.765c-6.685-3.355-1.897-12.002-6.999-13.38
			l-29.008-7.844c-3.161,0.989-5.661,1.411-8.196,3.691c-1.162,1.046-2.222,4.408-4.052,2.676c-3.313-3.134-8.048-0.883-8.38-1.385
			c-1.142-1.728,1.08-6.02,0-6.459l-8.38-3.415c-1.583-0.644-3.825-8.586-4.881-10.704c-1.898-3.814-14.757,5.533-19.799,3.414
			c-10.303-4.327-5.231-19.426-19.707-14.857c-7.627,2.408-13.416,2.349-20.905,3.414c-6.241,1.166-10.31,3.298-15.378,2.03
			c-5.163-1.293-10.96,5.411-15.563,4.799c-3.672-0.489-5.003-1.556-8.749,0l-10.221,4.245c-2.746,1.14-4.06,4.473-6.722,5.26
			c-9.867,2.914-7.807,6.696-18.878,1.938c-16.119-6.925-10.063,1.516-15.379,13.104c-3.572,7.79,0.238,9.543-7.183,16.427
			c-7.378,1.966-4.152,8.996-9.577,11.166c-7.384,2.952-0.897,7.322-3.684,9.874c-2.17,1.986-5.349,3.109-7.92,4.891
			c-3.565,2.473-4.544,8.275-8.38,11.351c-6.818,5.464,0.425,8.975-3.223,15.411c-0.729,5.849-7.224,6.623-2.209,12.551
			c2.461,2.908-2.949,8.331-4.513,10.889c-1.591,2.602-4.95,1.455-5.526,3.876c-0.957,4.032-3.93,5.144-4.88,8.213
			c-0.528,1.71,1.076,3.518,0.184,5.538c-1.175,2.663-3.132,0.271-3.868,4.337c-0.563,3.106-0.252,4.817-3.591,6.46
			c-3.956,1.948-6.93,5.285-8.841,9.228c-0.924,2.23,1.092,8.062,0.092,8.675c-2.157,1.319-5.317,0.629-7.551,1.385
			c0,2.422,2.355,4.337-1.842,4.337c-2.864,0-5.755,1.109-8.381-0.185c-5.336-2.627-9.35-11.827-14.641-6.182
			c-2.94,3.138-3.995,7.119-8.749,7.752c-9.289,1.236-0.2,7.105-8.288,7.105c-3.739,0-6.183-1.201-9.762-1.753
			c-3.56-0.551-5.735,0.903-9.209-0.553c-5.014-2.103-2.079-1.389-4.605,1.753c-3.473,4.321,2.299,2.38,0.277,7.198
			c-1.48,3.173-0.088,6.485-3.684,8.583c-2.71,1.579-6.961,4.652-8.933,7.013c-1.438,1.72-1.988,4.112-3.683,5.538
			c-2.439,2.049-4.88,0.331-5.618,1.015c-2.707,2.504-5.685,4.24-2.118,6.921c5.719,4.301-2.227,3.105-5.618,5.353
			c-1.435,0.95-2.764,5.439-4.973,3.23c-3.004-3.004-1.842-4.856-7.551-3.322c-3.434,1.717-13.309,2.881-13.629,7.197
			c-0.23,3.126-4.739-4.528-6.446,0.093c-0.592,1.603-1.787,5.783-3.315,6.459c-4.338,1.921-3.715,0.699-7.275,5.168
			c-3.507,4.4-1.678,7.106-8.012,7.106c-6.698,0-10.928,4.981-7.367-4.43c0.648-1.712,4.714-4.583,3.039-6.459
			c-1.577-1.766-3.373-8.49-4.42-9.044c-2.864-1.512-7.429,3.02-8.012-2.215c-0.139-1.244-4.477-0.481-5.342-0.646
			c-2.478-0.476-1.197-3.473-1.197-5.353c-5.761,0-6.326,15.345-11.327,9.137c-6.737-8.36-7.615,8.339-13.445,2.491
			c-3.972-3.983-4.965-2.443-0.921-9.136c1.672-1.678,5.265-4.141,4.604-6.737c-0.457-1.79-2.486-3.42-2.486-4.891
			c-5.692,0-3.397,2.291-6.722-2.953c-1.751-2.764-6.63-2.901-6.63-7.105c-2.208-0.558-8.562-1.643-10.59-0.739
			c-3.826,1.707-1.365,6.715-7.92,7.383c-10.594,1.08-12.032-8.535-15.194-15.319c-3.272-7.022,0.104-6.603-8.657-5.998
			c-3.712,0.255-4.8-3.417-6.998-5.538c-0.129,0.068-2.768,0.68-3.407,1.662c-1.245,1.913-2.059,3.507-3.868,5.076
			c-2.861,2.482-6.421,4.978-8.564,8.029c-2.488,3.541-4.236,3.518-7.828,4.891c-1.824,0.696-3.316,1.972-4.881,3.137
			c-5.533,4.119-3.364-3.99-7.459,1.938c-1.281,1.853-4.276,2.778-3.96,5.26c0.341,2.68,1.872,4.932-1.473,6.644
			c-9.967,5.102-3.305,4.86-2.302,11.72c0.736,5.035-1.786,9.941-6.262,12.182c-3.3,1.652-0.616,4.371-1.658,7.475
			c-1.339,3.989,0.802,9.789-0.276,12.366c-1.043,2.495-3.455,2.146-2.578,5.168c1.262,4.351,2.223,5.333-3.315,5.998
			c-3.655,0.439-5.116,5.128-7.644-0.093c-1.252-2.588-0.689-7.455-4.881-6.736c-5.13,0.88-5.706,7.599-10.589,7.013
			c-6.083-0.73-7.212,3.897-12.433-1.015c-3.823-3.597-16.704,4.498-21.825,3.599c-4.365-0.766-7.86-2.62-12.156-1.292
			c-3.474,1.074-5.551,6.041-8.564,7.105c-4.673,1.652-3.664-3.235-6.262,4.061c-4.135,11.609-7.484,1.259-16.208,0.923
			c-5.354-0.206-13.349,2.253-18.417,0.369c-8.229-3.059-7.979-9.282-15.747-3.045c-2.804,2.251-7.777-0.093-10.131-1.661
			c-2.922-1.947-5.553,2.937-9.348,3.759c-2.009,0.435-4.796,5.215-6.262,2.122c-0.736-1.554-1.388-3.137-3.223-3.369
			c-5.914-0.745-5.742,1.674-9.117-4.43c-2.764-5-11.556,14.165-15.61,12.689l-5.339-1.082c-4.603-2.054-9.05-1.431-13.537,0.553
			c-4.507,1.992-7.792-2.813-11.972,1.385c-2.632,2.644-3.788,3.566-7.459,1.845c-3.937-1.844-6.455,0.962-10.314-1.015
			c-4.509-2.309-7.759,1.696-10.221,5.168l0.001-0.001c1.319,4.019,4.717,3.152-0.921,8.121c-2.118,1.866-1.998,5.348-1.29,8.213
			c0.421,1.708,2.684,2.455,2.578,4.153c-0.248,3.963-5.581,7.883-8.472,9.966c-1.55,1.117-4.154-3.238-6.354-0.738
			c-1.391,1.58-6.015,1.075-8.38,4.06c-3.111,3.928,3.487,9.034,5.342,12.366c2.171,3.901-0.595,4.389-2.21,7.568
			c-1.65,3.246,3.498,5.154,0.368,9.781c-3.99,5.898-5.396,2.521-3.499,10.797c0.38,1.658,1.429,3.502,0.276,4.799
			c-1.11,1.247-2.178,2.133-0.829,3.599c3.051,3.316,4.673,3.529,1.198,7.013c-4.982,4.995,11.475,8.403,11.787,9.597
			c0.528,2.015,1.066,3.646,3.407,4.245c2.292,0.586,4.517-0.047,6.354,1.938c4.454,4.811-0.505,13.012,9.761,13.012
			c2.68,0,8.017-0.006,2.947,4.614c-0.735,0.67-0.918,1.766-1.377,2.65c-7.277-1.405-14.554-2.814-21.831-4.218
			c-5.156-0.995-12.495,4.938-17.405,5.998c-6.807,1.47-4.331,10.357-8.288,14.303c-8.857,8.832-22.04,14.673-34.902,14.673
			c-11.067,0-24.035-7.753-34.811-2.214c-8.469,4.353-10.307,7.571-20.536,5.813c-3.719-0.639-5.019-5.791-10.682-4.891
			c-4.839,0.768-7.312,5.863-13.077,5.998c-13.002,0.305-18.649,5-30.85,8.767c-8.677,2.679-16.094,3.562-24.956,1.2
			c-11.562-3.084-17.68-6.648-30.298-3.599c-5.74,1.387-8.511-0.971-13.63-1.846c-1.251-0.214-2.571-0.921-4.1-1.419
			c-12.453-4.06-34.785-9.372-44.799-4.764c-3.673,1.689-8.215,6.914-12.709,4.984c-3.036-1.303-9.356-8.545-12.524-5.168
			c-9.108,9.709-9.969,3.381-19.983,7.105c-5.517,2.05-6.386,2.949-12.617,1.754c-5.638-1.082-11.554,0.064-17.036-0.277
			c-7.028-0.438-12.26,1.499-17.661-0.38c-1.511-0.525-3.039-1.318-4.625-2.48c-6.206-4.552-13.47-3.132-20.352-5.261
			c-4.129-1.277-7.325-6.356-10.13-9.504c-4.541-5.096-9.036-7.591-14.458-11.628c-5.601-4.171-11.515-12.137-17.313-15.042
			c-6.874-3.444-15.315,8.794-17.958-2.768c-0.609-2.668-3.348-4.188-4.144-7.013c-0.571-2.027-0.808-4.606-1.658-6.552
			c-1.57-3.595-4.229-7.445-7.92-8.952c-10.279-4.197-22.873-6.491-28.363-17.533c-2.678-5.388-3.974-14.467-8.288-18.549
			c-3.452-3.266-5.507-4.257-8.473-8.675c-5.023-7.482-13.361-8.377-18.142-17.164c-2.293-4.215-5.117-8.08-8.344-11.012
			l-13.849,0.4c-5.534-0.273-15.223-0.666-18.51-5.998c-1.941-3.149,1.829-8.398-4.42-8.398c-3.092,0-4.738,2.63-7.091,2.768
			c-1.438,0.085-2.62-1.539-4.236-1.753c-4.867-0.647-12.133,4.824-16.484,6.829l-5.987,3.876l-17.497,16.242l6.907,5.536
			l-9.67,14.858l8.012,3.783l-3.131,8.029c-1.575,3.784-6.018,7.515,0.276,9.597c0,0.187,0.049,0.138-0.092,0.185
			c0,0.186,0.049,0.137-0.092,0.184v0.185c-1.735,0.867-5.818,8.34-6.446,10.52c-0.349,1.212-6.56-0.47-9.117,0.554
			c-2.915,1.168-5.448,4.216-8.196,5.168c-3.539,1.226-6.516-2.391-9.486-1.662c-0.215,1.532-1.23,4.152-2.117,5.445l15.655,12.09
			c0,1.147,0.066,2.323-0.369,3.322c-0.537,1.229-1.242,1.825-0.276,3.229c2.042,2.97,4.42,0.9,4.42,5.353
			c0,1.175,2.486,2.965,3.408,3.691c1.831,1.444-2.562,3.885-3.408,4.522c-1.112,0.835-3.1,3.743-3.607,4.889
			c-1.321,4.967,2.711,7.878,4.16,12.092c1.179,3.427,1.313,6.434,1.474,10.058c0.285,6.405-0.512,13.993,3.776,19.01
			c0.843,0.987,6.599,5.96,6.722,6.46l-0.092,0.092c-7.839,0-18.397,1.733-26.338,2.953c-4.294,0.661-8.585,2.371-12.893,2.676
			c-13.107,3.011-30.666,10.551-43.927,5.168c-2.083-0.846-1.355-3.64-2.209-5.813c-0.861-2.189-0.998-10.846,0.276-12.551
			c-1.873,0-7.403,5.679-8.933,7.106c-5.048,4.712-4.011,8.618-6.814,14.396l-30.482,0.923c-2.837-6.405-7.44-27.681-13.169-30.823
			c-7.985-4.381-28.916,1.863-28.916-12.827c-1.754,0-3.344,1.031-5.158,1.107c-2.13,0.09-2.994-1.3-4.42-1.384
			c-5.651-0.334-11.748,4.68-16.484,2.491c-4.093-1.89-6.342-0.962-6.446,3.507c-0.326,1.424-0.078,2.93-0.276,4.337
			c-3.864,0.547-3.858,2.009-2.118,5.168l3.407,6.183c-0.276,1.961-6.488,5.076-8.564,5.076c-5.117,0-3.125,4.486-8.104,3.045
			c-3.837-1.11-11.328,14.339-15.379,13.842c-4.393-0.539-4.719-10.183-6.722-7.937c-2.52,2.823,1.455,14.795-6.814,15.965
			c-0.252,0.888-3.612,1.989-4.513,2.215c0,1.757,3.497,3.011,7.829,4.114h2181.161c0.081-0.51,0.144-1.021,0.165-1.53
			c0.249-5.87-0.108-9.47,3.407-13.842c2.61-3.245,6.619-5.908,9.762-8.582c3.56-3.027,3.16-10.838,6.906-15.227
			c1.76-2.064,4.652-2.953,7.367-2.953c4.67,0,4.458-2.71,7.275-5.536c4.261-1.927,8.832-6.95,13.814-3.784
			c8.085,5.139,11.115,6.417,21.088,4.892c9.733-1.487,8.148-21.975,15.655-29.161c10.77-10.311,24.81,4.984,34.258,9.136
			c7.487,8.019,24.347,5.246,33.889,2.861c7.159-1.789,12.172-3.339,16.392-9.69c6.42-9.665,7.775-17.363,19.34-22.332
			c10.784-4.635,20.628,0.592,20.628-14.396c0-4.82-6.394-12.932-1.105-17.164c7.685-6.147,20.911-1.414,27.259-10.427
			c4.227-6.003,6.576-21.595,13.077-24.547l6.446-4.891l-3.223-4.153C2633.575,397.565,2633.803,398.848,2629.849,398.848z"/>
	</g>
</g>
</svg>
