<?xml version="1.0" encoding="utf-8"?>

<!DOCTYPE svg PUBLIC "-//W3C//DTD SVG 1.1//EN" "http://www.w3.org/Graphics/SVG/1.1/DTD/svg11.dtd">
<svg version="1.1" id="Layer_1" xmlns="http://www.w3.org/2000/svg" xmlns:xlink="http://www.w3.org/1999/xlink" x="0px" y="0px"
	 viewBox="0 0 902 1710" enable-background="new 0 0 902 1710" xml:space="preserve">
<g>
	<g>
		<path fill="#FF0000" d="M831.566,244.638c-3.291-1.476-5.051-5.907-7.348-8.679c-6.429-7.757-13.735-10.162-22.391-14.372
			c-2.476-1.204-5.047,0-7.695,0c-4.737,0-14.998-5.502-16.429,1.041c-0.708,3.242-4.448,2.64-7.348,4.305
			c-3.877,2.225-7.708-1.273-9.635-4.79c-1.829-1.836-3.759-2.517-4.991-4.86c-1.906-3.623,1.04-3.374,1.04-5.486
			c0-1.333-1.595-2.703-2.219-3.888c-1.038-1.975,0.08-3.9-0.832-5.485c-1.841-3.199-3.386-2.571-0.554-6.388
			c2.166-2.919,2.492-5.815,3.605-9.304c0.575-1.806-0.125-4.237,0.485-5.624c0.538-1.223,1.295,0.041,1.178-1.805
			c-0.189-2.972,2.602-3.204,1.594-6.735c0-2.03-0.046-4.327,1.456-5.832c1.718-1.723-0.91-2.648,0.277-4.305
			c0.649-0.905,1.664-1.725,1.664-2.847c-1.218,0-3.079-1.102-4.575-1.25c-7.22-0.714-9.171-1.038-6.794-6.18
			c1.699-3.672,2.276-7.731,4.09-11.526c1.053-2.202-0.298-4.183-2.218-5.624c-2.899-2.178-5.742-7.123-8.458-2.361
			c-1.198,2.101-2.917,3.68-5.615,3.68c-0.446,3.106-26.498,4.281-30.502,1.041c-2.748-2.224-2.829-5.646-3.605-8.957
			c-1.561-6.664-10.189-3.775-10.953-6.457c-0.28,0-0.501,0.144-0.555,0.417c-0.225,0.112-0.023,0.166-0.277,0.208l-0.486,2.43
			c0,2.271,0.668,8.096-0.762,9.721c-2.709,3.078-8.545,1.041-11.577,1.041c-3.466,0-4.422,3.172-9.289,2.5
			c-2.652-0.366-10.406-1.787-10.814-4.86c-1.546-1.546-4.182-7.217-7.348-5.277c-3.499,2.145-3.832,6.198-8.457,6.943
			c-3.213,0.518-5.637-1.68-7.972-0.208c-3.83,2.412-6.751-0.289-8.041-4.514c-1.984-6.497-7.885-4.652-12.478-7.013
			c-3.085-1.585-4.083,2.562-5.685,4.166c-0.15,0.151-2.238-1.111-3.327-1.111c-2.07,0-1.392,6.586-0.693,7.776
			c1.055,1.796-2.625,2.517-1.455,4.583l2.911,5.138c0,1.863-0.354,2.026-0.693,3.402c-1.899,0.471-2.329,9.096-4.783,9.096
			c-0.464,1.628-16.822,5.149-19.202,8.054c-1.825,2.227-17.923,6.411-18.925,3.957c-0.949-2.323-1.838-2.717-3.743-0.277
			c-1.178,1.51-9.912,11.109-11.299,11.109l-1.456-5.416c-1.573-0.223-4.604-7.722-5.338-9.373
			c-2.695-6.063-6.546,1.024-9.358-3.749c-0.61-1.034-4.955,1.769-4.714,3.472c0.08,0.568,0.766,2.916,1.456,2.916
			c0,2.1-8.6,4.273-10.468,4.444c-1.934,0.159-3.777,1.355-5.615,1.805c-1.643,0.403-1.932-0.695-3.258-0.695
			c-3.402,0-6.348,2.699-5.338-2.152c0.542-2.6,3.263-11.951,5.961-12.845v-0.208c-1.687,0-6.511,0.476-6.793-1.528
			c-3.651,0-9.379,3.966-11.854-1.319c-0.814-1.74-6.502-6.244-8.388-6.041c-2.94,0.318-5.082,3.725-8.111,4.305
			c-4.98,0.952-5.495-4.659-10.052,1.319c-3.089,4.052-15.639,1.62-15.528,4.166c0.162,3.721,0.859,4.374-3.466,4.374
			c-1.556,0-5.531,4.993-5.961,1.944c-2.068-0.51-0.641-3.888-0.347-5.277c0.618-1.864,0.696-5.494,0.277-7.429
			c-0.531-2.444-0.471-4.417,0.07-6.874c0.518-2.354,0.302-2.029-1.664-2.569c-2.074-0.57-3.605-0.552-3.605,1.875
			c0,1.59,0.07,2.721-0.416,4.305c-1.371,2.157-0.914,6.196-2.01,7.846c-0.765,1.151-6.289,3.263-7.764,3.263
			c-1.865,0-3.191-1.751-5.338-0.694c-1.906,0.938-4.229,3.372-4.229,5.693c0,0.996-4.488,6.6-5.338,7.568
			c-0.99,1.128-3.358,0.613-4.783,0.833c-2.675,0.414-3.135,2.451-5.061,3.75c-3.077,2.076-14.294,3.312-18.163,2.569
			c-11.856-2.279-4.607-10.208-8.146-18.261l-0.5-2.872h-1.788l-2.586,0.319L369,159.142v1459.226
			c4.87,0.698,9.738,1.96,14.466,2.919c9.878,2.002,22.284,13.22,30.571,19.441c-0.256-0.163,1.827,2.129,2.634,2.569
			c2.835,1.547,4.713,4.556,7.903,5.971c4.979,2.209,9.311,4.275,14.557,5.624c5.243,1.348,17.521-10.22,22.183-13.331
			c8.722-5.821,16.274-13.573,25.788-18.955c3.372-1.031,15.992-9.501,17.469-12.637c2.621-5.565,23.08-16.17,29.185-16.872
			c4.623-0.532,9.7-2.168,14.28-0.764c3.477,1.067,4.683,2.083,8.319,2.083c-1.501-1.323-2.682-2.607-2.773-4.86
			c-0.137-3.401-0.277-6.804-0.416-10.207c-0.195-4.799-8.781-8.907-4.575-13.123c1.661-1.666,2.601-3.433,0.624-5.416
			c-0.748-0.749-1.604-1.71-1.386-2.846c0.31-1.615-1.014-2.611-1.386-4.444c-0.537-2.644-0.277-3.137-0.277-5.624
			c0-2.129-0.499-2.668-1.109-4.514c-0.343-1.036,1.283-2.503,1.525-3.541c0.57-2.442,0.273-13.797-2.842-14.025
			c-0.234-0.017-2.722-1.454-3.12-1.944c-1.885-2.323,2.595-1.883,3.674-2.222c2.139-0.673-1.998-2.711-2.565-3.68
			c-1.468-2.51,1.005-5.816,0.069-8.887c-0.563-1.846-3.05-2.955-3.05-4.791c0-1.699,2.927-6.452-0.832-6.735
			c-4.044-0.304-1.079-5.857-2.912-7.637c-2.629-2.553-5.333,0.152-6.031-4.444c-0.173-1.142-1.104-3.121-2.159-4.419l1.674-2.455
			c0.932-0.816,2.407-0.57,1.386-2.222c-0.769-1.242-1.603-1.49-0.901-2.916c0.894-1.816,3.909-3.308,3.189-6.041
			c-0.734-2.782-1.351-1.219,1.317-1.597c0.67-0.095,1.174-1.211,1.456-1.667c1.351-2.185,1.643-4.302,3.466-6.388
			c2.251-2.575,0.082-6.249,3.605-6.249c3.049,0,0.839-2.949,1.317-3.472c0.761-0.83,1.156,0.155,1.802-1.389
			c0.802-1.47-2.414-2.229-1.04-5.277c1.325-2.938,0.208-1.495,0.208-4.514c3.941-1.573,0.909-0.844,1.734-3.957
			c0.449-1.695,2.116-2.611,2.634-4.305c0.221-0.722-0.609-2.945-0.277-3.055v-0.208c1.449-0.725,4.842-3.94,1.664-4.999
			c0-0.254,0.021-0.205-0.069-0.417c0.17-0.171-0.054-0.231,0.277-0.278c0.155-0.939,2.872,0.312,2.981-1.736
			c0.107-2.02,2.227,0.676,2.911-0.139l5.892-7.013c1.292-0.162,8.186-7.045,9.705-8.332c2.849-2.412,6.7-7.164,7.348-10.623
			c0-2.28,1.926-2.488,2.981-3.958c1.165-1.625,1.127-3.322,1.04-5.277c-0.25-5.548,2.908-4.387,4.09-8.47
			c0.449-1.552,2.82-5.089,2.565-6.319c-0.922-4.427,0.971-6.135,0.971-9.999c0-2.45-2.053-3.3-2.149-4.374
			c-0.417-4.685,9.083-2.648,10.745-3.958c1.122-0.884,1.025-2.547,2.772-2.707c2.549-0.233,2.768,0.226,4.991,1.18
			c2.005,1.505,4.884,2.469,6.794,0.555c0.963-0.966,1.411-2.222,2.634-2.222c0.873,0,2.087,0.923,3.12,0.833
			c2.354-0.205,0.464-2.177,0.208-3.264c-0.472-2.003-0.277-3.832-0.277-5.832c0.174-0.043,0.323-0.254,0.346-0.417h0.278
			c0.373-0.746,3.352-0.824,4.506-2.5c1.283-1.864,3.664,1.082,4.853,1.597c0.715,0.311,2.987,0.824,3.397,1.25
			c1.046,1.086,0.998,3.834,2.773,3.957c1.5,0.104,6.447,1.568,7.071-0.625c1.281-0.159,0.769-2.096,2.634-0.902
			c1.385,0.885,1.954,0.937,3.258-0.278c1.693-1.578,0.471-5.536,1.525-7.846c4.289-3.516-0.844-15.927,3.743-16.178
			c1.456-0.08,6.363-13.623,6.17-14.997c-4.703-0.931-4.489-3.899-1.664-6.943c1.848-1.991,4.616-6.469,6.447-7.846
			c0-5.44-7.48-3.768-9.15,0c-1.115,0-1.597,0.133-1.802-1.319c-0.215-0.03-0.236-0.069-0.485-0.069
			c-0.205-0.616-2.256,1.388-3.12,1.388c-0.688,0-3.127-0.213-3.189,0.625c-0.084,1.126-2.199,3.978-3.466,4.791
			c-1.995,1.282-3.305-0.512-4.575,0.139c-1.663,0.853-2.644,3.345-3.952,0.07c-1.591,0-3.321,6.863-6.655,3.055
			c-1.503-1.716-5.142-4.032-4.991-6.526c0-3.645-4.152-6.734-6.377-9.096c-2.533-2.69-3.162-8.887-3.674-12.428
			c-0.621-4.297-1.617-1.985-4.298-3.888c-2.877-2.042-3.782-6.674-5.338-9.79c-2.075-4.154-5.877-6.891-8.249-10.693
			c-1.474-2.362-3.617-5.576-5.481-7.533c-1.811-2.42-4.303-5.045-5.546-7.742c-1.008-2.191-0.394-6.493-3.224-7.082
			c-2.291-0.478-3.692-0.951-5.13-2.812c-1.085-1.403-5.734-1.33-3.432-3.159c0.849-0.674,1.438-1.748,2.219-2.5
			c0.679-0.625,1.439-1.588,2.01-2.292c0.491-0.606,1.32-1.303,1.907-1.805c1.37-1.173,3.106-3.161,0.901-4.617
			c-1.347-0.89-3.083,0.639-4.125,0c-1.049-0.643-0.635-2.81-0.519-3.992l1.213-5.242l3.085-9.825l3.016-5.589l3.471-4.964
			c0.637-1.03,1.774-1.887,1.914-3.09c0.361-3.093-0.26-4.28,1.969-6.353c1.084-1.008,4.341-4.398,0.901-4.236
			c-6.019,0.285-5.669-2.798-4.09-7.568c0.635-1.918,1.02-6.884,0.624-8.957c-0.372-1.943-0.311-4.849,0.555-6.527
			c1.103-2.136,1.594-2.029,1.594-4.791c0-2.701,2.129-5.278,4.852-4.999c1.684,0.172,3.112-0.268,4.368-1.528
			c1.254-1.258,2.867-3.725,3.813-4.652c1.478-1.449,2.292-3.204,4.09-4.236c3.614-2.074,3.879-3.177,6.308-6.527
			c1.405-1.937,3.28-4.943,5.199-6.318c3.426-2.453,7.318,0.304,10.191-1.944c2.568-2.01,1.651-8.362,5.823-9.512
			c0.433-0.119,0.855-0.184,1.152-0.198l1.757-2.097c1.528-1.094,3.293-4.084,3.674-5.901c0.428-2.045-0.245-5.604-1.525-7.221
			c-1.347-1.702-1.677-2.243,0.416-3.75c5.107-2.839,3.112-6.941,6.586-10.415c3.35-3.35,6.55-8.254,8.734-12.637
			c1.343-2.695,2.626-6.157,4.645-8.332c3.495-3.767-4.475-4.34-2.218-8.679c2.255-4.337-1.852-11.112-4.576-14.581
			c-1.683-2.108-8.776-6.846-11.369-7.221c-4.84-0.7-6.196,1.646-10.675,2.639c-2.232,0.495-4.235,2.934-6.378,2.846
			c-1.871-0.076-7.358-1.857-8.318-3.333c-2.866-4.4,1.909-7.227,1.178-11.039c-0.504-2.629-0.582-3.193,0.416-5.694
			c0.984-2.464-15-6.226-17.677-6.457c-7.779-3.326-7.21-9.084-7.21-15.691c0-1.589-2.135-3.227-1.664-4.652
			c0.656-1.98,3.883-5.319,3.883-7.152c-0.17-0.084-0.509-0.463-0.555-0.625c-4.308-0.856-7.616-8.031-10.468-11.109
			c-5.012-5.408-7.415-6.903-6.655-15.067c-0.889-5.395-6.218-2.347-1.04-9.512c3.763-5.206,0.459-8.806,1.387-14.581
			c0.185-1.151,1.736-2.224,1.802-3.471c0.121-2.284-1.656-1.336-2.842-2.43c-2.489-2.296-8.124-2.914-8.804-6.457
			c-0.045-0.233-3.509,1.232-5.892-0.486c-0.73-0.526-4.021-4.663-4.021-5.208c0-1.297,0.344-7.441-1.456-7.776
			c-3.621-0.674-9.75,0.447-11.23-4.305l-2.842-7.429c-0.816-2.131-5.257-4.063-7.348-4.652c-5.895-1.663-3.166-9.177-6.239-12.637
			c-0.93-1.047-2.163-0.765-2.911-2.361c-0.524-1.118-0.347-3.484-0.347-4.79c0-2.208-1.173-2.857-1.736-4.765
			c0.605-0.264,1.337-0.443,2.36-0.443c2.208,0,4.074,0.436,6.447,0.347c3.449-0.129,8.099,0.708,11.438,1.319
			c2.204,0.403,5.77,2.483,7.556,3.75c3.646,2.586,8.996-1.655,13.656,0.208c1.715,0.686,3.838,1.178,5.407,1.874
			c1.3,0.577,4.706-1.726,5.961-2.291c7.749-3.486,10.573-7.108,19.133-3.68c3.448,1.38,5.487-1.397,8.319-0.347
			c3.38,1.252,10.528,4.276,13.795,1.319c4.386-3.969,14.121,0.827,19.965-0.972c2.642-0.813,5.41-1.348,8.017-1.969l1.276-3.725
			c0.972-1.115,1.503-5.288,1.664-6.804c0.23-2.172,1.698-3.574,2.565-5.416c0.867-1.841-0.591-3.004-0.693-4.374
			c-0.148-1.976,2.149-3.252,2.149-5.624c0-0.799-0.672-2.4-0.069-3.055c1.196-1.301,1.797-1.787,2.426-3.68
			c0.543-4.326-5.194-5.208-2.842-10.276c1.229-2.649,5.34-3.748,5.892-5.416c2.015,1.208,3.634,0.312,4.229-2.014
			c0.457-1.785,3.189-1.533,3.189-5.346c0-3.674,9.532-3.779,6.863-11.179c-1.15-3.185,1.089-6.304-0.346-8.957
			c-2.542-4.699,3.841-4.195,4.298-9.096c0-1.944-1.026-4.496,0.139-6.249c1.808-2.721-0.723-3.361,0.208-4.652
			c0.698-0.97,1.399-2.191,1.802-3.333c0.442-1.25,0.174-4.003,1.109-4.86c3.518-3.222-0.862-1.312-1.04-4.235
			c-0.26-4.256-0.63-5.469-3.604-8.193c-1.66-1.521-0.098-3.873-0.971-4.514c-2.065-1.517-4.076-0.019-5.269-3.472
			c-1.491-4.319-4.712-13.059-10.675-11.526c-2.41,0.62-9.074-2.385-10.884-4.444c-3.481-2.493-1.22-5.595-1.039-8.193
			c0.211-3.014-2.333-3.414-1.456-7.152c0.497-2.119-1.941-2.012-1.941-3.611c0-1.761,2.597-4.321,3.05-6.041
			c0.995-3.784,0.438-5.522,3.743-7.637c0.411-0.263,3.772-1.944,4.021-1.944c2.524,0,2.212,1.621,4.506-0.417
			c1.544-1.371,1.766-5.262,3.258-5.208l3.813,0.139c2.101,0.077,6.042,1.693,6.932,0.277c1.345-0.788,2.712-1.656,4.367-1.25
			c1.418,0.347,2.685,1.43,3.605-0.417c1.558-3.126,1.455-6.002,1.455-9.373c0-4.196,8.097-10.073,11.924-10.276
			c5.387-0.287,6.511-0.856,5.407-6.943c-0.535-2.951,1.594-3.757,1.594-5.416c0-1.528-4.167-3.707-5.407-4.86
			c-1.024-0.952-0.387-2.679-1.317-3.61c-0.96-0.963-2.607-1.937-3.743-2.847c-5.101-5.101-6.889-18.561-0.901-23.329
			c2.566-2.043,2.66-4.151,3.951-6.943c1.571-3.398,7.286-1.55,4.159-6.735c-2.74-4.543,1.18-10.127-4.644-12.012
			c-2.901-0.939-7.142-1.169-6.101-5.138c0.681-1.877,1.594-4.077,1.594-6.11c0-1.778,2.597-3.807,3.674-5.138
			c2.636-3.255,4.522-8.699,6.031-12.706c1.757-4.665-2.704-2.357-2.704-5.832c0-3.797-1.317-6.991-1.317-10.415
			c0-2.957,0.969-3.653-1.179-5.693c-1.942-1.845-2.926-5.177-3.258-7.846c0-2.515,1.643-3.957,1.525-6.458
			c-0.078-1.675-0.255-4.547,1.179-5.763c2.393-2.028-2.458-9.033-0.832-12.428c0.801-1.671-0.416-2.444-0.416-3.68
			c6.371,0,4.506-2.301,4.506-7.291c0-7.262-3.244-4.745-7.418-7.637c-2.644-1.833-4.073-5.242-2.357-8.679
			c-1.298-6.534-3.944-10.3-7.556-15.623c-2.58-3.8-7.005-10.819-10.745-12.428c-0.088-0.966-0.128-2.665-1.248-2.985
			c0-1.477,0.137-2.456,0.416-3.888c6.655-5.86,8.561,1.736,15.181,1.736c2.96,0,4.829-1.525,7.487-1.736
			c4.989-0.396,5.483-1.633,6.932-6.319c1.116-3.607,5.536-7.339,7.279-11.04c1.036-2.2,2.837-3.562,3.743-5.346
			c0.484-0.952-0.945-2.75-0.97-2.778c-5.949-6.735,3.014-11.65,8.11-15.9c6.182-5.156,7.404-12.214,11.369-18.538
			c1.816-2.896,8.116-8.025,11.161-6.735c2.708,1.148,1.614-2.888,6.1-0.903c1.227,0.543,1.497-2.233,2.981-1.666
			c1.461,0.558,0.715,4.044,2.911,3.818c1.777-0.182,3.287-3.169,4.644-2.916c2.239,0.418,1.721-1.515,2.842-3.333
			c1.254-2.032,5.259-5.554,7.417-3.124c2.52,2.835,5.181-0.472,7.625-2.222c1.462-1.047-2.487-3.189-1.109-4.86
			c0.842-1.021,2.637-2.055,3.951-2.152c0.756-0.056,1.634-0.212,2.515-0.362c0.881-0.149,1.769-0.295,2.546-0.332
			c4.729-0.223,2.221-5.531,5.269-7.082c3.905-1.988-1.57-3.099,1.04-5.485c1.032-0.944,2.05-1.653,3.535-1.736
			c2.157-0.121,9.095-3.471,6.932-5.277c-2.12-1.771-3.595-0.73-3.466-3.749c0.145-3.369,0.96-3.051,3.397-4.305
			c2.408-1.24,2.433,1.486,4.298,2.569c2.504,1.455,10.59-2.212,9.913-4.652c-0.241-0.87-6.206-5.971-1.941-5.971
			c2.24,0,6.707-5.461,6.447-7.568c-0.355-2.877-3.088-2.81-0.554-5.902c1.418-1.731,3.7-2.239,4.229-5.069
			c0.137-0.735-0.312-3.187,0.763-3.263c1.422-0.102,2.634-0.747,2.634-2.361c0-0.938,3.99-2.287,4.575-5.693
			c0.835-4.856,4.212-5.528,6.447-9.582c2.764-5.011,2.63-7.436,7.348-10.554l-0.693-1.875
			C837.882,247.851,835.077,246.213,831.566,244.638z"/>
		<path fill="#FF0000" d="M369.186,136.601c1.195-1.195,2.949-1.773,3.952-3.125c1.691-2.279,1.563-8.689,3.466-9.582
			c2.548-1.195,5.152,1.342,6.17-3.263c1.008-4.56,5.013-3.024,8.18-3.541c3.844-0.628,4.697-7.693,3.952-11.04
			c-1.294-5.809-4.575-11.034-10.121-12.984c-1.478,0.369-3.741,2.083-4.853,2.083c-1.337,0-1.315-1.657-3.05-0.556
			c-1.612,1.024-4.343,7.214-5.962,2.639c-1.573-4.445-1.456-10.745-1.456-15.692c0-3.345,0.832-6.633,0.832-9.929
			c-0.351,0-0.797,0.085-1.295,0.231v64.972C369.063,136.744,369.12,136.666,369.186,136.601z"/>
		<path fill="#006600" d="M202.783,55.851c-0.087-0.105-0.197-0.194-0.312-0.278c-0.365-0.263-0.848-0.886-1.352-0.382
			c-0.23,0.23-0.056,0.754-0.034,1.042c0.04,0.528,0.596,0.96,0.884,1.354c0.349,0.476,1.135,0.656,1.525,0.069l-0.243-1.006h0
			C203.086,56.385,202.981,56.09,202.783,55.851z"/>
		<path fill="#006600" d="M247.734,536.049c1.362,1.366,5.248,1.598,6.031-0.764c0.327-0.986-0.035-2.102,0.554-2.985
			c0.819-1.229,0.903-1.485,0.278-3.055l-1.179-1.597h0c0.485-0.862,0.624-1.553,0.624-2.569l-0.069-0.07h-0.139
			c-0.104-0.629-2.854,0.448-3.188,0.486c-2.796,0.32-2.426,2.191-2.426,4.582c0,0.844,0.087,1.529-0.069,2.361
			C248.017,533.144,247.11,535.423,247.734,536.049z"/>
		<path fill="#006600" d="M367.653,159.655l-1.379-2.711c0.309-0.614,0.347-2.174,0.347-2.916c0-0.939-0.11-1.067-0.554-1.736
			c-0.978-1.472-2.207-2.704-2.565-4.513c-0.29-1.46,0.481-2.499,1.386-3.472c0.727-0.78,1.06-1.311,1.525-2.361
			c0.676-1.632,1.378-3.782,2.587-5.133V71.841c-2.235,0.653-5.556,2.554-6.399,3.797c-2.148,3.165-6.443-2.507-8.527,2.152
			c-1.877,4.198-1.405,1.207-3.882,2.639c-0.835,0.483-2.306,2.016-3.051,2.847c-2.199,2.451-8.203,3.492-8.596,5.346
			c-0.264,1.245-1.781,4.711-3.466,4.166c-1.576-0.511-4.402-2.329-5.961-1.528c-1.527,0.784-6.383,5.119-7.903,3.263
			c-1.44-1.759-2.008-0.895-3.674,0.486c-1.944,2.679-5.07,1.72-6.377-0.903c-1.553-3.119-4.097-0.685-6.863-0.138
			c-2.173,0.43-3.079-1.152-4.852-0.208c-1.605,0.855-6.503,0.701-6.794,0.902c-2.588,1.793-1.51,2.83-2.357,5.763
			c-0.938,3.254-9.928,3.023-12.409,2.291c-6.409-1.89-12.031,1.943-16.153,5.832c-2.581,2.435-2.218,2.984-2.218,7.013
			c0,3.033-4.035,5.284-5.892,7.568c-2.084,2.364-4.788,0.858-7.348,2.43c-2.048,1.257-4.349,2.269-5.754,4.305
			c-2.675,3.875-0.97,8.214-5.199,11.804c-2.213,1.877-5.07,3.167-7.417,5.069l-7.279,3.749l0,0c0.414,2.51-1.967,5.786-3.536,7.637
			c-1.24,1.465-5.512,3.394-6.031,4.305c-0.633,0-0.485,3.039-0.485,4.096c-0.757,0.187-2.697,3.633-1.941,4.582
			c1.457,1.831-0.072,3.736,0.485,5.694c1.182,0.234,2.08,2.643,2.08,3.68c0,1.618-2.733,0.927-1.733,4.652
			c0.579,2.154-0.397,4.992-0.97,7.152c-0.582,6.171-0.063,12.559,2.634,18.33c2.407,5.148,1.283,9.274,7.625,7.221
			c3.139-1.016,2.283,3.979,1.734,6.11c-0.384,1.49-1.14,4.886-0.624,6.249c0.581,1.533,1.817,1.888,1.733,3.888
			c-0.054,1.264-0.767,2.462-0.277,3.819c0.578,1.599,2.545,2.345,2.842,4.513l0.902,6.596c0.67,5.04,3.397,9.518,3.397,14.789
			c0,3.17-1.17,8.042-0.416,10.901c1.423,5.398,5.552,10.205,3.605,15.969c-1.582,4.683-4.352,11.894-0.486,15.761
			c-1.263,4.909,4.504,10.587,5.269,15.345c0.282,1.757,0.465,4.085,1.733,5.277c1.475,1.385,1.964-0.525,2.496,2.569
			c0.51,2.968-0.118,6.327,0.277,9.304c0.66,4.967,1.35,10.035,3.258,14.72c0.906,2.222-1.492,3.644-0.485,5.624
			c1.106,2.176,2.634,4.026,2.634,6.665c-0.435,2.712-0.789,5.54,0.693,7.776c1.517,2.289,1.557,2.968,3.813,4.583
			c1.54,1.102,1.357,2.697,1.802,4.582c0.809,3.425,4.298,4.207,4.298,7.915c0,5.679,3.464,11.066,2.911,16.456
			c-0.818,7.985,0.284,11.247,2.149,18.747c-0.684,4.81,0.038,9.841-0.901,14.789c-2.745,14.461-3.678,30.488-9.289,44.507
			l-13.448,50.061c0.273,1.87-1.586,4.128-2.01,5.971c-1.507,6.539,4.711-0.777,6.516-1.944c3.13-2.025,1.579-4.831,2.357-7.846
			c0.783-3.037-0.372-3.183,1.872-6.041c2.111-2.686,4.881-4.142,3.536-8.263c-1.254-3.839-0.325-4.665,0-8.54
			c1.043-3.766,1.757-7.174,4.505-9.929c1.374-1.376,0.17-6.016,2.149-5.624c0.986,2.959,4.419-1.827,4.644-2.847
			c0.721-3.259,0.499-2.342,4.021-1.458c0,0.707-4.405,4.529-5.269,5.554c-0.91,1.079-1.6,3.75-3.466,3.75
			c-0.656,3.261-2.747,4.03-2.565,8.332c0.068,1.607,0.279,7.157,0.901,8.401c0.851,1.703,4.348,1.396,5.685,2.639
			c2.305,2.143,3.565,0.279,6.17-0.625c2.937-1.019,2.449,1.443,0.763,1.736c-3.727,0.647-5.345,2.218-9.15,2.361
			c-3.506,0.132-2.808,2.444-2.08,5.207c0.479,1.82-0.624,3.292-0.624,5.069c0,2.23,2.067,0.345,3.051,0.138
			c1.325-0.277,1.148,0.482,1.664,1.319c0.704,1.141,2.981-0.98,2.981,1.667c0,1.415-2.7,2.885-3.743,4.027
			c-2.263,1.268-3.159,7.803-5.892,5.069c-1.514-1.514-5.141-4.652-7.21-4.652c-0.843,2.543-1.38,2.916-4.159,2.916
			c-1.402,0-2.854,2.777-4.229,2.777c-1.273,2.553-0.201,3.552-0.763,6.318c-0.683,3.358-1.924,7.363-3.327,10.693
			c-2.056,4.877-2.726,11.06-4.09,16.247l-13.518,58.116l-12.478,38.188c-1.785,3.69-5.116,9.412-2.842,13.331
			c1.909,3.293,8.068,5.964,8.388,9.79c2.897,1.089-1.408,14.987-1.872,17.22c-0.737,3.545-2.479,7.096-3.743,10.415
			c-1.32,3.467-1.659,7.265-2.842,10.832l-19.41,53.949c-3.18,6.153-9.792,17.994-10.537,24.579
			c-0.237,2.092,0.209,4.84-0.971,6.596c-3.469,5.165-4.156,11.573-4.714,17.775c-1.004,0.431-5.078,15.01-5.546,16.872
			c-0.613,0.956-3.258,7.382-1.455,7.638c8.145,1.156-7.701,18.703-9.497,21.315c-1.535,2.234-1.864,4.002-3.258,6.18
			c-1.275,1.989-2.701,1.451-4.644,2.083c-3.454,1.123-4.827,9.581-8.874,9.581c0,3.156-5.22,11.098-7.487,13.192
			c0.055,2.145,1.653,1.558,3.258,2.153c1.757,0.652,1.236,1.083,1.802,2.569c1.056,2.771,5.637,1.13,1.456,4.513
			c-0.443,0.359-5.187,5.355-3.674,0.972c0.907-2.629-0.774-6.721-2.773-8.054c-2.268-1.511-4.22,1.329-5.823,3.471
			c-1.233,2.24-10.911,10.415-12.894,10.415c-1.094,1.922-4.849,0.486-6.377,0.486c-1.74,3.037-3.987,7.76-7.833,4.236
			c-3.106-2.845-6.12-0.545-8.943-0.139c-0.432,4.364,6.077,3.045,8.804,4.721c2.104,1.293,2.302,4.229,2.149,6.666
			c-0.177,2.819,1.042,2.866,2.357,4.999c0.737,1.195,0.475,2.975,0.555,4.444c0.148,2.713,2.703,4.481,2.703,7.082
			c0,2.553-0.861,5.569-1.664,7.985c1.211,12.581-4.765,23.033-9.15,33.953c-0.956,2.379-3.952,3.074-3.952,6.319
			c0,4.053-3.135,5.862-4.852,9.095c-1.639,3.089,0,7.14,0,10.693c-0.685,2.513-0.205,5.337-0.971,7.985
			c-1.419,4.899-1.39,6.803-0.554,11.665c1.263,7.341,1.776,11.031-0.416,18.192l-6.377,20.83
			c-2.067,7.247-12.914,19.399-9.289,26.037c3.476,6.368,7.961,8.3,2.496,16.526c-2.818,4.241,8.515,6.034,10.745,7.151
			c5.414,2.711,3.373-4.828,8.735-3.263c4.207,1.228,15.132,9.601,19.272,8.262c1.604-0.518,1.246-2.881,3.605-3.472
			c6.023-1.507,7.375-4.568,15.389-3.055c1.486-0.383,5.073,0.417,7.071,0.417c2.452,0,4.248-0.183,6.516-0.695
			c1.834-0.414,4.203-1.266,5.892-2.013c2.658-1.176,5.625-0.835,8.18-2.291c8.033-4.581,7.556-16.935,7.556-25.273
			c0.504-2.785,0.358-4.133,2.565-5.832c2.75-2.116,5.869-5.291,8.042-8.193c0.863-1.154,0.775-3.209,1.248-4.513
			c1.007-2.777,2.426-2.981,2.426-6.319c0-1.719,1.668-3.796,2.149-5.485c1.329-4.674,4.047-12.192,7.279-15.83
			c1.266-1.499,2.025-2.573,3.674-3.611c1.995-1.255,3.165-1.823,4.368-4.096c0.608-1.15,2.376-3.993,3.466-4.305
			c0.291,1.765-2.62,5.655-3.951,6.665c-1.27,0.965-2.82,1.83-3.952,2.847c-2.046,1.839-2.648,5.069-4.298,7.152
			c-0.71,0.897-0.257,2.345,0.069,3.194c0.479,1.25,0.44,3.076,0.069,4.444c0,3.137-7.145,13.661-6.516,14.65
			c1.972,3.095,7.571-3.263,7.972,3.263c0.195,3.186,0.389,5.946,1.317,8.749c0.478,0,0.46-0.235,0.763-0.277
			c1.805-4.977,5.444,3.952,7.348,6.18c1.411,1.651,1.091,4.079,1.594,6.11c0.244,0.984,2.256,3.916,1.734,4.791
			c-6.062,0-7.992,3.611-13.518,5.346c-4.003,5.698-14.488,4.479-14.488,12.012c0,6.435,3.041,0.613,7.694,0.833l10.26,0.486
			c0.6,4.255-5.044,3.169-7.14,4.096c-4.352,1.927-0.138,4.968-0.138,8.263c-1.424,0-2.224-2.451-4.437-2.361
			c-3.836,0.156-2.35,3.081-4.368-2.361c-2.187-5.899-7.903,3.159-10.606,4.513c-14.118,7.07-9.448-5.901-15.32-5.901
			c-4.156,0-20.822-0.583-22.114,3.957c-1.25,0.177-2.327,1.027-3.327,1.528l7.833,11.734c2.894,4.334,5.48,11.281,6.863,16.525
			c1.603,5.144,3.299,6.784,2.772,12.637c-0.583,6.472,0.115,13.005-2.496,18.955c-1.785,4.068-5.476,10.101-5.476,14.651
			c8.869,4.434,6.448-4.375,15.251-4.375c6.368,0,9.867-3.333,15.805-3.333c9.841,0,16.257-1.641,22.946-8.193
			c3.131-3.067,4.576-6.095,9.497-5.416c4.921,0.68,3.753-5.44,7.418-7.637c2.957-1.013,5.96-3.666,9.081-2.778
			c0.354,3.226,5.871,2.078,7.903,4.583c1.173,1.446,3.173,4.348,5.06,4.652c8.22,1.325,15.496-3.465,24.263-1.736
			c0.654,3.968-0.596,8.142,0.138,12.081c0.296,5.341,1.517,2.484,4.853,3.125c1.163,0.223,2.433,2.699,3.119,3.75
			c0.911,1.395,2.262,1.92,3.397,3.055c0.744,0.744,1.956,1.992,1.248,3.055c-0.362,0.543-2.213-0.278-2.842-0.278
			c-2.841,0-3.204,0.795-5.962-0.903c-2.194-1.35-7.289-1.859-9.566-0.625c-1.163,0.63-2.615,2.489-3.674,2.639
			c-2.369,0.336-2.3-0.887-3.813-1.319c-0.302-2.752,0.006-3.541-3.189-3.541c-0.031-0.187-0.278-0.21-0.347-0.417
			c-0.182,0-0.29-3.045-1.317-3.471c-3.606-1.494,1.314,4.204,1.525,4.721c0.431,1.057-0.475,2.357,0.278,3.333
			c0.727,0.943-0.173,3.036-0.278,4.305c-0.502,0.688-0.788,2.296-0.901,2.986c-1.112,0-2.932-5.538-3.466-6.527
			c-1.51-2.797-4.159-6.144-4.159-9.512c0-3.59-6.761-6.569-8.942-9.165c-0.976-0.615-1.368-1.563-2.08-2.5
			c-0.711-0.935-3.211-2.018-4.229-3.194c-0.697-0.806-2.618-2.158-3.882-1.528c-2.318,1.155,4.797,7.036,5.892,7.985
			c3.626,3.146,8.214,7.568,10.953,11.526c2.697,3.899,7.361,10.671,7.764,15.484c-0.373,1.93,1.89,10,2.703,12.012
			c2.461,6.086,2.187,13.32,3.258,19.788c1.94,11.725-0.311,23.757-2.01,35.341c-1.016,6.931-3.656,14.045-5.685,20.899
			c-2.33,7.875-4.86,16.398-8.526,23.746c-1.414,3.365-2.5,6.929-4.853,9.512c-1.471,1.615-4.506,2.439-4.506,4.86
			c0,2.36,4.358,1.161,5.338,2.083c1.199,1.13,0.106,4.167,1.455,4.236c4.93,0.249,6.901-0.318,11.022,2.777
			c3.45,2.592,3.764,11.926,3.952,16.108c0.105,2.324-1.066,6.673-0.277,8.471c1.133,2.582,1.185,5.978,0.416,8.818
			c-1.017,0.603-3.337,11.411-3.12,12.983c0.389,2.81-0.825,3.597-1.386,5.902c-0.588,2.412,3.093,2.925,3.258,4.096
			c0.665,0.094,0.407,1.789,0.693,2.222c0.977,1.471,1.924,1.635,2.496,3.472c0.259,0.835-1.484,2.055-1.872,2.639
			c-1.016,1.529,1.439,3.886,0.347,6.249c-0.756,1.633-1.525,2.74-1.525,4.652c0,2.519-1.24,4.907-1.455,7.776
			c-0.104,1.391-1.04,2.5-1.04,4.166c0,1.905,0.251,3.408-0.347,5.346c-0.46,2.387-2.71,3.578-1.455,6.388
			c2.564,5.744,9.114,13.6,6.377,20.275c-1.066,2.599-1.092,7.632-1.525,10.623c-0.571,3.958-0.624,8.43-0.624,12.498
			c-2.318,6.2,0.12,13.385-5.892,18.052c-1.661,1.29-12.693,19.64-12.547,20.691l0.762,5.485c0.151,1.082,2.357,0.615,2.357,2.847
			c0,2.959,1.386,3.41,1.386,5.416c0,2.745-3.08,6.977-4.505,9.234c-1.464,3.208-2.265,6.537-4.021,9.651
			c-2.163,3.836-1.976,1.705-5.407,1.944c-1.161,0.081,2.31,3.979,2.08,5.485c-0.156,1.018,1.994,1.428,1.109,4.097
			c-0.923,2.787-2.683,4.861-3.466,7.707c-0.805,2.93-1.562,5.393-3.397,7.707c-2.378,2.998-6.938,4.707-6.101,8.54
			c1.23,5.623-3.368,4.464-4.853,8.54c0.032,1.132,0.678,4.308-0.416,5.069c-1.12,0.78-2.842,2.512-2.842,4.166
			c2.763,0.786,6.103-2.583,8.735,1.319c1.388,2.059,0.62,5.176,1.941,7.151c0.992,0,3.433-4.98,4.437-6.11
			c1.232-1.385,3.908-0.58,4.784-2.152c2.713-4.868,3.127-5.972,8.596-5.555c3.162,0.241,3.527-4.275,6.863-5.138
			c2.513-0.65,4.32-1.778,7.14-2.014c1.532-0.128,2.603,0.161,4.021,0.625c1.137,0.372,3.998-2.291,6.308-2.291
			c4.583,0,3.857-1.683,7.557-2.916c2.019-1.282,11.319-2.707,12.963-0.834c3.54,4.031,3.052-2.912,3.952-4.79
			c1.391-2.903,10.866-10.039,13.726-8.54c1.959,1.026,5.387,0.911,6.863,2.291c1.672,1.563,9.22,1.821,11.438,0.972
			c2.266-0.867,0.98,0.883,1.04,1.875c0.085,1.398,15.815,6.115,18.301,7.013c8.466,3.058,11.014-3.888,18.232-3.888
			c6.437-1.706,15.36,11.26,18.994,8.679c7.096-5.037,14.721-5.331,22.344-4.238V159.142L367.653,159.655z"/>
		<path fill="#006600" d="M179.35,1077.557l1.074-3.194c0.241-0.958,0.671-3.888-0.935-3.888c-1.369,0-1.343,2.219-1.525,3.229
			c-0.292,1.617-1.144,3.27-1.144,4.895c0,0.542,0.037,1.354,0.693,1.354C178.208,1079.952,179.001,1078.034,179.35,1077.557z"/>
	</g>
	<g>
		<g>
			<path fill="#FFFF00" stroke="#000000" stroke-width="0.8349" stroke-linecap="round" stroke-linejoin="round" d="
				M484.722,800.041c-44.02-1.326-245.876-127.324-247.26-147.389l11.146-18.589c20.022,29.093,226.38,151.629,246.648,147.287
				l-10.535,18.685"/>
			<path fill="#FFFF00" stroke="#000000" stroke-width="0.8349" stroke-linecap="round" stroke-linejoin="round" d="
				M246.263,631.538c-3.949,10.628,52.674,45.634,120.8,87.069c68.124,41.432,126.865,67.037,131.219,63.365
				c0.266-0.474,2.142-3.702,1.97-3.677c-0.816,1.23-2.803,1.618-5.902,0.725c-18.405-5.309-66.409-27.343-125.858-63.394
				c-59.448-36.054-111.17-69.278-119.209-83.394c-0.559-0.978-0.957-2.763-0.876-4.151l-0.195-0.003l-1.712,2.992l-0.235,0.469
				L246.263,631.538L246.263,631.538z M485.756,800.624c-0.747,1.354-2.138,1.399-4.782,1.109
				c-16.466-1.822-66.429-26.119-125.549-61.51c-68.791-41.178-125.605-78.7-119.441-88.506l1.677-2.965l0.33,0.103
				c-5.542,16.619,112.123,83.899,119.05,88.188c68.083,42.18,125.481,66.811,130.56,60.41l-1.848,3.178v-0.003L485.756,800.624z"/>
			<path fill="#FFFF00" stroke="#000000" stroke-width="0.8349" stroke-linecap="round" stroke-linejoin="round" d="
				M370.964,664.805c44.059-0.348,98.429-6.021,129.718-18.491l-6.741-10.953c-18.494,10.236-73.162,16.967-123.349,17.974
				c-59.358-0.546-101.256-6.073-122.249-20.159l-6.364,11.664c38.591,16.33,78.136,19.798,128.985,19.967"/>
			<path fill="#FFFF00" stroke="#000000" stroke-width="0.8349" stroke-linecap="round" stroke-linejoin="round" d="
				M502.499,646.561c-1.077,1.722-21.482,8.759-51.543,13.952c-20.382,3.107-46.969,5.764-80.148,5.796
				c-31.522,0.03-57.272-2.214-76.767-4.856c-31.556-4.948-47.842-11.832-53.863-14.265c0.576-1.145,0.946-1.948,1.501-3.017
				c17.333,6.901,33.695,11.062,52.863,14.011c19.367,2.623,44.807,4.899,76.173,4.869c33.024-0.033,59.318-2.892,79.583-5.906
				c30.826-4.972,47.664-11.371,50.029-14.342l2.177,3.758h-0.003H502.499z M496.582,635.454
				c-3.341,2.683-19.989,8.587-49.279,13.265c-19.547,2.802-44.402,5.309-76.157,5.34c-30.168,0.03-54.816-2.004-73.563-4.734
				c-29.746-3.885-45.578-10.893-51.285-12.936c0.568-0.982,1.146-1.956,1.74-2.934c4.441,2.236,19.719,8.438,49.872,12.71
				c18.535,2.628,43.22,4.587,73.238,4.556c31.605-0.032,56.177-2.588,75.6-5.374c29.441-4.051,45.283-11.58,47.689-13.465
				l2.146,3.571v0.003L496.582,635.454z"/>
			<path fill="#FFFF00" stroke="#000000" stroke-width="0.8349" stroke-linecap="round" stroke-linejoin="round" d="
				M226.285,717.888c27.1,14.576,87.289,21.921,144.247,22.427c51.861,0.082,119.423-8.017,144.689-21.405l-0.695-14.589
				c-7.904,12.353-80.307,24.201-144.556,23.716c-64.249-0.484-123.911-10.408-143.8-23.254l0.116,13.102"/>
			<path fill="#FFFF00" stroke="#000000" stroke-width="0.8349" stroke-linecap="round" stroke-linejoin="round" d="M516.604,715.79
				l0.001,3.479c-3.797,4.54-27.607,11.403-57.465,16.235c-22.724,3.484-52.35,6.112-89.267,6.112
				c-35.072,0-63.04-2.501-84.729-5.831c-34.285-4.993-56.215-13.735-60.617-16.345l0.019-4.058
				c13.223,8.791,49.048,15.223,61.079,17.191c21.548,3.308,49.35,5.789,84.247,5.789c36.743,0,66.203-2.61,88.784-6.071
				c21.421-3.095,51.938-11.142,57.946-16.501h0.001V715.79z M516.618,703.415l0.001,3.479c-3.797,4.538-27.607,11.4-57.465,16.232
				c-22.724,3.484-52.35,6.112-89.267,6.112c-35.072,0-63.04-2.498-84.729-5.831c-34.285-4.99-56.215-13.733-60.617-16.343
				l0.019-4.058c13.223,8.79,49.048,15.223,61.079,17.188c21.548,3.31,49.35,5.793,84.247,5.793c36.743,0,66.203-2.611,88.784-6.075
				c21.421-3.095,51.938-11.142,57.946-16.501L516.618,703.415L516.618,703.415z"/>
			<path fill="#FFFF00" stroke="#000000" stroke-width="0.8349" stroke-linecap="round" stroke-linejoin="round" d="M370.41,797.535
				c-62.324-0.371-115.727-16.989-127.003-19.735l8.223,12.873c19.919,8.379,72.017,20.866,119.378,19.483
				c47.363-1.381,88.754-5.05,117.923-19.25l8.431-13.341C477.484,786.927,409.835,797.438,370.41,797.535"/>
			<path fill="#FFFF00" stroke="#000000" stroke-width="0.8014" stroke-linecap="round" stroke-linejoin="round" d="
				M492.095,787.918c-1.239,1.893-2.502,3.763-3.783,5.58c-13.758,4.851-35.436,9.944-44.584,11.43
				c-18.686,3.85-47.597,6.694-73.256,6.707c-55.211-0.808-100.404-11.616-121.665-20.836l-1.715-2.949l0.28-0.443l2.909,1.128
				c37.81,13.527,80.275,18.924,120.502,19.893c25.555,0.09,51.138-2.929,71.825-6.629c31.723-6.356,44.55-11.147,48.486-13.319
				L492.095,787.918L492.095,787.918L492.095,787.918z M499.406,775.859c0.032,0.037,0.064,0.073,0.095,0.113
				c-0.927,1.564-1.881,3.155-2.859,4.754c-7.338,2.623-27.251,8.45-56.331,12.516c-19.16,2.61-31.069,5.138-69.183,5.878
				c-71.421-1.817-117.663-15.782-128.649-19.227l-1.628-3.123c41.391,10.805,83.671,18.348,130.279,19.119
				c34.871-0.743,49.706-3.31,68.707-5.901c33.909-5.273,50.994-10.855,56.121-12.467c-0.064-0.093-0.14-0.19-0.225-0.29
				l3.676-1.374L499.406,775.859L499.406,775.859z"/>
			<path fill="#FFFF00" stroke="#000000" stroke-width="0.8349" stroke-linecap="round" stroke-linejoin="round" d="
				M500.153,706.377c0.202,40.999-20.779,77.79-37.678,94.021c-23.909,22.963-55.608,37.734-92.628,38.414
				c-41.339,0.759-80.317-26.19-90.772-38.03c-20.441-23.146-37.083-52.54-37.616-92.153c2.532-44.747,20.098-75.916,45.562-97.291
				c25.463-21.375,59.368-31.784,87.604-31.04c32.578,0.86,70.634,16.841,96.93,48.569
				C488.781,649.655,496.242,672.214,500.153,706.377L500.153,706.377z M370.197,565.994c79.392,0,144.687,64.606,144.687,143.823
				c0,79.215-65.295,143.825-144.687,143.825s-144.145-64.608-144.145-143.825S290.806,565.994,370.197,565.994"/>
			<path fill="#FFFF00" stroke="#000000" stroke-width="0.8349" stroke-linecap="round" stroke-linejoin="round" d="
				M370.585,565.501c79.463,0,144.272,64.818,144.272,144.288c0,79.469-64.81,144.285-144.272,144.285
				c-79.463,0-144.272-64.815-144.272-144.285S291.123,565.501,370.585,565.501L370.585,565.501z M229.488,709.79
				c0,77.607,63.729,141.111,141.097,141.111c77.369,0,141.098-63.505,141.098-141.111c0-77.61-63.73-141.114-141.098-141.114
				S229.488,632.183,229.488,709.79L229.488,709.79z"/>
			<path fill="#FFFF00" stroke="#000000" stroke-width="0.8349" stroke-linecap="round" stroke-linejoin="round" d="
				M370.702,577.493c72.465,0,132.151,59.482,132.151,132.168c0,72.687-59.688,132.166-132.151,132.166
				S238.55,782.348,238.55,709.661C238.55,636.975,298.24,577.493,370.702,577.493L370.702,577.493z M241.724,709.66
				c0,70.94,58.255,128.991,128.978,128.991S499.679,780.6,499.679,709.66c0-70.942-58.253-128.992-128.978-128.992
				C299.978,580.668,241.724,638.718,241.724,709.66L241.724,709.66z"/>
			<path fill="#FFFF00" stroke="#000000" stroke-width="0.8349" stroke-linecap="round" stroke-linejoin="round" d="
				M376.515,564.918h-12.364l0.015,289.911h12.407L376.515,564.918z"/>
			<path fill="#FFFF00" stroke="#000000" stroke-width="0.8349" stroke-linecap="round" stroke-linejoin="round" d="
				M375.277,563.266h3.147l0.027,293.247h-3.15l-0.023-293.247H375.277z M363.006,563.269h3.172l0.004,293.247h-3.174V563.269
				H363.006z"/>
			<path fill="#FFFF00" stroke="#000000" stroke-width="0.8349" stroke-linecap="round" stroke-linejoin="round" d="
				M514.957,715.374v-10.718l-8.728-8.131l-49.542-13.114l-71.399-7.286l-85.971,4.371l-61.199,14.571l-12.356,9.151v10.72
				l31.299-14.042l74.314-11.657h71.399l52.457,5.829l36.428,8.743L514.957,715.374z"/>
			<path fill="#FFFF00" stroke="#000000" stroke-width="0.8349" stroke-linecap="round" stroke-linejoin="round" d="
				M370.643,687.448c34.072-0.063,67.13,3.228,93.351,8.334c27.057,5.409,46.099,12.175,52.61,19.775l-0.007,3.763
				c-7.852-9.457-33.475-16.39-53.212-20.353c-26.021-5.062-58.858-8.33-92.742-8.267c-35.755,0.067-69.049,3.453-94.69,8.456
				c-20.575,4.083-48.014,12.193-51.44,20.193v-3.918c1.881-5.538,22.313-13.812,50.976-19.55
				C301.323,690.842,334.678,687.514,370.643,687.448L370.643,687.448z M370.658,675.074c34.072-0.062,67.13,3.231,93.351,8.334
				c27.057,5.412,46.099,12.175,52.61,19.775l-0.007,3.763c-7.852-9.455-33.475-16.388-53.211-20.35
				c-26.021-5.065-58.858-8.333-92.742-8.267c-35.755,0.064-68.887,3.453-94.531,8.453c-19.855,3.764-48.415,12.196-51.6,20.196
				v-3.921c1.881-5.477,22.727-14.049,50.978-19.55C301.338,678.469,334.693,675.143,370.658,675.074L370.658,675.074z"/>
			<path fill="#FFFF00" stroke="#000000" stroke-width="0.8349" stroke-linecap="round" stroke-linejoin="round" d="
				M369.958,611.955c53.694-0.269,100.527,7.508,121.954,18.484l7.816,13.521c-18.624-10.037-69.15-20.473-129.692-18.912
				c-49.33,0.303-102.038,5.431-128.484,19.54l9.331-15.604c21.704-11.255,72.889-16.965,119.077-17.025"/>
			<path fill="#FFFF00" stroke="#000000" stroke-width="0.8349" stroke-linecap="round" stroke-linejoin="round" d="
				M370.672,623.116c30.624-0.081,60.216,1.646,83.75,5.892c21.917,4.079,42.818,10.201,45.806,13.494l2.317,4.094
				c-7.268-4.746-25.356-10.03-48.579-14.434c-23.323-4.383-52.894-5.836-83.348-5.756c-34.566-0.118-61.421,1.707-84.468,5.725
				c-24.375,4.561-41.286,11.076-45.458,14.172l2.271-4.328c8.106-4.135,20.968-9.12,42.582-13.012
				c23.834-4.354,50.975-5.66,85.13-5.847L370.672,623.116L370.672,623.116z M370.659,610.753
				c29.307-0.077,58.244,1.556,80.801,5.611c17.79,3.463,35.383,8.87,41.825,13.681l3.389,5.385
				c-5.761-6.404-27.447-12.472-46.59-15.871c-22.383-3.86-50.118-5.388-79.425-5.633c-30.757,0.086-59.181,1.97-81.238,5.986
				c-21.042,4.004-34.621,8.745-40.367,12.448l2.98-4.498c7.929-4.174,20.738-8.008,36.87-11.142
				c22.22-4.046,50.819-5.881,81.757-5.967H370.659z"/>
			<path fill="#FFFF00" stroke="#000000" stroke-width="0.8349" stroke-linecap="round" stroke-linejoin="round" d="
				M442.334,769.762c-26.546-4.955-53.14-5.675-71.716-5.456c-89.478,1.049-118.383,18.373-121.911,23.619l-6.687-10.901
				c22.781-16.512,71.506-25.772,129.083-24.825c29.897,0.49,55.697,2.475,77.401,6.679l-6.172,10.889"/>
			<path fill="#FFFF00" stroke="#000000" stroke-width="0.8014" stroke-linecap="round" stroke-linejoin="round" d="
				M370.104,762.767c24.891,0.371,49.322,1.399,72.905,5.797l-1.708,3.015c-21.902-4.043-45.251-5.59-71.112-5.464
				c-33.023-0.258-66.423,2.826-95.502,11.172c-9.175,2.553-24.365,8.452-25.914,13.327l-1.699-2.802
				c0.49-2.881,9.67-8.861,26.832-13.683c33.307-9.538,64.462-11.146,96.198-11.364L370.104,762.767L370.104,762.767z
				 M371.234,750.242c25.788,0.482,52.42,1.674,78.306,6.802l-1.779,3.138c-23.375-4.641-45.709-6.188-76.375-6.659
				c-33.128,0.06-68.268,2.422-100.218,11.711c-10.315,3.005-28.118,9.501-28.711,14.644l-1.699-3.01
				c0.387-4.671,15.798-10.765,29.664-14.799C302.618,752.709,337.85,750.302,371.234,750.242L371.234,750.242z"/>
			<path fill="#FFFF00" stroke="#000000" stroke-width="0.8349" stroke-linecap="round" stroke-linejoin="round" d="
				M498.331,778.679l-10.752,16.683l-30.893-27.436l-80.142-53.914l-90.342-49.542l-46.905-16.043l9.996-18.535l3.395-1.851
				l29.143,7.286l96.171,49.542l55.371,34.971l46.628,33.514l18.943,21.857L498.331,778.679z"/>
			<path fill="#FFFF00" stroke="#000000" stroke-width="0.8349" stroke-linecap="round" stroke-linejoin="round" d="
				M237.607,648.864c8.227-5.58,68.688,21.354,131.95,59.5c63.095,38.255,123.385,81.484,117.943,89.574l-1.79,2.816l-0.821,0.648
				c0.176-0.126,1.083-1.235-0.089-4.234c-2.688-8.845-45.455-42.972-116.416-85.818c-69.177-41.25-126.83-66.111-132.594-59.005
				L237.607,648.864l-0.001-0.001L237.607,648.864z M500.532,778.442c5.202-10.276-50.877-52.521-120.406-93.653
				c-71.127-40.313-122.39-64.042-131.754-56.967l-2.08,3.787c-0.018,0.208,0.076-0.258,0.515-0.598
				c1.703-1.486,4.525-1.385,5.798-1.408c16.123,0.242,62.171,21.433,126.779,58.472c28.309,16.487,119.588,75.029,119.24,91.492
				c0.025,1.415,0.117,1.707-0.415,2.407L500.532,778.442l0-0.002L500.532,778.442z"/>
		</g>
		<g>
			<path fill="#FFFFFF" stroke="#000000" stroke-width="0.9768" d="M284.163,725.684c0,23.709,9.709,45.152,25.437,60.823
				c15.759,15.705,37.174,25.615,60.921,25.615c23.869,0,45.531-9.694,61.223-25.338c15.692-15.642,25.417-37.233,25.421-61.025
				h-0.003V610.371l-173.02-0.206l0.018,115.518L284.163,725.684L284.163,725.684z"/>
			<path fill="#FF0000" stroke="#000000" stroke-width="0.7393" d="M287.397,725.844v0.066c0,22.669,9.386,43.312,24.443,58.298
				c15.087,15.016,35.866,24.352,58.597,24.352c22.849,0,43.586-9.268,58.609-24.226c15.02-14.957,24.33-35.602,24.333-58.349
				h-0.003V614.038l-165.88-0.027l-0.102,111.832 M420.026,647.527l0.006,71.24l-0.06,7.536h0.001c0,1.983-0.12,4.243-0.351,6.168
				c-1.348,11.263-6.528,21.08-14.2,28.717c-8.981,8.94-21.378,14.486-35.04,14.486c-13.591,0-25.702-5.738-34.722-14.717
				c-9.252-9.209-14.615-21.837-14.615-34.894l-0.019-78.719l98.997,0.179L420.026,647.527L420.026,647.527z"/>
			<g>
				<g id="castle">
					<path fill="#FFFF00" d="M298.136,643.239c0.197-8.045,5.905-9.949,5.946-9.978c0.041-0.027,6.166,2.051,6.145,10.052
						L298.136,643.239"/>
					<path fill="#FFFF00" stroke="#000000" stroke-width="0.7286" d="M293.211,633.418l-0.993,9.245l6.033,0.013
						c0.058-7.649,5.79-8.921,5.929-8.893c0.13-0.007,5.812,1.691,5.964,8.893h6.049l-1.092-9.316l-21.889,0.055L293.211,633.418
						L293.211,633.418z"/>
					<path fill="#FFFF00" stroke="#000000" stroke-width="0.7286" d="M291.813,642.7h24.693c0.52,0,0.946,0.514,0.946,1.142
						c0,0.627-0.425,1.139-0.946,1.139h-24.693c-0.52,0-0.946-0.511-0.946-1.139C290.867,643.214,291.292,642.7,291.813,642.7z"/>
					<path fill="#FFFF00" stroke="#000000" stroke-width="0.7286" d="M300.788,642.656c0.027-4.827,3.296-6.193,3.313-6.19
						c0.001,0,3.413,1.408,3.44,6.19H300.788"/>
					<path fill="#FFFF00" stroke="#000000" stroke-width="0.7286" d="M292.337,629.571h23.671c0.499,0,0.907,0.464,0.907,1.027
						c0,0.564-0.409,1.027-0.907,1.027h-23.671c-0.499,0-0.907-0.46-0.907-1.027C291.43,630.035,291.838,629.571,292.337,629.571z"
						/>
					<path fill="#FFFF00" stroke="#000000" stroke-width="0.7286" d="M292.832,631.64h22.641c0.477,0,0.867,0.461,0.867,1.026
						c0,0.565-0.391,1.027-0.867,1.027h-22.641c-0.477,0-0.867-0.461-0.867-1.027C291.965,632.102,292.356,631.64,292.832,631.64z"
						/>
					<path fill="#FFFF00" stroke="#000000" stroke-width="0.7286" d="M300.147,616.209l1.787,0.003v1.27h1.304v-1.298l1.831,0.006
						v1.293h1.308v-1.298h1.832l-0.003,2.931c0,0.46-0.37,0.758-0.799,0.758h-6.428c-0.432,0-0.83-0.346-0.831-0.767l-0.004-2.897
						h0.001L300.147,616.209z"/>
					<path fill="#FFFF00" stroke="#000000" stroke-width="0.7286" d="M306.879,620.129l0.404,9.401l-6.27-0.023l0.415-9.402
						L306.879,620.129"/>
					<path id="cp1" fill="#FFFF00" stroke="#000000" stroke-width="0.7286" d="M299.229,624.486l0.191,5.067l-6.012,0.003l0.17-5.07
						h5.652L299.229,624.486L299.229,624.486z"/>
					<g>
						<path id="cp1_1_" fill="#FFFF00" stroke="#000000" stroke-width="0.7286" d="M314.688,624.486l0.191,5.067l-6.012,0.003
							l0.17-5.07h5.652L314.688,624.486L314.688,624.486z"/>
					</g>
					<path id="cp2" fill="#FFFF00" stroke="#000000" stroke-width="0.7286" d="M292.468,620.814l1.748,0.004v1.271h1.279v-1.301
						l1.791,0.006v1.295h1.281v-1.301l1.793,0.003l-0.003,2.931c0,0.458-0.362,0.756-0.781,0.756h-6.29
						c-0.421,0-0.813-0.343-0.815-0.766l-0.004-2.898h0.001L292.468,620.814z"/>
					<g>
						<path id="cp2_1_" fill="#FFFF00" stroke="#000000" stroke-width="0.7286" d="M307.927,620.814l1.748,0.004v1.271h1.279v-1.301
							l1.791,0.006v1.295h1.281v-1.301l1.793,0.003l-0.003,2.931c0,0.458-0.362,0.756-0.781,0.756h-6.29
							c-0.422,0-0.813-0.343-0.815-0.766l-0.004-2.898h0.001L307.927,620.814z"/>
					</g>
					<path d="M303.542,623.102c-0.039-0.914,1.277-0.924,1.262,0v2.239h-1.262L303.542,623.102"/>
					<path id="cp3" d="M295.776,626.351c-0.004-0.883,1.22-0.901,1.204,0v1.73h-1.204L295.776,626.351"/>
					<g>
						<path id="cp3_1_" d="M311.281,626.351c-0.004-0.883,1.22-0.901,1.204,0v1.73h-1.204L311.281,626.351"/>
					</g>
				</g>
				<g>
					<g id="castle_1_">
						<path fill="#FFFF00" d="M298.136,710.733c0.197-8.045,5.905-9.949,5.946-9.978c0.041-0.027,6.166,2.051,6.145,10.052
							L298.136,710.733"/>
						<path fill="#FFFF00" stroke="#000000" stroke-width="0.7286" d="M293.211,700.912l-0.993,9.245l6.033,0.013
							c0.058-7.649,5.79-8.921,5.929-8.893c0.13-0.007,5.812,1.691,5.964,8.893h6.049l-1.092-9.316l-21.889,0.055L293.211,700.912
							L293.211,700.912z"/>
						<path fill="#FFFF00" stroke="#000000" stroke-width="0.7286" d="M291.813,710.194h24.693c0.52,0,0.946,0.514,0.946,1.142
							c0,0.627-0.425,1.139-0.946,1.139h-24.693c-0.52,0-0.946-0.511-0.946-1.139C290.867,710.708,291.292,710.194,291.813,710.194z
							"/>
						<path fill="#FFFF00" stroke="#000000" stroke-width="0.7286" d="M300.788,710.15c0.027-4.827,3.296-6.193,3.313-6.19
							c0.001,0,3.413,1.408,3.44,6.19H300.788"/>
						<path fill="#FFFF00" stroke="#000000" stroke-width="0.7286" d="M292.337,697.065h23.671c0.499,0,0.907,0.464,0.907,1.027
							c0,0.564-0.409,1.027-0.907,1.027h-23.671c-0.499,0-0.907-0.46-0.907-1.027C291.43,697.529,291.838,697.065,292.337,697.065z"
							/>
						<path fill="#FFFF00" stroke="#000000" stroke-width="0.7286" d="M292.832,699.134h22.641c0.477,0,0.867,0.461,0.867,1.026
							c0,0.565-0.391,1.027-0.867,1.027h-22.641c-0.477,0-0.867-0.461-0.867-1.027C291.965,699.596,292.356,699.134,292.832,699.134
							z"/>
						<path fill="#FFFF00" stroke="#000000" stroke-width="0.7286" d="M300.147,683.703l1.787,0.003v1.27h1.304v-1.298l1.831,0.006
							v1.293h1.308v-1.298h1.832l-0.003,2.931c0,0.46-0.37,0.758-0.799,0.758h-6.428c-0.432,0-0.83-0.346-0.831-0.767l-0.004-2.897
							h0.001L300.147,683.703z"/>
						<path fill="#FFFF00" stroke="#000000" stroke-width="0.7286" d="M306.879,687.623l0.404,9.401l-6.27-0.023l0.415-9.402
							L306.879,687.623"/>
						<path id="cp1_2_" fill="#FFFF00" stroke="#000000" stroke-width="0.7286" d="M299.229,691.98l0.191,5.067l-6.012,0.003
							l0.17-5.07h5.652L299.229,691.98L299.229,691.98z"/>
						<g>
							<path id="cp1_3_" fill="#FFFF00" stroke="#000000" stroke-width="0.7286" d="M314.688,691.98l0.191,5.067l-6.012,0.003
								l0.17-5.07h5.652L314.688,691.98L314.688,691.98z"/>
						</g>
						<path id="cp2_2_" fill="#FFFF00" stroke="#000000" stroke-width="0.7286" d="M292.468,688.308l1.748,0.004v1.271h1.279v-1.301
							l1.791,0.006v1.295h1.281v-1.301l1.793,0.003l-0.003,2.931c0,0.458-0.362,0.756-0.781,0.756h-6.29
							c-0.421,0-0.813-0.343-0.815-0.766l-0.004-2.898h0.001L292.468,688.308z"/>
						<g>
							<path id="cp2_3_" fill="#FFFF00" stroke="#000000" stroke-width="0.7286" d="M307.927,688.308l1.748,0.004v1.271h1.279
								v-1.301l1.791,0.006v1.295h1.281v-1.301l1.793,0.003l-0.003,2.931c0,0.458-0.362,0.756-0.781,0.756h-6.29
								c-0.422,0-0.813-0.343-0.815-0.766l-0.004-2.898h0.001L307.927,688.308z"/>
						</g>
						<path d="M303.542,690.596c-0.039-0.914,1.277-0.924,1.262,0v2.239h-1.262L303.542,690.596"/>
						<path id="cp3_2_" d="M295.776,693.845c-0.004-0.883,1.22-0.901,1.204,0v1.73h-1.204L295.776,693.845"/>
						<g>
							<path id="cp3_3_" d="M311.281,693.845c-0.004-0.883,1.22-0.901,1.204,0v1.73h-1.204L311.281,693.845"/>
						</g>
					</g>
					<g id="castle3">
						<g id="castle_2_">
							<path fill="#FFFF00" d="M324.454,780.987c-5.57-5.808-2.899-11.2-2.89-11.249c0.01-0.048,5.8-2.93,11.463,2.722
								L324.454,780.987"/>
							<path fill="#FFFF00" stroke="#000000" stroke-width="0.7286" d="M314.014,777.562l5.86,7.219l4.26-4.272
								c-5.387-5.431-2.25-10.395-2.133-10.473c0.086-0.097,5.295-2.933,10.513,2.034l4.262-4.292l-7.38-5.789l-15.384,15.571
								L314.014,777.562L314.014,777.562z"/>
							<path fill="#FFFF00" stroke="#000000" stroke-width="0.7286" d="M319.615,785.095l17.399-17.522
								c0.367-0.369,1.031-0.309,1.477,0.134c0.445,0.442,0.508,1.104,0.142,1.473l-17.399,17.522
								c-0.367,0.369-1.029,0.311-1.474-0.131C319.314,786.128,319.248,785.464,319.615,785.095z"/>
							<path fill="#FFFF00" stroke="#000000" stroke-width="0.7286" d="M325.909,778.694c-3.406-3.42-2.072-6.703-2.058-6.713
								c0.001-0.001,3.404-1.429,6.817,1.921L325.909,778.694"/>
							<path fill="#FFFF00" stroke="#000000" stroke-width="0.7286" d="M310.669,775.472l16.679-16.797
								c0.351-0.354,0.968-0.317,1.368,0.08c0.4,0.398,0.441,1.013,0.089,1.367l-16.679,16.797c-0.351,0.354-0.966,0.32-1.368-0.08
								C310.359,776.442,310.317,775.826,310.669,775.472z"/>
							<path fill="#FFFF00" stroke="#000000" stroke-width="0.7286" d="M312.486,776.578l15.953-16.066
								c0.336-0.338,0.939-0.29,1.339,0.107c0.401,0.398,0.453,1.001,0.117,1.339l-15.953,16.066
								c-0.336,0.338-0.939,0.29-1.34-0.108C312.202,777.519,312.15,776.916,312.486,776.578z"/>
							<path fill="#FFFF00" stroke="#000000" stroke-width="0.7286" d="M306.69,760.515l1.262-1.266l0.901,0.895l0.919-0.926
								l-0.921-0.915l1.294-1.295l0.917,0.911l0.922-0.928l-0.921-0.915l1.291-1.3l2.078,2.068c0.326,0.324,0.277,0.797-0.025,1.101
								l-4.529,4.561c-0.304,0.306-0.83,0.345-1.13,0.049l-2.059-2.038l0.001-0.001L306.69,760.515z"/>
							<path fill="#FFFF00" stroke="#000000" stroke-width="0.7286" d="M314.215,758.5l6.955,6.337l-4.434,4.433l-6.379-6.919
								L314.215,758.5"/>
							<path id="cp1_4_" fill="#FFFF00" stroke="#000000" stroke-width="0.7286" d="M311.916,766.998l3.731,3.434l-4.234,4.268
								l-3.478-3.693l3.982-4.01L311.916,766.998L311.916,766.998z"/>
							<g>
								<path id="cp1_5_" fill="#FFFF00" stroke="#000000" stroke-width="0.7286" d="M322.809,756.028l3.731,3.434l-4.234,4.268
									l-3.478-3.693l3.982-4.01L322.809,756.028L322.809,756.028z"/>
							</g>
							<path id="cp2_4_" fill="#FFFF00" stroke="#000000" stroke-width="0.7286" d="M304.547,769.208l1.235-1.237l0.902,0.896
								l0.901-0.907l-0.923-0.916l1.266-1.267l0.919,0.913l0.903-0.909l-0.923-0.916l1.265-1.27l2.078,2.068
								c0.325,0.322,0.281,0.79-0.014,1.087l-4.432,4.464c-0.297,0.299-0.817,0.335-1.118,0.038l-2.059-2.039l0.001-0.001
								L304.547,769.208z"/>
							<g>
								<path id="cp2_5_" fill="#FFFF00" stroke="#000000" stroke-width="0.7286" d="M315.439,758.239l1.235-1.237l0.902,0.896
									l0.901-0.907l-0.923-0.916l1.266-1.267l0.919,0.913l0.903-0.909l-0.923-0.916l1.265-1.27l2.078,2.068
									c0.325,0.322,0.281,0.79-0.014,1.087l-4.432,4.464c-0.297,0.299-0.817,0.335-1.118,0.038l-2.059-2.039l0.001-0.001
									L315.439,758.239z"/>
							</g>
							<path d="M313.973,762.962c-0.676-0.616,0.244-1.557,0.889-0.895l1.589,1.577l-0.889,0.895L313.973,762.962"/>
							<path id="cp3_4_" d="M310.807,770.762c-0.63-0.619,0.22-1.5,0.848-0.854l1.227,1.219l-0.848,0.854L310.807,770.762"/>
							<g transform="matrix(0.70460892,-0.70959585,0.70959585,0.70460892,-35.341459,275.10898)">
								<path id="cp3_5_" d="M321.732,759.76c-0.63-0.619,0.22-1.5,0.848-0.854l1.227,1.219l-0.848,0.854L321.732,759.76"/>
							</g>
						</g>
					</g>
					<g>
						<g id="castle_3_">
							<path fill="#FFFF00" d="M364.747,643.239c0.197-8.045,5.905-9.949,5.946-9.978c0.041-0.027,6.166,2.051,6.145,10.052
								L364.747,643.239"/>
							<path fill="#FFFF00" stroke="#000000" stroke-width="0.7286" d="M359.822,633.418l-0.993,9.245l6.033,0.013
								c0.058-7.649,5.79-8.921,5.929-8.893c0.13-0.007,5.812,1.691,5.964,8.893h6.049l-1.092-9.316l-21.889,0.055L359.822,633.418
								L359.822,633.418z"/>
							<path fill="#FFFF00" stroke="#000000" stroke-width="0.7286" d="M358.423,642.7h24.693c0.52,0,0.946,0.514,0.946,1.142
								c0,0.627-0.425,1.139-0.946,1.139h-24.693c-0.52,0-0.946-0.511-0.946-1.139C357.478,643.214,357.903,642.7,358.423,642.7z"/>
							<path fill="#FFFF00" stroke="#000000" stroke-width="0.7286" d="M367.399,642.656c0.027-4.827,3.296-6.193,3.313-6.19
								c0.001,0,3.413,1.408,3.44,6.19H367.399"/>
							<path fill="#FFFF00" stroke="#000000" stroke-width="0.7286" d="M358.948,629.571h23.671c0.499,0,0.907,0.464,0.907,1.027
								c0,0.564-0.409,1.027-0.907,1.027h-23.671c-0.499,0-0.907-0.46-0.907-1.027C358.041,630.035,358.449,629.571,358.948,629.571
								z"/>
							<path fill="#FFFF00" stroke="#000000" stroke-width="0.7286" d="M359.443,631.64h22.641c0.477,0,0.867,0.461,0.867,1.026
								c0,0.565-0.391,1.027-0.867,1.027h-22.641c-0.477,0-0.867-0.461-0.867-1.027C358.576,632.102,358.967,631.64,359.443,631.64z
								"/>
							<path fill="#FFFF00" stroke="#000000" stroke-width="0.7286" d="M366.758,616.209l1.787,0.003v1.27h1.304v-1.298l1.831,0.006
								v1.293h1.308v-1.298h1.832l-0.003,2.931c0,0.46-0.37,0.758-0.799,0.758h-6.428c-0.432,0-0.83-0.346-0.831-0.767l-0.004-2.897
								h0.001L366.758,616.209z"/>
							<path fill="#FFFF00" stroke="#000000" stroke-width="0.7286" d="M373.49,620.129l0.404,9.401l-6.27-0.023l0.415-9.402
								L373.49,620.129"/>
							<path id="cp1_6_" fill="#FFFF00" stroke="#000000" stroke-width="0.7286" d="M365.84,624.486l0.191,5.067l-6.012,0.003
								l0.17-5.07h5.652L365.84,624.486L365.84,624.486z"/>
							<g>
								<path id="cp1_7_" fill="#FFFF00" stroke="#000000" stroke-width="0.7286" d="M381.299,624.486l0.191,5.067l-6.012,0.003
									l0.17-5.07h5.652L381.299,624.486L381.299,624.486z"/>
							</g>
							<path id="cp2_6_" fill="#FFFF00" stroke="#000000" stroke-width="0.7286" d="M359.079,620.814l1.748,0.004v1.271h1.279
								v-1.301l1.791,0.006v1.295h1.281v-1.301l1.793,0.003l-0.003,2.931c0,0.458-0.362,0.756-0.781,0.756h-6.29
								c-0.422,0-0.813-0.343-0.815-0.766l-0.004-2.898h0.001L359.079,620.814z"/>
							<g>
								<path id="cp2_7_" fill="#FFFF00" stroke="#000000" stroke-width="0.7286" d="M374.538,620.814l1.748,0.004v1.271h1.279
									v-1.301l1.791,0.006v1.295h1.281v-1.301l1.793,0.003l-0.003,2.931c0,0.458-0.362,0.756-0.781,0.756h-6.29
									c-0.421,0-0.813-0.343-0.815-0.766l-0.004-2.898h0.001L374.538,620.814z"/>
							</g>
							<path d="M370.153,623.102c-0.039-0.914,1.277-0.924,1.262,0v2.239h-1.262L370.153,623.102"/>
							<path id="cp3_6_" d="M362.387,626.351c-0.004-0.883,1.22-0.901,1.204,0v1.73h-1.204L362.387,626.351"/>
							<g>
								<path id="cp3_7_" d="M377.892,626.351c-0.004-0.883,1.22-0.901,1.204,0v1.73h-1.204L377.892,626.351"/>
							</g>
						</g>
						<g>
							<g>
								<g id="castle_4_">
									<path fill="#FFFF00" d="M442.993,643.239c-0.197-8.045-5.905-9.949-5.946-9.978c-0.041-0.027-6.166,2.051-6.145,10.052
										L442.993,643.239"/>
									<path fill="#FFFF00" stroke="#000000" stroke-width="0.7286" d="M447.918,633.418l0.993,9.245l-6.033,0.013
										c-0.058-7.649-5.79-8.921-5.929-8.893c-0.13-0.007-5.812,1.691-5.964,8.893h-6.049l1.092-9.316l21.889,0.055
										L447.918,633.418L447.918,633.418z"/>
									<path fill="#FFFF00" stroke="#000000" stroke-width="0.7286" d="M449.316,642.7h-24.693c-0.52,0-0.946,0.514-0.946,1.142
										c0,0.627,0.425,1.139,0.946,1.139h24.693c0.52,0,0.946-0.511,0.946-1.139C450.262,643.214,449.837,642.7,449.316,642.7z"/>
									<path fill="#FFFF00" stroke="#000000" stroke-width="0.7286" d="M440.341,642.656c-0.027-4.827-3.296-6.193-3.313-6.19
										c-0.001,0-3.413,1.408-3.44,6.19H440.341"/>
									<path fill="#FFFF00" stroke="#000000" stroke-width="0.7286" d="M448.792,629.571h-23.671
										c-0.499,0-0.907,0.464-0.907,1.027c0,0.564,0.409,1.027,0.907,1.027h23.671c0.499,0,0.907-0.46,0.907-1.027
										C449.699,630.035,449.291,629.571,448.792,629.571z"/>
									<path fill="#FFFF00" stroke="#000000" stroke-width="0.7286" d="M448.297,631.64h-22.641c-0.477,0-0.867,0.461-0.867,1.026
										c0,0.565,0.391,1.027,0.867,1.027h22.641c0.477,0,0.867-0.461,0.867-1.027C449.164,632.102,448.773,631.64,448.297,631.64z
										"/>
									<path fill="#FFFF00" stroke="#000000" stroke-width="0.7286" d="M440.982,616.209l-1.787,0.003v1.27h-1.304v-1.298
										l-1.831,0.006v1.293h-1.308v-1.298h-1.832l0.003,2.931c0,0.46,0.37,0.758,0.799,0.758h6.428
										c0.432,0,0.83-0.346,0.831-0.767l0.004-2.897h-0.001L440.982,616.209z"/>
									<path fill="#FFFF00" stroke="#000000" stroke-width="0.7286" d="M434.25,620.129l-0.404,9.401l6.27-0.023l-0.415-9.402
										L434.25,620.129"/>
									<path id="cp1_8_" fill="#FFFF00" stroke="#000000" stroke-width="0.7286" d="M441.9,624.486l-0.191,5.067l6.012,0.003
										l-0.17-5.07h-5.652L441.9,624.486L441.9,624.486z"/>
									<g>
										<path id="cp1_9_" fill="#FFFF00" stroke="#000000" stroke-width="0.7286" d="M426.441,624.486l-0.191,5.067l6.012,0.003
											l-0.17-5.07h-5.652L426.441,624.486L426.441,624.486z"/>
									</g>
									<path id="cp2_8_" fill="#FFFF00" stroke="#000000" stroke-width="0.7286" d="M448.661,620.814l-1.748,0.004v1.271h-1.279
										v-1.301l-1.791,0.006v1.295h-1.281v-1.301l-1.793,0.003l0.003,2.931c0,0.458,0.362,0.756,0.781,0.756h6.29
										c0.421,0,0.813-0.343,0.815-0.766l0.004-2.898h-0.001L448.661,620.814z"/>
									<g>
										<path id="cp2_9_" fill="#FFFF00" stroke="#000000" stroke-width="0.7286" d="M433.202,620.814l-1.748,0.004v1.271h-1.279
											v-1.301l-1.791,0.006v1.295h-1.281v-1.301l-1.793,0.003l0.003,2.931c0,0.458,0.362,0.756,0.781,0.756h6.29
											c0.422,0,0.813-0.343,0.815-0.766l0.004-2.898h-0.001L433.202,620.814z"/>
									</g>
									<path d="M437.587,623.102c0.039-0.914-1.277-0.924-1.262,0v2.239h1.262L437.587,623.102"/>
									<path id="cp3_8_" d="M445.353,626.351c0.004-0.883-1.22-0.901-1.204,0v1.73h1.204L445.353,626.351"/>
									<g>
										<path id="cp3_9_" d="M429.848,626.351c0.004-0.883-1.22-0.901-1.204,0v1.73h1.204L429.848,626.351"/>
									</g>
								</g>
								<g>
									<g id="castle_5_">
										<path fill="#FFFF00" d="M442.993,710.733c-0.197-8.045-5.905-9.949-5.946-9.978c-0.041-0.027-6.166,2.051-6.145,10.052
											L442.993,710.733"/>
										<path fill="#FFFF00" stroke="#000000" stroke-width="0.7286" d="M447.918,700.912l0.993,9.245l-6.033,0.013
											c-0.058-7.649-5.79-8.921-5.929-8.893c-0.13-0.007-5.812,1.691-5.964,8.893h-6.049l1.092-9.316l21.889,0.055
											L447.918,700.912L447.918,700.912z"/>
										<path fill="#FFFF00" stroke="#000000" stroke-width="0.7286" d="M449.316,710.194h-24.693
											c-0.52,0-0.946,0.514-0.946,1.142c0,0.627,0.425,1.139,0.946,1.139h24.693c0.52,0,0.946-0.511,0.946-1.139
											C450.262,710.708,449.837,710.194,449.316,710.194z"/>
										<path fill="#FFFF00" stroke="#000000" stroke-width="0.7286" d="M440.341,710.15c-0.027-4.827-3.296-6.193-3.313-6.19
											c-0.001,0-3.413,1.408-3.44,6.19H440.341"/>
										<path fill="#FFFF00" stroke="#000000" stroke-width="0.7286" d="M448.792,697.065h-23.671
											c-0.499,0-0.907,0.464-0.907,1.027c0,0.564,0.409,1.027,0.907,1.027h23.671c0.499,0,0.907-0.46,0.907-1.027
											C449.699,697.529,449.291,697.065,448.792,697.065z"/>
										<path fill="#FFFF00" stroke="#000000" stroke-width="0.7286" d="M448.297,699.134h-22.641
											c-0.477,0-0.867,0.461-0.867,1.026c0,0.565,0.391,1.027,0.867,1.027h22.641c0.477,0,0.867-0.461,0.867-1.027
											C449.164,699.596,448.773,699.134,448.297,699.134z"/>
										<path fill="#FFFF00" stroke="#000000" stroke-width="0.7286" d="M440.982,683.703l-1.787,0.003v1.27h-1.304v-1.298
											l-1.831,0.006v1.293h-1.308v-1.298h-1.832l0.003,2.931c0,0.46,0.37,0.758,0.799,0.758h6.428
											c0.432,0,0.83-0.346,0.831-0.767l0.004-2.897h-0.001L440.982,683.703z"/>
										<path fill="#FFFF00" stroke="#000000" stroke-width="0.7286" d="M434.25,687.623l-0.404,9.401l6.27-0.023l-0.415-9.402
											L434.25,687.623"/>
										<path id="cp1_10_" fill="#FFFF00" stroke="#000000" stroke-width="0.7286" d="M441.9,691.98l-0.191,5.067l6.012,0.003
											l-0.17-5.07h-5.652L441.9,691.98L441.9,691.98z"/>
										<g>
											<path id="cp1_11_" fill="#FFFF00" stroke="#000000" stroke-width="0.7286" d="M426.441,691.98l-0.191,5.067l6.012,0.003
												l-0.17-5.07h-5.652L426.441,691.98L426.441,691.98z"/>
										</g>
										<path id="cp2_10_" fill="#FFFF00" stroke="#000000" stroke-width="0.7286" d="M448.661,688.308l-1.748,0.004v1.271h-1.279
											v-1.301l-1.791,0.006v1.295h-1.281v-1.301l-1.793,0.003l0.003,2.931c0,0.458,0.362,0.756,0.781,0.756h6.29
											c0.421,0,0.813-0.343,0.815-0.766l0.004-2.898h-0.001L448.661,688.308z"/>
										<g>
											<path id="cp2_11_" fill="#FFFF00" stroke="#000000" stroke-width="0.7286" d="M433.202,688.308l-1.748,0.004v1.271
												h-1.279v-1.301l-1.791,0.006v1.295h-1.281v-1.301l-1.793,0.003l0.003,2.931c0,0.458,0.362,0.756,0.781,0.756h6.29
												c0.422,0,0.813-0.343,0.815-0.766l0.004-2.898h-0.001L433.202,688.308z"/>
										</g>
										<path d="M437.587,690.596c0.039-0.914-1.277-0.924-1.262,0v2.239h1.262L437.587,690.596"/>
										<path id="cp3_10_" d="M445.353,693.845c0.004-0.883-1.22-0.901-1.204,0v1.73h1.204L445.353,693.845"/>
										<g>
											<path id="cp3_11_" d="M429.848,693.845c0.004-0.883-1.22-0.901-1.204,0v1.73h1.204L429.848,693.845"/>
										</g>
									</g>
									<g id="castle3_1_">
										<g id="castle_6_">
											<path fill="#FFFF00" d="M416.675,780.987c5.57-5.808,2.899-11.2,2.89-11.249c-0.01-0.048-5.8-2.93-11.463,2.722
												L416.675,780.987"/>
											<path fill="#FFFF00" stroke="#000000" stroke-width="0.7286" d="M427.115,777.562l-5.86,7.219l-4.26-4.272
												c5.387-5.431,2.25-10.395,2.133-10.473c-0.086-0.097-5.295-2.933-10.513,2.034l-4.262-4.292l7.38-5.789l15.384,15.571
												L427.115,777.562L427.115,777.562z"/>
											<path fill="#FFFF00" stroke="#000000" stroke-width="0.7286" d="M421.514,785.095l-17.399-17.522
												c-0.367-0.369-1.031-0.309-1.477,0.134c-0.445,0.442-0.508,1.104-0.142,1.473l17.399,17.522
												c0.367,0.369,1.029,0.311,1.474-0.131C421.815,786.128,421.881,785.464,421.514,785.095z"/>
											<path fill="#FFFF00" stroke="#000000" stroke-width="0.7286" d="M415.22,778.694c3.406-3.42,2.072-6.703,2.058-6.713
												c-0.001-0.001-3.404-1.429-6.817,1.921L415.22,778.694"/>
											<path fill="#FFFF00" stroke="#000000" stroke-width="0.7286" d="M430.46,775.472l-16.679-16.797
												c-0.351-0.354-0.968-0.317-1.368,0.08c-0.4,0.398-0.441,1.013-0.089,1.367l16.679,16.797
												c0.351,0.354,0.966,0.32,1.368-0.08C430.77,776.442,430.812,775.826,430.46,775.472z"/>
											<path fill="#FFFF00" stroke="#000000" stroke-width="0.7286" d="M428.643,776.578l-15.953-16.066
												c-0.336-0.338-0.939-0.29-1.339,0.107c-0.401,0.398-0.453,1.001-0.117,1.339l15.953,16.066
												c0.336,0.338,0.939,0.29,1.34-0.108C428.927,777.519,428.979,776.916,428.643,776.578z"/>
											<path fill="#FFFF00" stroke="#000000" stroke-width="0.7286" d="M434.439,760.515l-1.262-1.266l-0.901,0.895
												l-0.919-0.926l0.921-0.915l-1.294-1.295l-0.917,0.911l-0.922-0.928l0.921-0.915l-1.291-1.3l-2.078,2.068
												c-0.326,0.324-0.277,0.797,0.025,1.101l4.529,4.561c0.304,0.306,0.83,0.345,1.13,0.049l2.059-2.038l-0.001-0.001
												L434.439,760.515z"/>
											<path fill="#FFFF00" stroke="#000000" stroke-width="0.7286" d="M426.914,758.5l-6.955,6.337l4.434,4.433l6.379-6.919
												L426.914,758.5"/>
											<path id="cp1_12_" fill="#FFFF00" stroke="#000000" stroke-width="0.7286" d="M429.213,766.998l-3.731,3.434l4.234,4.268
												l3.478-3.693l-3.982-4.01L429.213,766.998L429.213,766.998z"/>
											<g>
												<path id="cp1_13_" fill="#FFFF00" stroke="#000000" stroke-width="0.7286" d="M418.32,756.028l-3.731,3.434l4.234,4.268
													l3.478-3.693l-3.982-4.01L418.32,756.028L418.32,756.028z"/>
											</g>
											<path id="cp2_12_" fill="#FFFF00" stroke="#000000" stroke-width="0.7286" d="M436.582,769.208l-1.235-1.237
												l-0.902,0.896l-0.901-0.907l0.923-0.916l-1.266-1.267l-0.919,0.913l-0.903-0.909l0.923-0.916l-1.265-1.27l-2.078,2.068
												c-0.325,0.322-0.281,0.79,0.014,1.087l4.432,4.464c0.297,0.299,0.817,0.335,1.118,0.038l2.059-2.039l-0.001-0.001
												L436.582,769.208z"/>
											<g>
												<path id="cp2_13_" fill="#FFFF00" stroke="#000000" stroke-width="0.7286" d="M425.69,758.239l-1.235-1.237
													l-0.902,0.896l-0.901-0.907l0.923-0.916l-1.266-1.267l-0.919,0.913l-0.903-0.909l0.923-0.916l-1.265-1.27l-2.078,2.068
													c-0.325,0.322-0.281,0.79,0.014,1.087l4.432,4.464c0.297,0.299,0.817,0.335,1.118,0.038l2.059-2.039l-0.001-0.001
													L425.69,758.239z"/>
											</g>
											<path d="M427.156,762.962c0.676-0.616-0.244-1.557-0.889-0.895l-1.589,1.577l0.889,0.895L427.156,762.962"/>
											<path id="cp3_12_" d="M430.322,770.762c0.63-0.619-0.22-1.5-0.848-0.854l-1.227,1.219l0.848,0.854L430.322,770.762"/>
											<g transform="matrix(-1,0,0,1,479.79195,0)">
												<path id="cp3_13_" d="M419.397,759.76c0.63-0.619-0.22-1.5-0.848-0.854l-1.227,1.219l0.848,0.854L419.397,759.76"/>
											</g>
										</g>
									</g>
									<g id="quina">
										<path fill="#003399" d="M359.986,713.146v0.007c0,3.223,1.237,6.16,3.223,8.29c1.989,2.137,4.729,3.465,7.726,3.465
											c3.012,0,5.747-1.319,7.727-3.447c1.979-2.125,3.209-5.059,3.209-8.295v-15.69l-21.845-0.018L359.986,713.146"/>
										<circle fill="#FFFFFF" cx="364.995" cy="703.426" r="2.165"/>
										<circle fill="#FFFFFF" cx="377.116" cy="703.436" r="2.165"/>
										<circle fill="#FFFFFF" cx="371.044" cy="709.254" r="2.165"/>
										<circle fill="#FFFFFF" cx="364.995" cy="715.347" r="2.165"/>
										<circle fill="#FFFFFF" cx="377.103" cy="715.331" r="2.165"/>
									</g>
									<g>
										<g id="quina_1_">
											<path fill="#003399" d="M359.986,675.238v0.007c0,3.223,1.237,6.16,3.223,8.29c1.989,2.137,4.729,3.465,7.726,3.465
												c3.012,0,5.747-1.319,7.727-3.447c1.979-2.125,3.209-5.059,3.209-8.295v-15.69l-21.845-0.018L359.986,675.238"/>
											<circle fill="#FFFFFF" cx="364.995" cy="665.517" r="2.165"/>
											<circle fill="#FFFFFF" cx="377.116" cy="665.527" r="2.165"/>
											<circle fill="#FFFFFF" cx="371.044" cy="671.346" r="2.165"/>
											<circle fill="#FFFFFF" cx="364.995" cy="677.438" r="2.165"/>
											<circle fill="#FFFFFF" cx="377.103" cy="677.422" r="2.165"/>
										</g>
									</g>
									<g>
										<g id="quina_2_">
											<path fill="#003399" d="M329.679,713.146v0.007c0,3.223,1.237,6.16,3.223,8.29c1.989,2.137,4.729,3.465,7.726,3.465
												c3.012,0,5.747-1.319,7.727-3.447c1.979-2.125,3.209-5.059,3.209-8.295v-15.69l-21.845-0.018L329.679,713.146"/>
											<circle fill="#FFFFFF" cx="334.689" cy="703.426" r="2.165"/>
											<circle fill="#FFFFFF" cx="346.809" cy="703.436" r="2.165"/>
											<circle fill="#FFFFFF" cx="340.737" cy="709.254" r="2.165"/>
											<circle fill="#FFFFFF" cx="334.689" cy="715.347" r="2.165"/>
											<circle fill="#FFFFFF" cx="346.796" cy="715.331" r="2.165"/>
										</g>
									</g>
									<g>
										<g id="quina_3_">
											<path fill="#003399" d="M390.214,713.146v0.007c0,3.223,1.237,6.16,3.223,8.29c1.989,2.137,4.729,3.465,7.726,3.465
												c3.012,0,5.747-1.319,7.727-3.447c1.979-2.125,3.209-5.059,3.209-8.295v-15.69l-21.845-0.018L390.214,713.146"/>
											<circle fill="#FFFFFF" cx="395.224" cy="703.426" r="2.165"/>
											<circle fill="#FFFFFF" cx="407.344" cy="703.436" r="2.165"/>
											<circle fill="#FFFFFF" cx="401.272" cy="709.254" r="2.165"/>
											<circle fill="#FFFFFF" cx="395.224" cy="715.347" r="2.165"/>
											<circle fill="#FFFFFF" cx="407.331" cy="715.331" r="2.165"/>
										</g>
									</g>
									<g>
										<g id="quina_4_">
											<path fill="#003399" d="M359.986,750.717v0.007c0,3.223,1.237,6.16,3.223,8.29c1.989,2.137,4.729,3.465,7.726,3.465
												c3.012,0,5.747-1.319,7.727-3.447c1.979-2.125,3.209-5.059,3.209-8.295v-15.69l-21.845-0.018L359.986,750.717"/>
											<circle fill="#FFFFFF" cx="364.995" cy="740.997" r="2.165"/>
											<circle fill="#FFFFFF" cx="377.116" cy="741.007" r="2.165"/>
											<circle fill="#FFFFFF" cx="371.044" cy="746.825" r="2.165"/>
											<circle fill="#FFFFFF" cx="364.995" cy="752.917" r="2.165"/>
											<circle fill="#FFFFFF" cx="377.103" cy="752.901" r="2.165"/>
										</g>
									</g>
								</g>
							</g>
						</g>
					</g>
				</g>
			</g>
		</g>
	</g>
</g>
</svg>
