<svg id="svg" xmlns="http://www.w3.org/2000/svg" xmlns:xlink="http://www.w3.org/1999/xlink" width="400" height="400" viewBox="0, 0, 400,400"><g id="svgg"><path id="path0" d="M292.969 8.241 C 258.878 15.531,233.373 41.403,226.962 75.196 C 226.008 80.226,225.785 88.722,225.798 119.422 C 225.818 162.170,225.670 161.006,231.879 167.449 C 238.350 174.164,235.707 173.828,282.031 173.828 L 323.047 173.828 330.469 171.743 C 392.219 154.394,413.504 79.127,369.771 32.767 C 350.691 12.541,319.475 2.573,292.969 8.241 M327.068 20.629 C 371.468 32.156,394.012 81.206,373.780 122.266 C 364.641 140.812,349.481 153.626,329.258 159.897 L 322.266 162.066 283.984 162.338 C 231.579 162.711,237.327 168.432,237.676 116.248 L 237.934 77.734 240.112 70.703 C 251.726 33.219,290.206 11.060,327.068 20.629 M306.641 38.434 C 304.174 39.832,303.931 40.627,303.918 47.340 C 303.896 59.313,314.469 60.801,315.451 48.962 C 316.172 40.269,312.063 35.359,306.641 38.434 M269.886 54.261 C 265.017 59.130,274.684 71.470,281.241 68.754 C 286.539 66.559,286.123 62.037,280.101 56.341 C 275.276 51.777,272.862 51.286,269.886 54.261 M338.936 56.053 C 332.069 62.477,332.798 69.531,340.329 69.531 C 342.857 69.531,350.781 60.895,350.781 58.141 C 350.781 51.815,344.626 50.731,338.936 56.053 M300.075 66.021 C 280.627 72.084,273.768 98.972,287.946 113.570 C 290.611 116.315,290.776 116.806,291.524 124.275 L 292.308 132.102 290.295 133.686 C 287.649 135.767,287.553 139.669,290.089 142.051 C 292.992 144.779,326.193 144.685,328.770 141.942 C 331.143 139.415,331.013 135.698,328.482 133.707 C 324.983 130.955,326.750 118.854,331.502 113.020 C 350.323 89.912,328.435 57.179,300.075 66.021 M318.634 79.128 C 324.131 82.765,326.172 86.724,326.172 93.750 C 326.172 115.812,293.735 117.008,292.334 94.998 C 291.423 80.701,306.900 71.362,318.634 79.128 M255.135 89.508 C 251.883 92.760,253.085 97.787,257.461 99.232 C 266.985 102.375,276.164 95.878,270.712 89.854 C 268.831 87.775,257.128 87.515,255.135 89.508 M348.168 89.710 C 343.096 95.314,350.235 101.449,359.750 99.664 C 365.180 98.645,367.525 93.306,364.063 89.844 C 361.848 87.629,350.141 87.530,348.168 89.710 M315.625 123.719 C 315.625 124.304,315.401 126.413,315.128 128.407 L 314.631 132.031 309.269 132.031 C 304.231 132.031,303.906 131.925,303.898 130.273 C 303.893 129.307,303.671 127.197,303.405 125.586 L 302.921 122.656 309.273 122.656 C 314.109 122.656,315.625 122.910,315.625 123.719 M158.017 134.381 C 145.776 138.733,136.840 145.986,132.229 155.313 L 129.297 161.243 129.066 198.742 L 128.835 236.240 126.331 238.703 C 124.219 240.782,120.267 249.635,117.591 258.284 C 117.444 258.759,114.733 259.382,111.567 259.669 C 98.745 260.831,83.136 266.069,69.141 273.906 C 45.309 287.252,42.986 286.413,42.960 264.453 C 42.940 247.295,41.746 245.371,32.078 246.928 C 22.596 248.455,14.741 254.082,10.071 262.694 L 7.422 267.578 7.422 285.547 C 7.422 308.123,10.391 316.640,21.137 324.886 L 24.848 327.734 25.119 349.609 C 25.466 377.543,27.470 382.691,40.819 389.929 L 45.703 392.578 88.051 392.799 L 130.399 393.020 131.676 391.072 C 132.710 389.494,132.902 387.484,132.687 380.498 L 132.422 371.873 147.070 371.874 L 161.719 371.875 161.719 376.588 C 161.719 382.247,162.988 385.487,166.508 388.819 C 170.737 392.821,171.790 392.969,196.145 392.969 C 223.948 392.969,221.875 393.946,221.875 380.834 C 221.875 367.142,217.531 360.156,209.015 360.156 L 207.031 360.156 207.031 329.741 L 207.031 299.325 209.322 297.694 C 211.034 296.475,212.440 293.947,214.890 287.680 C 219.886 274.906,219.820 270.940,214.543 266.780 C 213.078 265.625,212.576 264.857,213.281 264.852 C 215.632 264.833,223.926 260.279,227.678 256.947 C 237.123 248.561,240.625 239.463,240.625 223.316 C 240.625 206.423,237.216 202.344,223.097 202.344 L 216.608 202.344 216.067 196.849 C 213.780 173.642,197.394 157.031,176.789 157.031 L 171.875 157.031 171.875 146.215 C 171.875 132.033,169.743 130.213,158.017 134.381 M161.940 166.968 C 163.072 168.098,165.201 168.447,173.268 168.827 C 194.108 169.807,204.688 181.877,204.688 204.673 C 204.688 213.278,205.098 213.563,218.242 214.063 L 228.516 214.453 228.735 223.539 C 229.144 240.471,222.617 249.776,206.903 254.667 C 204.286 255.482,201.209 257.045,200.064 258.141 L 197.984 260.135 176.531 251.906 C 164.732 247.380,151.813 242.421,147.823 240.887 L 140.568 238.098 140.792 200.885 C 141.060 156.344,141.257 155.628,155.248 148.545 L 159.766 146.258 160.156 155.917 C 160.475 163.796,160.804 165.832,161.940 166.968 M182.386 188.636 C 177.627 193.396,180.422 205.000,186.328 205.000 C 190.734 205.000,192.188 202.760,192.188 195.972 C 192.188 189.849,190.205 186.719,186.328 186.719 C 185.215 186.719,183.441 187.582,182.386 188.636 M170.084 262.150 C 189.734 269.692,205.966 276.018,206.156 276.208 C 207.141 277.193,202.111 287.577,200.888 287.083 C 200.185 286.799,183.965 280.573,164.844 273.246 C 145.723 265.920,129.990 259.860,129.882 259.780 C 129.617 259.583,133.750 248.438,134.088 248.438 C 134.236 248.438,150.434 254.608,170.084 262.150 M31.267 269.336 C 31.291 283.268,34.342 289.689,42.772 293.549 C 49.560 296.656,55.537 294.980,74.219 284.726 C 90.034 276.045,100.303 272.660,115.393 271.151 L 124.065 270.284 159.493 283.866 L 194.922 297.448 195.313 332.513 C 195.771 373.656,195.351 371.875,204.582 371.875 C 209.300 371.875,210.156 372.799,210.156 377.891 L 210.156 382.031 194.582 382.031 C 179.477 382.031,175.367 381.513,174.051 379.443 C 173.727 378.933,173.456 367.518,173.449 354.076 C 173.436 326.537,173.165 324.798,168.729 323.823 C 166.838 323.408,165.712 323.650,164.164 324.806 L 162.109 326.339 161.899 343.638 L 161.689 360.938 136.842 360.938 L 111.994 360.938 113.895 355.273 C 120.634 335.191,107.084 314.391,86.623 313.410 C 74.971 312.852,74.250 323.142,85.815 324.945 C 110.268 328.758,109.161 364.844,84.591 364.844 C 79.150 364.844,76.081 371.393,79.785 375.098 C 82.067 377.379,89.744 376.828,97.159 373.850 C 108.704 369.214,121.094 371.925,121.094 379.086 L 121.094 382.119 85.742 381.880 C 46.158 381.612,47.539 381.807,41.641 375.654 C 36.905 370.713,36.719 369.551,36.719 344.887 L 36.719 322.536 34.457 320.448 C 33.212 319.299,30.414 316.849,28.238 315.003 C 17.008 305.476,13.872 276.415,22.826 264.844 C 24.266 262.983,29.423 259.387,30.664 259.379 C 30.986 259.377,31.258 263.857,31.267 269.336 " stroke="none" fill="#000000" fill-rule="evenodd"></path></g></svg>