<svg id="svg" xmlns="http://www.w3.org/2000/svg" xmlns:xlink="http://www.w3.org/1999/xlink" width="400" height="400" viewBox="0, 0, 400,400"><g id="svgg"><path id="path0" d="M149.481 56.580 C 133.279 60.509,121.094 75.657,121.094 91.869 L 121.094 95.910 115.234 96.459 L 109.375 97.008 109.375 100.419 L 109.375 103.830 116.016 103.362 C 121.405 102.981,122.658 103.099,122.664 103.986 C 122.679 106.176,126.419 113.045,129.971 117.405 L 133.612 121.875 131.454 121.883 C 119.744 121.929,107.920 131.775,97.989 149.750 L 93.943 157.072 92.631 153.061 C 82.903 123.320,39.286 128.654,37.652 159.785 C 37.265 167.146,38.521 172.024,42.210 177.491 L 44.482 180.859 42.749 181.520 C 29.440 186.594,26.355 190.590,10.620 223.138 C -2.108 249.465,-2.920 254.450,4.438 261.103 C 13.728 269.504,24.164 265.665,32.037 250.951 L 37.109 241.471 37.521 288.118 C 37.748 313.774,38.012 334.853,38.107 334.959 C 42.894 340.274,44.369 341.682,46.035 342.524 C 51.183 345.126,58.320 344.620,62.758 341.339 L 65.111 339.599 69.064 341.821 C 78.020 346.855,89.532 343.024,93.021 333.847 C 93.441 332.742,93.756 312.672,93.764 286.473 L 93.779 241.016 97.917 248.657 L 102.054 256.299 100.378 264.282 C 99.457 268.673,98.476 273.408,98.199 274.805 L 97.695 277.344 109.395 277.344 L 121.094 277.344 121.128 302.930 C 121.153 321.700,121.429 329.263,122.165 331.320 C 126.895 344.553,144.603 348.635,155.141 338.921 L 158.599 335.734 160.236 337.815 C 167.007 346.423,184.276 346.015,191.085 337.087 C 195.547 331.238,195.645 330.548,195.945 302.930 L 196.223 277.344 200.846 277.344 L 205.469 277.344 205.486 303.320 C 205.501 326.788,205.641 329.600,206.931 332.439 C 212.614 344.950,229.642 348.314,239.335 338.842 L 242.706 335.547 244.819 338.030 C 253.410 348.129,271.593 345.624,277.631 333.508 L 279.688 329.381 279.701 260.979 L 279.715 192.578 287.154 206.641 L 294.593 220.703 292.236 225.391 C 285.261 239.267,288.499 253.906,298.543 253.906 C 300.965 253.906,301.563 254.193,301.563 255.359 C 301.563 256.157,302.613 258.882,303.896 261.413 C 305.974 265.510,306.231 266.794,306.240 273.102 L 306.250 280.189 299.805 279.876 C 285.015 279.158,278.551 293.732,284.996 313.266 L 286.667 318.328 284.781 320.297 C 273.689 331.878,286.121 348.694,301.832 343.360 C 304.939 342.305,305.582 342.315,308.305 343.454 C 313.368 345.572,324.550 343.843,328.661 340.308 L 330.761 338.501 334.207 340.687 C 339.956 344.332,348.330 345.477,354.126 343.409 C 356.618 342.520,357.645 342.525,360.695 343.443 C 371.757 346.772,383.552 338.843,381.667 329.344 C 381.492 328.459,381.150 326.795,380.909 325.646 C 380.667 324.498,379.579 322.500,378.490 321.206 L 376.511 318.854 381.530 316.459 C 396.330 309.396,402.921 294.792,399.208 277.291 C 397.999 271.598,397.825 271.589,394.969 277.055 C 391.728 283.258,386.125 288.810,382.401 289.509 C 379.221 290.105,379.042 289.977,376.387 285.185 C 373.894 280.688,365.051 278.393,358.003 280.414 L 355.469 281.141 355.469 273.717 C 355.469 267.323,355.727 265.842,357.335 263.030 C 358.362 261.234,359.619 258.447,360.130 256.836 C 360.988 254.130,361.284 253.906,364.018 253.906 C 377.475 253.906,377.055 230.458,363.351 216.619 C 355.113 208.298,348.871 206.309,342.058 209.833 C 340.883 210.440,338.403 210.937,336.547 210.937 L 333.173 210.938 317.172 178.778 C 294.028 132.261,287.629 124.282,271.778 122.179 C 267.229 121.576,267.272 121.764,270.754 117.702 C 291.437 93.574,274.186 55.469,242.578 55.469 C 210.676 55.469,193.509 94.217,214.802 118.164 L 218.102 121.875 215.814 121.875 C 213.193 121.875,205.224 124.469,202.636 126.165 C 201.057 127.199,200.481 127.120,196.572 125.330 C 194.196 124.242,190.120 122.918,187.515 122.386 L 182.777 121.420 185.190 119.108 C 186.517 117.837,188.509 115.366,189.615 113.617 C 191.595 110.488,191.691 110.441,195.618 110.722 C 200.895 111.098,201.751 110.436,201.116 106.466 L 200.609 103.297 197.506 103.713 L 194.402 104.129 195.039 100.307 C 199.608 72.899,175.924 50.167,149.481 56.580 M168.190 64.153 L 170.365 65.305 166.515 70.787 C 159.546 80.711,149.696 87.954,137.302 92.268 C 127.865 95.553,127.830 95.542,128.306 89.614 C 129.768 71.403,153.401 56.317,168.190 64.153 M250.873 63.842 C 252.062 65.031,249.164 70.294,245.596 73.427 C 240.099 78.253,228.145 82.031,218.372 82.031 L 214.022 82.031 215.312 79.492 C 218.897 72.431,225.888 66.459,233.523 63.935 C 238.269 62.366,249.338 62.307,250.873 63.842 M185.392 78.799 C 188.763 85.061,189.863 94.970,187.786 100.381 C 186.025 104.970,175.628 92.207,173.043 82.282 C 171.539 76.508,171.500 76.816,174.297 72.361 L 176.690 68.550 180.065 71.862 C 181.922 73.684,184.319 76.806,185.392 78.799 M269.562 79.214 C 272.298 84.690,272.453 85.942,270.324 85.386 C 266.430 84.367,261.736 76.589,261.723 71.136 C 261.716 68.223,266.568 73.223,269.562 79.214 M256.090 78.536 C 258.007 85.700,263.685 91.484,270.114 92.820 C 276.836 94.217,269.882 111.009,259.673 118.032 C 241.211 130.735,215.576 119.319,212.528 97.039 C 211.525 89.715,211.871 89.374,220.835 88.837 C 233.661 88.068,245.807 83.693,251.520 77.784 C 254.913 74.276,254.953 74.282,256.090 78.536 M166.406 84.983 C 166.406 90.204,176.819 104.872,182.070 107.047 C 185.100 108.303,185.046 108.515,180.394 113.604 C 166.074 129.273,140.119 125.277,130.953 105.993 L 129.062 102.013 135.429 100.216 C 143.993 97.799,154.830 92.360,160.547 87.610 C 165.774 83.267,166.406 82.984,166.406 84.983 M135.042 131.176 C 141.068 151.289,174.598 151.015,181.270 130.798 C 182.230 127.891,181.835 127.937,189.453 129.846 C 195.662 131.402,195.777 131.672,192.024 135.881 C 190.181 137.949,187.496 141.604,186.059 144.004 L 183.446 148.367 196.417 208.363 C 203.552 241.361,209.386 268.799,209.382 269.336 C 209.376 270.107,198.527 270.313,157.760 270.313 C 108.977 270.313,106.166 270.237,106.530 268.945 C 106.741 268.193,107.139 266.463,107.412 265.099 L 107.910 262.621 110.571 263.732 C 120.410 267.843,131.250 260.334,131.250 249.406 C 131.250 245.223,130.650 243.610,124.290 230.700 L 117.330 216.571 122.335 192.465 C 128.341 163.539,128.355 163.273,123.393 172.620 C 121.237 176.683,119.355 180.124,119.212 180.268 C 118.957 180.522,98.687 169.071,97.403 167.947 C 97.049 167.637,98.234 164.439,100.036 160.840 C 111.045 138.862,120.544 129.636,133.665 128.176 C 133.920 128.148,134.539 129.498,135.042 131.176 M152.138 129.739 C 157.714 130.769,160.444 130.587,171.680 128.434 C 174.817 127.833,174.864 128.563,171.945 132.592 C 164.603 142.727,149.735 141.503,142.524 130.170 L 141.090 127.917 143.787 128.306 C 145.271 128.520,149.028 129.164,152.138 129.739 M233.204 137.500 L 242.555 146.876 252.068 137.386 L 261.581 127.895 266.142 128.323 C 276.524 129.296,284.795 134.753,291.689 145.177 C 295.050 150.260,304.688 168.815,304.688 170.203 C 304.688 170.586,299.824 173.704,293.880 177.132 L 283.073 183.364 278.272 174.299 L 273.471 165.234 273.454 195.508 L 273.438 225.781 242.578 225.781 L 211.719 225.781 211.696 195.508 L 211.673 165.234 206.793 174.348 C 201.784 183.701,201.417 184.017,198.479 181.502 C 196.679 179.961,190.944 148.619,192.092 146.599 C 197.946 136.302,210.222 128.287,220.325 128.167 C 223.809 128.126,223.968 128.241,233.204 137.500 M245.899 133.398 C 244.108 135.225,242.614 136.719,242.578 136.719 C 242.542 136.719,241.046 135.225,239.253 133.398 L 235.993 130.078 242.574 130.078 L 249.154 130.078 245.899 133.398 M69.417 140.538 C 73.671 143.233,60.997 151.009,50.573 152.098 L 45.848 152.592 48.304 149.023 C 52.797 142.491,64.853 137.646,69.417 140.538 M84.474 151.758 C 85.296 153.369,85.642 154.688,85.242 154.688 C 84.394 154.688,80.469 150.193,80.469 149.223 C 80.469 148.861,80.233 147.921,79.946 147.134 C 79.015 144.587,82.773 148.424,84.474 151.758 M79.192 159.178 C 80.690 160.493,82.996 161.806,84.317 162.097 C 90.421 163.437,84.009 175.843,74.846 180.422 C 61.440 187.122,44.531 177.420,44.531 163.028 L 44.531 159.601 50.195 159.153 C 57.729 158.558,65.577 156.016,69.694 152.837 L 73.047 150.248 74.757 153.517 C 75.698 155.315,77.694 157.863,79.192 159.178 M115.339 186.954 C 115.539 187.154,114.387 189.976,112.779 193.226 L 109.855 199.135 106.832 194.509 C 103.083 188.771,98.426 184.713,93.641 183.013 L 89.979 181.713 91.856 178.007 L 93.734 174.302 104.355 180.446 C 110.196 183.825,115.139 186.754,115.339 186.954 M316.749 193.836 C 325.956 211.798,326.325 214.877,318.750 210.547 C 314.526 208.132,307.496 209.443,302.622 213.553 L 300.166 215.624 293.442 203.100 C 289.744 196.212,286.731 190.324,286.747 190.015 C 286.771 189.520,306.744 177.601,307.858 177.416 C 308.098 177.376,312.099 184.765,316.749 193.836 M57.422 194.531 C 61.271 198.398,64.787 201.563,65.234 201.563 C 65.682 201.563,69.198 198.398,73.047 194.531 C 80.639 186.904,80.921 186.791,87.490 188.741 C 93.551 190.541,99.364 196.637,104.326 206.395 C 106.442 210.557,108.004 214.106,107.798 214.281 C 106.861 215.076,93.547 222.656,93.091 222.654 C 92.809 222.653,91.523 220.633,90.234 218.166 L 87.891 213.679 87.681 232.621 L 87.472 251.563 65.625 251.563 L 43.778 251.563 43.569 232.617 L 43.359 213.672 41.048 218.164 C 38.269 223.567,39.267 223.520,30.516 218.651 C 22.148 213.994,22.259 214.514,27.566 204.835 C 31.950 196.839,38.377 190.337,43.433 188.785 C 49.653 186.876,49.905 186.979,57.422 194.531 M65.781 190.781 C 65.052 191.510,64.635 191.510,63.906 190.781 C 63.177 190.052,63.385 189.844,64.844 189.844 C 66.302 189.844,66.510 190.052,65.781 190.781 M205.385 204.883 L 205.301 216.016 203.821 207.813 C 202.432 200.114,202.421 199.429,203.633 196.680 C 205.467 192.521,205.478 192.571,205.385 204.883 M313.851 215.820 C 308.357 229.988,299.575 247.707,298.150 247.501 C 291.353 246.519,294.133 231.301,302.824 221.914 C 307.808 216.531,315.149 212.474,313.851 215.820 M353.618 217.068 C 365.684 225.809,372.659 247.656,363.383 247.656 C 362.190 247.656,352.956 228.701,347.874 215.820 C 347.181 214.063,350.450 214.774,353.618 217.068 M340.742 218.945 C 342.515 220.393,354.689 248.603,354.680 251.245 C 354.659 257.385,348.639 265.638,341.830 268.859 C 327.535 275.622,309.548 267.186,307.376 252.700 C 306.859 249.253,319.054 219.407,321.366 218.460 C 323.482 217.594,339.580 217.997,340.742 218.945 M124.184 248.987 C 124.280 255.961,117.581 259.980,111.675 256.491 C 109.295 255.085,95.242 229.591,96.588 229.121 C 96.961 228.991,100.430 227.008,104.297 224.714 L 111.328 220.542 117.739 233.513 C 121.595 241.315,124.164 247.482,124.184 248.987 M27.229 225.062 C 31.150 227.244,34.504 229.266,34.680 229.554 C 35.687 231.196,21.389 255.906,18.660 257.241 C 13.383 259.821,6.676 255.631,6.751 249.800 C 6.780 247.585,18.783 221.094,19.758 221.094 C 19.945 221.094,23.307 222.879,27.229 225.062 M273.438 272.266 L 273.438 311.719 259.766 311.719 L 246.094 311.719 246.094 277.344 L 246.094 242.969 242.578 242.969 L 239.063 242.969 239.063 277.344 L 239.063 311.719 225.391 311.719 L 211.719 311.719 211.719 272.266 L 211.719 232.813 242.578 232.813 L 273.438 232.813 273.438 272.266 M87.500 274.609 L 87.500 290.625 77.734 290.625 L 67.969 290.625 67.969 279.297 L 67.969 267.969 65.625 267.969 L 63.281 267.969 63.281 279.297 L 63.281 290.625 53.516 290.625 L 43.750 290.625 43.750 274.609 L 43.750 258.594 65.625 258.594 L 87.500 258.594 87.500 274.609 M330.859 276.172 C 334.727 276.172,339.033 275.917,340.430 275.605 C 343.724 274.871,343.660 275.792,340.150 279.678 C 334.999 285.380,327.322 285.493,322.089 279.945 C 318.846 276.506,318.679 274.732,321.680 275.571 C 322.861 275.902,326.992 276.172,330.859 276.172 M154.688 295.703 L 154.688 314.063 141.406 314.063 L 128.125 314.063 128.125 295.703 L 128.125 277.344 141.406 277.344 L 154.688 277.344 154.688 295.703 M189.063 295.703 L 189.063 314.063 175.391 314.063 L 161.719 314.063 161.719 295.703 L 161.719 277.344 175.391 277.344 L 189.063 277.344 189.063 295.703 M320.472 288.075 C 329.628 294.133,342.753 290.683,347.923 280.859 C 349.073 278.673,349.158 279.999,349.187 300.586 C 349.217 321.071,349.317 322.657,350.586 322.660 C 353.247 322.668,356.323 325.995,356.773 329.353 C 358.119 339.386,339.923 340.922,334.962 331.194 C 333.806 328.928,333.596 326.273,333.595 313.951 C 333.594 298.368,333.402 297.649,329.577 298.863 C 328.232 299.290,328.125 300.370,328.125 313.584 L 328.125 327.844 325.307 331.136 C 318.975 338.534,309.608 339.729,305.988 333.602 C 303.583 329.530,305.261 324.960,309.758 323.334 L 312.500 322.342 312.500 300.439 L 312.500 278.536 315.166 282.432 C 316.632 284.575,319.020 287.114,320.472 288.075 M299.220 289.448 C 298.089 292.875,294.381 297.290,291.290 298.888 L 289.063 300.040 289.063 296.870 C 289.063 290.850,291.618 286.993,296.294 285.959 C 299.681 285.209,300.354 286.012,299.220 289.448 M368.269 286.947 C 369.550 287.883,369.447 288.177,366.847 291.015 C 359.496 299.041,358.823 309.711,365.191 317.278 C 366.253 318.541,366.930 320.074,366.696 320.685 C 366.415 321.417,367.192 322.182,368.970 322.925 C 378.031 326.711,374.634 338.307,364.741 337.361 C 362.608 337.157,362.157 336.813,362.363 335.547 C 363.601 327.910,362.076 322.790,357.420 318.952 L 354.652 316.670 354.865 301.925 L 355.078 287.179 357.031 286.636 C 360.365 285.710,366.821 285.888,368.269 286.947 M391.464 295.703 C 388.595 301.533,383.060 306.876,376.421 310.228 C 370.856 313.037,370.630 313.036,369.161 310.195 C 365.481 303.080,369.834 294.968,376.886 295.795 C 382.198 296.418,387.006 295.007,390.492 291.801 C 394.212 288.380,394.500 289.538,391.464 295.703 M304.300 318.951 C 299.555 322.862,297.861 328.496,299.486 334.961 L 300.124 337.500 296.096 337.500 C 286.648 337.500,284.042 326.563,292.634 322.973 L 295.219 321.893 292.922 315.097 C 290.233 307.140,290.145 306.250,292.054 306.250 C 296.262 306.250,304.506 297.791,306.006 291.932 C 306.420 290.313,306.715 294.175,306.855 303.061 L 307.069 316.668 304.300 318.951 M63.281 310.156 L 63.281 322.656 53.516 322.656 L 43.750 322.656 43.750 310.156 L 43.750 297.656 53.516 297.656 L 63.281 297.656 63.281 310.156 M87.500 310.156 L 87.500 322.656 77.734 322.656 L 67.969 322.656 67.969 310.156 L 67.969 297.656 77.734 297.656 L 87.500 297.656 87.500 310.156 M238.927 323.734 C 237.743 342.330,213.866 341.674,211.938 322.994 L 211.500 318.750 225.372 318.750 L 239.245 318.750 238.927 323.734 M273.225 323.490 C 271.559 341.856,247.763 342.211,246.293 323.892 L 245.880 318.750 259.767 318.750 L 273.655 318.750 273.225 323.490 M154.688 323.853 C 154.688 327.790,153.010 331.284,149.742 334.153 C 141.355 341.518,128.125 335.485,128.125 324.296 L 128.125 321.094 141.406 321.094 L 154.688 321.094 154.688 323.853 M188.770 324.779 C 186.416 341.951,161.719 340.749,161.719 323.463 L 161.719 321.094 175.497 321.094 L 189.275 321.094 188.770 324.779 M62.500 330.117 C 62.500 333.004,57.029 337.500,53.516 337.500 C 50.002 337.500,44.531 333.004,44.531 330.117 C 44.531 329.881,48.574 329.688,53.516 329.688 C 58.457 329.688,62.500 329.881,62.500 330.117 M86.719 330.153 C 86.719 336.491,76.135 339.296,71.124 334.285 C 66.979 330.140,67.631 329.688,77.734 329.688 C 82.676 329.688,86.719 329.897,86.719 330.153 " stroke="none" fill="#000000" fill-rule="evenodd"></path></g></svg>