<svg id="svg" xmlns="http://www.w3.org/2000/svg" xmlns:xlink="http://www.w3.org/1999/xlink" width="400" height="400" viewBox="0, 0, 400,400"><g id="svgg"><path id="path0" d="M285.547 1.157 C 255.357 9.309,239.001 37.468,246.741 67.969 C 249.543 79.010,248.643 87.576,243.709 96.834 C 240.272 103.282,102.311 241.087,96.302 244.074 C 87.009 248.694,78.752 249.474,67.969 246.748 C 32.186 237.705,0.000 262.213,0.000 298.503 C -0.000 325.281,18.651 347.084,45.058 351.175 C 48.176 351.658,48.342 351.824,48.820 354.942 C 54.245 390.346,92.975 410.558,125.391 394.901 C 148.383 383.796,159.762 358.103,153.236 332.031 C 150.530 321.222,151.313 312.977,155.926 303.698 C 158.902 297.711,296.731 159.713,303.102 156.341 C 312.539 151.347,320.613 150.428,331.696 153.085 C 348.553 157.127,362.978 155.089,375.696 146.869 C 415.624 121.062,404.225 58.566,357.926 49.445 L 351.768 48.232 350.555 42.074 C 344.874 13.237,313.633 -6.426,285.547 1.157 M304.688 11.737 C 324.064 14.744,339.844 33.004,339.844 52.418 C 339.844 57.859,342.141 60.156,347.582 60.156 C 379.532 60.156,399.560 97.048,382.180 123.884 C 371.474 140.416,354.526 146.460,333.203 141.352 C 321.083 138.448,308.794 139.979,297.421 145.808 C 288.818 150.218,150.211 288.790,145.926 297.266 C 139.984 309.018,138.198 324.350,141.548 334.855 C 150.650 363.403,125.355 392.862,95.653 388.308 C 75.950 385.287,60.156 367.166,60.156 347.582 C 60.156 341.926,57.913 339.847,51.793 339.834 C 16.036 339.761,-1.754 294.796,23.799 269.076 C 35.479 257.320,48.287 254.214,66.797 258.648 C 78.917 261.552,91.206 260.021,102.579 254.192 C 111.245 249.750,249.750 111.245,254.192 102.579 C 260.021 91.206,261.552 78.917,258.648 66.797 C 250.845 34.225,273.673 6.925,304.688 11.737 M355.261 86.714 C 352.540 88.855,352.487 91.686,355.078 96.559 C 359.466 104.812,353.879 112.614,344.505 111.324 C 337.986 110.428,334.410 115.989,338.477 120.699 C 344.291 127.434,360.791 121.920,366.193 111.436 C 372.446 99.301,363.881 79.934,355.261 86.714 " stroke="none" fill="#000000" fill-rule="evenodd"></path></g></svg>