<svg id="svg" xmlns="http://www.w3.org/2000/svg" xmlns:xlink="http://www.w3.org/1999/xlink" width="400" height="400" viewBox="0, 0, 400,400"><g id="svgg"><path id="path0" d="M88.017 1.603 C 79.000 8.695,58.570 44.482,51.692 65.234 C 44.390 87.262,41.643 116.475,45.210 134.157 C 45.813 137.143,45.617 137.884,43.142 141.970 C 33.397 158.066,32.694 161.584,27.725 219.124 C 23.206 271.465,23.292 276.932,28.885 292.256 C 34.842 308.578,37.679 312.082,75.690 350.072 C 114.598 388.956,119.062 392.303,139.844 398.175 C 147.640 400.377,252.360 400.377,260.156 398.175 C 280.938 392.303,285.402 388.956,324.310 350.072 C 379.390 295.024,378.936 296.264,372.275 219.124 C 367.306 161.584,366.603 158.066,356.858 141.970 C 354.383 137.884,354.187 137.143,354.790 134.157 C 357.159 122.413,356.304 97.442,353.005 82.031 C 346.205 50.270,318.175 -0.000,307.265 0.000 C 298.502 0.000,271.100 27.911,258.943 49.219 C 256.859 52.871,255.057 55.998,254.938 56.168 C 254.819 56.338,251.989 55.735,248.650 54.829 C 220.500 47.190,179.500 47.190,151.350 54.829 C 148.011 55.735,145.181 56.338,145.062 56.168 C 144.943 55.998,143.141 52.871,141.057 49.219 C 133.006 35.107,118.575 18.224,104.688 6.670 C 95.883 -0.655,92.280 -1.751,88.017 1.603 M103.744 28.711 C 108.375 33.330,113.811 39.265,115.823 41.900 L 119.481 46.691 117.217 50.884 C 108.760 66.554,106.728 86.884,111.769 105.398 C 112.636 108.582,113.067 111.443,112.727 111.756 C 111.635 112.764,64.653 141.406,64.092 141.406 C 63.795 141.406,63.141 139.181,62.640 136.462 C 57.214 107.011,61.692 79.024,76.553 49.510 C 82.126 38.442,93.413 20.313,94.732 20.313 C 95.057 20.313,99.112 24.092,103.744 28.711 M311.678 29.002 C 332.023 59.386,342.198 94.362,339.131 123.376 C 338.080 133.325,336.635 141.406,335.908 141.406 C 335.493 141.406,288.686 112.985,287.669 112.116 C 287.547 112.011,288.398 108.803,289.561 104.986 C 294.275 89.516,292.379 67.838,285.030 53.186 L 281.309 45.767 284.560 41.438 C 287.943 36.932,304.235 20.312,305.268 20.313 C 305.593 20.313,308.478 24.223,311.678 29.002 M272.965 67.395 C 275.978 76.417,276.423 88.309,274.120 98.242 C 272.974 103.184,273.074 103.174,266.282 99.023 L 260.849 95.703 261.363 91.414 C 262.378 82.962,269.796 61.666,271.213 63.141 C 271.493 63.433,272.281 65.347,272.965 67.395 M132.076 69.114 C 134.882 75.303,137.906 85.635,138.601 91.406 L 139.118 95.703 133.817 98.997 L 128.516 102.291 127.392 98.997 C 125.020 92.043,126.654 64.063,129.433 64.063 C 129.627 64.063,130.816 66.336,132.076 69.114 M228.125 67.550 C 236.367 68.834,248.438 71.726,248.438 72.416 C 248.438 72.620,247.757 75.482,246.924 78.776 C 243.485 92.389,243.388 103.559,246.684 106.416 C 250.346 109.592,338.075 162.691,340.239 163.043 C 341.733 163.285,343.694 162.946,345.147 162.195 C 347.877 160.783,347.787 160.703,349.458 166.016 C 351.368 172.086,352.119 178.665,355.966 223.047 C 359.941 268.900,359.943 273.205,355.993 284.781 C 351.269 298.626,350.139 300.012,313.759 336.589 C 264.045 386.571,272.264 383.203,200.000 383.203 C 127.736 383.203,135.955 386.571,86.241 336.589 C 49.861 300.012,48.731 298.626,44.007 284.781 C 40.057 273.205,40.059 268.900,44.034 223.047 C 47.881 178.665,48.632 172.086,50.542 166.016 C 52.213 160.703,52.123 160.783,54.853 162.195 C 56.293 162.940,58.269 163.285,59.732 163.047 C 61.872 162.700,149.695 109.555,153.316 106.416 C 156.612 103.559,156.515 92.388,153.076 78.776 C 152.243 75.482,151.563 72.620,151.563 72.416 C 151.563 71.229,167.973 67.997,183.594 66.108 C 189.914 65.343,220.269 66.326,228.125 67.550 M189.320 191.839 C 171.163 195.822,163.180 203.013,147.376 229.619 C 131.591 256.193,130.020 260.467,130.694 275.000 C 131.101 283.784,135.729 305.005,137.991 308.464 C 140.644 312.519,151.145 313.897,157.476 311.022 L 160.656 309.578 162.520 312.299 C 177.800 334.599,222.200 334.599,237.480 312.299 L 239.344 309.578 242.524 311.022 C 248.855 313.897,259.356 312.519,262.009 308.464 C 266.697 301.298,270.802 271.546,268.472 261.624 C 265.742 250.004,245.542 215.057,236.151 205.707 C 224.057 193.667,205.730 188.240,189.320 191.839 M119.697 192.579 C 114.614 194.796,113.726 201.795,118.008 205.897 C 120.416 208.204,144.373 210.039,150.627 208.395 C 157.772 206.516,157.786 195.295,150.646 193.119 C 145.990 191.700,122.645 191.292,119.697 192.579 M259.375 192.138 C 245.176 192.795,240.399 197.229,245.275 205.225 C 249.869 212.760,283.045 209.579,284.671 201.449 C 285.386 197.873,283.359 193.899,280.131 192.550 C 277.330 191.379,276.249 191.358,259.375 192.138 M205.078 207.802 C 218.495 209.982,224.830 215.869,238.497 238.860 C 254.553 265.871,255.069 267.918,250.663 287.103 C 248.672 295.767,248.547 295.845,245.449 290.356 C 241.276 282.962,236.553 280.115,226.612 279.003 C 219.548 278.213,216.890 276.981,213.027 272.705 C 209.369 268.656,209.380 268.598,214.206 266.344 C 242.665 253.055,232.182 215.644,200.000 215.644 C 167.818 215.644,157.335 253.055,185.794 266.344 C 190.620 268.598,190.631 268.656,186.973 272.705 C 183.110 276.981,180.452 278.213,173.388 279.003 C 163.447 280.115,158.724 282.962,154.551 290.356 C 151.453 295.845,151.328 295.767,149.337 287.103 C 144.931 267.918,145.447 265.871,161.503 238.860 C 174.926 216.279,181.577 209.970,194.182 207.862 C 199.610 206.953,199.848 206.952,205.078 207.802 M209.115 234.085 C 221.551 240.158,207.668 257.328,194.701 251.912 C 186.962 248.679,183.495 239.878,188.262 235.564 C 192.227 231.976,203.203 231.197,209.115 234.085 M202.696 286.679 C 206.067 290.197,215.315 294.441,220.877 295.022 C 227.647 295.730,228.042 296.134,225.586 299.845 C 214.302 316.896,185.698 316.896,174.414 299.845 C 171.958 296.134,172.353 295.730,179.123 295.022 C 184.685 294.441,193.933 290.197,197.304 286.679 C 198.518 285.412,199.731 284.375,200.000 284.375 C 200.269 284.375,201.482 285.412,202.696 286.679 " stroke="none" fill="#000000" fill-rule="evenodd"></path></g></svg>