<svg id="svg" xmlns="http://www.w3.org/2000/svg" xmlns:xlink="http://www.w3.org/1999/xlink" width="400" height="400" viewBox="0, 0, 400,400"><g id="svgg"><path id="path0" d="M226.079 1.492 C 221.978 3.992,221.875 5.024,221.870 43.671 L 221.865 79.297 219.580 87.220 C 212.320 112.387,215.797 137.641,229.222 157.261 C 231.916 161.200,232.134 160.801,224.805 165.369 C 202.713 179.140,192.967 181.239,151.079 181.245 C 114.182 181.251,107.185 182.462,91.966 191.472 C 86.714 194.582,75.255 205.028,72.428 209.284 L 71.191 211.146 64.552 206.729 C 18.772 176.268,26.797 105.911,78.332 85.912 C 118.382 70.370,162.943 95.922,148.189 125.968 C 140.908 140.795,126.493 145.200,111.134 137.294 C 88.552 125.670,66.388 131.946,56.501 152.764 C 49.385 167.750,54.440 192.187,64.656 192.187 C 70.130 192.187,71.640 186.851,68.171 179.765 C 57.016 156.982,80.678 135.780,103.784 147.856 C 129.194 161.135,155.275 150.722,162.085 124.577 C 175.167 74.352,97.451 48.687,50.702 87.793 C 8.987 122.689,13.279 189.898,59.044 218.422 C 62.234 220.410,64.844 222.163,64.844 222.318 C 64.844 222.472,64.165 224.321,63.335 226.426 C 59.404 236.400,59.375 237.032,59.375 314.055 C 59.375 393.399,59.103 388.956,64.297 394.431 C 69.577 399.996,69.339 399.964,105.217 399.983 L 137.387 400.000 139.092 397.852 C 140.649 395.889,140.763 395.060,140.404 388.281 C 139.598 373.037,132.295 362.716,119.192 358.303 L 114.234 356.633 129.323 332.027 C 150.207 297.972,153.589 294.922,170.470 294.922 C 175.068 294.922,179.153 295.273,179.548 295.703 C 180.002 296.196,172.961 308.304,160.468 328.516 C 136.141 367.874,136.105 368.023,150.695 368.969 C 161.600 369.675,167.773 373.725,170.733 382.117 C 172.903 388.267,172.888 388.281,164.062 388.281 C 155.095 388.281,153.125 389.310,153.125 393.993 C 153.125 399.393,154.701 400.000,168.724 400.000 L 181.137 400.000 182.756 397.942 C 185.701 394.198,184.668 380.815,180.865 373.438 C 177.171 366.271,170.638 360.751,162.834 358.203 L 158.047 356.641 175.100 328.906 C 184.479 313.652,192.600 300.891,193.147 300.547 C 193.730 300.180,202.368 302.314,214.063 305.714 L 233.984 311.506 234.375 349.307 C 234.813 391.649,234.662 390.560,240.786 395.723 C 245.861 400.003,245.838 400.000,280.444 400.000 C 318.661 400.000,315.625 400.870,315.625 389.913 C 315.625 370.795,304.520 358.393,285.871 356.684 L 279.945 356.141 283.245 341.938 C 285.059 334.126,287.482 323.667,288.628 318.696 C 290.752 309.484,291.937 307.812,296.345 307.812 C 296.636 307.813,296.875 316.378,296.875 326.848 C 296.875 348.880,297.180 350.000,303.182 350.000 C 309.387 350.000,309.375 350.051,309.375 323.897 L 309.375 300.918 314.648 297.156 C 321.294 292.415,329.904 283.930,334.750 277.344 L 338.488 272.266 337.968 278.906 C 336.862 293.024,333.382 324.699,330.858 343.611 C 327.436 369.251,327.271 368.750,339.145 368.750 C 355.318 368.750,363.870 373.925,365.332 384.596 L 365.837 388.281 348.600 388.281 L 331.363 388.281 329.744 390.340 C 327.690 392.951,327.690 395.330,329.744 397.942 L 331.363 400.000 353.182 400.000 C 380.217 400.000,378.431 400.864,377.990 388.004 C 377.367 369.844,367.211 358.833,349.234 356.826 C 345.358 356.393,342.188 355.748,342.187 355.391 C 342.187 355.035,343.235 346.381,344.514 336.161 C 350.974 284.576,352.437 263.197,352.899 213.690 L 353.292 171.521 357.168 167.280 C 376.441 146.192,383.349 114.327,374.416 87.720 L 372.374 81.641 371.929 43.099 L 371.484 4.557 368.933 2.279 C 366.801 0.375,365.709 0.001,362.292 0.004 C 357.040 0.009,357.251 -0.180,340.261 19.727 C 332.652 28.643,326.241 35.938,326.014 35.937 C 325.787 35.937,322.214 34.972,318.074 33.793 C 307.679 30.831,286.926 30.705,276.953 33.543 C 273.516 34.521,270.000 35.476,269.141 35.664 C 267.902 35.935,264.591 32.503,253.176 19.118 C 235.400 -1.726,233.443 -2.999,226.079 1.492 M246.385 30.629 L 256.307 42.118 254.072 43.274 C 247.184 46.836,244.987 52.089,248.793 55.895 C 251.574 58.676,254.003 58.290,261.183 53.927 C 283.639 40.281,309.205 40.239,332.719 53.810 C 342.218 59.292,346.875 58.545,346.875 51.539 C 346.875 48.405,347.022 48.581,339.712 42.957 C 338.235 41.821,338.587 41.293,348.579 29.676 L 358.984 17.578 359.435 50.391 L 359.886 83.203 362.444 91.406 C 370.323 116.672,363.810 142.682,344.913 161.419 C 332.331 173.894,319.827 175.243,309.792 165.208 C 306.526 161.942,303.159 155.327,304.530 154.870 C 319.543 149.866,318.861 125.741,303.541 119.890 C 281.809 111.590,268.323 143.097,288.722 154.512 C 291.961 156.325,285.939 165.213,278.796 169.160 C 268.912 174.622,259.948 172.011,248.469 160.323 C 230.041 141.561,223.877 117.274,231.376 92.969 L 233.907 84.766 234.180 50.848 C 234.403 23.136,234.637 17.133,235.458 18.036 C 236.011 18.643,240.928 24.310,246.385 30.629 M267.460 95.751 C 265.068 98.142,264.930 108.233,267.256 110.560 C 272.343 115.646,278.125 111.575,278.125 102.906 C 278.125 94.240,272.646 90.564,267.460 95.751 M317.918 95.196 C 314.163 98.237,315.080 109.727,319.230 111.617 C 324.983 114.239,328.125 111.267,328.125 103.204 C 328.125 94.618,323.304 90.835,317.918 95.196 M301.207 133.168 C 304.920 136.880,302.345 143.750,297.241 143.750 C 294.736 143.750,290.625 139.866,290.625 137.500 C 290.625 132.636,297.756 129.717,301.207 133.168 M251.877 179.994 C 256.203 182.865,267.372 188.520,270.155 189.248 C 271.256 189.536,272.094 190.977,273.029 194.195 C 280.254 219.049,316.766 218.005,321.493 192.809 C 321.955 190.344,322.463 189.837,325.658 188.659 C 327.659 187.921,331.874 185.952,335.023 184.282 L 340.750 181.247 340.435 208.006 C 340.142 232.831,339.992 235.218,338.362 241.016 C 332.103 263.283,318.340 280.958,298.242 292.541 C 294.052 294.956,293.955 294.793,295.703 288.281 C 298.324 278.519,295.013 272.993,288.228 275.803 C 285.226 277.047,285.455 276.253,275.010 321.613 C 263.236 372.743,263.103 368.750,276.581 368.750 C 292.861 368.750,303.125 375.450,303.125 386.078 L 303.125 388.281 278.491 388.281 C 252.315 388.281,249.566 387.943,247.719 384.492 C 247.135 383.401,246.875 364.034,246.875 321.622 C 246.875 251.955,247.329 256.676,240.625 256.676 C 234.547 256.676,234.375 257.301,234.375 279.436 C 234.375 298.519,234.373 298.542,232.727 298.020 C 231.820 297.732,218.900 293.983,204.016 289.689 L 176.953 281.882 168.359 282.235 C 146.241 283.143,142.328 286.731,114.918 331.250 C 92.521 367.627,92.435 368.029,106.829 368.961 C 119.025 369.751,125.862 375.117,127.764 385.391 L 128.314 388.360 102.109 388.125 L 75.905 387.891 73.890 385.997 L 71.875 384.103 71.875 313.885 C 71.875 251.967,72.025 243.003,73.142 238.045 C 77.742 217.625,93.052 201.681,113.888 195.610 C 117.608 194.526,124.200 194.211,153.125 193.731 C 181.587 193.259,188.950 192.913,193.735 191.820 C 208.702 188.402,220.794 183.305,233.203 175.183 L 240.234 170.581 243.945 173.887 C 245.986 175.704,249.556 178.453,251.877 179.994 M309.375 185.926 C 309.375 196.860,299.788 203.307,291.016 198.272 C 284.195 194.357,281.788 182.548,287.108 179.102 C 290.579 176.853,290.353 176.737,290.837 181.024 C 291.875 190.234,303.125 189.664,303.125 180.401 L 303.125 176.540 306.250 178.608 L 309.375 180.676 309.375 185.926 " stroke="none" fill="#000000" fill-rule="evenodd"></path></g></svg>