<svg id="svg" xmlns="http://www.w3.org/2000/svg" xmlns:xlink="http://www.w3.org/1999/xlink" width="400" height="400" viewBox="0, 0, 400,400"><g id="svgg"><path id="path0" d="M142.969 26.240 C 95.844 38.709,80.926 105.820,117.188 142.215 C 155.459 180.627,214.122 150.671,214.391 92.578 C 214.596 48.429,180.122 16.409,142.969 26.240 M168.359 51.899 C 192.396 63.642,198.278 102.800,179.115 123.498 C 145.745 159.542,100.812 102.141,131.078 62.132 C 140.041 50.284,156.055 45.888,168.359 51.899 M270.703 57.048 C 232.505 64.716,210.231 113.194,228.174 149.609 C 249.258 192.397,308.583 185.174,326.963 137.582 C 344.079 93.263,312.867 48.585,270.703 57.048 M290.791 82.633 C 301.170 87.224,309.131 102.989,307.451 115.625 C 302.062 156.158,258.712 168.529,247.566 132.715 C 238.795 104.533,266.841 72.038,290.791 82.633 M40.602 102.382 C -3.434 108.948,-14.986 171.156,22.042 202.324 C 53.601 228.889,96.102 212.501,102.368 171.352 C 108.056 134.001,75.129 97.234,40.602 102.382 M58.336 129.166 C 78.380 139.323,85.212 168.577,71.114 183.872 C 60.023 195.904,39.996 191.427,30.118 174.707 C 13.985 147.401,33.182 116.420,58.336 129.166 M340.032 160.166 C 297.620 171.279,279.108 225.638,307.813 254.776 C 336.020 283.408,387.421 264.562,398.420 221.555 C 408.361 182.683,377.585 150.326,340.032 160.166 M177.344 167.265 C 147.654 169.683,120.642 185.609,103.937 210.547 C 75.086 253.614,54.308 288.268,51.941 297.266 C 38.536 348.221,87.596 388.795,138.770 369.076 C 170.982 356.664,199.066 356.588,231.447 368.824 C 243.397 373.340,246.929 374.192,255.859 374.710 C 301.885 377.381,334.766 329.042,315.357 287.241 C 312.657 281.426,268.672 212.243,262.871 204.688 C 243.167 179.021,210.186 164.590,177.344 167.265 M363.879 185.062 C 379.811 193.190,379.942 218.068,364.136 233.594 C 338.548 258.726,306.518 235.700,322.488 203.654 C 330.845 186.881,350.308 178.139,363.879 185.062 M203.468 193.350 C 229.324 200.248,235.484 206.399,269.122 258.898 C 300.183 307.375,301.511 311.376,292.563 329.481 C 282.932 348.969,263.999 354.989,240.274 346.108 C 202.318 331.899,167.726 331.934,130.251 346.218 C 118.187 350.817,111.695 351.670,103.929 349.678 C 79.493 343.411,67.412 318.006,78.480 296.164 C 80.599 291.982,120.795 229.017,126.168 221.465 C 143.066 197.708,175.536 185.899,203.468 193.350 " stroke="none" fill="#000000" fill-rule="evenodd"></path></g></svg>