<?xml version="1.0" standalone="no"?>
<!DOCTYPE svg PUBLIC "-//W3C//DTD SVG 20010904//EN"
 "http://www.w3.org/TR/2001/REC-SVG-20010904/DTD/svg10.dtd">
<svg version="1.0" xmlns="http://www.w3.org/2000/svg"
 width="2584.000000pt" height="1965.000000pt" viewBox="0 0 2584.000000 1965.000000"
 preserveAspectRatio="xMidYMid meet">

<g transform="translate(0.000000,1965.000000) scale(0.100000,-0.100000)"
fill="#000000" stroke="none">
<path d="M8787 19338 c-178 -363 -444 -671 -826 -958 -69 -52 -163 -118 -208
-147 -82 -52 -82 -52 -96 -30 -7 12 -17 31 -22 42 -7 19 -8 19 -15 -5 -13 -42
-11 -94 6 -144 16 -46 18 -48 47 -42 30 6 407 201 460 238 41 29 300 310 369
400 124 164 293 480 327 615 6 21 16 57 23 80 8 30 9 46 2 53 -8 8 -28 -22
-67 -102z"/>
<path d="M17703 19263 c8 -53 133 -298 214 -423 84 -128 184 -248 349 -419
117 -122 135 -136 262 -209 173 -101 296 -162 322 -162 11 0 23 8 27 18 3 9
19 47 34 84 37 84 38 150 5 231 -23 55 -67 129 -73 123 -2 -2 8 -29 22 -61 34
-75 42 -167 21 -217 -9 -20 -19 -39 -23 -41 -12 -7 -198 120 -348 236 -137
107 -359 317 -453 430 -79 94 -171 224 -243 345 -56 93 -65 102 -92 102 -29 0
-29 -1 -24 -37z"/>
<path d="M11090 18829 c-80 -15 -156 -28 -169 -28 -24 -1 -24 0 -5 13 18 14
18 15 1 22 -53 20 -407 -23 -627 -77 -102 -25 -375 -101 -480 -134 -41 -12
-124 -38 -185 -55 -60 -18 -124 -38 -140 -46 -17 -7 -80 -22 -140 -34 -61 -12
-112 -24 -115 -27 -3 -2 27 -2 65 1 48 4 63 2 48 -4 -45 -18 -234 -50 -370
-61 -126 -11 -148 -15 -253 -57 -328 -128 -854 -384 -1165 -567 -635 -372
-1206 -814 -1730 -1339 -668 -669 -1144 -1325 -1544 -2126 -340 -682 -570
-1349 -735 -2130 -13 -59 -23 -109 -55 -280 -26 -136 -76 -492 -91 -645 -41
-439 -44 -492 -44 -975 0 -492 8 -644 50 -1010 51 -451 159 -1022 260 -1375
91 -319 130 -442 111 -350 -21 101 -40 286 -46 455 -4 107 -9 176 -11 153 -1
-24 -3 -46 -4 -50 -1 -5 -6 -24 -10 -43 -8 -30 -10 -32 -17 -15 -4 11 -8 43
-8 72 -1 33 -6 55 -15 60 -31 18 -114 363 -155 648 -24 158 -26 242 -10 279 7
14 46 54 89 90 158 132 241 257 388 582 72 159 354 917 397 1064 20 69 55 186
79 260 84 261 90 280 78 292 -7 7 -14 9 -18 6 -8 -9 -134 -321 -204 -508 -32
-85 -74 -195 -93 -245 -19 -49 -58 -151 -85 -225 -155 -417 -294 -731 -388
-871 -86 -130 -184 -206 -279 -217 l-42 -4 -5 143 c-3 79 -3 243 -1 364 2 121
4 234 4 250 0 17 -5 71 -11 120 -16 143 4 703 32 850 9 51 18 67 57 105 31 30
67 53 108 68 150 55 291 179 461 407 128 171 468 682 549 825 155 271 233 419
233 441 0 13 9 39 20 57 20 33 27 86 11 80 -17 -6 -149 -199 -503 -739 -333
-508 -508 -729 -655 -830 -53 -37 -61 -37 -29 2 26 30 33 49 19 49 -28 -1
-170 -43 -181 -54 -17 -17 -7 -53 16 -60 9 -3 -3 -3 -27 0 -24 2 -47 7 -51 9
-10 6 17 209 46 340 14 66 42 167 61 225 19 58 36 132 39 165 8 115 75 406
152 660 52 172 74 225 123 296 47 69 96 99 164 99 112 0 271 56 396 140 193
130 687 587 855 790 43 52 114 135 158 183 71 80 78 91 67 109 -10 17 -8 24
23 59 32 34 48 79 30 79 -11 0 -254 -223 -674 -619 -305 -289 -509 -450 -646
-512 -35 -16 -65 -29 -67 -29 -3 0 -2 12 1 26 5 27 5 27 -44 20 -77 -12 -94
-17 -94 -32 0 -8 10 -19 23 -25 17 -7 13 -8 -18 -3 -63 9 -98 31 -91 57 4 12
11 43 16 69 11 56 106 248 198 401 36 60 89 160 117 222 114 247 325 623 416
741 75 98 158 135 255 115 130 -26 298 -7 440 50 107 42 309 145 500 255 197
112 222 129 374 247 63 50 145 110 183 135 66 44 81 67 52 78 -25 10 -17 30
25 58 24 16 40 34 40 46 0 11 -3 20 -7 20 -10 0 -239 -127 -443 -245 -458
-266 -737 -408 -885 -450 -150 -43 -267 -34 -331 26 l-21 20 25 52 c47 100
213 282 411 452 48 41 101 96 118 122 73 111 485 540 576 600 71 47 142 52
238 18 220 -78 379 -74 750 21 237 60 338 94 487 163 70 32 162 71 206 87 43
16 81 35 83 42 3 7 -5 24 -17 37 l-22 24 41 20 c38 20 66 52 55 63 -2 3 -30
-3 -62 -13 -31 -9 -104 -29 -162 -44 -58 -15 -158 -43 -224 -62 -65 -19 -157
-45 -205 -58 -47 -12 -129 -34 -181 -48 -137 -37 -320 -74 -433 -87 -169 -20
-296 11 -353 85 l-27 36 34 35 c42 44 194 159 274 206 33 20 119 63 190 96 92
41 160 81 230 134 191 144 558 379 712 456 117 59 116 59 137 11 59 -133 271
-225 574 -250 167 -14 395 -4 546 22 61 11 165 26 231 35 66 8 122 17 124 20
3 2 -5 22 -17 43 l-22 39 32 7 c58 13 77 48 41 76 -16 12 -17 12 -5 -2 11 -15
7 -17 -30 -23 -24 -3 -234 -6 -468 -7 -407 -2 -630 5 -630 21 0 4 17 6 38 5
20 -2 46 1 57 5 16 7 13 9 -15 9 -35 1 -162 23 -235 40 l-40 10 25 -19 c30
-24 13 -26 -37 -5 -57 24 -101 62 -124 107 -19 38 -19 41 -3 59 45 49 265 133
421 159 150 26 153 27 263 75 52 24 139 59 193 79 l98 37 217 3 c163 3 248 9
340 25 271 47 690 150 1137 279 171 50 388 109 483 132 94 23 174 46 177 50 3
5 -22 16 -55 26 -33 9 -58 20 -55 24 3 4 45 18 95 30 61 15 94 28 100 41 6 10
7 20 3 22 -5 2 -73 -9 -153 -24z"/>
<path d="M15572 18843 c-10 -4 -10 -8 -1 -19 15 -18 7 -18 -96 1 -103 19 -155
19 -155 2 0 -13 21 -22 118 -47 66 -17 60 -21 -72 -57 -35 -10 1 -23 184 -67
172 -42 429 -111 680 -184 156 -46 605 -156 776 -191 219 -45 365 -61 545 -61
159 0 160 0 257 -36 53 -20 141 -56 194 -80 66 -29 139 -51 225 -68 70 -15
151 -37 178 -51 28 -13 100 -42 161 -64 61 -21 120 -44 131 -50 48 -25 -19
-121 -115 -164 -135 -61 -365 -78 -937 -68 -209 3 -385 2 -392 -2 -15 -10 -6
-37 12 -37 25 0 27 -22 5 -52 -12 -16 -18 -34 -14 -38 5 -5 65 -16 134 -24 69
-9 177 -25 240 -37 94 -17 157 -21 345 -22 146 -1 259 4 310 12 183 30 348
104 411 186 16 21 38 49 50 63 l21 26 77 -37 c155 -74 541 -318 731 -462 50
-37 124 -86 165 -108 41 -22 86 -50 100 -62 14 -13 72 -47 130 -76 96 -49 272
-161 328 -208 26 -22 22 -39 -20 -78 -54 -50 -195 -84 -288 -68 -42 7 -52 20
-22 28 11 3 8 5 -9 6 -46 2 -322 62 -359 78 -8 4 -19 8 -25 8 -5 1 -17 5 -25
8 -8 3 -67 20 -130 37 -63 18 -126 36 -140 40 -14 5 -59 16 -100 25 -41 9 -93
20 -115 25 -67 16 -90 16 -88 3 4 -18 -8 -16 -112 13 -140 39 -155 40 -155 17
0 -12 11 -25 26 -32 l26 -11 -26 -35 c-14 -18 -26 -36 -26 -38 0 -3 33 -18 73
-33 39 -15 149 -59 242 -99 183 -78 291 -112 540 -173 306 -76 464 -81 635
-21 70 24 113 33 162 33 61 0 72 -3 120 -37 89 -61 487 -472 588 -607 18 -25
58 -70 87 -101 30 -31 53 -63 51 -70 -2 -8 45 -56 107 -109 105 -92 269 -267
297 -318 12 -23 10 -27 -20 -52 -52 -43 -129 -55 -227 -35 -196 40 -380 129
-945 455 -259 150 -424 240 -438 240 -22 0 -13 -28 16 -48 l27 -21 -29 -30
c-16 -17 -28 -32 -25 -34 2 -2 33 -23 69 -47 36 -24 130 -92 210 -151 173
-127 374 -247 645 -384 265 -135 344 -160 495 -160 63 0 140 4 170 9 116 18
188 -30 295 -194 150 -231 370 -647 409 -777 6 -19 4 -22 -11 -16 -10 3 -31
17 -46 30 -57 47 -45 21 36 -79 45 -57 109 -146 142 -198 62 -100 158 -280
169 -316 9 -30 -29 -53 -101 -59 -32 -2 -50 -2 -40 1 10 3 16 13 15 22 -3 20
-233 116 -251 105 -5 -3 -7 -2 -4 3 3 5 -10 14 -29 20 -19 6 -34 7 -34 3 0 -5
5 -9 10 -9 6 0 10 -5 10 -10 0 -34 -244 175 -655 559 -426 399 -478 446 -483
431 -2 -6 3 -19 12 -29 23 -25 20 -40 -9 -51 -14 -5 -25 -15 -25 -21 0 -6 28
-41 63 -77 35 -37 117 -127 182 -201 116 -130 473 -474 644 -621 252 -217 399
-294 581 -307 139 -10 177 -38 229 -171 96 -250 250 -839 239 -915 -2 -17 -19
0 -79 83 -43 58 -89 116 -104 130 -25 23 -25 21 8 -30 41 -65 144 -268 180
-355 67 -162 147 -441 147 -511 0 -16 -8 -23 -32 -28 -17 -3 -33 -4 -36 -1 -3
3 0 5 6 5 7 0 12 11 12 23 0 20 -15 31 -96 71 -90 43 -181 105 -246 164 -37
34 -45 22 -20 -30 l21 -43 -45 50 c-92 101 -225 289 -491 690 -149 225 -299
449 -333 496 l-61 86 -34 -12 c-19 -6 -37 -14 -41 -17 -3 -4 14 -39 39 -80 24
-40 80 -137 125 -215 91 -158 223 -366 412 -648 322 -480 471 -638 674 -716
44 -17 89 -38 98 -46 21 -19 94 -168 102 -208 6 -30 25 -216 32 -310 7 -93 12
-700 7 -748 -8 -66 -23 -40 -23 39 0 108 -11 185 -25 174 -9 -8 -18 5 -34 50
-47 129 -141 332 -196 424 -31 53 -60 98 -63 100 -4 2 16 -43 44 -100 147
-296 230 -625 254 -1001 6 -95 8 -195 4 -223 -6 -47 -8 -50 -35 -50 -26 0 -28
2 -19 25 11 29 -4 62 -33 71 -22 7 -179 123 -190 141 -13 21 -29 16 -18 -6 6
-10 8 -21 4 -24 -3 -3 4 -23 16 -44 l21 -38 -25 30 c-107 125 -288 521 -465
1015 -32 89 -70 191 -155 410 -62 161 -119 299 -131 318 -13 20 -64 33 -64 16
0 -9 65 -230 97 -329 36 -111 276 -753 363 -970 87 -218 200 -447 274 -559 55
-82 137 -167 208 -216 20 -13 43 -39 52 -57 19 -41 30 -42 46 -3 12 30 30 41
30 18 0 -7 3 -8 9 -3 14 16 40 221 46 368 3 76 10 182 15 235 6 53 13 232 17
398 10 490 -24 1035 -93 1489 -59 388 -118 686 -188 955 -19 74 -38 146 -42
160 -90 348 -273 859 -443 1243 -503 1135 -1270 2147 -2241 2958 -392 327
-693 543 -1081 777 -471 284 -1309 682 -1437 682 -55 0 -262 27 -270 35 -3 3
7 5 21 5 57 0 23 17 -65 33 -51 9 -122 25 -158 36 -36 11 -128 38 -205 60 -77
22 -216 63 -310 90 -350 102 -545 146 -787 180 -139 20 -277 26 -306 14z
m6589 -5350 c13 -16 12 -17 -3 -4 -17 13 -22 21 -14 21 2 0 10 -8 17 -17z
m986 -3710 c-3 -10 -5 -4 -5 12 0 17 2 24 5 18 2 -7 2 -21 0 -30z"/>
<path d="M6955 18658 c-3 -13 -14 -61 -24 -108 -41 -178 -142 -439 -245 -636
-142 -269 -354 -561 -610 -839 -62 -68 -65 -69 -84 -52 -17 16 -38 56 -57 112
l-7 20 -8 -20 c-13 -30 -10 -135 4 -175 7 -19 20 -36 29 -38 24 -5 94 46 279
205 263 226 256 218 364 408 185 327 227 426 314 741 44 163 85 368 76 390 -8
21 -25 17 -31 -8z"/>
<path d="M19579 18525 c-2 -41 2 -92 12 -160 33 -219 130 -461 305 -767 48
-84 96 -169 105 -188 9 -19 40 -61 68 -93 51 -58 59 -73 42 -79 -8 -3 417
-349 437 -355 4 -2 25 41 47 95 37 90 40 104 40 192 0 114 -27 204 -111 375
-71 145 -108 190 -45 55 94 -201 138 -385 112 -476 -12 -44 -49 -105 -67 -111
-14 -5 -148 144 -289 320 -283 352 -484 716 -596 1077 -32 106 -58 155 -60
115z"/>
<path d="M9198 18453 c7 -3 16 -2 19 1 4 3 -2 6 -13 5 -11 0 -14 -3 -6 -6z"/>
<path d="M9158 18443 c7 -3 16 -2 19 1 4 3 -2 6 -13 5 -11 0 -14 -3 -6 -6z"/>
<path d="M17448 18433 c6 -2 18 -2 25 0 6 3 1 5 -13 5 -14 0 -19 -2 -12 -5z"/>
<path d="M17508 18423 c7 -3 16 -2 19 1 4 3 -2 6 -13 5 -11 0 -14 -3 -6 -6z"/>
<path d="M18360 17680 c0 -5 7 -10 15 -10 8 0 15 5 15 10 0 6 -7 10 -15 10 -8
0 -15 -4 -15 -10z"/>
<path d="M18283 17673 c9 -2 25 -2 35 0 9 3 1 5 -18 5 -19 0 -27 -2 -17 -5z"/>
<path d="M8318 17663 c18 -2 45 -2 60 0 15 2 0 4 -33 4 -33 0 -45 -2 -27 -4z"/>
<path d="M18153 17663 c15 -2 39 -2 55 0 15 2 2 4 -28 4 -30 0 -43 -2 -27 -4z"/>
<path d="M5286 17463 c-3 -3 -6 -52 -6 -108 0 -94 -26 -390 -35 -405 -2 -4 -9
-38 -15 -76 -29 -182 -116 -478 -215 -729 -50 -129 -229 -502 -289 -604 -50
-85 -32 -70 36 31 48 71 104 159 319 498 30 47 105 305 153 528 61 282 90 550
79 750 -6 106 -11 130 -27 115z"/>
<path d="M11982 17393 c-38 -7 -98 -75 -121 -137 -33 -89 -27 -228 13 -281 13
-18 14 -10 9 71 -5 78 -3 96 16 138 11 27 21 60 21 73 0 34 33 78 70 93 18 8
30 20 30 31 0 11 -3 18 -7 18 -5 -1 -18 -4 -31 -6z"/>
<path d="M12555 17365 c-25 -24 -25 -25 -25 -229 0 -192 7 -256 28 -256 5 0
10 98 11 218 2 170 5 222 17 239 16 26 18 53 4 53 -6 0 -22 -11 -35 -25z"/>
<path d="M13907 17372 c-24 -26 -22 -79 3 -94 33 -21 23 -31 -25 -25 -42 6
-45 5 -45 -17 0 -13 -3 -37 -6 -53 -5 -26 0 -36 38 -71 47 -45 68 -50 131 -28
36 13 37 13 37 -10 0 -14 -13 -35 -30 -50 -31 -28 -31 -44 1 -44 12 0 19 7 19
20 0 10 9 24 20 30 27 14 25 32 -6 69 -28 34 -42 37 -90 19 -46 -16 -94 4 -94
41 0 31 16 51 42 51 10 0 27 9 39 21 l21 21 -28 29 -28 29 27 28 c15 15 27 33
27 40 0 18 -35 14 -53 -6z"/>
<path d="M14413 17368 c-11 -13 -29 -48 -39 -78 -27 -77 -26 -264 2 -334 10
-26 24 -46 29 -45 12 5 11 17 -4 123 -8 58 -8 96 0 140 6 34 14 80 18 103 4
24 16 52 26 63 17 18 15 50 -3 50 -5 0 -18 -10 -29 -22z"/>
<path d="M14887 17372 c-47 -52 -63 -183 -30 -245 l18 -32 8 70 c4 39 8 81 8
95 0 36 19 79 40 91 11 5 19 16 19 24 0 21 -43 19 -63 -3z"/>
<path d="M11366 17274 c-5 -72 -4 -110 3 -117 8 -8 11 -7 11 4 0 7 7 27 15 43
11 20 13 43 9 76 -4 31 -2 50 5 54 6 4 11 16 11 27 0 13 -7 19 -24 19 -23 0
-23 -3 -30 -106z"/>
<path d="M13541 17123 c-56 -142 -109 -263 -117 -269 -8 -7 -24 -9 -36 -6 -19
5 -20 2 -14 -24 7 -29 7 -37 3 -84 -1 -19 3 -25 18 -25 30 0 84 104 169 327
42 109 76 203 76 210 0 7 7 31 16 55 16 41 14 73 -4 73 -5 0 -55 -116 -111
-257z"/>
<path d="M11622 17315 c3 -59 13 -70 28 -30 12 32 2 85 -17 85 -11 0 -13 -13
-11 -55z"/>
<path d="M12223 17355 c-3 -9 -3 -41 -1 -71 5 -56 -5 -81 -17 -44 -5 15 -10
18 -18 11 -7 -5 -24 -11 -39 -13 l-27 -3 36 -54 37 -55 12 30 c7 16 22 38 33
48 17 15 21 31 21 77 0 62 -7 89 -21 89 -5 0 -12 -7 -16 -15z"/>
<path d="M11528 17343 c6 -2 18 -2 25 0 6 3 1 5 -13 5 -14 0 -19 -2 -12 -5z"/>
<path d="M11570 17341 c0 -6 4 -13 10 -16 6 -3 7 1 4 9 -7 18 -14 21 -14 7z"/>
<path d="M13361 17304 c-27 -35 -34 -60 -27 -100 6 -30 10 -33 34 -29 15 2 44
7 64 10 39 6 72 30 63 46 -4 5 -23 9 -43 9 -40 0 -71 14 -59 27 5 4 34 10 65
14 55 7 124 28 138 42 4 4 -43 7 -104 7 -107 0 -111 -1 -131 -26z"/>
<path d="M14125 17309 c12 -37 -4 -87 -40 -121 -19 -18 -35 -35 -35 -38 0 -3
14 -14 30 -23 27 -16 30 -16 30 -2 0 9 11 33 25 53 28 41 33 105 11 135 -18
23 -29 22 -21 -4z"/>
<path d="M15108 17216 c4 -77 1 -106 -16 -162 -27 -86 -82 -161 -144 -194 -44
-23 -50 -24 -104 -12 -63 13 -67 12 -59 -11 14 -35 103 -46 184 -21 23 7 24 5
18 -24 -8 -39 1 -40 35 -4 34 35 80 130 107 216 25 81 28 209 7 260 -26 62
-33 49 -28 -48z"/>
<path d="M14617 17228 c23 -85 12 -175 -31 -263 -54 -109 -106 -143 -172 -111
-39 18 -85 85 -111 160 -15 46 -17 49 -24 26 -24 -83 7 -205 68 -269 l34 -36
-7 48 c-7 50 -3 54 36 32 14 -8 45 -14 69 -15 43 0 43 0 37 -31 -16 -81 65 27
115 154 29 71 33 94 34 172 0 75 -4 98 -24 138 -31 62 -42 60 -24 -5z"/>
<path d="M11537 17244 c-4 -4 -7 -56 -7 -116 0 -111 -9 -136 -26 -71 -11 44
-45 70 -102 79 l-44 7 4 -116 c3 -107 5 -118 27 -139 21 -21 23 -22 17 -3 -7
26 6 87 20 92 7 2 25 -8 42 -22 16 -14 32 -25 35 -25 3 0 10 15 17 34 6 18 20
42 30 51 16 15 20 31 20 86 0 52 4 70 16 77 10 6 14 19 12 38 -2 23 -9 30 -28
32 -14 2 -29 0 -33 -4z m-60 -170 c9 -24 -10 -49 -38 -49 -24 0 -36 23 -25 51
7 19 55 18 63 -2z"/>
<path d="M21240 17040 c0 -250 32 -456 110 -705 56 -177 72 -235 68 -246 -3
-8 -12 -4 -69 30 -28 17 -41 35 116 -159 65 -80 172 -217 238 -305 66 -88 120
-161 122 -163 1 -1 -53 107 -119 240 -197 393 -324 743 -391 1072 -23 113 -55
307 -55 336 0 14 -5 32 -10 40 -6 10 -10 -36 -10 -140z"/>
<path d="M14552 17135 c0 -16 2 -22 5 -12 2 9 2 23 0 30 -3 6 -5 -1 -5 -18z"/>
<path d="M14764 17115 c-10 -54 4 -102 39 -138 18 -18 37 -42 43 -52 6 -11 15
-15 22 -11 9 5 7 14 -8 33 -26 33 -27 73 -1 73 10 0 32 -5 50 -11 27 -9 35 -8
51 6 29 26 25 33 -19 33 -51 1 -93 23 -128 67 -15 19 -31 35 -35 35 -4 0 -10
-16 -14 -35z"/>
<path d="M14138 17035 c5 -60 -2 -87 -35 -126 -58 -69 -154 -87 -238 -44 -27
13 -51 23 -53 20 -2 -2 -8 -22 -13 -44 -10 -45 6 -93 35 -104 12 -5 14 3 13
36 -2 37 0 42 18 38 11 -2 56 -5 100 -7 l80 -3 -2 -36 c-5 -80 58 -13 111 118
41 102 43 141 9 179 -24 27 -28 22 -25 -27z"/>
<path d="M11730 17019 c-40 -147 82 -319 225 -318 l40 0 -36 19 c-29 15 -69
57 -69 72 0 2 48 3 108 3 92 0 113 3 150 23 46 24 102 93 102 124 0 27 -15 19
-42 -22 -36 -54 -97 -80 -188 -80 -128 0 -224 63 -260 171 l-18 53 -12 -45z"/>
<path d="M21560 17055 c0 -6 4 -15 9 -20 5 -6 41 -73 79 -150 223 -445 336
-790 358 -1087 12 -165 -19 -275 -95 -340 l-40 -34 60 -85 c34 -46 79 -112
101 -146 22 -35 42 -63 44 -63 2 0 -19 46 -46 102 -28 56 -50 109 -50 117 0 9
14 56 30 103 42 119 54 226 40 347 -24 209 -99 469 -210 726 -81 190 -279 564
-280 530z"/>
<path d="M13860 17001 c-12 -23 -13 -61 -1 -79 6 -10 12 -7 24 11 8 13 29 30
46 37 39 16 39 23 -2 38 -45 16 -55 15 -67 -7z"/>
<path d="M11300 16900 c0 -33 11 -38 30 -15 10 12 10 18 0 30 -19 23 -30 18
-30 -15z"/>
<path d="M11250 16853 c-44 -9 -53 -39 -15 -53 26 -10 33 -42 15 -70 -12 -19
9 -28 65 -29 53 -1 61 6 60 54 0 38 2 40 32 43 21 2 37 11 44 23 6 12 9 22 7
24 -7 6 -184 13 -208 8z"/>
<path d="M12376 16834 c-9 -23 -8 -24 19 -34 26 -10 33 -42 15 -70 -12 -19 9
-28 65 -29 54 -1 63 7 61 53 -1 37 1 40 33 47 31 6 50 22 51 42 0 4 -54 7
-119 7 -99 0 -120 -3 -125 -16z"/>
<path d="M7335 16825 c-25 -12 -26 -14 -5 -9 14 4 29 10 35 15 12 12 5 11 -30
-6z"/>
<path d="M7213 16797 c-24 -6 -43 -15 -43 -20 0 -5 8 -6 17 -2 10 3 39 11 65
16 27 6 48 13 48 15 0 6 -41 2 -87 -9z"/>
<path d="M7115 16764 c-16 -8 -22 -12 -12 -9 10 3 27 5 38 5 10 0 19 5 19 10
0 13 -9 12 -45 -6z"/>
<path d="M14780 16752 c0 -23 19 -42 41 -42 16 0 17 4 8 30 -12 34 -49 43 -49
12z"/>
<path d="M6638 16653 c7 -3 16 -2 19 1 4 3 -2 6 -13 5 -11 0 -14 -3 -6 -6z"/>
<path d="M6408 16643 c6 -2 18 -2 25 0 6 3 1 5 -13 5 -14 0 -19 -2 -12 -5z"/>
<path d="M6573 16643 c9 -2 23 -2 30 0 6 3 -1 5 -18 5 -16 0 -22 -2 -12 -5z"/>
<path d="M6473 16633 c15 -2 37 -2 50 0 12 2 0 4 -28 4 -27 0 -38 -2 -22 -4z"/>
<path d="M20003 16633 c9 -2 25 -2 35 0 9 3 1 5 -18 5 -19 0 -27 -2 -17 -5z"/>
<path d="M8145 15948 c-19 -85 5 -214 51 -275 13 -17 24 -36 24 -41 0 -5 11
-14 25 -20 34 -16 40 -15 25 3 -18 21 -3 19 32 -6 29 -21 29 -21 -16 62 -48
90 -102 222 -112 276 -8 42 -20 42 -29 1z"/>
<path d="M8490 15905 c-6 -15 -15 -61 -21 -101 -15 -101 0 -182 56 -293 60
-119 96 -246 97 -346 2 -103 -16 -141 -70 -151 -256 -44 -575 -177 -790 -331
-88 -62 -231 -201 -293 -283 -59 -77 -141 -233 -163 -310 -40 -134 -28 -318
29 -433 18 -37 23 -44 19 -22 -38 185 -41 237 -19 340 27 130 118 277 253 411
100 99 184 150 340 204 320 113 627 246 665 288 9 9 30 53 47 97 27 67 32 93
32 160 -1 44 -6 111 -11 150 -16 108 3 109 144 7 101 -73 165 -104 261 -128
79 -20 167 -76 219 -139 64 -78 175 -300 236 -469 8 -22 19 -41 24 -43 17 -5
75 121 87 189 8 49 8 77 -2 123 -7 33 -14 76 -16 95 -5 56 -13 80 -41 119 -14
20 -23 28 -20 19 17 -51 28 -101 27 -130 -1 -18 4 -55 10 -83 11 -53 0 -152
-23 -209 -12 -27 -14 -25 -41 73 -54 196 -111 319 -203 441 -65 88 -143 142
-257 180 -51 17 -120 47 -152 66 -126 75 -271 253 -363 443 -22 46 -43 86 -45
89 -3 3 -10 -8 -16 -23z"/>
<path d="M3893 15836 c8 -20 33 -178 53 -329 13 -103 15 -186 11 -440 -7 -427
-36 -653 -147 -1122 -17 -71 -33 -139 -35 -150 -18 -76 49 112 119 334 l84
266 16 235 c20 292 21 615 1 780 -25 218 -74 440 -96 440 -6 0 -9 -6 -6 -14z"/>
<path d="M22720 15798 c0 -3 8 -26 18 -50 25 -58 81 -222 135 -398 216 -699
267 -1385 122 -1669 -27 -54 -92 -117 -130 -127 -19 -5 -24 -11 -19 -23 36
-87 123 -342 172 -506 40 -130 129 -468 145 -550 4 -16 14 -61 22 -100 51
-226 81 -397 139 -780 3 -16 3 12 0 64 -2 52 -5 227 -5 390 -1 201 -4 272 -9
221 -14 -134 -26 -139 -34 -11 -6 86 -12 117 -25 130 -9 9 -34 75 -55 147 -20
71 -77 264 -126 429 -132 445 -129 422 -65 539 82 151 118 336 119 621 1 424
-121 1006 -309 1475 -41 102 -94 212 -95 198z"/>
<path d="M8802 15768 c-17 -17 -15 -27 13 -64 24 -32 199 -164 217 -164 4 0 8
7 8 14 0 12 10 12 57 -5 50 -17 62 -18 88 -7 18 8 72 13 140 12 222 -1 463
-77 665 -210 89 -58 289 -242 407 -373 80 -89 240 -310 256 -354 3 -9 7 -9 17
0 21 20 13 78 -25 173 -138 344 -423 641 -767 799 -173 79 -406 141 -598 160
-324 32 -459 38 -478 19z"/>
<path d="M4502 15659 c-7 -36 -12 -88 -12 -116 0 -48 31 -158 50 -177 10 -10
67 15 102 43 17 13 15 16 -21 47 -48 41 -80 108 -96 199 l-12 70 -11 -66z"/>
<path d="M7041 15617 c-37 -94 15 -234 128 -346 36 -36 120 -102 186 -146 139
-94 228 -176 255 -237 24 -54 45 -73 89 -82 l33 -6 -7 56 c-14 112 -64 233
-134 321 -30 39 -35 50 -20 46 24 -7 24 0 2 35 -29 44 -73 79 -187 149 -59 37
-138 95 -175 130 -36 34 -74 62 -83 63 -23 0 -23 -30 -2 -73 l15 -32 -21 25
c-12 14 -32 48 -45 75 l-23 50 -11 -28z"/>
<path d="M10957 15300 c-119 -15 -208 -114 -253 -281 -18 -69 -25 -246 -11
-313 8 -35 10 -37 24 -24 10 10 17 47 22 106 9 100 18 120 86 186 79 77 230
133 328 121 255 -30 572 -155 842 -332 348 -229 727 -602 1054 -1038 250 -334
535 -804 611 -1008 11 -29 35 -104 53 -167 19 -64 44 -134 55 -156 11 -22 24
-58 28 -79 l8 -40 7 50 c15 105 -14 313 -62 440 -32 86 -16 76 20 -12 38 -96
68 -193 86 -281 23 -109 27 -122 36 -122 5 0 9 10 9 23 0 13 5 28 11 34 14 14
6 176 -13 263 -46 204 -177 441 -429 774 -139 184 -239 300 -239 277 0 -8 20
-46 43 -85 103 -168 112 -194 17 -51 -203 306 -569 741 -807 961 -492 455
-922 684 -1400 747 -12 2 -26 6 -29 10 -8 8 -14 8 -97 -3z m2763 -2435 c0 -5
-5 -3 -10 5 -5 8 -10 20 -10 25 0 6 5 3 10 -5 5 -8 10 -19 10 -25z"/>
<path d="M22547 15075 c-4 -55 -7 -225 -7 -377 0 -159 -4 -278 -9 -278 -10 0
-98 135 -225 343 -43 70 -80 127 -83 127 -3 0 6 -19 20 -42 133 -232 292 -552
411 -833 42 -99 83 -193 92 -210 17 -35 16 -28 -16 95 -17 63 -32 128 -56 245
-54 260 -95 591 -113 905 l-6 125 -8 -100z"/>
<path d="M3441 14197 c0 -15 -6 -105 -12 -200 -13 -206 -3 -292 45 -405 51
-119 89 -178 112 -173 10 2 26 4 34 5 11 1 70 103 70 122 0 1 -15 8 -34 14
-113 37 -188 231 -205 530 -5 74 -9 122 -10 107z"/>
<path d="M16367 14196 c-6 -14 -1 -74 29 -396 9 -96 20 -319 25 -495 4 -176
12 -338 17 -360 9 -38 10 -36 10 30 2 176 -18 890 -27 975 -25 233 -38 289
-54 246z"/>
<path d="M23734 13899 c4 -19 11 -70 17 -113 6 -44 12 -82 14 -85 4 -8 31
-260 47 -451 16 -188 15 -564 -1 -755 -29 -344 -94 -632 -183 -810 -34 -67
-107 -169 -115 -161 -3 3 -1 11 5 18 20 25 56 138 44 138 -4 0 -47 -32 -95
-71 -65 -52 -87 -75 -85 -90 2 -11 7 -19 12 -19 5 1 12 -4 17 -11 6 -10 13
-10 36 -1 26 11 26 11 9 -3 -11 -8 -42 -18 -69 -21 l-49 -7 6 -46 c16 -114 36
-297 46 -426 16 -194 31 -705 25 -850 -3 -66 -7 -199 -10 -295 -3 -96 -14
-263 -25 -370 -11 -107 -22 -224 -25 -260 -27 -307 -140 -926 -235 -1285 -10
-38 -30 -113 -44 -165 -14 -52 -34 -124 -45 -160 -61 -194 22 10 153 375 47
132 86 252 86 267 0 47 110 689 124 723 22 51 75 104 166 164 47 31 112 83
146 116 110 111 256 358 339 576 128 334 250 873 300 1324 19 171 37 627 25
639 -17 17 -30 -7 -30 -57 0 -128 -42 -554 -75 -749 -40 -236 -50 -286 -91
-453 -77 -312 -91 -357 -189 -600 -84 -209 -199 -409 -277 -481 l-32 -29 28
38 c15 20 24 42 21 47 -4 6 -1 9 7 8 7 -2 12 3 11 9 -2 7 13 38 32 68 105 164
264 555 310 765 2 8 13 49 24 90 27 95 51 199 62 270 11 76 18 117 29 175 6
28 13 68 16 90 3 22 8 47 9 55 2 8 6 40 10 70 4 30 9 66 11 80 2 14 7 95 10
180 5 142 4 153 -10 130 -8 -14 -15 -36 -15 -50 0 -14 -12 -61 -25 -105 -14
-44 -30 -111 -35 -150 -5 -38 -17 -117 -26 -175 -10 -58 -21 -141 -25 -185 -5
-44 -13 -93 -19 -108 -6 -16 -11 -42 -11 -60 0 -17 -11 -72 -24 -122 -14 -49
-30 -117 -36 -150 -7 -33 -20 -85 -29 -115 -10 -30 -26 -82 -36 -115 -49 -163
-134 -367 -190 -455 -23 -36 -51 -81 -63 -101 -32 -54 -133 -143 -194 -173
-64 -31 -81 -44 -97 -73 -9 -18 -9 -23 0 -23 7 0 9 -3 6 -7 -4 -3 -1 -13 6
-21 10 -13 8 -14 -18 -8 -16 4 -31 8 -32 9 -2 2 10 102 35 297 11 85 25 202
32 260 6 58 18 153 26 211 11 80 12 122 5 170 -5 35 -15 170 -21 299 -6 129
-15 296 -20 370 -6 74 -10 178 -10 230 l0 95 75 86 c153 177 213 302 275 576
113 505 125 1168 30 1728 -43 248 -54 298 -69 303 -11 4 -12 -3 -7 -29z"/>
<path d="M7211 13775 c-1 -131 35 -275 70 -275 31 0 31 18 -1 102 -17 44 -40
120 -50 167 l-19 86 0 -80z"/>
<path d="M2900 13834 c0 -5 4 -14 9 -19 11 -12 92 -250 121 -360 40 -145 77
-308 95 -415 9 -58 21 -126 26 -151 38 -203 63 -646 57 -1004 -2 -159 -1 -272
2 -250 14 82 30 246 46 460 8 121 17 231 18 245 2 14 -1 32 -5 41 -5 9 -18 93
-29 185 -57 469 -156 889 -273 1149 -40 91 -67 138 -67 119z"/>
<path d="M7813 13694 c5 -54 48 -190 53 -168 1 5 5 21 8 37 6 24 11 27 44 27
20 0 77 -7 126 -16 148 -26 126 -8 -64 51 -95 29 -135 53 -118 71 6 5 93 -8
338 -51 46 -9 90 -13 97 -10 25 9 13 21 -34 34 -79 21 -324 69 -393 77 l-63 7
6 -59z"/>
<path d="M17060 13700 c6 -11 13 -20 16 -20 2 0 0 9 -6 20 -6 11 -13 20 -16
20 -2 0 0 -9 6 -20z"/>
<path d="M3574 13695 c-4 -8 0 -23 7 -32 12 -14 12 -16 -1 -8 -13 8 -13 6 1
-15 15 -22 55 -35 64 -20 5 8 -51 90 -60 90 -3 0 -8 -7 -11 -15z"/>
<path d="M7730 13638 c-12 -20 -17 -41 -14 -53 10 -29 87 -155 93 -150 2 3 3
35 2 72 -2 47 -10 81 -27 115 -13 26 -27 48 -29 48 -3 0 -14 -15 -25 -32z"/>
<path d="M17136 13568 c92 -171 182 -352 285 -571 53 -115 101 -212 105 -215
44 -41 -199 469 -356 746 -45 78 -83 142 -85 142 -3 0 20 -46 51 -102z"/>
<path d="M7437 13472 c3 -15 -7 -24 -49 -42 -29 -12 -155 -75 -279 -140 -359
-188 -584 -322 -739 -440 -107 -82 -216 -200 -185 -200 3 0 22 7 42 15 19 8
48 15 64 15 19 0 72 30 166 94 182 124 403 250 705 402 136 68 249 128 252
133 4 5 1 22 -6 36 -11 25 -10 29 15 47 38 28 50 53 37 78 -13 25 -30 26 -23
2z"/>
<path d="M2697 13013 c-5 -23 -9 -212 -9 -420 0 -297 3 -404 16 -498 47 -343
144 -591 292 -745 34 -36 69 -82 77 -102 16 -37 37 -51 37 -24 0 7 7 19 15 26
12 10 16 8 23 -10 6 -16 11 1 20 68 7 49 15 104 18 121 5 26 3 31 -12 31 -16
0 -17 1 -1 13 17 12 13 62 -4 51 -5 -3 -9 0 -9 5 0 6 -33 44 -73 84 -101 100
-150 202 -211 438 -46 176 -86 448 -86 591 0 92 -19 112 -21 23 -6 -215 8
-383 48 -590 14 -71 26 -138 26 -147 1 -10 4 -18 8 -18 4 0 6 -14 4 -30 -3
-21 -1 -28 7 -24 7 4 8 3 4 -5 -4 -6 0 -34 9 -62 28 -85 9 -66 -23 23 -92 255
-131 519 -141 948 -4 195 -9 281 -14 253z"/>
<path d="M15594 12999 c-37 -9 -44 -16 -69 -67 -61 -122 -43 -289 67 -612 44
-130 195 -466 205 -456 3 2 -9 30 -25 62 -16 33 -54 124 -85 204 -156 407
-179 672 -61 710 50 17 179 6 241 -21 26 -11 116 -43 198 -71 195 -66 295
-117 435 -222 63 -47 148 -104 190 -126 42 -23 112 -68 156 -101 82 -61 100
-70 90 -43 -25 66 -18 76 35 48 17 -8 33 -13 36 -11 2 3 -53 64 -123 137 -220
226 -374 315 -819 472 -93 33 -193 68 -221 79 -61 22 -193 32 -250 18z"/>
<path d="M15384 12825 c-5 -11 -9 -69 -8 -130 0 -131 30 -252 143 -586 166
-491 321 -869 393 -960 l19 -24 -15 35 c-7 19 -26 62 -41 95 -44 98 -106 268
-103 284 2 8 32 -25 67 -74 138 -190 199 -247 304 -287 74 -28 77 -17 7 26
-54 33 -128 112 -116 123 2 3 42 -14 88 -36 90 -43 185 -71 242 -71 61 0 40
15 -61 44 -115 33 -202 71 -260 114 -104 77 -345 452 -462 720 -93 211 -164
472 -180 657 -5 67 -10 85 -17 70z"/>
<path d="M15185 12728 c-9 -129 2 -202 67 -468 69 -282 246 -811 291 -867 5
-7 22 -13 37 -13 15 0 30 6 33 13 2 6 -22 82 -55 167 -166 436 -302 904 -342
1169 -7 51 -16 94 -19 97 -3 3 -8 -41 -12 -98z"/>
<path d="M17030 12642 c-8 -4 -15 -14 -15 -22 0 -12 -21 -17 -95 -23 -52 -5
-97 -10 -98 -12 -2 -2 36 -57 85 -122 48 -65 96 -130 105 -143 l17 -25 0 37
c1 34 4 38 39 47 20 5 69 12 107 15 39 4 133 16 210 28 162 24 283 20 410 -12
131 -33 153 -52 220 -180 41 -79 71 -123 105 -153 92 -83 254 -141 430 -153
75 -5 104 -2 245 31 237 54 481 103 634 125 l136 20 36 -28 c103 -77 208 -160
243 -192 28 -25 48 -35 72 -35 48 0 46 31 -3 52 -40 16 -177 134 -195 166 -10
20 -10 20 20 1 99 -62 123 -75 139 -72 13 2 -16 32 -99 103 -90 76 -114 101
-103 108 9 4 12 14 9 20 -4 7 11 -4 32 -24 73 -68 109 -89 148 -89 49 0 91
-31 107 -78 7 -20 18 -77 25 -127 12 -88 12 -89 13 -30 1 69 -15 243 -25 268
-3 9 -22 27 -42 39 -34 21 -35 22 -14 31 26 12 27 20 5 38 -11 10 -54 15 -137
17 -67 2 -125 8 -130 13 -18 16 -71 10 -89 -11 -9 -11 -27 -20 -39 -20 -55 0
-506 -83 -837 -155 -139 -30 -378 16 -507 97 -67 43 -132 123 -150 187 -22 78
-54 115 -127 151 -81 39 -207 65 -399 81 -99 8 -157 17 -166 26 -10 10 -50 13
-160 12 -81 0 -154 -3 -162 -7z"/>
<path d="M6091 12594 c-25 -32 -29 -115 -7 -133 11 -10 16 -3 26 38 6 27 18
58 25 68 38 49 -6 75 -44 27z"/>
<path d="M6150 12553 c-24 -31 -26 -89 -5 -141 18 -41 76 -135 81 -129 2 1 -6
29 -18 61 -26 69 -19 77 56 69 89 -9 172 -45 229 -100 16 -16 17 -15 17 12 0
59 -121 162 -195 166 -12 0 -15 3 -7 6 7 3 44 -3 82 -13 38 -10 73 -15 76 -11
23 23 -99 85 -180 93 -28 3 -66 7 -83 9 -26 3 -37 -2 -53 -22z m118 -50 c-10
-2 -26 -2 -35 0 -10 3 -2 5 17 5 19 0 27 -2 18 -5z"/>
<path d="M18171 12480 c14 -31 19 -36 19 -24 0 6 -7 19 -16 30 -14 18 -14 18
-3 -6z"/>
<path d="M6036 12455 c-3 -9 -6 -43 -6 -75 0 -120 70 -242 236 -414 88 -90
103 -110 109 -148 22 -128 85 -262 191 -405 101 -135 244 -272 332 -317 18 -9
83 -24 145 -32 124 -18 387 -15 637 7 174 15 697 5 830 -15 113 -18 209 -46
268 -81 68 -39 161 -118 168 -142 3 -12 12 -28 20 -34 12 -10 17 -8 28 7 17
22 19 20 33 -26 8 -29 11 -7 17 125 4 88 9 172 11 187 2 16 -1 30 -6 34 -5 3
-9 -10 -9 -28 0 -18 -3 -49 -6 -68 l-6 -35 -50 48 c-91 88 -246 145 -468 172
-63 8 -248 17 -410 21 -162 3 -304 8 -315 9 -11 2 -55 4 -98 4 -43 1 -76 5
-73 10 10 15 -40 40 -106 55 -35 8 -139 17 -233 21 -93 3 -199 10 -235 16
-129 19 -278 114 -422 268 -37 39 -69 71 -72 71 -11 0 -6 -31 9 -60 28 -53 6
-32 -41 40 -24 38 -59 102 -76 142 -17 41 -50 95 -75 122 -24 28 -51 62 -59
78 -14 28 -14 28 11 16 50 -23 36 3 -52 96 -96 100 -149 177 -190 278 -30 74
-29 73 -37 53z"/>
<path d="M6580 12404 c0 -43 -7 -62 -46 -122 -44 -69 -45 -73 -33 -107 12 -32
14 -33 30 -19 23 21 89 186 89 223 0 16 -9 39 -20 52 l-19 24 -1 -51z"/>
<path d="M23322 12420 c0 -19 2 -27 5 -17 2 9 2 25 0 35 -3 9 -5 1 -5 -18z"/>
<path d="M14277 12344 c-4 -4 -7 -43 -7 -86 0 -44 -4 -77 -8 -74 -5 3 -39 1
-77 -5 -138 -19 -238 -88 -341 -235 -38 -54 -71 -103 -74 -109 -25 -53 -154
-251 -253 -387 -25 -35 -90 -109 -155 -175 -24 -25 -41 -47 -38 -50 5 -5 78
67 206 203 79 85 90 97 212 249 143 178 177 201 55 38 -292 -389 -444 -535
-737 -709 -240 -144 -459 -247 -670 -319 -86 -29 -126 -47 -128 -58 -5 -22 23
-22 116 2 40 11 72 16 70 11 -2 -5 -32 -29 -66 -55 -35 -25 -62 -48 -60 -51 9
-8 183 47 308 98 69 29 188 84 265 123 384 197 502 293 813 666 89 106 182
209 206 227 90 68 220 90 301 53 92 -42 167 -163 229 -371 91 -304 115 -429
116 -592 0 -47 4 -80 12 -84 14 -9 5 425 -12 534 -7 40 -10 78 -7 85 2 6 12
-49 23 -123 15 -110 19 -191 19 -435 -1 -316 -11 -448 -60 -773 -28 -181 -29
-202 -15 -202 29 0 114 242 164 468 75 337 100 591 100 1022 0 332 0 336 -26
425 -34 114 -52 163 -66 177 -7 7 -12 19 -12 27 0 8 -3 12 -6 8 -4 -3 -29 31
-56 76 -28 45 -53 84 -57 87 -4 3 -19 25 -33 50 -15 25 -44 64 -65 87 -21 23
-49 57 -63 74 -14 18 -33 39 -44 48 -10 9 -24 22 -32 29 -8 7 -14 10 -14 6 0
-4 -6 0 -13 10 -7 9 -16 14 -20 10z m270 -1036 c-3 -8 -6 -5 -6 6 -1 11 2 17
5 13 3 -3 4 -12 1 -19z"/>
<path d="M14654 12140 c142 -303 175 -471 171 -865 -8 -681 -110 -1211 -311
-1615 -58 -117 -71 -151 -67 -177 3 -18 9 -33 14 -33 14 0 78 105 130 214 196
414 309 1129 279 1771 -13 271 -48 402 -171 650 -79 159 -114 201 -45 55z"/>
<path d="M20076 12175 c39 -130 57 -455 35 -611 -12 -85 -213 -584 -235 -584
-5 0 35 108 94 250 118 287 113 267 118 448 4 171 -8 327 -31 381 -13 30 -14
20 -20 -120 -4 -84 -7 -193 -7 -243 0 -118 -18 -200 -76 -344 -107 -271 -196
-383 -419 -528 -169 -109 -345 -246 -345 -267 0 -14 18 -6 101 44 142 87 135
77 -36 -41 -488 -340 -860 -680 -926 -847 -20 -51 -23 -76 -23 -203 -1 -80 4
-201 11 -270 23 -238 36 -680 30 -1099 l-5 -413 20 53 c40 110 35 1066 -8
1531 -14 163 -9 261 17 309 24 47 128 166 230 264 229 221 666 543 1098 810
188 117 202 133 302 382 110 271 150 404 161 533 10 129 -3 344 -27 448 -13
55 -59 162 -69 162 -2 0 2 -20 10 -45z m-206 -1209 c0 -2 -8 -10 -17 -17 -16
-13 -17 -12 -4 4 13 16 21 21 21 13z"/>
<path d="M10296 12059 c-89 -204 -125 -259 -255 -390 -160 -160 -364 -299
-665 -454 l-161 -82 -7 -79 c-12 -121 -11 -570 1 -744 39 -548 152 -1134 319
-1655 16 -49 39 -135 52 -190 12 -55 35 -138 51 -184 16 -47 38 -123 50 -170
37 -151 108 -377 150 -478 40 -96 80 -208 114 -326 9 -32 18 -57 20 -55 1 1
-1 34 -6 72 -6 44 -22 98 -48 155 -49 106 -106 280 -155 471 -21 80 -53 195
-72 255 -19 61 -43 151 -55 200 -11 50 -36 140 -54 200 -192 626 -291 1164
-326 1765 -12 202 -7 440 10 498 20 69 94 137 292 268 103 69 232 160 286 203
119 95 263 243 322 330 87 128 189 387 162 414 -7 7 -15 -1 -25 -24z"/>
<path d="M18030 12045 c0 -2 9 -19 21 -37 12 -18 18 -24 14 -13 -4 11 -10 28
-12 38 -5 15 -23 25 -23 12z"/>
<path d="M19905 12019 c5 -40 20 -58 36 -42 15 15 -2 67 -24 71 -12 3 -15 -4
-12 -29z"/>
<path d="M17953 12018 c-28 -36 -123 -275 -123 -309 0 -46 32 -14 74 76 25 52
51 95 58 95 7 0 22 -7 32 -15 11 -8 23 -15 27 -15 12 0 -10 57 -27 71 -25 20
-17 49 13 49 l27 0 -29 30 c-32 33 -38 36 -52 18z"/>
<path d="M6480 11965 c0 -5 5 -17 10 -25 5 -8 10 -10 10 -5 0 6 -5 17 -10 25
-5 8 -10 11 -10 5z"/>
<path d="M19940 11918 c0 -9 5 -20 10 -23 13 -8 13 5 0 25 -8 13 -10 13 -10
-2z"/>
<path d="M2240 11542 c0 -32 -3 -75 -5 -97 -4 -31 -3 -36 5 -20 7 14 8 0 4
-50 -4 -50 -2 -66 5 -55 9 13 11 13 11 -2 0 -10 -5 -18 -11 -18 -5 0 -7 -5 -4
-10 3 -6 6 -29 6 -53 0 -94 64 -495 110 -686 16 -68 27 -126 24 -129 -3 -3 -5
-3 -5 1 0 3 -11 50 -24 104 -40 162 -54 231 -81 396 -32 194 -63 444 -69 556
-3 46 -8 87 -12 90 -3 3 -4 -129 -1 -294 4 -252 9 -327 30 -465 46 -302 106
-557 182 -780 170 -494 342 -772 561 -902 44 -25 90 -58 103 -72 22 -24 60
-103 82 -171 7 -23 72 -425 103 -642 9 -61 -1 -51 -126 122 -47 66 -96 131
-108 145 l-22 25 23 -40 c12 -22 30 -51 39 -65 75 -112 280 -510 385 -747 60
-134 80 -164 52 -76 -20 60 -60 210 -98 368 -16 66 -34 136 -39 155 -8 29 -31
140 -46 215 -2 11 -8 43 -14 70 -52 262 -90 493 -110 675 -6 58 -20 179 -30
270 -11 91 -22 203 -25 250 -17 287 -25 489 -25 664 0 110 -2 197 -5 195 -2
-3 -7 -88 -10 -189 -3 -102 -9 -196 -12 -210 -6 -25 -6 -25 -13 5 -4 17 -8 56
-9 88 -1 48 -4 57 -17 55 -13 -2 -33 42 -94 207 -139 381 -245 626 -361 840
-91 168 -107 177 -25 15 170 -340 294 -664 391 -1020 9 -36 21 -78 26 -95 39
-125 136 -603 155 -760 l7 -59 -24 17 c-13 10 -37 25 -53 35 -140 83 -207 162
-305 357 -105 209 -197 490 -255 775 -8 41 -24 118 -35 170 -20 101 -41 247
-41 295 0 25 -22 128 -62 295 -6 25 -28 102 -50 171 -30 99 -43 128 -58 132
-18 5 -20 0 -20 -51z m168 -1192 c0 -9 -3 -7 -8 5 -5 11 -8 29 -8 40 0 16 2
15 8 -5 4 -14 8 -32 8 -40z m38 -138 c-5 -5 -26 59 -25 77 0 9 7 -4 14 -29 8
-24 13 -46 11 -48z"/>
<path d="M3190 11560 c0 -19 3 -21 12 -12 9 9 9 15 0 24 -9 9 -12 7 -12 -12z"/>
<path d="M8205 11559 c-138 -43 -307 -79 -426 -88 -142 -12 -159 -16 -159 -40
0 -27 10 -31 34 -17 13 9 67 16 146 19 100 4 152 12 260 40 164 43 246 73 254
92 7 21 -33 18 -109 -6z"/>
<path d="M15453 10913 c-389 -787 -600 -1272 -753 -1731 -74 -220 -81 -234
-146 -297 -122 -119 -322 -212 -612 -285 -148 -37 -191 -55 -175 -71 10 -9
144 13 275 46 53 14 105 25 115 24 10 0 -39 -29 -109 -65 -71 -35 -128 -67
-128 -70 0 -9 70 7 190 43 210 62 412 179 492 285 33 43 66 121 130 312 187
555 788 1878 901 1984 l25 23 128 -129 c117 -117 251 -229 261 -218 2 2 -14
32 -37 67 -45 70 -40 84 18 47 38 -25 72 -41 72 -33 0 2 -48 45 -106 96 -117
101 -234 230 -292 320 -20 32 -40 58 -43 58 -3 1 -96 -182 -206 -406z"/>
<path d="M3113 10615 c0 -27 2 -38 4 -22 2 15 2 37 0 50 -2 12 -4 0 -4 -28z"/>
<path d="M9032 10365 c-5 -523 82 -1123 243 -1684 120 -421 276 -813 506
-1276 92 -185 114 -223 125 -212 18 18 -23 144 -117 354 -133 298 -177 404
-254 604 -298 771 -462 1518 -495 2239 l-7 165 -1 -190z"/>
<path d="M3422 9750 c0 -14 2 -19 5 -12 2 6 2 18 0 25 -3 6 -5 1 -5 -13z"/>
<path d="M4495 9698 c-5 -15 -42 -223 -55 -308 -4 -30 -13 -82 -19 -115 -11
-62 -30 -186 -56 -365 -9 -58 -22 -145 -30 -195 -7 -49 -21 -142 -30 -205 -82
-564 -142 -825 -231 -1002 -41 -81 -102 -152 -156 -179 -44 -22 -70 -25 -42
-4 15 11 16 15 4 15 -9 1 -6 5 8 10 29 12 28 25 -3 25 -14 0 -25 -2 -25 -5 0
-6 -280 -2 -297 5 -7 2 -13 -1 -13 -7 0 -9 -3 -9 -12 0 -7 7 -26 12 -43 12
-46 0 -123 28 -182 67 -117 77 -319 328 -433 538 -18 33 -36 65 -40 70 -17 24
-154 323 -170 374 -10 31 -28 79 -40 106 -12 28 -34 88 -50 135 -52 154 -80
221 -141 344 -94 191 -148 257 -136 165 4 -30 3 -39 -4 -28 -8 10 -9 1 -5 -31
4 -39 1 -34 -22 35 -19 55 -33 81 -44 83 -23 4 -23 3 8 -174 40 -235 78 -367
182 -624 249 -621 558 -1090 832 -1265 85 -55 129 -71 230 -86 159 -23 318 -1
436 59 76 39 190 188 237 309 35 89 99 365 141 603 51 289 223 1501 229 1614
2 30 -19 48 -28 24z m-2181 -663 c5 -22 4 -26 -4 -15 -5 8 -10 24 -10 34 0 26
6 18 14 -19z"/>
<path d="M22043 9554 c-3 -8 -2 -50 1 -92 4 -42 13 -149 21 -237 12 -143 125
-942 176 -1250 85 -508 213 -772 414 -848 130 -50 346 -59 478 -21 246 72 536
412 799 939 178 354 271 630 378 1109 41 182 48 240 29 234 -9 -3 -38 -86 -75
-214 -113 -388 -228 -692 -370 -976 -171 -342 -387 -643 -567 -790 l-52 -42
53 55 c29 30 50 58 47 60 -3 3 5 14 17 25 12 10 18 13 13 5 -5 -10 -4 -12 4
-7 6 4 9 11 6 16 -3 5 22 42 56 82 156 186 344 497 464 768 100 228 124 290
206 535 54 162 70 227 59 245 -16 26 -129 -197 -170 -335 -12 -38 -32 -99 -59
-175 -7 -19 -15 -44 -18 -55 -3 -11 -19 -54 -35 -95 -17 -41 -37 -93 -46 -115
-34 -91 -205 -427 -261 -513 -34 -51 -61 -97 -61 -101 0 -5 -8 -15 -17 -22 -9
-8 -29 -32 -45 -54 -54 -75 -193 -207 -258 -245 -82 -48 -117 -58 -211 -63
-41 -2 -81 -7 -87 -11 -7 -4 -12 -4 -12 1 0 4 -53 8 -118 7 -64 0 -119 2 -122
5 -5 7 -124 61 -133 61 -11 0 1 -52 18 -73 10 -12 -2 -1 -27 24 -71 75 -132
210 -181 404 -9 33 -21 80 -27 103 -6 24 -15 67 -20 95 -5 29 -16 90 -25 137
-18 95 -48 290 -71 455 -8 61 -21 151 -29 200 -7 50 -21 140 -30 200 -9 61
-22 148 -30 195 -8 47 -22 130 -31 185 -34 211 -38 223 -51 189z"/>
<path d="M18136 9446 c-12 -53 1 -220 23 -308 23 -89 43 -230 76 -538 37 -348
42 -391 44 -345 0 22 -3 87 -9 145 -5 58 -17 186 -25 285 -29 326 -45 468 -70
600 -14 72 -26 146 -28 165 l-3 35 -8 -39z"/>
<path d="M3545 9438 c-63 -22 -84 -61 -39 -72 32 -9 68 13 89 54 14 28 14 30
-2 29 -10 0 -31 -5 -48 -11z"/>
<path d="M22522 9205 c2 -5 18 -39 36 -74 96 -183 177 -452 217 -724 30 -193
24 -589 -11 -795 -9 -51 -14 -95 -12 -98 13 -12 77 313 102 523 12 99 12 109
-20 295 -53 311 -111 504 -215 713 -49 98 -110 200 -97 160z"/>
<path d="M18282 8150 c0 -19 2 -27 5 -17 2 9 2 25 0 35 -3 9 -5 1 -5 -18z"/>
<path d="M18292 8035 c0 -16 2 -22 5 -12 2 9 2 23 0 30 -3 6 -5 -1 -5 -18z"/>
<path d="M1210 7225 c0 -11 -11 -15 -37 -15 -45 0 -126 -21 -168 -43 -37 -19
-98 -82 -118 -122 -36 -73 -41 -133 -43 -542 -1 -222 1 -403 6 -403 4 0 16 12
25 28 l18 27 -22 -20 c-22 -19 -22 -19 3 49 25 67 26 74 26 315 0 272 11 400
40 446 36 58 77 87 152 109 40 11 76 26 78 31 3 6 -22 14 -58 18 -73 10 -77
26 -11 45 122 35 124 36 127 65 2 15 -1 27 -7 27 -6 0 -11 -7 -11 -15z"/>
<path d="M2254 7227 c-3 -9 -16 -17 -29 -17 -77 0 -213 -70 -310 -158 l-39
-37 38 43 c56 65 49 72 -69 59 -27 -4 -55 -6 -62 -7 -12 0 -18 -22 -28 -107
-6 -47 -5 -53 12 -53 10 0 30 7 43 16 14 9 -112 -119 -279 -283 l-305 -299 34
-42 c35 -44 50 -52 50 -28 0 17 295 300 470 452 69 59 154 135 190 169 75 72
136 109 203 126 62 15 61 35 -4 43 -61 8 -61 26 2 44 86 25 127 58 102 83 -10
10 -14 9 -19 -4z"/>
<path d="M14470 7156 c0 -42 5 -178 11 -302 9 -187 9 -228 -2 -235 -20 -12
-24 -4 -53 101 -56 203 -137 316 -276 383 -127 62 -238 82 -511 94 l-157 6 -3
-59 c-2 -32 -2 -484 1 -1004 5 -872 7 -948 23 -990 10 -25 27 -56 38 -70 l21
-25 -6 35 c-3 19 -10 61 -15 93 -11 65 -17 1839 -6 1857 14 23 306 6 430 -26
201 -52 345 -193 446 -437 20 -50 42 -93 47 -95 6 -2 13 15 17 36 3 22 17 50
30 62 35 33 37 60 25 241 -19 274 -34 402 -47 407 -10 3 -13 -16 -13 -72z
m-648 -22 c93 -13 34 -24 -127 -24 -159 0 -186 5 -169 31 7 12 192 7 296 -7z"/>
<path d="M112 7193 c2 -13 22 -23 69 -34 36 -9 72 -19 78 -24 24 -14 -6 -27
-73 -32 -76 -7 -89 -27 -24 -37 56 -9 127 -41 160 -73 31 -30 43 -56 62 -141
8 -35 22 -72 32 -83 25 -28 33 -223 34 -919 1 -383 5 -594 11 -575 5 17 8 378
7 857 -2 455 1 817 5 805 20 -53 26 -291 27 -995 1 -482 5 -763 11 -782 15
-41 34 -29 70 46 30 62 31 71 40 257 5 105 8 494 7 862 -3 755 3 700 -83 772
-63 53 -142 93 -182 93 -31 0 -33 -2 -23 -20 13 -24 7 -25 -25 -4 -31 20 -120
44 -168 44 -31 0 -38 -3 -35 -17z"/>
<path d="M1517 7204 c-15 -15 9 -33 56 -45 107 -24 111 -44 12 -54 -78 -9 -86
-27 -18 -45 26 -6 54 -16 61 -22 7 -6 30 -14 50 -18 27 -4 37 -11 36 -23 -3
-30 15 -7 22 28 9 48 -1 78 -37 120 -39 44 -158 83 -182 59z"/>
<path d="M12807 7189 c-147 -11 -289 -39 -362 -73 -127 -58 -236 -213 -286
-406 -12 -47 -23 -88 -25 -92 -10 -16 -34 6 -35 31 -1 25 -1 24 -10 -6 -13
-45 2 -158 20 -158 8 0 19 14 24 30 5 17 18 42 29 57 10 14 31 58 47 97 36 90
129 212 199 262 112 79 256 112 502 113 l165 1 5 -885 c3 -542 8 -852 13 -800
4 47 7 459 5 915 -2 655 -6 830 -15 831 -7 1 -93 2 -190 3 -222 1 -221 17 1
33 142 11 158 14 178 35 l21 23 -84 -1 c-46 -1 -137 -6 -202 -10z"/>
<path d="M852 7123 c-52 -26 -92 -78 -92 -121 0 -46 10 -82 21 -82 5 0 16 17
24 37 9 21 30 59 47 86 17 27 32 59 34 73 1 13 2 24 1 24 -1 0 -17 -8 -35 -17z"/>
<path d="M8830 6893 c-49 -148 -166 -438 -213 -528 l-42 -80 -55 -6 c-106 -11
-130 -19 -130 -39 0 -10 5 -22 11 -25 6 -4 9 -26 7 -49 l-3 -41 69 -3 69 -3
43 46 c46 50 125 196 167 310 48 130 137 455 137 500 0 8 -6 15 -14 15 -9 0
-26 -35 -46 -97z"/>
<path d="M7115 6950 c-155 -31 -282 -121 -396 -282 -279 -397 -315 -980 -85
-1396 16 -28 31 -50 33 -48 2 2 -7 30 -20 62 -85 203 -123 442 -105 658 11
134 35 216 115 398 131 298 244 416 445 463 130 30 280 15 390 -41 117 -59
196 -161 338 -432 47 -89 91 -162 98 -162 7 0 12 13 12 31 0 21 11 43 32 67
l31 36 -7 181 c-17 411 -22 465 -47 449 -8 -5 -4 -488 5 -613 1 -8 -6 -17 -15
-19 -12 -2 -24 20 -49 90 -115 321 -287 509 -508 557 -59 12 -206 13 -267 1z
m233 -40 c94 -16 218 -68 200 -85 -2 -3 -49 2 -104 10 -54 8 -170 18 -256 22
-87 3 -155 9 -153 13 6 10 118 39 165 43 69 7 86 7 148 -3z"/>
<path d="M9640 6951 c-164 -50 -273 -229 -240 -395 12 -63 30 -104 61 -145 23
-29 24 -20 5 44 -43 140 -28 214 56 290 66 59 132 79 243 73 70 -4 91 -9 146
-39 104 -58 167 -151 289 -428 25 -57 50 -106 56 -108 7 -2 15 13 19 34 3 21
18 50 32 65 l26 27 -7 272 c-6 255 -13 318 -36 304 -6 -4 -7 -119 -3 -290 6
-276 6 -285 -13 -285 -16 0 -25 20 -52 111 -74 252 -201 418 -357 464 -50 16
-182 19 -225 6z m269 -67 c59 -27 93 -52 86 -64 -2 -4 -44 2 -92 13 -60 13
-128 20 -210 21 -68 1 -123 4 -123 7 0 10 61 37 106 49 61 15 171 3 233 -26z"/>
<path d="M20108 6944 c-102 -24 -176 -69 -268 -163 -91 -93 -132 -154 -185
-278 -86 -198 -120 -401 -112 -653 8 -216 35 -333 113 -493 56 -115 80 -137
39 -37 -151 375 -136 816 41 1161 82 159 182 256 319 310 54 21 76 23 215 23
135 0 163 -3 214 -22 84 -31 146 -74 213 -146 120 -130 159 -223 289 -701 8
-27 17 -81 22 -120 l8 -70 8 90 c13 156 -17 385 -75 565 -33 100 -113 248
-174 323 -96 116 -189 178 -320 212 -74 19 -267 19 -347 -1z m375 -54 c36 -11
76 -29 89 -40 l23 -19 -65 7 c-97 11 -459 7 -507 -5 -59 -15 -54 1 9 33 110
56 313 67 451 24z"/>
<path d="M3556 6935 c-3 -9 -18 -15 -39 -15 -85 0 -177 -49 -221 -118 -50 -80
-51 -95 -51 -862 0 -760 2 -798 48 -872 17 -27 22 -30 25 -15 2 10 -1 47 -7
81 -13 72 -14 1387 -2 1474 12 87 68 141 167 163 30 7 54 16 54 20 0 5 -17 11
-37 14 -120 19 -115 26 47 76 38 12 46 19 48 42 4 29 -21 39 -32 12z"/>
<path d="M15546 6935 c-3 -9 -18 -15 -39 -15 -106 0 -210 -70 -248 -168 -22
-55 -23 -72 -27 -404 l-4 -348 34 1 c30 2 31 2 5 6 l-27 4 18 27 c17 24 20 55
25 302 4 151 10 288 13 304 11 48 75 103 141 122 79 22 84 31 21 39 -76 10
-88 19 -52 38 16 8 56 22 88 31 57 14 76 27 76 53 0 19 -17 25 -24 8z"/>
<path d="M16947 6936 c-4 -10 -19 -16 -41 -16 -111 0 -220 -81 -253 -186 -17
-55 -18 -113 -18 -799 0 -675 2 -745 17 -796 10 -31 27 -67 39 -80 l20 -24 -5
35 c-26 177 -28 266 -23 884 3 447 8 662 16 687 17 56 87 114 155 130 31 7 56
15 56 19 0 4 -26 12 -57 16 -95 15 -82 29 67 75 29 9 46 21 48 33 5 24 -13 43
-21 22z"/>
<path d="M23800 6941 c0 -6 -17 -13 -37 -16 -91 -14 -146 -37 -194 -82 -89
-83 -83 -15 -87 -1040 l-3 -903 -24 0 c-28 0 -34 15 -10 24 20 7 19 33 -7 132
-21 81 -24 86 -113 182 -50 55 -127 144 -171 198 -43 54 -90 109 -103 123 -13
14 -51 60 -84 101 -33 41 -62 77 -66 80 -3 3 -53 64 -110 135 -58 72 -118 146
-135 166 -17 19 -67 79 -111 133 -44 54 -87 107 -95 116 -8 10 -58 71 -110
136 -123 154 -204 239 -243 258 -34 16 -54 30 -124 89 -47 40 -59 44 -66 25
-6 -20 41 -152 61 -166 16 -12 17 -65 23 -735 5 -737 7 -766 45 -812 15 -19
15 -19 8 10 -10 43 -17 906 -9 1051 4 66 10 127 15 134 11 18 103 -54 205
-161 44 -46 246 -293 449 -549 203 -256 392 -492 420 -525 109 -130 260 -286
282 -291 39 -10 61 4 67 43 4 20 17 47 29 60 l23 25 -3 761 c-4 780 2 968 33
1027 20 39 86 87 139 101 72 18 73 22 8 34 -34 7 -65 15 -68 18 -9 9 67 44
114 52 44 7 72 27 72 50 0 8 -4 17 -10 20 -5 3 -10 2 -10 -4z m-1740 -321 c30
-43 18 -37 -16 7 -15 20 -23 33 -16 29 6 -3 21 -20 32 -36z"/>
<path d="M5895 6930 c-3 -5 -24 -10 -45 -10 -90 0 -192 -64 -233 -146 -34 -66
-37 -154 -37 -1016 l0 -858 -33 0 c-31 0 -47 19 -332 378 -346 436 -741 932
-964 1212 -85 107 -156 197 -158 199 -2 2 -4 2 -5 0 -2 -2 -1 -346 2 -764 6
-787 7 -803 47 -845 13 -13 13 -5 6 60 -10 97 -10 1050 0 1113 8 46 10 48 26
33 10 -9 21 -16 25 -16 17 0 151 -127 220 -209 40 -47 241 -297 446 -556 421
-531 407 -513 543 -653 89 -91 105 -103 131 -100 26 3 32 9 43 46 6 23 21 54
33 69 21 27 21 27 14 722 -6 686 1 1001 25 1065 17 43 81 95 141 113 77 24 80
30 16 38 -31 4 -59 11 -61 16 -8 13 35 36 90 50 68 16 85 26 85 49 0 21 -15
27 -25 10z"/>
<path d="M25583 6719 c3 -124 7 -232 9 -239 2 -8 -4 -15 -12 -17 -12 -3 -19
11 -28 54 -7 32 -15 69 -18 83 -4 17 -3 21 4 12 7 -10 11 -10 22 3 11 14 12
33 3 106 -19 145 -28 155 -173 185 -92 19 -146 14 -136 -12 4 -11 1 -14 -12
-10 -62 20 -156 26 -388 26 l-264 0 0 -450 c0 -247 3 -450 8 -450 4 0 17 16
29 34 22 34 22 39 20 372 l-2 338 35 9 c19 5 130 7 245 4 219 -4 268 -13 359
-59 91 -46 194 -173 244 -299 16 -39 33 -71 38 -72 5 -1 10 13 12 32 2 23 14
44 34 63 l31 29 -7 107 c-13 218 -29 347 -44 362 -13 13 -14 -12 -9 -211z
m-507 141 c51 -5 105 -15 120 -21 l29 -12 -40 -8 c-68 -14 -315 -22 -428 -14
-111 7 -127 14 -113 50 4 13 33 15 173 15 92 0 209 -5 259 -10z"/>
<path d="M12103 6890 c0 -25 2 -35 4 -22 2 12 2 32 0 45 -2 12 -4 2 -4 -23z"/>
<path d="M2612 6903 c2 -12 22 -23 63 -33 64 -17 85 -26 85 -39 0 -9 -82 -31
-115 -31 -37 0 -30 -17 10 -24 92 -18 144 -59 175 -142 11 -30 20 -58 20 -63
0 -4 8 -23 18 -42 15 -31 17 -89 22 -646 3 -336 9 -615 13 -619 4 -4 6 320 5
722 l-3 729 -28 57 c-16 32 -45 71 -65 88 -62 51 -208 82 -200 43z"/>
<path d="M3722 6903 c2 -10 14 -21 28 -25 14 -4 45 -13 69 -20 68 -20 62 -34
-18 -48 -39 -6 -71 -15 -71 -19 0 -4 24 -13 53 -20 88 -19 122 -50 172 -154
25 -51 49 -117 54 -147 7 -48 9 -37 10 81 1 174 -12 223 -79 289 -50 51 -119
80 -188 80 -26 0 -33 -4 -30 -17z"/>
<path d="M5212 6903 c2 -12 22 -23 63 -33 77 -20 95 -27 95 -38 0 -10 -89 -32
-128 -32 -37 0 -17 -13 49 -33 31 -10 68 -26 81 -36 35 -28 109 -139 124 -186
12 -39 13 -37 13 51 1 125 -18 184 -79 244 -50 51 -119 80 -188 80 -26 0 -33
-4 -30 -17z"/>
<path d="M14584 6908 c-11 -17 21 -35 74 -42 49 -6 93 -29 80 -41 -3 -3 -40
-9 -82 -12 -108 -8 -117 -34 -16 -46 60 -7 122 -38 143 -70 9 -13 23 -49 32
-78 9 -30 23 -67 32 -82 26 -48 32 -202 33 -762 0 -352 4 -535 10 -525 13 20
13 1320 0 1417 -11 87 -35 137 -89 186 -58 52 -197 88 -217 55z"/>
<path d="M15995 6910 c-11 -18 5 -29 63 -40 31 -7 65 -16 75 -21 37 -20 22
-27 -118 -52 -24 -5 -13 -10 51 -26 87 -23 143 -81 164 -173 7 -29 17 -56 22
-59 14 -9 27 -123 29 -249 0 -63 5 -140 9 -170 5 -33 7 74 6 265 -3 370 -5
384 -85 459 -63 58 -196 99 -216 66z"/>
<path d="M17112 6904 c2 -13 20 -23 66 -35 60 -16 92 -33 81 -43 -3 -3 -35
-11 -72 -18 -37 -7 -67 -16 -67 -19 0 -4 17 -10 38 -14 98 -17 157 -71 182
-166 7 -24 17 -53 23 -64 26 -49 30 -124 36 -695 l7 -605 0 740 -1 740 -25 49
c-44 87 -109 128 -224 143 -43 5 -48 4 -44 -13z"/>
<path d="M21615 6910 c-10 -16 9 -27 68 -40 53 -11 87 -26 87 -38 0 -10 -81
-32 -115 -32 -14 0 -25 -4 -25 -10 0 -5 7 -10 15 -10 32 0 112 -34 138 -58 32
-30 100 -164 118 -232 8 -31 14 -232 19 -625 l6 -580 -1 710 c-1 577 -4 717
-15 748 -18 50 -83 123 -131 148 -49 24 -153 37 -164 19z"/>
<path d="M23102 6904 c2 -13 20 -23 63 -34 121 -32 125 -44 20 -61 -80 -12
-88 -22 -28 -34 76 -14 121 -44 170 -114 81 -114 77 -91 84 -601 l5 -455 0
552 c-1 304 2 543 6 532 13 -35 36 -21 58 38 33 88 35 110 14 121 -11 5 -48
13 -83 17 -62 7 -64 6 -58 -15 5 -21 5 -21 -26 3 -55 42 -96 58 -163 64 -61 6
-66 5 -62 -13z"/>
<path d="M23962 6904 c2 -13 20 -23 66 -35 60 -16 92 -33 81 -43 -3 -3 -35
-11 -72 -18 -37 -7 -67 -15 -67 -19 0 -3 23 -11 52 -17 77 -18 117 -47 144
-106 13 -28 27 -67 30 -86 4 -19 11 -38 17 -41 21 -14 26 -123 27 -649 1 -300
5 -570 10 -600 4 -31 9 214 11 550 4 679 4 808 -5 853 -3 20 -2 26 3 17 25
-43 30 -183 33 -875 l3 -730 -22 -36 c-12 -19 -49 -56 -83 -82 -38 -30 -60
-54 -60 -67 0 -18 -7 -20 -84 -20 -89 0 -114 -12 -81 -37 11 -7 38 -13 61 -13
69 0 80 -9 44 -35 -17 -13 -47 -26 -66 -29 -38 -8 -46 -26 -11 -26 53 -1 227
-21 343 -40 l124 -21 128 21 c221 36 420 44 772 29 210 -8 325 -9 345 -2 23 7
33 20 45 54 8 25 23 56 33 69 15 22 17 54 17 312 0 240 -2 288 -14 288 -15 0
-21 -56 -32 -334 -7 -173 -16 -183 -35 -40 -16 124 -17 126 -45 72 -37 -72
-85 -111 -219 -177 -92 -46 -123 -65 -119 -76 5 -13 -28 -15 -256 -15 -221 0
-261 2 -257 14 8 20 -15 36 -133 96 -58 29 -126 68 -152 88 -55 41 -65 75 -48
161 10 54 20 77 20 50 1 -10 3 -10 10 3 12 19 17 124 25 440 5 200 4 232 -11
260 -13 25 -15 44 -8 92 4 34 8 203 8 376 1 310 1 315 -19 312 -11 -2 -34 -6
-51 -9 -33 -5 -60 6 -154 63 -100 61 -151 62 -119 2 11 -22 10 -22 -17 3 -44
40 -87 59 -155 66 -56 6 -61 5 -57 -13z m1784 -2002 c-12 -11 -18 7 -10 30 l8
23 4 -23 c2 -13 1 -26 -2 -30z m-432 -60 c3 -5 -18 -17 -47 -28 -75 -27 -303
-28 -365 0 -23 10 -39 23 -36 27 7 11 441 12 448 1z"/>
<path d="M17750 6425 l0 -485 23 1 c18 0 19 2 5 7 -17 7 -16 10 3 41 20 33 21
46 19 390 -1 196 -1 361 -1 367 3 34 219 20 307 -20 95 -44 155 -124 184 -244
8 -34 23 -65 41 -83 16 -16 29 -35 29 -42 0 -7 4 -6 10 3 15 23 12 139 -5 205
-49 189 -171 307 -345 335 -36 5 -111 10 -167 10 l-103 0 0 -485z m191 435
c52 -5 109 -15 125 -21 l29 -12 -40 -8 c-22 -4 -88 -8 -147 -8 -98 -1 -107 1
-113 19 -14 43 -5 45 146 30z"/>
<path d="M12101 6814 c0 -11 3 -14 6 -6 3 7 2 16 -1 19 -3 4 -6 -2 -5 -13z"/>
<path d="M18720 6615 c26 -76 35 -186 20 -265 -37 -202 -181 -340 -420 -401
l-44 -11 54 -26 c94 -44 123 -85 262 -364 129 -257 212 -415 229 -433 6 -5
-44 100 -109 235 -115 235 -192 419 -192 457 0 11 23 41 51 68 56 55 126 148
157 210 52 105 80 341 52 446 -13 49 -59 139 -71 139 -4 0 1 -25 11 -55z"/>
<path d="M4280 6495 c19 -37 86 -123 131 -168 16 -15 32 -35 38 -45 5 -9 12
-14 15 -11 4 3 -2 15 -11 27 -46 54 -53 63 -53 70 0 4 -10 19 -23 33 -37 44
-82 101 -90 115 -17 30 -24 12 -7 -21z"/>
<path d="M21284 6410 c2 -8 19 -48 35 -89 88 -210 94 -502 15 -723 -57 -158
-133 -278 -259 -404 -170 -171 -382 -286 -613 -330 -159 -30 -392 -12 -544 42
-417 150 -686 479 -742 910 l-13 99 -9 -70 c-5 -38 -8 -119 -8 -180 0 -97 4
-121 32 -202 119 -348 338 -573 674 -691 253 -90 563 -88 818 3 338 122 605
384 698 685 48 157 67 279 66 435 -1 177 -22 280 -83 409 -34 72 -81 146 -67
106z m-1014 -1605 c69 0 161 4 205 8 73 7 78 6 61 -8 -53 -41 -128 -59 -256
-59 -108 -1 -133 2 -187 23 -34 13 -68 30 -74 38 -11 12 -3 13 57 6 38 -4 125
-8 194 -8z"/>
<path d="M9144 6365 c-5 -11 -9 -68 -9 -126 0 -104 0 -106 43 -193 75 -151
178 -244 439 -394 274 -158 329 -207 385 -349 7 -19 20 -33 30 -33 9 0 23 -9
31 -20 14 -20 15 -20 21 11 24 119 -31 292 -123 386 -60 60 -138 111 -341 218
-91 48 -192 106 -224 128 -120 81 -190 180 -225 319 -15 59 -20 69 -27 53z"/>
<path d="M25137 6183 c-4 -87 -7 -263 -7 -391 0 -217 -1 -233 -17 -230 -13 2
-20 17 -24 53 -4 28 -9 64 -13 81 -6 27 -4 32 11 30 16 -1 18 9 17 104 0 58
-6 125 -13 149 l-12 44 -42 -6 c-87 -12 -150 -30 -166 -46 -16 -16 -34 -17
-151 -13 l-133 5 6 -319 c7 -346 16 -421 62 -500 39 -66 44 -60 22 24 -17 65
-21 120 -24 344 l-5 268 29 11 c48 19 153 6 214 -27 70 -38 139 -136 176 -252
28 -83 45 -100 51 -46 2 16 12 38 22 49 45 50 45 61 33 553 -4 199 -9 272 -18
272 -8 0 -14 -47 -18 -157z m-332 -293 c10 -17 -122 -16 -139 1 -6 5 18 9 61
9 40 0 75 -4 78 -10z"/>
<path d="M1000 6157 c-14 -7 -24 -20 -24 -29 1 -9 -4 -14 -10 -12 -7 3 -38
-21 -70 -53 l-58 -58 5 -380 c4 -311 8 -391 21 -439 17 -61 54 -131 64 -122 2
3 -1 34 -9 68 -10 45 -14 137 -14 321 l0 258 25 19 c60 46 140 12 248 -106 78
-85 296 -364 363 -465 84 -127 78 -121 109 -114 17 4 31 2 35 -5 6 -9 10 -9
16 1 14 22 11 55 -10 114 l-19 54 40 -42 c36 -38 40 -40 50 -23 6 10 8 38 4
62 -12 94 -104 237 -396 619 -52 68 -111 146 -130 172 -61 83 -114 135 -155
154 -48 22 -53 22 -85 6z"/>
<path d="M782 6038 c-7 -7 -12 -26 -12 -42 1 -30 1 -30 15 9 15 43 15 51 -3
33z"/>
<path d="M16197 6003 c18 -2 50 -2 70 0 21 2 7 4 -32 4 -38 0 -55 -2 -38 -4z"/>
<path d="M15233 5553 c2 -247 8 -390 15 -413 13 -38 51 -104 57 -98 2 2 -3 46
-11 98 -14 99 -17 374 -6 530 l7 84 45 13 c35 10 137 13 446 11 444 -3 429 -1
440 -70 9 -51 24 -59 24 -12 0 26 3 35 10 28 6 -6 13 -95 16 -215 10 -335 22
-291 23 79 l1 342 -536 0 -536 0 5 -377z"/>
<path d="M17752 5533 l3 -378 29 -58 c15 -32 30 -56 33 -53 3 3 0 49 -7 103
-13 107 -11 575 3 589 14 14 111 8 143 -8 52 -28 93 -78 174 -215 90 -150 161
-288 250 -488 74 -166 116 -242 139 -254 21 -11 475 -21 492 -10 17 10 12 15
-42 42 -24 12 -43 27 -42 32 1 6 27 13 58 16 30 4 62 12 70 19 17 14 20 50 5
50 -5 0 -10 -5 -10 -11 0 -7 -77 -9 -251 -7 l-251 4 -14 27 c-8 15 -51 109
-95 209 -207 467 -336 676 -453 732 -44 21 -124 36 -188 36 l-49 0 3 -377z
m166 311 c34 -10 26 -21 -19 -27 -44 -6 -89 6 -89 23 0 11 71 13 108 4z"/>
<path d="M6105 5845 c-6 -33 -10 -134 -10 -225 0 -160 1 -168 32 -257 143
-410 396 -609 828 -653 300 -31 661 29 871 144 35 20 83 39 107 42 45 8 57 17
57 50 0 11 11 35 25 54 24 33 25 38 25 209 0 121 4 184 13 201 16 32 78 66
133 75 44 6 66 22 42 29 -7 3 -39 7 -70 11 -32 4 -58 10 -58 15 0 12 68 37
122 45 53 8 84 35 74 62 -7 16 -8 16 -16 2 -7 -11 -31 -18 -79 -23 -92 -9
-149 -39 -179 -93 -31 -57 -46 -201 -37 -362 6 -118 6 -123 -12 -116 -10 5
-35 10 -56 13 -32 4 -50 -4 -120 -46 -98 -61 -206 -105 -336 -139 -130 -34
-380 -43 -521 -19 -186 33 -335 96 -476 202 -200 151 -325 415 -343 724 l-7
115 -9 -60z m1295 -1041 c0 -3 -26 -17 -57 -32 -51 -23 -71 -26 -163 -26 -92
0 -111 3 -155 24 l-50 25 170 5 c94 3 189 7 213 8 23 1 42 0 42 -4z"/>
<path d="M10354 5745 c40 -98 49 -145 50 -255 1 -94 -3 -129 -22 -190 -54
-174 -164 -307 -315 -380 -121 -58 -202 -73 -367 -67 -149 6 -205 19 -363 88
-115 50 -149 50 -193 4 -18 -19 -37 -35 -43 -35 -7 0 -11 48 -13 128 l-3 127
-13 -135 c-17 -181 -4 -291 31 -265 61 43 71 48 110 47 23 0 80 -15 127 -32
158 -58 240 -73 405 -74 162 0 229 12 332 60 119 57 232 168 292 290 60 119
97 377 72 507 -12 66 -56 170 -79 189 -14 11 -15 10 -8 -7z m-764 -931 c47 -8
122 -14 168 -14 45 0 82 -4 82 -9 0 -22 -96 -46 -176 -45 -67 0 -91 5 -136 27
-30 15 -63 37 -74 48 l-19 22 35 -7 c19 -4 73 -14 120 -22z"/>
<path d="M7335 5626 c-18 -13 -18 -14 1 -23 10 -6 43 -13 73 -17 69 -9 128
-33 115 -46 -6 -6 -48 -15 -94 -21 -47 -5 -86 -12 -88 -13 -1 -2 26 -9 60 -15
97 -19 144 -45 175 -99 15 -26 35 -56 45 -66 10 -11 18 -27 19 -35 1 -38 18
28 18 75 1 61 -19 131 -49 174 -27 39 -101 76 -165 85 -28 3 -59 8 -71 10 -11
3 -29 -1 -39 -9z"/>
<path d="M9140 5488 c0 -14 63 -185 77 -208 9 -16 12 -18 8 -5 -50 153 -68
202 -76 210 -5 5 -9 6 -9 3z"/>
<path d="M23412 5420 c0 -14 2 -19 5 -12 2 6 2 18 0 25 -3 6 -5 1 -5 -13z"/>
<path d="M21911 5204 c0 -11 3 -14 6 -6 3 7 2 16 -1 19 -3 4 -6 -2 -5 -13z"/>
<path d="M19571 5118 c2 -2 18 -14 34 -28 l30 -25 -24 28 c-14 15 -29 27 -34
27 -6 0 -8 -1 -6 -2z"/>
<path d="M514 5098 c-10 -6 -33 -24 -51 -41 -17 -16 -60 -48 -95 -71 -41 -27
-64 -49 -66 -64 -3 -21 -8 -22 -92 -22 -87 0 -114 -10 -91 -33 5 -5 36 -12 68
-14 32 -3 64 -6 72 -9 24 -8 -33 -43 -88 -55 -28 -6 -51 -14 -51 -19 0 -4 46
-10 102 -14 57 -3 178 -18 270 -33 l167 -27 123 22 c68 12 182 27 253 33 72 6
132 13 134 15 8 8 -8 16 -49 25 -46 10 -92 37 -85 49 2 4 41 10 85 13 44 3 87
11 95 17 17 14 20 50 5 50 -5 0 -10 -4 -10 -10 0 -6 -47 -10 -121 -10 -117 0
-121 1 -116 20 4 15 -4 27 -26 43 -43 31 -141 81 -202 102 -27 9 -59 21 -70
25 -33 14 -140 19 -161 8z"/>
<path d="M21834 5018 l-29 -33 33 29 c30 28 37 36 29 36 -2 0 -16 -15 -33 -32z"/>
<path d="M1712 4990 c-30 -29 -51 -59 -50 -68 3 -15 -9 -17 -92 -20 -52 -2
-99 -7 -105 -13 -15 -16 23 -39 64 -39 78 0 68 -37 -16 -59 -40 -11 -59 -31
-30 -31 52 0 249 -24 326 -40 111 -24 223 -25 318 -6 217 45 545 52 797 16
156 -23 162 -23 265 -6 87 13 277 34 329 36 25 0 11 19 -20 25 -42 9 -100 44
-92 56 3 5 29 9 58 9 88 0 148 33 115 64 -8 8 -13 8 -16 -1 -3 -10 -41 -13
-139 -13 -131 0 -135 1 -143 23 -5 13 -15 28 -23 35 -26 21 -131 42 -211 42
-124 0 -204 -29 -211 -75 -3 -19 -13 -20 -252 -20 -192 0 -249 3 -250 13 -1 6
-2 16 -3 21 0 5 -25 18 -53 29 -91 34 -238 60 -378 66 l-135 7 -53 -51z m1022
-149 c10 -15 -29 -40 -80 -51 -36 -8 -64 -8 -99 0 -54 12 -106 39 -99 52 7 11
271 10 278 -1z"/>
<path d="M21885 4977 c-36 -16 -57 -40 -53 -58 2 -11 -20 -15 -102 -17 -58 -1
-109 -7 -115 -13 -18 -18 25 -39 81 -39 29 0 55 -4 58 -9 8 -13 -52 -47 -96
-55 -111 -20 39 -40 297 -40 248 0 388 20 278 40 -45 8 -105 42 -97 55 3 5 29
9 58 9 30 0 68 3 85 6 36 7 60 39 42 57 -8 8 -11 8 -11 -1 0 -10 -32 -12 -127
-10 -119 3 -128 4 -128 22 0 43 -114 78 -170 53z"/>
<path d="M4007 4943 c-10 -3 -16 -11 -13 -18 7 -19 -26 -25 -151 -25 -73 0
-114 -4 -119 -12 -12 -19 28 -38 82 -38 29 0 55 -4 59 -10 7 -11 -56 -44 -105
-55 l-35 -8 55 -14 c101 -25 590 -19 590 7 0 5 -15 12 -32 15 -40 9 -100 44
-93 55 2 4 38 10 79 12 42 3 82 11 91 18 17 14 21 50 5 50 -5 0 -10 -4 -10
-10 0 -11 -237 -14 -289 -4 -17 4 -31 12 -31 19 0 19 -42 29 -83 18z"/>
<path d="M13150 4941 c-20 -5 -22 -9 -10 -16 27 -17 -28 -23 -212 -24 -172 -1
-206 -7 -181 -32 6 -6 42 -13 82 -16 39 -3 74 -9 76 -14 7 -11 -77 -49 -109
-49 -15 0 -25 -4 -22 -9 8 -13 116 -22 253 -21 111 2 123 0 142 -19 31 -31 27
-57 -9 -64 -16 -4 -37 -18 -46 -32 -16 -24 -27 -50 -155 -353 -54 -129 -67
-152 -84 -150 -14 2 -22 14 -27 38 -3 19 -27 89 -52 155 -25 66 -48 137 -52
158 -4 21 -11 36 -15 35 -8 -3 -98 -251 -130 -356 -14 -44 -50 -42 -60 3 -4
17 -15 46 -25 65 -10 19 -46 100 -79 180 l-62 145 -47 3 c-58 4 -68 -14 -29
-54 20 -19 47 -77 83 -174 72 -192 149 -344 177 -348 14 -2 23 4 28 16 3 11
28 50 55 86 28 37 57 81 66 98 16 30 17 31 30 13 8 -10 14 -23 14 -28 0 -20
103 -187 116 -187 25 0 85 111 150 278 78 199 98 237 136 253 32 13 37 43 11
58 -15 8 -12 15 27 58 24 26 49 51 54 55 6 4 46 8 89 8 44 0 92 6 112 14 38
16 139 32 268 41 87 7 111 19 60 31 -52 11 -68 17 -90 32 -13 8 -21 18 -18 22
2 4 41 10 85 13 44 3 87 11 95 17 17 14 20 50 5 50 -5 0 -10 -5 -10 -11 0 -7
-61 -10 -196 -7 -182 3 -197 4 -210 23 -13 18 -28 20 -137 22 -67 1 -133 -2
-147 -6z"/>
<path d="M15005 4930 c-22 -4 -31 -8 -20 -10 46 -7 -101 -18 -242 -19 -143 -1
-153 -2 -153 -20 0 -21 26 -31 87 -31 23 0 44 -4 47 -9 8 -12 -50 -47 -91 -56
-32 -6 -46 -25 -20 -25 65 -1 259 -24 325 -40 99 -24 174 -25 231 -5 41 14
140 29 274 41 37 3 67 9 67 14 0 4 -22 13 -49 20 -53 12 -96 46 -70 54 8 2 45
7 83 9 75 5 104 23 91 54 -5 12 -9 14 -12 6 -3 -10 -44 -13 -161 -12 -166 2
-395 14 -327 18 32 2 36 4 20 11 -23 10 -25 10 -80 0z"/>
<path d="M16950 4911 c0 -5 -203 -9 -470 -8 -343 0 -474 -3 -482 -11 -20 -20
7 -35 72 -40 33 -2 63 -8 66 -13 6 -10 -58 -44 -106 -55 l-35 -8 45 -7 c25 -4
97 -14 160 -23 63 -9 131 -21 150 -26 52 -14 175 -12 256 5 39 8 122 19 184
25 62 5 115 12 119 15 8 9 -21 25 -45 25 -11 0 -35 11 -53 24 -33 25 -33 25
-10 30 13 3 50 7 82 10 32 2 65 10 73 17 16 13 19 49 4 49 -5 0 -10 -4 -10 -9z"/>
<path d="M18070 4911 c0 -12 -54 -13 -307 -10 -170 2 -386 3 -480 1 -162 -2
-173 -3 -173 -21 0 -21 26 -31 87 -31 23 0 44 -4 47 -9 8 -13 -52 -47 -96 -55
-38 -7 -53 -26 -20 -26 59 0 256 -23 321 -37 88 -19 201 -18 281 3 42 10 238
33 293 34 4 0 7 4 7 9 0 5 -21 14 -47 21 -50 12 -86 37 -77 51 3 5 29 9 58 9
87 0 147 33 116 64 -7 7 -10 6 -10 -3z"/>
<path d="M12900 4695 c0 -9 -9 -15 -23 -15 -40 0 -61 -23 -54 -59 13 -65 69
-231 78 -231 17 0 -3 166 -24 186 -16 16 -5 44 23 59 30 15 35 29 24 59 -8 20
-24 21 -24 1z"/>
<path d="M12540 4691 c0 -5 -12 -11 -26 -13 -52 -6 -51 -26 7 -168 45 -112 55
-128 57 -102 3 30 -33 138 -62 184 -9 16 -7 23 17 42 26 21 38 66 17 66 -5 0
-10 -4 -10 -9z"/>
<path d="M16094 4686 c-3 -8 -4 -51 -2 -95 3 -70 1 -81 -13 -81 -9 0 -22 13
-29 29 -7 19 -19 29 -33 30 -90 3 -207 15 -207 21 0 16 40 41 73 47 19 3 51 0
72 -7 47 -16 57 -4 22 26 -35 30 -67 38 -115 29 -49 -9 -114 -76 -136 -141
-28 -82 -18 -220 18 -269 14 -18 15 -10 13 80 -2 112 6 135 56 165 76 47 151
16 209 -87 35 -61 58 -69 58 -20 0 22 8 41 21 53 34 30 41 63 34 151 -6 62
-11 83 -21 83 -8 0 -17 -6 -20 -14z"/>
<path d="M3800 4687 c0 -9 169 -416 185 -445 14 -26 14 -26 15 -4 0 13 -24 80
-54 150 -30 70 -68 162 -86 204 -17 42 -38 82 -46 89 -8 6 -14 9 -14 6z"/>
<path d="M18530 4670 c-18 -11 -5 -40 17 -40 25 0 47 16 39 28 -8 14 -42 21
-56 12z"/>
<path d="M18724 4671 c-5 -6 -5 -211 0 -211 3 0 17 13 33 29 18 18 45 31 72
36 51 8 49 23 -7 44 -55 20 -59 51 -7 51 39 0 44 9 18 32 -17 15 -99 29 -109
19z"/>
<path d="M12270 4656 c0 -11 9 -16 26 -16 31 0 28 23 -4 28 -15 2 -22 -2 -22
-12z"/>
<path d="M12620 4655 c0 -16 9 -19 34 -9 20 8 11 24 -15 24 -10 0 -19 -7 -19
-15z"/>
<path d="M12965 4661 c-3 -5 0 -13 5 -16 16 -10 62 4 55 15 -8 13 -52 13 -60
1z"/>
<path d="M8460 4647 c0 -5 72 -185 142 -355 16 -39 34 -69 39 -66 14 8 7 27
-88 234 -81 177 -93 201 -93 187z"/>
<path d="M18995 4563 c0 -71 -1 -76 -32 -103 -40 -36 -89 -50 -175 -50 l-68 0
0 -84 c0 -47 5 -97 11 -112 l10 -28 22 27 c17 21 35 30 81 37 67 11 94 26 129
72 27 35 77 170 77 207 0 22 -33 96 -47 104 -5 3 -8 -29 -8 -70z"/>
<path d="M9240 4618 c0 -9 -12 -19 -27 -23 -14 -3 -59 -38 -99 -77 l-73 -71
31 -43 c17 -24 34 -44 37 -44 3 0 14 14 23 30 10 17 31 38 48 48 34 20 40 42
9 42 -32 0 -20 30 25 60 51 35 63 57 42 78 -15 15 -16 15 -16 0z"/>
<path d="M14930 4617 c0 -8 -13 -17 -29 -20 -41 -8 -52 -36 -49 -112 l3 -65
27 25 c22 20 26 31 21 58 -4 28 -1 36 21 50 26 18 36 60 16 72 -5 3 -10 0 -10
-8z"/>
<path d="M15250 4617 c0 -8 -13 -17 -30 -21 -44 -8 -50 -35 -50 -219 0 -175 8
-210 34 -160 12 23 16 66 17 174 l1 144 30 28 c29 27 34 57 11 65 -7 2 -13 -3
-13 -11z"/>
<path d="M4737 4597 c-21 -11 -39 -28 -42 -40 -11 -42 -1 -360 11 -364 21 -7
35 54 35 148 -1 52 -1 105 0 119 1 14 -2 35 -6 46 -5 16 0 28 20 46 15 15 25
33 23 44 -3 19 -4 19 -41 1z"/>
<path d="M6120 4611 c0 -5 -14 -12 -30 -16 -17 -4 -35 -15 -40 -25 -13 -25
-13 -350 0 -370 9 -13 12 -12 23 5 15 25 26 262 13 293 -8 19 -4 28 22 55 33
34 39 51 22 62 -5 3 -10 2 -10 -4z"/>
<path d="M6647 4614 c-4 -4 -7 -43 -7 -86 0 -61 -3 -78 -14 -78 -8 0 -17 8
-20 18 -4 13 -16 19 -39 19 -17 0 -62 1 -99 3 -73 3 -83 13 -47 46 17 15 34
19 82 17 l61 -3 -26 26 c-19 19 -37 27 -66 28 -123 3 -201 -189 -135 -332 l17
-37 6 87 c6 98 20 123 78 134 46 9 96 -18 130 -69 27 -40 54 -46 60 -12 2 11
15 32 28 46 23 24 25 33 22 109 -3 76 -12 102 -31 84z"/>
<path d="M7809 4613 c-2 -4 -17 -15 -34 -23 l-30 -16 -3 -217 c-2 -202 -4
-217 -21 -217 -18 0 -51 29 -51 44 0 5 -23 33 -51 64 -28 31 -87 102 -132 159
-44 56 -84 100 -89 97 -8 -5 -1 -273 8 -303 4 -12 12 -4 51 48 4 6 42 -43 43
-55 0 -7 -7 -14 -15 -18 -8 -3 -15 -14 -15 -24 0 -17 -8 -19 -103 -17 -57 1
-108 4 -114 8 -7 4 -14 3 -17 -2 -3 -4 -46 -6 -95 -3 -49 2 -109 2 -135 -2
-64 -10 -61 -29 12 -72 8 -5 -13 -34 -29 -39 -10 -4 -19 -15 -19 -25 0 -16 67
-140 76 -140 2 0 -6 21 -17 47 -29 68 -24 73 79 73 108 0 126 11 81 52 -16 15
-28 32 -25 37 7 11 101 22 137 14 37 -7 39 -36 4 -59 -14 -9 -25 -20 -25 -25
0 -5 38 -9 85 -9 67 0 85 3 85 14 0 8 -9 17 -19 21 -21 6 -34 31 -25 46 3 5
16 9 30 9 37 0 64 18 79 52 l13 31 86 -89 c82 -85 87 -88 101 -70 8 11 15 31
15 45 0 14 11 36 24 50 24 26 25 29 27 230 l3 204 28 30 c29 28 32 47 11 54
-6 2 -13 0 -14 -4z"/>
<path d="M9601 4613 c0 -6 -15 -14 -31 -18 -17 -4 -35 -15 -40 -25 -12 -22
-13 -349 -1 -368 6 -10 12 -7 24 11 13 19 17 57 19 173 2 128 5 153 21 175 10
15 17 35 14 45 -3 11 -5 14 -6 7z"/>
<path d="M10160 4551 c0 -64 -2 -71 -20 -71 -11 0 -20 4 -20 8 0 5 -24 7 -54
4 -43 -3 -54 -1 -60 13 -10 27 2 35 49 35 33 0 43 3 39 14 -8 20 -50 36 -94
36 l-40 0 -2 -52 c-2 -93 4 -333 10 -342 14 -24 31 46 32 130 0 62 4 95 13
102 20 17 73 -14 92 -54 14 -31 34 -45 36 -26 5 54 13 80 34 102 19 20 25 36
24 71 -1 56 -11 91 -27 97 -9 3 -12 -16 -12 -67z"/>
<path d="M13641 4558 c2 -60 2 -63 -22 -64 -13 -1 -36 -2 -51 -3 l-28 -1 0
-98 c0 -54 -3 -101 -6 -105 -12 -12 -33 6 -39 34 -8 34 -47 64 -71 55 -15 -6
-16 -17 -11 -82 4 -42 9 -80 13 -85 3 -5 20 -9 37 -9 48 0 112 62 120 116 5
32 11 41 24 40 14 -1 19 8 21 39 2 29 10 46 30 62 22 18 27 31 27 65 -1 60
-13 98 -31 98 -13 0 -15 -12 -13 -62z"/>
<path d="M14000 4611 c0 -5 -14 -12 -31 -16 -43 -10 -49 -35 -49 -198 0 -182
10 -223 39 -160 8 18 10 50 6 97 -4 45 -2 82 5 100 8 22 8 37 -1 58 -11 27 -9
32 20 62 32 33 38 50 21 61 -5 3 -10 2 -10 -4z"/>
<path d="M14564 4596 c-3 -15 -3 -49 0 -77 6 -43 5 -49 -12 -49 -10 0 -23 5
-30 12 -9 9 -12 8 -12 -5 0 -10 -7 -20 -16 -24 -14 -5 -13 -9 7 -25 42 -32 59
-40 53 -24 -4 9 5 25 22 39 25 22 28 30 26 88 -1 40 -7 68 -16 78 -13 12 -16
11 -22 -13z"/>
<path d="M17827 4614 c-4 -4 -7 -40 -7 -80 0 -53 -4 -73 -14 -77 -9 -4 -17 2
-21 14 -7 21 -20 25 -30 9 -4 -6 -19 -4 -42 5 -19 8 -57 15 -84 15 -54 0 -62
11 -24 36 19 13 39 15 80 11 30 -3 55 -2 55 2 0 4 -12 18 -26 32 -31 29 -96
31 -137 4 -88 -57 -119 -242 -58 -339 l20 -30 -2 93 c-2 90 -1 93 26 117 53
46 104 44 161 -6 43 -38 63 -38 104 1 32 30 33 32 30 112 -3 74 -13 99 -31 81z"/>
<path d="M18210 4611 c0 -5 -14 -12 -30 -16 -17 -4 -35 -15 -40 -25 -11 -20
-14 -338 -4 -364 6 -15 8 -15 20 1 9 12 14 51 14 118 1 55 5 109 9 120 5 11 4
33 -2 48 -8 25 -6 32 22 61 32 33 38 50 21 61 -5 3 -10 2 -10 -4z"/>
<path d="M20208 4613 c-1 -5 -16 -15 -33 -23 -27 -14 -31 -22 -36 -75 -10 -84
-3 -305 9 -317 20 -20 35 36 37 142 2 58 4 112 5 120 1 8 -1 27 -5 42 -5 21
-2 31 19 49 14 12 26 33 26 46 0 22 -14 32 -22 16z"/>
<path d="M22448 4613 c-1 -5 -17 -15 -35 -23 -28 -13 -163 -134 -163 -146 0
-10 64 -84 72 -84 4 0 8 7 8 15 0 7 20 31 45 52 49 41 55 53 26 53 -37 0 -31
19 19 61 27 23 50 48 50 55 0 15 -17 28 -22 17z"/>
<path d="M5240 4552 l0 -60 -46 0 c-25 0 -49 -3 -52 -7 -3 -3 -8 -51 -10 -105
-4 -94 -5 -99 -23 -89 -11 5 -19 19 -19 29 0 26 -34 60 -60 60 -18 0 -20 -7
-20 -71 0 -39 5 -79 10 -90 29 -53 146 18 159 96 5 31 11 40 26 40 17 0 20 7
20 40 1 30 8 47 28 67 19 19 27 37 26 60 -1 46 -12 81 -27 86 -9 3 -12 -13
-12 -56z"/>
<path d="M7000 4605 c0 -16 144 -361 156 -375 28 -29 15 17 -39 142 -30 68
-62 144 -72 170 -15 42 -45 83 -45 63z"/>
<path d="M9000 4591 c-34 -16 -35 -17 -37 -81 -2 -65 0 -68 11 -18 4 15 20 43
37 63 39 44 34 58 -11 36z"/>
<path d="M16424 4596 c-88 -40 -133 -211 -82 -316 l22 -45 6 87 c6 98 20 123
78 134 45 9 91 -15 143 -75 l39 -44 0 42 c0 23 -5 51 -11 63 -16 31 -86 58
-151 58 -62 0 -69 7 -38 35 17 15 31 17 86 12 71 -7 79 1 33 35 -33 25 -87 31
-125 14z"/>
<path d="M19480 4549 c0 -57 -1 -60 -22 -59 -13 1 -35 2 -50 1 l-28 -1 0 -99
c0 -55 -4 -102 -9 -106 -12 -7 -41 22 -41 41 0 21 -37 54 -60 54 -18 0 -20 -7
-20 -71 0 -85 11 -109 49 -109 55 0 115 64 123 130 2 17 9 25 23 25 16 0 21 8
23 41 2 28 11 49 28 64 18 18 24 34 24 67 0 46 -14 83 -30 83 -6 0 -10 -27
-10 -61z"/>
<path d="M21595 4603 c-26 -7 -73 -51 -91 -86 -40 -76 -37 -216 6 -269 18 -22
18 -22 13 63 -5 79 -4 87 19 113 18 21 35 29 71 33 47 6 48 5 107 -54 l60 -60
0 48 c0 46 -3 50 -40 75 -35 23 -49 26 -116 25 -66 -1 -76 1 -70 15 3 8 6 17
6 20 0 2 14 11 31 20 23 11 44 14 80 9 54 -8 65 4 26 30 -27 17 -73 26 -102
18z"/>
<path d="M22210 4595 c-37 -13 -46 -33 -49 -108 -1 -45 14 -42 23 5 3 18 20
47 37 64 39 41 35 55 -11 39z"/>
<path d="M22960 4551 l0 -59 -46 0 c-28 0 -50 -6 -55 -14 -5 -7 -9 -54 -9
-105 0 -81 -2 -91 -17 -89 -11 2 -20 16 -24 36 -8 36 -32 60 -61 60 -16 0 -18
-9 -18 -78 0 -47 5 -83 12 -90 22 -22 63 -13 106 23 33 29 42 44 48 80 5 35
10 45 25 45 15 0 19 7 19 37 0 27 8 45 27 65 21 22 27 37 26 69 -4 92 -33 110
-33 20z m-170 -241 c0 -5 -5 -10 -11 -10 -5 0 -7 5 -4 10 3 6 8 10 11 10 2 0
4 -4 4 -10z"/>
<path d="M4351 4548 c11 -29 33 -84 47 -122 23 -57 28 -64 30 -41 2 16 -13 64
-39 121 -45 100 -73 130 -38 42z"/>
<path d="M11387 4593 c-9 -8 -9 -48 -1 -56 8 -7 44 36 44 52 0 12 -33 15 -43
4z"/>
<path d="M14376 4578 c-33 -47 -15 -80 23 -44 14 13 35 26 46 28 35 6 23 33
-17 36 -28 2 -40 -2 -52 -20z"/>
<path d="M19780 4595 c0 -3 21 -58 47 -122 33 -81 49 -111 51 -95 4 25 -76
222 -90 222 -4 0 -8 -2 -8 -5z"/>
<path d="M4140 4574 c0 -9 7 -14 17 -12 25 5 28 28 4 28 -12 0 -21 -6 -21 -16z"/>
<path d="M5010 4508 c0 -80 0 -81 19 -63 12 10 21 33 23 59 l3 41 45 3 c67 4
79 10 56 28 -12 9 -44 14 -83 14 l-63 0 0 -82z"/>
<path d="M5355 4580 c-3 -5 1 -10 9 -10 9 0 16 5 16 10 0 6 -4 10 -9 10 -6 0
-13 -4 -16 -10z"/>
<path d="M5520 4505 l0 -85 26 16 c22 15 24 21 18 57 -5 35 -3 43 17 59 20 15
22 19 9 28 -8 5 -27 10 -42 10 l-28 0 0 -85z"/>
<path d="M7290 4575 c0 -17 2 -18 24 -9 18 7 12 24 -10 24 -8 0 -14 -7 -14
-15z"/>
<path d="M7630 4580 c0 -5 9 -10 21 -10 11 0 17 5 14 10 -3 6 -13 10 -21 10
-8 0 -14 -4 -14 -10z"/>
<path d="M9350 4575 c0 -17 2 -18 24 -9 23 9 20 24 -4 24 -11 0 -20 -7 -20
-15z"/>
<path d="M9743 4580 c-23 -9 -53 -58 -53 -86 0 -12 -6 -15 -24 -12 -31 6 -34
-3 -28 -74 6 -75 26 -94 47 -44 18 43 45 62 104 71 32 5 46 4 52 -6 6 -10 9
-4 9 19 0 19 -5 32 -12 32 -7 0 -30 5 -50 10 -45 13 -42 27 12 58 22 12 40 27
40 32 0 12 -67 12 -97 0z"/>
<path d="M13230 4576 c0 -22 15 -27 45 -16 33 12 24 30 -16 30 -19 0 -29 -5
-29 -14z"/>
<path d="M13418 4523 c-5 -85 3 -106 26 -71 9 14 14 32 10 41 -3 8 -1 25 6 36
9 17 20 21 65 21 30 0 55 4 55 10 0 18 -39 30 -98 30 l-60 0 -4 -67z"/>
<path d="M13755 4580 c-3 -5 3 -10 15 -10 12 0 18 5 15 10 -3 6 -10 10 -15 10
-5 0 -12 -4 -15 -10z"/>
<path d="M14687 4584 c-4 -4 -4 -10 -1 -15 6 -10 34 0 34 12 0 10 -24 12 -33
3z"/>
<path d="M14995 4580 c-8 -13 20 -24 41 -16 20 8 9 26 -16 26 -10 0 -22 -5
-25 -10z"/>
<path d="M16840 4580 c0 -5 9 -10 21 -10 11 0 17 5 14 10 -3 6 -13 10 -21 10
-8 0 -14 -4 -14 -10z"/>
<path d="M17010 4500 l0 -91 30 31 c25 26 28 34 20 51 -15 27 -4 55 23 63 22
6 22 7 3 21 -11 8 -32 15 -48 15 l-28 0 0 -90z"/>
<path d="M17965 4580 c-3 -5 3 -10 15 -10 12 0 18 5 15 10 -3 6 -10 10 -15 10
-5 0 -12 -4 -15 -10z"/>
<path d="M19085 4580 c-3 -5 1 -10 9 -10 9 0 16 5 16 10 0 6 -4 10 -9 10 -6 0
-13 -4 -16 -10z"/>
<path d="M19250 4508 c0 -80 0 -81 19 -63 12 10 21 33 23 59 l3 41 45 3 c67 4
79 10 56 28 -12 9 -44 14 -83 14 l-63 0 0 -82z"/>
<path d="M19595 4580 c-3 -5 1 -10 9 -10 9 0 16 5 16 10 0 6 -4 10 -9 10 -6 0
-13 -4 -16 -10z"/>
<path d="M20285 4581 c-3 -5 -1 -12 4 -15 13 -8 42 4 35 15 -7 12 -31 12 -39
0z"/>
<path d="M20460 4505 l0 -85 26 22 c21 19 24 28 19 59 -6 34 -4 37 26 48 27 9
30 13 19 26 -7 9 -29 15 -51 15 l-39 0 0 -85z"/>
<path d="M20835 4580 c-3 -5 1 -10 9 -10 9 0 16 5 16 10 0 6 -4 10 -9 10 -6 0
-13 -4 -16 -10z"/>
<path d="M21000 4500 l0 -89 26 24 c23 21 25 30 19 62 -6 31 -3 39 17 55 20
15 21 19 8 28 -8 5 -27 10 -42 10 l-28 0 0 -90z"/>
<path d="M21990 4575 c0 -16 9 -19 34 -9 20 8 11 24 -15 24 -10 0 -19 -7 -19
-15z"/>
<path d="M22730 4508 c0 -80 0 -81 19 -63 12 10 21 33 23 59 3 39 5 41 38 44
19 1 46 5 60 8 24 5 24 6 6 20 -12 9 -44 14 -83 14 l-63 0 0 -82z"/>
<path d="M10511 4560 c14 -31 19 -36 19 -24 0 6 -7 19 -16 30 -14 18 -14 18
-3 -6z"/>
<path d="M11537 4538 c-6 -41 -42 -88 -78 -100 -9 -3 -2 -17 22 -47 l34 -43 3
55 c2 42 8 59 27 77 28 26 33 71 11 89 -11 9 -14 3 -19 -31z"/>
<path d="M17236 4528 c5 -32 1 -55 -11 -82 -9 -20 -20 -36 -24 -36 -3 0 -14
-7 -24 -14 -17 -13 -15 -19 27 -97 47 -88 72 -123 96 -131 7 -2 11 -11 8 -19
-4 -11 -21 -13 -71 -11 l-66 4 -40 82 c-39 82 -88 146 -110 146 -8 0 -11 -28
-9 -92 l3 -93 33 -10 c17 -5 32 -15 32 -22 0 -10 -27 -13 -107 -14 -116 -1
-154 -7 -161 -27 -2 -6 10 -20 27 -29 36 -21 39 -35 9 -55 -14 -9 -19 -20 -15
-31 5 -15 23 -17 121 -17 122 0 139 7 110 48 -12 18 -11 20 12 25 20 3 31 -3
56 -34 30 -37 34 -39 90 -39 67 0 80 13 52 55 -15 23 -15 28 -3 36 8 5 21 9
29 9 9 0 26 7 38 16 21 15 24 13 63 -30 72 -79 184 -112 284 -82 116 33 129
41 138 83 5 24 18 46 38 62 29 22 30 27 24 71 -6 43 -4 48 19 64 27 17 34 50
15 62 -7 4 -16 -1 -21 -10 -5 -9 -17 -16 -26 -16 -30 0 -42 -22 -42 -78 0 -45
-3 -53 -17 -50 -10 1 -35 -5 -55 -15 -58 -27 -131 -38 -189 -27 -87 17 -147
66 -182 150 l-15 35 -11 -28 c-6 -16 -11 -40 -11 -55 0 -41 -13 -54 -43 -46
-15 3 -27 13 -27 20 0 8 -9 32 -20 54 -26 50 -25 92 1 156 25 59 21 110 -11
139 -20 18 -20 18 -14 -27z m454 -466 c0 -19 -42 -45 -70 -45 -26 0 -70 30
-70 48 0 3 32 5 70 5 39 0 70 -4 70 -8z"/>
<path d="M18520 4550 c0 -15 8 -22 29 -26 16 -3 34 -16 39 -28 9 -18 11 -16
11 20 1 39 -1 42 -30 48 -46 9 -49 8 -49 -14z"/>
<path d="M20690 4521 c0 -39 -6 -56 -26 -80 l-26 -31 24 -9 c19 -7 27 -3 45
22 26 35 31 101 9 130 -21 27 -26 21 -26 -32z"/>
<path d="M5745 4529 c9 -46 -14 -100 -54 -130 -27 -19 -29 -25 -17 -38 7 -9
32 -51 55 -93 39 -71 66 -108 57 -76 -2 7 -14 45 -26 85 l-22 72 22 43 c31 59
32 121 2 150 l-23 23 6 -36z"/>
<path d="M12610 4550 c0 -5 5 -10 10 -10 6 0 10 5 10 10 0 6 -4 10 -10 10 -5
0 -10 -4 -10 -10z"/>
<path d="M21225 4504 c0 -51 -3 -58 -38 -90 l-38 -35 52 -95 c32 -61 60 -99
75 -106 25 -12 30 -44 6 -42 -6 1 -37 2 -67 3 l-54 1 -43 86 c-43 86 -86 144
-107 144 -8 0 -11 -28 -9 -92 l3 -93 33 -10 c49 -14 41 -35 -13 -35 -41 0 -45
2 -36 18 8 14 4 27 -15 55 -14 21 -26 37 -29 37 -2 0 -13 -16 -26 -36 -18 -30
-20 -40 -11 -55 11 -17 9 -19 -25 -21 -61 -2 -67 -3 -81 -11 -22 -14 -13 -38
18 -48 35 -13 39 -38 9 -57 -16 -11 -18 -16 -9 -28 10 -11 39 -14 126 -14
l114 0 0 25 c0 14 -4 25 -10 25 -19 0 -10 18 12 23 16 5 30 -4 57 -34 34 -37
40 -39 94 -39 65 0 82 17 52 50 -22 24 -13 50 18 50 13 0 34 11 47 25 l24 25
43 -49 c61 -70 128 -101 217 -101 147 1 249 83 302 243 36 108 36 180 0 242
-15 25 -31 45 -37 45 -6 0 -6 -6 0 -18 5 -10 13 -41 17 -69 14 -107 -43 -211
-147 -268 -44 -24 -66 -29 -119 -29 -36 1 -81 8 -102 17 -51 22 -121 89 -143
137 -10 22 -22 37 -27 32 -4 -4 -12 -35 -16 -68 -7 -57 -8 -59 -36 -59 -30 0
-35 6 -56 65 -27 79 -28 97 -8 142 27 57 27 123 2 148 -19 19 -19 19 -19 -36z
m482 -439 c2 -1 -6 -11 -17 -23 -39 -41 -102 -41 -140 0 -11 12 -20 25 -20 29
0 6 170 0 177 -6z"/>
<path d="M3695 4481 c-16 -39 -25 -74 -22 -77 11 -11 57 6 57 21 0 18 5 18 31
5 18 -10 18 -9 -2 47 -12 32 -25 62 -29 66 -4 5 -20 -23 -35 -62z"/>
<path d="M8336 4479 c-14 -38 -26 -72 -26 -75 0 -12 43 -1 57 15 13 16 21 18
36 9 16 -8 19 -7 15 3 -3 8 -14 38 -24 67 -10 28 -22 52 -25 52 -4 0 -18 -32
-33 -71z"/>
<path d="M22659 4548 c0 -2 -4 -78 -8 -170 -6 -128 -12 -173 -24 -192 -15 -23
-16 -26 -1 -34 12 -7 6 -11 -27 -15 -25 -3 -49 -1 -56 5 -9 7 -17 7 -26 0 -7
-6 -38 -8 -77 -5 -48 5 -59 8 -42 14 12 5 22 12 22 17 0 10 -57 63 -91 84
l-26 17 3 -37 c3 -31 2 -34 -9 -21 -6 9 -37 48 -66 87 -30 40 -59 72 -63 72
-4 0 -8 -37 -9 -82 0 -56 -3 -76 -9 -63 -13 30 -11 117 3 145 10 20 10 27 -3
41 -8 9 -20 24 -27 35 -20 31 -31 1 -38 -105 -3 -53 -13 -116 -22 -140 -12
-33 -13 -45 -3 -51 6 -4 -10 -10 -38 -14 -62 -8 -75 -30 -32 -54 35 -20 38
-37 10 -52 -24 -13 -26 -35 -5 -44 20 -7 470 -7 490 0 16 7 21 34 5 34 -14 0
-50 42 -44 52 3 4 34 8 70 8 51 0 66 -4 71 -17 4 -10 -2 -23 -16 -35 -14 -10
-21 -24 -17 -33 4 -12 30 -15 153 -14 81 1 175 4 208 8 59 6 59 6 67 45 5 21
17 51 29 67 33 46 36 179 5 179 -9 0 -15 -22 -18 -70 -3 -39 -7 -72 -9 -73 -2
-1 -67 0 -144 4 -77 3 -131 6 -119 7 32 3 35 12 13 42 -27 36 -38 91 -32 155
3 29 0 77 -6 106 -7 30 -14 64 -17 77 -2 12 -9 22 -14 22 -6 0 -10 -1 -11 -2z
m-446 -378 c9 0 17 -7 17 -15 0 -11 -11 -15 -42 -14 -24 1 -35 3 -25 6 19 5
22 18 7 28 -5 3 -10 11 -10 17 0 6 8 4 18 -5 10 -10 26 -17 35 -17z m82 -9
c-3 -5 3 -12 12 -14 10 -3 3 -5 -14 -6 -23 -1 -33 4 -33 14 0 8 9 15 21 15 11
0 18 -4 14 -9z m615 -89 c0 -5 -9 -17 -19 -26 -26 -23 -114 -19 -119 6 -2 12
5 18 25 21 52 8 113 7 113 -1z m-656 -31 c3 -5 -1 -11 -9 -15 -15 -6 -29 7
-18 18 9 9 21 8 27 -3z"/>
<path d="M10534 4505 c31 -92 112 -274 114 -258 2 10 -22 75 -53 143 -50 112
-79 166 -61 115z"/>
<path d="M16731 4484 c19 -48 15 -144 -8 -195 -95 -212 -391 -217 -490 -8
l-21 44 -11 -28 c-40 -103 32 -243 153 -298 27 -12 65 -19 112 -19 91 0 155
31 223 106 39 45 53 71 75 142 14 48 26 107 26 132 0 49 -27 117 -54 139 -15
13 -16 12 -5 -15z m-227 -414 l61 0 -28 -27 c-37 -38 -109 -40 -138 -4 -27 34
-24 44 12 37 17 -3 59 -6 93 -6z"/>
<path d="M13234 4476 c-8 -21 4 -36 28 -36 11 0 27 -8 34 -17 12 -16 13 -15
14 14 0 35 -2 37 -43 47 -20 5 -29 2 -33 -8z"/>
<path d="M14400 4480 c20 -13 33 -13 25 0 -3 6 -14 10 -23 10 -15 0 -15 -2 -2
-10z"/>
<path d="M19064 4476 c-8 -22 4 -36 32 -36 14 0 27 -7 31 -16 5 -13 7 -13 14
-2 20 30 5 53 -39 63 -24 5 -33 3 -38 -9z"/>
<path d="M20274 4475 c-7 -18 10 -35 38 -35 9 0 21 -12 26 -27 10 -26 10 -24
11 20 1 40 -2 47 -18 47 -11 0 -26 3 -35 6 -10 4 -18 -1 -22 -11z"/>
<path d="M4135 4471 c-3 -6 6 -16 21 -21 15 -6 33 -18 41 -28 12 -15 13 -13
11 18 -3 31 -6 35 -35 38 -17 2 -34 -2 -38 -7z"/>
<path d="M4250 4351 c0 -73 4 -141 10 -151 5 -10 21 -21 35 -24 15 -4 25 -13
25 -24 0 -15 -12 -17 -107 -17 -76 0 -107 4 -110 13 -7 18 -23 15 -23 -4 0
-14 -7 -15 -37 -10 -21 3 -51 6 -68 7 -16 0 -24 3 -17 6 22 9 13 40 -24 85
-42 51 -54 57 -54 30 0 -59 -14 -52 -40 19 l-28 74 -82 0 -83 0 -24 -65 c-19
-50 -22 -69 -14 -87 11 -24 41 -32 41 -12 0 8 13 9 40 5 22 -3 60 -1 84 5 53
13 80 2 81 -33 0 -19 -7 -25 -44 -33 -55 -12 -62 -30 -22 -52 36 -21 39 -35 9
-55 -14 -9 -19 -20 -15 -31 5 -15 23 -17 126 -17 66 0 126 3 135 6 17 7 22 34
6 34 -16 0 -51 40 -45 50 4 6 21 10 38 11 18 0 40 4 51 8 28 11 86 -10 86 -31
0 -10 -12 -25 -26 -35 -25 -16 -25 -17 -8 -30 11 -8 45 -13 86 -13 55 0 70 3
75 17 4 11 -1 22 -15 31 -32 21 -28 42 7 42 22 0 38 -11 69 -47 l39 -47 40 43
c32 35 44 42 62 36 21 -6 22 -8 6 -26 -10 -10 -15 -25 -12 -34 5 -12 26 -15
111 -15 57 0 111 3 120 6 22 8 20 27 -4 42 -33 20 -24 39 26 51 34 9 55 9 80
1 39 -13 43 -31 12 -52 -14 -9 -19 -20 -15 -31 6 -15 28 -17 206 -17 212 0
231 4 231 50 0 10 8 28 18 40 16 20 23 21 48 13 36 -12 42 -38 14 -61 -39 -32
-7 -43 116 -40 97 3 109 5 112 22 2 10 -2 22 -9 27 -16 9 -12 14 17 23 17 5
28 -2 54 -34 31 -39 34 -40 91 -40 66 0 84 16 55 49 -33 37 -7 56 70 49 31 -2
40 -7 42 -25 2 -14 -3 -23 -17 -28 -25 -8 -28 -30 -5 -39 20 -8 188 -8 208 0
22 9 20 31 -4 39 -22 7 -28 44 -7 49 55 15 73 25 84 46 8 16 9 30 2 42 -13 25
-37 23 -44 -4 -6 -22 -9 -23 -136 -22 -78 1 -135 6 -142 13 -7 7 -13 7 -21 -2
-8 -9 -32 -11 -76 -9 l-65 5 -49 99 c-46 94 -83 137 -105 124 -12 -8 -13 -129
-1 -162 6 -16 20 -27 40 -30 16 -4 30 -13 30 -20 0 -11 -19 -14 -88 -13 -48 0
-109 -2 -135 -6 -56 -9 -66 5 -50 68 12 45 1 91 -20 85 -6 -3 -13 -22 -15 -44
-1 -21 -5 -54 -8 -72 l-5 -33 -147 3 -147 3 3 28 c2 18 -2 29 -13 33 -20 8
-36 -12 -32 -41 2 -17 -6 -21 -60 -28 -61 -8 -63 -8 -87 20 l-25 28 -1 -29 c0
-24 -3 -28 -22 -22 -13 3 -40 6 -61 6 -35 0 -37 2 -27 20 8 14 8 26 0 41 -10
19 -13 19 -33 6 -14 -9 -22 -25 -22 -41 1 -23 -3 -26 -32 -26 -18 0 -36 -1
-40 -2 -20 -7 -11 45 16 98 l29 58 5 -35 c2 -19 5 -2 5 36 1 39 5 94 8 123 4
31 3 52 -3 52 -5 0 -29 -46 -53 -102 -70 -166 -101 -228 -113 -228 -12 0 -34
47 -110 230 -21 52 -43 99 -48 105 -5 5 -9 -45 -9 -124z m-525 -61 c3 -6 -1
-13 -10 -16 -19 -8 -30 0 -20 15 8 14 22 14 30 1z m1448 -217 c4 -3 0 -15 -10
-25 -24 -26 -99 -25 -106 2 -4 17 1 19 47 23 28 2 54 4 57 5 3 1 9 -1 12 -5z"/>
<path d="M4830 4465 c0 -8 9 -15 19 -15 11 0 27 -7 35 -16 15 -14 16 -13 16 9
0 17 -7 27 -22 31 -36 9 -48 7 -48 -9z"/>
<path d="M5340 4465 c0 -8 9 -15 19 -15 11 0 27 -10 35 -22 16 -22 16 -22 16
9 0 23 -5 32 -22 37 -36 9 -48 7 -48 -9z"/>
<path d="M5867 4474 c-10 -11 2 -24 23 -24 10 0 24 -8 29 -17 9 -15 10 -14 11
10 0 17 -5 27 -14 27 -8 0 -21 2 -28 5 -8 3 -17 3 -21 -1z"/>
<path d="M6907 4433 c-9 -27 -17 -51 -17 -55 0 -15 38 -8 44 8 3 9 13 14 20
11 12 -5 12 1 -1 39 -8 24 -18 44 -22 44 -4 0 -15 -21 -24 -47z"/>
<path d="M7280 4465 c0 -8 7 -15 15 -15 8 0 24 -9 35 -20 l20 -20 0 35 c0 33
-2 35 -35 35 -24 0 -35 -5 -35 -15z"/>
<path d="M8780 4466 c0 -9 8 -16 17 -16 9 0 25 -7 35 -17 17 -15 18 -15 18 10
0 15 -6 27 -12 27 -7 0 -23 3 -35 6 -17 5 -23 2 -23 -10z"/>
<path d="M9343 4467 c2 -6 12 -14 23 -15 10 -2 24 -10 30 -18 10 -13 12 -13
18 1 10 27 -4 42 -40 43 -24 1 -34 -3 -31 -11z"/>
<path d="M10406 4448 c-29 -72 -30 -78 -2 -78 17 0 26 5 26 16 0 11 5 14 16
10 16 -6 15 3 -7 62 -11 30 -18 28 -33 -10z"/>
<path d="M13740 4466 c0 -10 8 -16 23 -16 13 0 28 -5 34 -11 8 -8 13 -7 18 1
10 16 -5 28 -43 36 -25 5 -32 3 -32 -10z"/>
<path d="M14670 4465 c0 -8 9 -15 19 -15 11 0 27 -7 35 -16 15 -14 16 -13 16
13 0 25 -4 28 -35 30 -26 2 -35 -1 -35 -12z"/>
<path d="M16830 4466 c0 -9 8 -16 19 -16 11 0 27 -7 35 -16 15 -14 16 -13 16
10 0 14 -6 26 -12 26 -7 0 -23 3 -35 6 -17 5 -23 2 -23 -10z"/>
<path d="M17955 4470 c-3 -6 2 -13 12 -16 10 -3 26 -10 36 -15 13 -7 17 -5 17
10 0 11 -9 21 -22 25 -31 8 -36 8 -43 -4z"/>
<path d="M19580 4465 c0 -8 7 -15 15 -15 8 0 24 -9 35 -20 l20 -20 0 35 c0 33
-2 35 -35 35 -24 0 -35 -5 -35 -15z"/>
<path d="M19697 4343 c4 -122 7 -140 25 -155 11 -10 26 -18 34 -18 8 0 14 -8
14 -17 0 -15 -8 -18 -53 -15 -29 2 -77 -1 -105 -6 -51 -9 -52 -9 -58 15 -4 14
-1 42 5 64 9 28 9 44 1 59 -24 44 -38 18 -42 -79 l-3 -53 -145 3 c-251 5 -300
0 -300 -32 0 -12 10 -23 25 -29 30 -11 32 -35 5 -52 -11 -7 -20 -18 -20 -24 0
-18 61 -24 237 -24 175 0 193 5 193 55 0 13 10 35 23 50 l22 25 37 -17 c38
-18 50 -47 28 -69 -8 -8 -1 -40 22 -105 29 -86 32 -107 36 -245 4 -131 1 -162
-18 -240 -41 -162 -131 -327 -248 -457 -34 -37 -62 -70 -62 -73 0 -13 122 92
207 178 101 102 113 126 150 298 28 132 23 336 -11 460 -39 138 -39 134 14
140 53 6 64 29 25 54 -35 23 -31 36 10 36 25 0 39 -6 52 -26 48 -69 68 -75 94
-28 17 32 40 45 68 37 l22 -6 -20 -18 c-11 -11 -18 -26 -15 -34 9 -21 226 -22
243 -1 9 11 8 17 -7 28 -40 28 -34 44 22 57 88 20 137 -15 84 -60 -20 -16 -21
-20 -8 -29 21 -14 317 -12 359 3 58 20 113 98 134 189 21 86 14 129 -23 163
-27 24 -32 17 -19 -28 18 -67 -13 -132 -78 -166 -25 -13 -243 -15 -243 -3 0 4
5 13 12 20 10 10 8 16 -5 29 -16 16 -18 16 -34 0 -13 -13 -14 -19 -5 -29 21
-21 14 -25 -55 -32 -64 -7 -67 -6 -89 21 -22 27 -23 27 -24 6 0 -30 -5 -31
-85 -23 -38 3 -91 3 -117 0 -40 -5 -47 -4 -52 13 -5 19 43 127 56 127 4 0 9
-12 11 -27 2 -16 5 28 6 96 0 68 -2 121 -5 118 -6 -6 -94 -201 -131 -289 -9
-21 -21 -38 -28 -38 -10 0 -100 190 -145 308 -7 17 -16 32 -20 32 -5 0 -6 -62
-3 -137z m-274 -269 c13 -13 -42 -44 -77 -44 -25 0 -38 6 -46 19 -9 18 -6 20
37 24 27 2 55 4 64 5 9 1 19 -1 22 -4z"/>
<path d="M20820 4466 c0 -9 8 -16 17 -16 9 0 25 -7 35 -17 17 -15 18 -15 18
10 0 15 -6 27 -12 27 -7 0 -23 3 -35 6 -17 5 -23 2 -23 -10z"/>
<path d="M21985 4470 c-4 -6 7 -15 24 -21 17 -6 31 -16 31 -22 0 -7 5 -5 10 5
15 26 1 48 -30 48 -16 0 -32 -5 -35 -10z"/>
<path d="M22557 4474 c-10 -11 2 -24 23 -24 10 0 24 -8 29 -17 9 -15 10 -14
11 10 0 17 -5 27 -14 27 -8 0 -21 2 -28 5 -8 3 -17 3 -21 -1z"/>
<path d="M3807 4403 c-4 -19 2 -32 22 -49 44 -39 49 -34 25 25 -19 49 -40 59
-47 24z"/>
<path d="M11690 4420 c0 -5 -8 -10 -18 -10 -24 0 -43 -22 -77 -89 l-26 -53 22
-24 22 -24 23 25 c18 19 22 33 17 55 -4 25 1 37 31 70 20 23 34 45 31 50 -8
13 -25 13 -25 0z"/>
<path d="M14277 4423 c-10 -10 -8 -61 3 -81 5 -9 20 -44 32 -77 l23 -60 45 2
c92 4 105 8 108 34 4 39 -31 82 -95 116 -32 18 -67 41 -78 53 -19 21 -28 24
-38 13z"/>
<path d="M21825 4378 c-3 -18 -16 -61 -27 -96 -11 -35 -18 -66 -15 -69 12 -11
56 47 67 87 11 41 6 95 -10 105 -5 3 -11 -9 -15 -27z"/>
<path d="M11344 4335 c-14 -38 -15 -52 -5 -85 12 -41 43 -70 73 -70 10 0 18 6
18 14 0 21 19 30 35 16 12 -10 16 -9 21 3 7 18 -93 166 -113 166 -6 1 -19 -19
-29 -44z"/>
<path d="M20459 4373 c-5 -33 4 -170 12 -177 5 -6 16 -3 27 7 10 10 42 23 70
29 51 12 52 13 52 50 0 50 -8 66 -41 83 -29 15 -118 21 -120 8z"/>
<path d="M8950 4287 c0 -91 13 -117 58 -117 12 0 22 -6 22 -14 0 -20 -245 -28
-277 -9 -29 17 -33 16 -33 -3 0 -13 -7 -15 -42 -9 -58 10 -207 8 -243 -2 -37
-12 -39 -34 -2 -51 29 -14 38 -52 12 -52 -21 0 -31 -30 -14 -41 24 -15 255
-11 268 4 12 15 -3 37 -25 37 -13 0 -27 28 -19 39 2 5 27 11 55 14 88 11 127
-22 78 -64 -20 -16 -21 -20 -8 -28 16 -11 469 -15 495 -5 22 9 18 22 -16 51
-18 16 -27 29 -21 35 5 5 40 8 78 6 62 -3 69 -5 66 -22 -2 -11 -13 -27 -25
-37 -42 -35 14 -47 152 -33 64 7 76 20 40 42 -30 19 -19 44 26 56 29 9 42 19
49 39 8 22 7 30 -4 37 -11 7 -17 4 -21 -7 -5 -14 -23 -17 -131 -16 -69 0 -131
4 -137 8 -7 4 -17 3 -24 -2 -7 -5 -67 -7 -134 -5 -97 3 -123 7 -123 18 0 8 10
14 24 14 14 0 27 4 30 8 6 9 -132 192 -145 192 -5 0 -9 -38 -9 -83z m98 -249
c-3 -7 -11 -13 -18 -13 -7 0 -15 6 -17 13 -3 7 4 12 17 12 13 0 20 -5 18 -12z"/>
<path d="M14580 4345 c26 -69 0 -151 -61 -192 -30 -19 -50 -25 -98 -24 -33 0
-70 5 -81 11 -12 6 -34 8 -51 5 -19 -4 -29 -3 -29 5 0 9 -3 10 -13 1 -20 -16
-27 -4 -27 43 0 23 -3 51 -6 63 -11 41 -24 13 -24 -53 l0 -64 -67 0 c-38 0
-143 -1 -235 -3 -187 -2 -186 -3 -166 69 10 39 4 84 -12 84 -16 0 -30 -47 -30
-101 l0 -49 -192 0 c-215 1 -261 -4 -256 -29 2 -9 13 -20 26 -26 28 -12 30
-51 2 -60 -36 -11 -22 -32 26 -39 73 -10 343 -7 363 4 10 5 22 25 25 44 9 47
28 61 69 50 39 -12 50 -48 18 -59 -25 -8 -28 -30 -5 -39 21 -8 207 -8 323 1
l91 6 11 43 c11 43 34 73 46 61 3 -4 11 -28 18 -54 l12 -48 59 -9 c142 -23
206 -5 257 72 28 44 67 164 67 209 0 31 -36 93 -58 101 -9 3 -10 -3 -2 -23z
m-1014 -296 c-33 -26 -92 -25 -106 0 -9 19 -6 20 47 23 78 4 88 0 59 -23z
m534 23 c0 -23 -41 -44 -85 -44 -51 0 -71 12 -62 36 5 13 22 16 77 16 38 0 70
-4 70 -8z m338 -17 c2 -2 2 -11 -1 -20 -11 -26 -62 -19 -82 12 l-17 26 47 -7
c27 -3 50 -8 53 -11z"/>
<path d="M14850 4286 c0 -63 4 -87 15 -96 13 -11 18 -10 28 2 11 14 33 19 146
32 29 3 36 17 26 53 -5 23 -7 24 -19 8 -10 -14 -17 -15 -31 -8 -10 6 -37 8
-61 5 -36 -4 -44 -2 -44 12 0 12 10 16 46 16 25 0 54 5 64 10 13 7 21 7 25 0
12 -20 25 -9 25 20 l0 30 -110 0 -110 0 0 -84z"/>
<path d="M21409 4362 c-6 -57 1 -91 27 -122 15 -17 29 -29 31 -26 3 3 -5 35
-17 73 -23 68 -39 98 -41 75z"/>
<path d="M8281 4338 c-34 -90 -41 -120 -31 -139 11 -20 40 -26 40 -8 0 8 13 9
39 5 22 -3 63 -1 91 6 47 11 54 10 66 -7 28 -38 25 11 -4 86 l-30 74 -81 3
c-77 3 -82 2 -90 -20z m84 -48 c3 -6 -1 -13 -10 -16 -19 -8 -30 0 -20 15 8 14
22 14 30 1z"/>
<path d="M15573 4335 c-4 -11 -8 -49 -8 -85 2 -156 126 -273 290 -273 127 0
191 45 246 173 39 92 50 164 24 158 -10 -2 -25 -24 -37 -55 -38 -104 -134
-148 -270 -123 -108 19 -180 78 -219 179 -15 40 -18 43 -26 26z m441 -260 c-7
-16 -82 -55 -107 -55 -24 0 -97 31 -97 41 0 5 28 9 63 10 34 1 73 5 87 9 41
13 60 12 54 -5z"/>
<path d="M6854 4295 c-33 -81 -27 -125 18 -125 14 0 18 -5 14 -16 -3 -9 -6
-17 -6 -20 0 -2 -20 -1 -44 2 -25 4 -65 3 -90 0 -36 -6 -46 -11 -46 -26 0 -13
9 -22 25 -26 32 -8 32 -27 -2 -58 -20 -19 -23 -26 -12 -30 27 -8 120 -15 134
-9 19 7 19 27 0 43 -20 17 -19 39 3 46 62 20 73 28 79 56 3 16 19 38 36 50 25
18 34 20 58 11 35 -14 35 -12 5 68 l-24 64 -66 3 -67 3 -15 -36z m84 -47 c-6
-18 -28 -21 -28 -4 0 9 7 16 16 16 9 0 14 -5 12 -12z"/>
<path d="M10351 4307 c-28 -74 -34 -106 -21 -122 7 -8 21 -15 32 -15 13 0 18
-6 16 -17 -3 -15 -12 -17 -56 -15 -111 8 -174 -24 -102 -51 36 -14 37 -17 5
-55 -14 -17 -25 -33 -25 -36 0 -3 36 -6 80 -6 85 0 97 8 58 39 -26 22 -18 51
14 51 34 0 68 27 68 55 0 16 11 30 36 45 30 19 39 21 61 11 25 -11 25 -11 20
16 -3 15 -15 49 -26 76 l-20 47 -66 0 c-59 0 -66 -2 -74 -23z m77 -59 c-6 -18
-28 -21 -28 -4 0 9 7 16 16 16 9 0 14 -5 12 -12z"/>
<path d="M6186 4293 c-4 -9 -9 -42 -13 -72 -5 -54 -4 -59 39 -121 59 -86 120
-120 218 -120 84 0 114 11 162 57 26 25 40 51 49 87 6 28 20 68 31 89 11 22
17 45 14 53 -9 25 -34 15 -41 -16 -8 -38 -48 -86 -89 -107 -19 -10 -56 -16
-97 -16 -114 0 -208 59 -240 151 -12 35 -24 41 -33 15z m384 -224 c-13 -23
-67 -49 -101 -49 -12 0 -38 10 -58 23 l-36 22 84 7 c46 4 86 9 89 12 3 3 11 6
19 6 11 0 11 -4 3 -21z"/>
<path d="M16892 4270 c0 -19 2 -27 5 -17 2 9 2 25 0 35 -3 9 -5 1 -5 -18z"/>
<path d="M17650 4286 c0 -21 11 -25 38 -15 28 11 20 29 -14 29 -14 0 -24 -6
-24 -14z"/>
<path d="M20342 4270 c0 -14 2 -19 5 -12 2 6 2 18 0 25 -3 6 -5 1 -5 -13z"/>
<path d="M20882 4265 c0 -16 2 -22 5 -12 2 9 2 23 0 30 -3 6 -5 -1 -5 -18z"/>
<path d="M4394 4266 c-3 -8 -4 -27 -2 -43 4 -40 42 -40 46 0 5 42 -31 77 -44
43z"/>
<path d="M5401 4264 c0 -11 3 -14 6 -6 3 7 2 16 -1 19 -3 4 -6 -2 -5 -13z"/>
<path d="M22042 4260 c0 -14 2 -19 5 -12 2 6 2 18 0 25 -3 6 -5 1 -5 -13z"/>
<path d="M20650 4215 c-19 -22 -7 -41 13 -21 18 19 22 36 8 36 -5 0 -14 -7
-21 -15z"/>
<path d="M21155 4213 c-8 -22 31 -61 46 -46 8 8 7 16 -2 32 -18 28 -36 33 -44
14z"/>
<path d="M11247 4193 c-2 -4 -8 -26 -11 -48 -5 -31 -2 -50 16 -84 46 -89 120
-112 213 -67 l55 28 34 -21 c48 -30 116 -28 146 3 14 16 20 31 16 42 -6 15 -8
15 -30 1 -17 -12 -26 -13 -35 -4 -17 17 -13 27 12 27 45 0 106 56 107 98 0 29
-17 28 -42 -4 -12 -14 -31 -29 -43 -34 -34 -13 -95 5 -128 39 l-31 30 -38 -34
c-33 -30 -45 -35 -89 -35 -55 0 -80 10 -120 47 -15 14 -29 21 -32 16z"/>
<path d="M20065 4180 c-3 -5 1 -10 10 -10 9 0 13 5 10 10 -3 6 -8 10 -10 10
-2 0 -7 -4 -10 -10z"/>
<path d="M3670 4155 c0 -24 -1 -25 -59 -19 -118 13 -200 -20 -121 -47 37 -13
37 -23 5 -55 -14 -14 -25 -29 -25 -34 0 -6 40 -10 90 -10 71 0 90 3 90 14 0 8
-9 17 -19 21 -19 6 -34 39 -23 49 3 3 18 6 34 6 17 0 39 10 53 25 28 27 31 45
13 63 -20 20 -38 14 -38 -13z"/>
<path d="M8316 4173 c-3 -3 -6 -15 -6 -25 0 -16 -6 -17 -59 -12 -118 13 -200
-20 -121 -47 37 -13 38 -31 5 -57 -43 -34 -32 -42 65 -42 93 0 113 11 70 38
-11 7 -20 21 -20 32 0 15 7 20 29 20 35 0 81 34 81 60 0 20 -32 44 -44 33z"/>
<path d="M14924 4171 c4 -5 4 -15 1 -23 -4 -10 -25 -12 -86 -9 -44 2 -105 0
-135 -4 -45 -5 -54 -10 -54 -26 0 -13 10 -24 30 -30 35 -13 38 -32 9 -53 -13
-9 -19 -21 -16 -30 10 -24 225 -23 234 1 4 11 -1 22 -15 31 -34 23 -26 39 26
49 85 17 142 -14 90 -49 -14 -9 -19 -20 -15 -31 7 -19 74 -23 175 -11 57 7 63
17 30 43 -25 21 -19 51 10 51 24 0 72 37 72 55 0 7 -6 18 -14 24 -11 10 -15 9
-18 -5 -3 -15 -19 -17 -141 -17 -130 0 -139 1 -153 21 -14 21 -42 32 -30 13z"/>
<path d="M18810 4150 c0 -20 -3 -21 -47 -14 -61 9 -157 10 -205 0 -48 -9 -52
-39 -8 -55 38 -13 38 -23 -2 -55 -24 -18 -28 -26 -18 -30 26 -8 214 -16 238
-10 27 8 29 30 3 39 -21 6 -34 31 -25 46 3 5 16 9 28 9 34 0 78 38 74 64 -4
29 -38 35 -38 6z"/>
<path d="M10030 4146 c0 -11 -16 -13 -84 -9 -110 7 -178 -3 -174 -25 2 -9 16
-23 31 -30 33 -16 34 -27 2 -56 -13 -13 -22 -26 -18 -29 3 -4 52 -7 108 -7 56
0 105 3 108 7 4 3 -5 17 -19 30 -32 29 -27 45 17 56 19 5 40 13 47 19 17 15
15 58 -3 58 -8 0 -15 -6 -15 -14z"/>
<path d="M10730 4147 c0 -10 -32 -13 -137 -12 -136 0 -138 0 -141 -22 -2 -17
3 -26 21 -32 34 -13 40 -36 15 -53 -35 -23 -17 -48 34 -48 94 0 178 13 178 26
0 8 -4 14 -9 14 -14 0 -41 29 -41 44 0 8 17 16 39 20 42 6 74 37 64 62 -7 18
-23 18 -23 1z"/>
<path d="M18207 4146 c-4 -11 -23 -13 -90 -9 -111 7 -179 -3 -175 -25 2 -9 16
-23 31 -30 34 -17 34 -30 0 -59 -44 -35 -17 -45 102 -37 55 3 102 8 105 11 3
3 -5 13 -17 23 -35 28 -30 56 12 64 37 7 67 39 58 62 -7 18 -19 18 -26 0z"/>
<path d="M18657 3768 c-6 -171 -25 -327 -51 -440 -69 -288 -217 -581 -410
-807 -82 -97 -121 -147 -137 -178 -14 -25 -159 -131 -307 -223 -56 -35 -101
-65 -99 -66 7 -7 167 66 287 131 243 131 331 187 350 225 10 19 43 75 74 124
79 126 179 327 209 421 82 257 112 437 123 737 6 177 0 238 -24 238 -5 0 -12
-73 -15 -162z"/>
<path d="M7080 3800 c6 -11 13 -20 16 -20 2 0 0 9 -6 20 -6 11 -13 20 -16 20
-2 0 0 -9 6 -20z"/>
<path d="M7865 3618 c-4 -27 -5 -126 -3 -220 4 -145 9 -189 31 -268 49 -182
138 -381 254 -569 36 -58 75 -124 87 -145 12 -23 50 -60 94 -92 39 -30 72 -58
72 -63 0 -19 67 -50 378 -171 45 -18 84 -31 86 -29 2 2 -51 39 -117 81 -163
102 -259 175 -283 212 -34 53 -47 71 -128 167 -254 300 -402 642 -450 1039
-12 102 -13 103 -21 58z"/>
<path d="M17686 3648 c-2 -7 -14 -62 -27 -123 -57 -273 -167 -539 -319 -770
-100 -151 -157 -222 -280 -348 -124 -128 -219 -210 -350 -299 -169 -116 -183
-121 -70 -28 36 30 69 57 74 62 11 9 -89 -28 -124 -47 -139 -72 -496 -199
-735 -261 -32 -8 -37 -10 -100 -29 -33 -11 -67 -19 -75 -19 -21 -1 -70 -34
-70 -47 0 -6 19 -8 48 -4 26 3 70 7 97 10 142 15 281 44 407 85 51 16 94 28
95 26 6 -5 -203 -86 -290 -112 -165 -50 -348 -87 -489 -100 -43 -4 -78 -11
-78 -17 0 -10 68 -6 290 14 134 13 599 102 804 155 139 36 206 61 206 75 0 11
234 195 319 251 76 50 101 58 101 34 0 -18 30 -29 35 -13 2 6 9 36 16 66 28
126 99 265 246 484 53 78 108 163 123 188 48 81 192 717 173 766 -7 17 -23 17
-27 1z m-1136 -1643 c0 -2 -10 -9 -22 -15 -22 -11 -22 -10 -4 4 21 17 26 19
26 11z"/>
<path d="M6830 3565 c-1 -11 -5 -47 -10 -80 -16 -120 22 -295 75 -345 14 -13
25 -29 25 -35 0 -6 10 -21 23 -32 34 -32 229 -165 221 -150 -5 6 -36 44 -70
83 -110 126 -194 295 -229 459 -9 44 -21 89 -25 100 l-9 20 -1 -20z"/>
<path d="M8850 3454 c0 -94 29 -261 67 -378 38 -120 51 -186 36 -186 -5 0 -20
11 -33 25 -13 14 -30 25 -38 25 -15 0 -13 -3 137 -196 150 -193 228 -325 272
-459 18 -58 23 -96 25 -220 2 -82 3 -152 4 -154 0 -3 11 6 25 19 23 21 25 31
25 105 0 46 3 97 6 114 6 29 10 32 33 26 14 -3 49 -20 78 -37 60 -36 306 -227
345 -267 22 -24 68 -40 297 -105 255 -72 282 -78 488 -101 292 -33 494 -48
505 -37 5 5 -24 12 -69 16 -166 15 -367 59 -556 123 -114 38 -137 52 -47 28
76 -20 262 -53 340 -60 187 -16 182 -16 178 3 -2 9 -8 17 -13 17 -6 1 -25 9
-44 19 -19 10 -46 20 -60 21 -14 2 -35 6 -46 9 -28 8 -168 49 -297 85 -60 17
-125 38 -145 45 -21 8 -76 29 -123 46 -208 78 -587 300 -715 418 -46 43 -17 1
53 -76 12 -14 22 -26 22 -28 0 -30 -217 196 -317 331 -186 249 -309 505 -398
828 -9 31 -21 57 -26 57 -5 0 -9 -25 -9 -56z"/>
<path d="M22074 3138 c-303 -229 -659 -452 -960 -600 -446 -220 -923 -369
-1224 -383 -52 -2 -83 -1 -67 1 60 11 20 23 -95 27 -145 5 -250 24 -339 62
-35 15 -75 29 -89 32 -14 3 -31 10 -37 16 -23 17 -14 -9 12 -37 45 -48 4 -27
-49 27 -29 28 -61 73 -72 99 -10 27 -21 48 -24 48 -3 0 -73 -39 -155 -86 -349
-200 -894 -452 -1230 -568 -55 -20 -90 -35 -79 -36 30 0 189 33 309 66 55 14
222 48 370 74 262 45 272 48 316 82 62 47 211 122 283 143 80 23 179 16 243
-17 27 -13 97 -50 157 -83 l110 -58 210 -14 c233 -16 190 -20 496 48 335 74
630 183 1000 369 295 149 592 336 720 452 127 117 320 303 320 310 0 4 -9 10
-21 13 -19 6 -17 11 25 55 46 49 54 64 38 74 -5 3 -80 -49 -168 -116z m-2311
-995 c-7 -2 -19 -2 -25 0 -7 3 -2 5 12 5 14 0 19 -2 13 -5z"/>
<path d="M4344 3186 c32 -43 33 -52 1 -60 -14 -4 -25 -12 -25 -19 0 -12 199
-198 339 -316 144 -122 452 -311 741 -456 343 -172 671 -290 995 -360 66 -14
147 -32 180 -41 53 -13 87 -13 288 0 144 8 232 18 242 26 16 14 154 88 234
127 72 34 166 41 247 18 68 -19 257 -116 294 -151 20 -18 59 -30 180 -54 85
-17 215 -46 290 -65 74 -19 171 -39 215 -45 44 -6 126 -19 183 -30 98 -19 158
-25 122 -13 -113 38 -371 137 -465 178 -284 123 -525 242 -524 257 0 10 2 10
6 0 2 -6 9 -10 14 -6 5 3 9 0 9 -6 0 -6 5 -8 10 -5 6 3 10 1 10 -5 0 -6 5 -8
10 -5 6 3 10 2 10 -4 0 -6 7 -7 17 -4 10 4 14 2 10 -4 -3 -5 -1 -10 6 -10 7 0
28 -7 47 -15 19 -9 53 -24 75 -33 22 -10 43 -20 48 -22 4 -2 7 -2 7 1 0 2 -78
43 -172 90 -176 87 -252 128 -368 195 -36 21 -72 40 -82 44 -24 8 -30 -4 -10
-20 9 -8 -14 2 -53 21 -38 20 -72 36 -76 36 -3 0 -12 -18 -19 -41 -16 -48 -78
-121 -131 -155 -45 -28 -177 -74 -211 -73 -17 0 -12 5 20 17 40 15 61 39 25
28 -51 -16 -185 -27 -318 -26 -136 2 -150 0 -147 -15 2 -11 -1 -14 -8 -10 -6
4 -9 12 -7 18 4 13 -111 39 -127 29 -13 -7 22 -20 56 -21 15 -1 30 -6 34 -12
4 -8 -3 -9 -22 -5 -16 3 -45 8 -64 11 -155 24 -309 64 -540 142 -436 146 -963
436 -1449 796 -152 112 -193 133 -147 73z"/>
<path d="M7562 3055 c49 -92 79 -177 85 -246 5 -63 0 -84 -39 -166 -2 -3 7 -9
19 -14 34 -12 63 50 63 133 -1 73 -23 136 -94 257 -55 93 -79 118 -34 36z"/>
<path d="M19795 2902 c6 -20 -10 -33 -215 -179 -92 -66 -286 -192 -362 -236
-81 -47 -53 -40 55 14 209 105 471 261 507 302 50 57 54 66 41 93 -12 28 -35
33 -26 6z"/>
<path d="M6755 2798 l4 -63 198 -91 c109 -50 244 -114 301 -142 107 -55 136
-62 55 -15 -93 53 -303 193 -426 282 -69 50 -128 91 -130 91 -3 0 -3 -28 -2
-62z"/>
<path d="M18870 2697 c0 -26 6 -36 25 -45 14 -6 25 -9 25 -6 0 9 -40 84 -45
84 -3 0 -5 -15 -5 -33z"/>
<path d="M6360 2220 c0 -5 5 -10 10 -10 6 0 10 5 10 10 0 6 -4 10 -10 10 -5 0
-10 -4 -10 -10z"/>
<path d="M7120 2210 c-8 -5 -10 -10 -5 -10 6 0 17 5 25 10 8 5 11 10 5 10 -5
0 -17 -5 -25 -10z"/>
<path d="M6438 2203 c7 -3 16 -2 19 1 4 3 -2 6 -13 5 -11 0 -14 -3 -6 -6z"/>
<path d="M19938 2183 c7 -3 16 -2 19 1 4 3 -2 6 -13 5 -11 0 -14 -3 -6 -6z"/>
<path d="M19873 2173 c9 -2 23 -2 30 0 6 3 -1 5 -18 5 -16 0 -22 -2 -12 -5z"/>
<path d="M17203 2030 c0 -36 2 -50 4 -32 2 17 2 47 0 65 -2 17 -4 3 -4 -33z"/>
<path d="M11162 1863 c13 -35 23 -93 26 -146 l4 -88 23 31 c20 27 21 36 13 81
-10 56 -52 151 -74 169 -9 8 -6 -7 8 -47z"/>
<path d="M15416 1794 c-16 -16 -22 -79 -8 -87 4 -3 28 -3 55 0 37 5 47 9 47
24 0 11 -4 19 -10 19 -5 0 -10 7 -10 15 0 8 -6 15 -14 15 -8 0 -21 7 -30 15
-13 13 -16 13 -30 -1z"/>
<path d="M20640 1676 c-74 -41 -515 -214 -696 -275 -199 -66 -540 -158 -550
-149 -4 5 114 48 142 52 7 1 17 6 21 11 4 4 -3 5 -17 1 -42 -12 -412 -87 -455
-92 -22 -3 -65 -10 -95 -15 -30 -6 -89 -13 -130 -15 -41 -3 -82 -8 -90 -11 -8
-3 -118 -7 -245 -10 -126 -3 -232 -7 -234 -9 -2 -2 59 -4 137 -4 88 0 142 -4
142 -10 0 -16 -259 -12 -432 6 -248 25 -425 73 -576 154 -143 77 -220 162
-249 273 -7 28 -14 51 -15 53 -2 1 -52 -10 -111 -25 -112 -29 -127 -27 -42 4
59 22 44 32 -24 15 -27 -6 -64 -13 -82 -15 -19 -2 -85 -11 -148 -20 -63 -9
-123 -14 -133 -12 -10 3 -18 2 -18 -3 0 -4 -10 -8 -22 -7 -13 0 -45 -3 -73 -7
-53 -7 -235 -30 -375 -46 -47 -5 -111 -17 -143 -25 -32 -8 -61 -15 -65 -15 -4
0 2 -6 13 -12 11 -7 81 -15 155 -18 l135 -5 -85 -13 c-171 -25 -334 -42 -400
-42 -112 0 -89 -17 33 -24 62 -4 141 -11 177 -16 36 -5 124 -12 195 -15 220
-9 336 -16 443 -26 85 -9 107 -8 125 3 27 18 92 35 185 48 138 19 235 -18 354
-136 l77 -76 143 -50 c79 -27 238 -79 353 -115 l210 -65 155 1 c547 5 1000 75
1505 232 215 67 375 134 492 208 59 37 148 90 197 117 49 27 91 55 94 63 3 7
-6 22 -19 31 l-23 18 33 19 c44 24 71 49 71 68 0 18 -7 18 -40 1z m-1260 -424
c0 -4 -10 -9 -22 -9 -18 -2 -20 0 -8 7 18 12 30 13 30 2z m-53 -18 c-3 -3 -12
-4 -19 -1 -8 3 -5 6 6 6 11 1 17 -2 13 -5z m-137 -24 c-34 -11 -60 -11 -35 0
11 5 29 8 40 8 16 0 15 -2 -5 -8z m-80 -10 c0 -5 -8 -10 -17 -10 -15 0 -16 2
-3 10 19 12 20 12 20 0z m-60 -10 c-8 -5 -26 -9 -40 -9 l-25 1 25 8 c14 4 32
8 40 9 13 1 13 0 0 -9z m-70 -10 c0 -5 -10 -10 -22 -9 -22 0 -22 1 -3 9 11 5
21 9 23 9 1 1 2 -3 2 -9z m-115 -10 c3 -5 1 -10 -4 -10 -6 0 -11 5 -11 10 0 6
2 10 4 10 3 0 8 -4 11 -10z m45 0 c0 -5 -5 -10 -11 -10 -5 0 -7 5 -4 10 3 6 8
10 11 10 2 0 4 -4 4 -10z m-77 -7 c-7 -2 -21 -2 -30 0 -10 3 -4 5 12 5 17 0
24 -2 18 -5z m-143 -13 c-35 -11 -118 -12 -102 -1 7 4 39 8 70 8 41 0 50 -2
32 -7z m78 3 c-10 -2 -26 -2 -35 0 -10 3 -2 5 17 5 19 0 27 -2 18 -5z"/>
<path d="M5890 1655 c-9 -10 -4 -17 19 -31 38 -22 39 -37 6 -58 -14 -9 -25
-21 -25 -26 0 -5 30 -26 68 -46 37 -21 135 -77 218 -124 217 -124 471 -217
849 -310 391 -96 757 -140 1168 -140 l157 0 301 96 c413 131 393 122 485 210
122 117 219 153 356 134 88 -13 155 -29 189 -46 20 -10 48 -11 120 -4 373 38
527 50 615 50 145 0 314 12 314 22 0 4 -33 8 -73 8 -40 0 -124 6 -187 14 -63
8 -143 18 -177 21 -35 4 -63 10 -63 13 0 4 39 7 88 7 83 1 170 10 179 19 15
15 -132 49 -262 61 -59 6 -143 16 -465 61 -19 2 -53 7 -75 9 -22 2 -78 12
-125 20 -108 20 -231 30 -229 19 1 -5 1 -12 0 -15 -1 -7 -44 1 -87 15 -19 6
-23 2 -28 -26 -42 -219 -307 -380 -736 -444 -120 -18 -532 -30 -510 -15 8 6
69 11 135 12 97 2 80 4 -90 10 -274 9 -404 26 -710 89 -521 109 -620 133 -788
196 -20 8 -43 14 -49 14 -17 0 26 -29 49 -33 23 -4 93 -35 93 -40 0 -10 -315
105 -490 178 -102 42 -195 81 -207 85 -15 6 -25 5 -33 -5z m4323 -212 c-7 -2
-21 -2 -30 0 -10 3 -4 5 12 5 17 0 24 -2 18 -5z"/>
<path d="M11900 1570 c0 -77 -12 -190 -19 -190 -4 0 -5 17 -3 38 2 20 -4 54
-12 75 -19 44 -8 42 -251 27 -393 -26 -446 -31 -467 -49 -7 -6 -24 -19 -37
-29 -15 -12 -24 -29 -25 -50 0 -18 -4 -32 -8 -32 -4 0 -10 -17 -14 -37 -15
-81 -80 -174 -199 -282 -171 -155 -474 -310 -817 -417 -124 -39 -396 -106
-508 -125 -25 -4 -74 -12 -110 -18 -36 -6 -105 -16 -155 -22 -49 -6 -92 -13
-94 -15 -2 -2 20 -5 50 -5 l54 -1 -40 -9 c-22 -4 -123 -11 -225 -15 -247 -9
-534 10 -855 56 -38 6 -97 13 -130 16 -33 3 -107 14 -165 25 -58 10 -108 19
-112 19 -16 0 -7 -41 10 -47 39 -14 42 -24 17 -51 -14 -15 -24 -31 -22 -37 5
-13 355 -119 477 -144 183 -38 309 -46 705 -45 330 0 404 3 565 23 562 68
1014 211 1326 419 108 73 202 164 300 293 134 178 190 210 407 234 154 18 305
44 330 57 9 5 17 19 17 32 0 13 12 45 26 72 25 47 26 53 19 154 -4 70 -11 110
-21 120 -12 12 -14 7 -14 -40z m-720 -293 c-9 -66 -48 -149 -92 -199 l-29 -33
24 40 c13 22 34 72 46 110 23 73 53 147 56 143 2 -2 -1 -29 -5 -61z"/>
<path d="M14650 1499 c-37 -76 -46 -139 -30 -212 9 -46 16 -58 33 -61 142 -27
204 -36 375 -56 169 -19 244 -63 337 -198 126 -180 281 -312 491 -419 326
-166 693 -268 1169 -324 329 -39 896 -36 1182 6 93 14 527 138 547 156 6 5 -1
21 -19 39 -26 27 -27 30 -9 36 68 24 84 34 84 52 0 17 -4 18 -42 11 -80 -15
-223 -38 -343 -54 -66 -9 -149 -20 -185 -26 -108 -15 -487 -39 -615 -38 -172
2 -316 14 -286 24 23 8 24 9 5 16 -10 4 -37 8 -59 8 -22 1 -78 8 -125 16 -47
9 -119 22 -160 29 -446 80 -883 237 -1166 421 -98 63 -109 73 -187 153 -95 97
-156 201 -157 265 0 9 -5 17 -11 17 -5 0 -8 4 -4 9 3 5 -1 16 -9 23 -7 8 -16
24 -20 35 -4 12 -16 25 -27 28 -10 4 -17 10 -14 15 9 14 -92 29 -245 35 -216
9 -363 23 -410 40 -23 8 -49 15 -56 15 -8 0 -28 -28 -44 -61z"/>
<path d="M6364 1506 c11 -9 24 -16 30 -16 12 0 7 5 -24 19 -24 11 -24 11 -6
-3z"/>
<path d="M6410 1491 c0 -8 41 -23 47 -17 2 1 -8 8 -22 14 -14 6 -25 8 -25 3z"/>
<path d="M19570 1318 c0 -10 9 -9 35 2 17 8 16 8 -7 7 -16 -1 -28 -5 -28 -9z"/>
<path d="M18018 1193 c7 -3 16 -2 19 1 4 3 -2 6 -13 5 -11 0 -14 -3 -6 -6z"/>
<path d="M18068 1183 c6 -2 18 -2 25 0 6 3 1 5 -13 5 -14 0 -19 -2 -12 -5z"/>
<path d="M18125 1180 c-4 -6 6 -10 22 -10 22 0 25 2 13 10 -19 12 -27 12 -35
0z"/>
<path d="M8283 1173 c9 -2 25 -2 35 0 9 3 1 5 -18 5 -19 0 -27 -2 -17 -5z"/>
<path d="M8378 1173 c7 -3 16 -2 19 1 4 3 -2 6 -13 5 -11 0 -14 -3 -6 -6z"/>
<path d="M18204 1172 c7 -12 66 -14 66 -2 0 5 -16 10 -36 10 -19 0 -33 -4 -30
-8z"/>
<path d="M8018 513 c7 -3 16 -2 19 1 4 3 -2 6 -13 5 -11 0 -14 -3 -6 -6z"/>
<path d="M8058 503 c6 -2 18 -2 25 0 6 3 1 5 -13 5 -14 0 -19 -2 -12 -5z"/>
<path d="M8106 501 c-8 -12 32 -20 129 -25 l80 -4 -65 13 c-111 22 -139 25
-144 16z"/>
<path d="M18348 493 c7 -3 16 -2 19 1 4 3 -2 6 -13 5 -11 0 -14 -3 -6 -6z"/>
<path d="M18288 483 c6 -2 18 -2 25 0 6 3 1 5 -13 5 -14 0 -19 -2 -12 -5z"/>
<path d="M8325 470 c-4 -6 7 -10 27 -10 25 0 29 3 18 10 -19 13 -37 13 -45 0z"/>
<path d="M18228 473 c6 -2 18 -2 25 0 6 3 1 5 -13 5 -14 0 -19 -2 -12 -5z"/>
<path d="M8403 463 c9 -2 25 -2 35 0 9 3 1 5 -18 5 -19 0 -27 -2 -17 -5z"/>
<path d="M18098 463 c6 -2 18 -2 25 0 6 3 1 5 -13 5 -14 0 -19 -2 -12 -5z"/>
<path d="M18178 463 c7 -3 16 -2 19 1 4 3 -2 6 -13 5 -11 0 -14 -3 -6 -6z"/>
<path d="M8498 453 c12 -2 30 -2 40 0 9 3 -1 5 -23 4 -22 0 -30 -2 -17 -4z"/>
<path d="M18003 453 c9 -2 23 -2 30 0 6 3 -1 5 -18 5 -16 0 -22 -2 -12 -5z"/>
<path d="M8608 443 c12 -2 30 -2 40 0 9 3 -1 5 -23 4 -22 0 -30 -2 -17 -4z"/>
<path d="M9040 439 c0 -6 22 -9 55 -8 30 1 55 5 55 9 0 3 -25 7 -55 8 -33 1
-55 -2 -55 -9z"/>
<path d="M17375 440 c-4 -6 22 -10 70 -10 48 0 74 4 70 10 -3 6 -35 10 -70 10
-35 0 -67 -4 -70 -10z"/>
<path d="M17893 443 c9 -2 23 -2 30 0 6 3 -1 5 -18 5 -16 0 -22 -2 -12 -5z"/>
</g>
</svg>
